<svg width="360" height="480" viewBox="0 0 360 480" fill="none" xmlns="http://www.w3.org/2000/svg">
<rect width="360" height="480" rx="8" fill="url(#paint0_linear_489_1876)"/>
<path fill-rule="evenodd" clip-rule="evenodd" d="M230.799 214.779C226.707 216.12 225.944 216.509 225.343 217.564C224.88 218.374 224.857 220.848 224.857 269.7V320.987L225.739 321.892C227.006 323.192 227.844 323.182 231.831 321.821C234.971 320.75 236.939 319.674 237.531 318.701C238.09 317.786 238.189 216.735 237.633 215.332C236.86 213.384 235.411 213.266 230.799 214.779ZM234.761 218.49C235.521 219.28 235.494 225.765 234.727 226.645C233.449 228.113 228.812 229.186 227.963 228.211C227.272 227.418 227.152 221.313 227.806 220.286C228.625 218.998 233.931 217.628 234.761 218.49ZM160.988 218.472C149.409 220.876 145.466 233.227 152.001 246.623L153.494 249.685L154.518 247.452C157.113 241.788 160.029 241.514 164.457 246.519C170.786 253.674 168.802 258.895 159.696 259.053L156.649 259.105L155.281 260.278C153.353 261.93 152.845 263.352 153.165 266.2C153.695 270.931 153.313 275.466 152.121 278.559L151.596 279.923L152.586 280.264C153.832 280.692 155.191 282.28 155.669 283.867L156.036 285.085L156.362 284.016C156.832 282.465 157.274 277.005 157.078 275.167C156.888 273.391 157.507 272.13 157.889 273.514C158.932 277.286 157.783 287.863 156.006 290.847C151.991 297.591 150.178 307.483 151.68 314.46C151.831 315.161 151.752 315.302 151.104 315.489C147.006 316.67 147.356 323.196 151.542 323.658C152.885 323.806 152.999 323.752 155.609 321.723C159.256 318.891 159.438 318.32 158.1 313.887C155.991 306.896 158.658 296.08 163.506 291.967C164.56 291.073 168.965 291.101 171.436 292.018L173.107 292.638L174.001 291.758C175.46 290.325 176.002 290.588 175.015 292.25C171.328 298.457 169.893 307.087 171.264 314.812C171.983 318.863 172.252 319.425 173.668 319.834C175.13 320.255 175.096 320.727 173.587 320.982C168.815 321.789 168.919 329.309 173.703 329.309C176.734 329.309 181.244 323.243 180.088 320.72C178.163 316.521 177.68 315.225 177.331 313.337C176.096 306.644 177.501 300.208 181.568 293.928C187.002 285.535 188.468 275.324 185.148 268.993C183.466 265.785 184.449 265.748 187.247 268.914C191.227 273.417 192.825 280.41 191.258 286.46L190.99 287.493L192.023 287.292C193.292 287.046 194.804 287.709 195.997 289.035L196.842 289.974L197.345 287.546C199.252 278.344 196.697 268.841 190.705 262.845C188.995 261.136 188.073 260.492 183.591 257.877C180.222 255.913 180.308 256.252 180.249 244.647C180.195 233.922 180.001 232.453 178.019 227.75C175.121 220.876 168.028 217.011 160.988 218.472ZM234.834 231.381C235.493 232.461 235.437 238.779 234.763 239.48C234.239 240.024 229.895 241.856 229.129 241.856C227.601 241.856 226.524 234.96 227.761 233.091C228.716 231.648 234.19 230.324 234.834 231.381ZM166.417 236.603C166.526 237.019 166.693 237.898 166.79 238.557C166.955 239.688 167.009 239.744 167.757 239.565C170.486 238.911 170.337 238.916 169.919 239.498C169.283 240.387 168.109 240.925 166.808 240.925H165.579V238.264C165.579 235.584 165.956 234.836 166.417 236.603ZM153.008 240.67C153.356 242.445 153.873 242.663 155.771 241.834C156.252 241.624 156.397 241.668 156.397 242.023C156.397 242.802 154.761 243.714 153.358 243.716L152.076 243.717V241.018C152.076 237.971 152.451 237.83 153.008 240.67ZM234.761 244.23C235.327 244.818 235.498 250.988 234.979 252.101C234.615 252.882 229.624 254.727 228.641 254.444C227.359 254.074 226.784 247.482 227.896 245.906C228.885 244.503 233.857 243.289 234.761 244.23ZM174.878 250.206C175.889 251.489 174.257 253.405 173.142 252.246C172.474 251.552 172.439 250.368 173.073 249.944C173.791 249.464 174.358 249.546 174.878 250.206ZM234.655 256.914C235.261 257.402 235.583 263.152 235.087 264.637C234.718 265.74 229.739 267.751 228.588 267.261C227.407 266.759 226.863 260.894 227.814 258.912C228.46 257.566 233.598 256.065 234.655 256.914ZM180.039 259.363C180.99 260.454 180.966 262.351 179.991 263.231C178.401 264.667 176.273 263.499 176.273 261.189C176.273 258.946 178.665 257.786 180.039 259.363ZM176.224 266.543C176.784 266.79 176.776 268.095 176.212 268.343C175.345 268.725 174.69 267.491 175.355 266.727C175.734 266.292 175.68 266.304 176.224 266.543ZM234.715 269.766C235.502 270.67 235.53 277.138 234.75 277.948C234.236 278.481 229.821 280.289 228.995 280.303C227.504 280.328 226.626 273.424 227.896 271.659C228.958 270.183 233.886 268.815 234.715 269.766ZM164.118 274.263C164.967 275.751 163.314 277.355 162.223 276.101C161.676 275.474 161.684 274.767 162.245 274.055C162.867 273.266 163.596 273.347 164.118 274.263ZM165.73 279.207C166.351 279.737 165.983 280.776 165.174 280.776C164.457 280.776 164.04 279.859 164.48 279.251C164.916 278.647 165.066 278.641 165.73 279.207ZM149.902 282.611C148.792 283.529 145.691 285.303 143.929 286.027C141.356 287.083 139.182 290.195 139.916 291.769C140.337 292.673 140.647 292.559 140.988 291.375C141.451 289.763 143.844 287.433 144.535 287.923C144.696 288.037 144.263 288.802 143.517 289.726C140.496 293.459 139.959 295.129 141.499 296.006C142.583 296.623 143.155 296.24 142.864 295.09C142.4 293.255 143.378 290.462 144.828 289.478C146.032 288.662 146.026 289.039 144.795 291.417C143.29 294.326 143.143 296.234 144.413 296.376C145.421 296.488 146.134 295.788 146.134 294.688C146.134 293.658 146.572 292.708 147.431 291.877C147.873 291.449 148.141 290.869 148.148 290.326C148.156 289.768 148.304 289.459 148.565 289.459C148.888 289.459 148.953 289.823 148.886 291.265C148.705 295.11 151.38 295.191 151.725 291.351C151.825 290.243 152.058 289.448 152.383 289.111C152.66 288.823 152.886 288.417 152.886 288.208C152.886 288 153.081 287.643 153.319 287.416C155.724 285.124 152.442 280.507 149.902 282.611ZM234.83 282.659C235.378 283.288 235.449 289.813 234.917 290.641C234.076 291.951 229.038 293.352 228.098 292.538C227.3 291.846 227.124 285.455 227.874 284.392C228.873 282.975 233.995 281.699 234.83 282.659ZM191.07 289.75C190.765 289.996 190.132 291.089 189.665 292.179C188.758 294.294 188.078 294.886 186.55 294.886C185.536 294.886 185.023 295.354 185.023 296.281C185.023 297.099 185.512 297.677 186.203 297.677C186.494 297.677 186.657 297.589 186.563 297.481C186.338 297.223 186.856 296.126 187.202 296.126C187.753 296.126 187.757 297.065 187.209 297.865C186.08 299.514 186.663 303.789 188.122 304.552C189.241 305.138 189.41 304.534 188.633 302.731C188.018 301.303 187.976 301.004 188.259 300.021C188.7 298.486 188.99 298.642 189.218 300.539C189.726 304.784 191.6 307.447 192.97 305.873C193.638 305.107 193.482 304.257 192.573 303.717C191.495 303.077 190.697 301.531 190.695 300.08C190.695 298.553 191.067 298.605 191.627 300.211C192.801 303.582 194.627 305.273 195.601 303.892C196.249 302.973 196.234 302.842 195.324 301.642C193.848 299.694 193.681 297.239 194.876 295.069C196.662 291.828 193.675 287.655 191.07 289.75ZM234.715 295.506C235.192 296.054 235.255 296.54 235.255 299.697V303.268L234.377 303.89C233.894 304.232 232.5 304.865 231.279 305.297C227.925 306.483 227.423 305.959 227.423 301.278C227.423 297.254 227.605 296.883 229.967 296.092C231.019 295.74 232.183 295.336 232.554 295.194C233.645 294.776 234.141 294.847 234.715 295.506ZM173.792 304.9C174.151 305.554 173.447 306.476 172.804 306.193C172.162 305.91 172.026 305.203 172.508 304.65C172.998 304.087 173.387 304.163 173.792 304.9ZM234.715 308.221C235.192 308.769 235.255 309.254 235.255 312.385C235.255 316.68 235.333 316.558 231.714 317.876L229.012 318.86L228.285 318.237C227.466 317.535 227.043 311.787 227.706 310.365C228.458 308.75 233.763 307.128 234.715 308.221ZM175.957 311.81C176.815 312.794 176.321 314.423 175.166 314.423C173.503 314.423 173.55 311.381 175.214 311.331C175.389 311.326 175.724 311.542 175.957 311.81Z" fill="#FAF9F9"/>
<path fill-rule="evenodd" clip-rule="evenodd" d="M162.45 143.253C157.693 143.564 150.089 144.475 149.918 144.754C149.843 144.878 148.748 145.167 147.485 145.396C139.492 146.848 137.813 149.346 143.434 151.422C146.428 152.528 152.533 153.612 160.583 154.467C165.778 155.019 191.582 155.018 196.771 154.466C208.955 153.17 214.83 151.763 216.724 149.685L217.561 148.766L216.697 147.879C215.686 146.841 214.003 146.214 210.274 145.489C208.789 145.2 207.513 144.879 207.439 144.775C207.049 144.229 197.188 143.298 189.007 143.036L182.593 142.829V145.481V148.132L183.563 148.34C187.392 149.166 186.26 150.754 181.423 151.339C174.819 152.139 168.377 149.931 173.211 148.525L174.761 148.073V145.501V142.929L170.373 142.975C167.959 143.001 164.394 143.126 162.45 143.253ZM148.72 155.821C147.746 156.938 148.569 159.055 149.976 159.055C150.657 159.055 151.536 157.946 151.536 157.087C151.536 155.591 149.655 154.746 148.72 155.821ZM140.193 159.963C140.193 160.917 147.281 162.623 155.009 163.527C157.142 163.777 158.941 164.044 159.007 164.119C159.073 164.195 159.15 168.099 159.179 172.794C159.228 180.595 159.337 182.142 159.798 181.613C159.886 181.512 160.025 178.921 160.108 175.854L160.258 170.279L165.687 170.326L171.116 170.374L171.251 167.669L171.386 164.964L180.838 164.817C196.595 164.574 211.458 162.848 216.077 160.725C218.291 159.708 217.269 159.345 214.866 160.295C204.173 164.52 153.136 164.502 142.425 160.27C140.754 159.61 140.193 159.533 140.193 159.963ZM166.57 164.531L170.44 164.733V167.213V169.693L167.563 169.491C165.98 169.379 163.689 169.289 162.471 169.289H160.257L160.083 166.931C159.87 164.025 159.935 163.894 161.475 164.137C162.149 164.242 164.442 164.421 166.57 164.531ZM223.305 164.39C222.098 164.758 222.04 165.016 223.035 165.573C224.584 166.441 236.333 166.293 237.115 165.397C237.778 164.634 234.454 164.103 233.501 164.819C231.999 165.949 226.073 165.671 226.073 164.47C226.073 163.942 224.885 163.908 223.305 164.39ZM135.467 168.048C132.386 168.692 131.987 168.805 126.825 170.487C112.578 175.13 111.73 181.766 124.761 186.637C153.479 197.373 223.295 195.256 239.189 183.166C241.51 181.4 242.498 178.22 241.186 176.736C240.2 175.62 237.818 173.933 237.769 174.316C237.74 174.536 237.638 176.21 237.541 178.035L237.366 181.354L236.378 181.756C235.011 182.313 224.975 182.317 223.613 181.761C222.432 181.28 222.292 180.352 222.292 172.983C222.292 170.459 222.19 168.323 222.065 168.233C221.94 168.145 221.148 167.948 220.305 167.796C218.517 167.474 218.691 167.137 218.233 171.825C217.788 176.384 217.065 179.524 216.31 180.182C209.693 185.95 157.523 186.799 143.438 181.368C140.165 180.105 139.751 179.143 139.021 171.121C138.655 167.087 138.93 167.324 135.467 168.048ZM230.282 197.522C227.045 198.634 225.441 205.054 227.505 208.636C230.437 213.724 236.054 210.681 236.063 204C236.069 199.446 233.398 196.453 230.282 197.522ZM234.604 201.276C234.788 201.617 231.72 208.67 231.388 208.672C230.95 208.675 228.24 205.717 228.237 205.233C228.229 204.1 229.215 203.578 230.008 204.293C230.913 205.111 230.896 205.127 231.99 202.529C232.907 200.353 233.862 199.896 234.604 201.276ZM212.476 205.848L208.465 206.658L208.504 271.152C208.531 316.19 208.629 335.708 208.829 335.85C208.986 335.961 209.68 336.13 210.37 336.224C212.02 336.45 216.69 338.411 215.902 338.548C215.15 338.678 210.908 337.524 209.869 336.907C209.217 336.519 208.741 336.49 207.243 336.744C187.362 340.115 143.506 337.682 130.201 332.471C125.155 330.495 124.878 330.162 124.256 325.334C123.651 320.631 123.568 320.338 122.9 320.539C122.608 320.627 122.369 320.821 122.369 320.973C122.369 321.123 122.184 321.246 121.958 321.246C120.991 321.246 117.314 323.709 116.555 324.866C116.126 325.519 115.701 326.091 115.61 326.138C115.082 326.41 115.851 329.392 116.718 330.427C125.632 341.076 178.506 345.888 216.283 339.49L218.241 339.158V272.055V204.952L217.364 204.996C216.881 205.019 214.681 205.403 212.476 205.848ZM233.666 213.607C233.435 213.775 233.756 213.818 234.504 213.722C235.176 213.635 236.005 213.727 236.363 213.928C236.978 214.271 236.984 214.265 236.487 213.808C235.919 213.285 234.27 213.168 233.666 213.607ZM225.641 216.861C225.097 217.486 224.729 218.212 224.738 218.644C224.75 219.232 224.815 219.166 225.076 218.298C225.26 217.684 225.792 216.92 226.315 216.515C226.821 216.125 227.082 215.806 226.896 215.806C226.711 215.806 226.146 216.281 225.641 216.861ZM238.088 266.976C238.088 295.034 238.119 306.512 238.158 292.483C238.198 278.454 238.198 255.497 238.158 241.468C238.119 227.44 238.088 238.918 238.088 266.976ZM227.525 224.179C227.525 226.141 227.569 226.943 227.623 225.963C227.677 224.982 227.677 223.377 227.623 222.396C227.569 221.415 227.525 222.218 227.525 224.179ZM227.471 236.953C227.444 238.947 227.515 240.644 227.626 240.724C227.737 240.803 227.796 239.73 227.756 238.339C227.625 233.78 227.519 233.264 227.471 236.953ZM165.757 235.892C165.928 236.017 166.191 236.608 166.34 237.205C166.489 237.801 166.622 238.055 166.635 237.767C166.674 236.928 166.163 235.653 165.789 235.658C165.538 235.662 165.529 235.726 165.757 235.892ZM180.231 242.321C180.233 243.004 180.289 243.246 180.354 242.86C180.418 242.475 180.416 241.917 180.348 241.62C180.281 241.323 180.227 241.639 180.231 242.321ZM228.464 241.624C228.6 241.781 228.999 241.857 229.35 241.793C229.891 241.696 229.853 241.652 229.103 241.509C228.566 241.407 228.314 241.452 228.464 241.624ZM157.57 243.394C155.96 244.222 153.791 247.975 153.549 250.353C153.495 250.882 153.379 251.9 153.289 252.616C153.127 253.927 153.584 256.664 153.904 256.296C154 256.187 154.121 255.72 154.175 255.257C154.555 251.974 158.828 252.486 158.828 255.814C158.828 256.632 157.432 258.292 156.746 258.292C156.43 258.292 156.243 258.514 156.243 258.89C156.243 259.218 156.365 259.401 156.513 259.296C156.662 259.19 158.124 259.081 159.763 259.052C164.084 258.977 166.693 257.952 167.626 255.963C169.854 251.212 161.842 241.198 157.57 243.394ZM230.529 244.498C227.604 245.498 227.423 245.795 227.423 249.623C227.423 254.831 227.835 255.193 232.021 253.668C235.262 252.488 235.255 252.501 235.255 248.127C235.255 243.345 234.837 243.024 230.529 244.498ZM163.47 249.221C165.026 250.885 165.834 252.627 165.843 254.338C165.851 255.92 165.514 255.801 164.528 253.873C164.07 252.978 163.208 251.347 162.612 250.25C160.965 247.219 161.262 246.861 163.47 249.221ZM162.857 253.917C163.428 254.835 163.607 256.262 163.19 256.557C162.685 256.916 160.718 253.737 160.718 252.563C160.718 251.842 162.122 252.73 162.857 253.917ZM230.708 257.311C227.569 258.34 227.446 258.543 227.433 262.732C227.419 267.321 227.925 267.911 231.029 266.924C235.123 265.623 235.255 265.429 235.255 260.766C235.255 256.032 235.061 255.884 230.708 257.311ZM153.255 270.542C153.256 272.248 153.301 272.906 153.356 272.005C153.41 271.103 153.41 269.708 153.354 268.904C153.299 268.099 153.254 268.836 153.255 270.542ZM230.799 270.089C227.552 271.31 227.423 271.515 227.423 275.496C227.423 280.511 227.862 280.898 231.847 279.384C235.286 278.077 235.255 278.127 235.255 273.905C235.255 268.768 234.968 268.522 230.799 270.089ZM186.988 275.659C186.988 276.426 187.04 276.74 187.105 276.357C187.169 275.973 187.169 275.345 187.105 274.961C187.04 274.577 186.988 274.891 186.988 275.659ZM158.086 279.225C158.088 279.908 158.144 280.15 158.209 279.764C158.273 279.379 158.271 278.821 158.203 278.524C158.136 278.227 158.082 278.543 158.086 279.225ZM157.011 279.69C157.011 280.458 157.064 280.772 157.128 280.388C157.192 280.004 157.192 279.376 157.128 278.993C157.064 278.609 157.011 278.923 157.011 279.69ZM165.76 279.642C165.872 280.135 165.748 280.384 165.273 280.618C164.818 280.84 164.781 280.908 165.145 280.853C165.858 280.746 166.338 279.818 165.926 279.344C165.684 279.066 165.645 279.137 165.76 279.642ZM230.529 282.952C227.487 283.993 227.358 284.23 227.469 288.582C227.594 293.47 227.965 293.746 232.196 292.096C235.244 290.907 235.255 290.889 235.255 286.631C235.255 281.751 234.885 281.463 230.529 282.952ZM154.012 284.668C154.17 285.189 154.349 285.557 154.41 285.487C154.545 285.333 154.035 283.722 153.852 283.722C153.782 283.722 153.854 284.148 154.012 284.668ZM153.988 286.183C153.976 286.428 153.697 286.986 153.366 287.423L152.767 288.219L153.534 287.399C153.956 286.949 154.235 286.391 154.155 286.159C154.037 285.819 154.005 285.824 153.988 286.183ZM192.068 287.247C192.13 287.31 192.666 287.446 193.261 287.55C194.013 287.681 194.177 287.653 193.801 287.458C193.282 287.188 191.836 287.012 192.068 287.247ZM166.057 291.39C166.542 291.459 167.271 291.457 167.677 291.387C168.083 291.316 167.686 291.259 166.795 291.261C165.903 291.262 165.571 291.321 166.057 291.39ZM186.31 294.796C186.645 294.87 187.132 294.867 187.39 294.789C187.648 294.712 187.373 294.651 186.779 294.654C186.185 294.658 185.974 294.721 186.31 294.796ZM232.555 295.194C232.183 295.336 231.019 295.741 229.967 296.093C227.606 296.883 227.423 297.255 227.423 301.279C227.423 305.96 227.926 306.483 231.28 305.298C232.501 304.866 233.895 304.232 234.378 303.89L235.255 303.269V299.698C235.255 295.164 234.765 294.347 232.555 295.194ZM151.093 308.221C151.093 309.842 151.139 310.505 151.194 309.694C151.25 308.884 151.25 307.558 151.194 306.748C151.139 305.938 151.093 306.601 151.093 308.221ZM157.291 308.376C157.292 309.4 157.343 309.781 157.403 309.224C157.463 308.666 157.462 307.829 157.4 307.363C157.339 306.897 157.29 307.353 157.291 308.376ZM231.609 308.203C227.485 309.616 227.376 309.776 227.481 314.313C227.556 317.491 227.585 317.638 228.286 318.237L229.013 318.86L231.715 317.876C235.334 316.559 235.255 316.681 235.255 312.385C235.255 307.469 234.91 307.073 231.609 308.203ZM237.17 319.197C236.998 319.434 236.493 319.803 236.048 320.014C235.602 320.226 235.291 320.461 235.357 320.535C235.53 320.735 236.992 319.817 237.401 319.251C237.594 318.984 237.691 318.765 237.617 318.765C237.543 318.765 237.341 318.96 237.17 319.197ZM225.862 322.254C226.28 322.723 226.893 323.095 227.225 323.081C227.735 323.058 227.708 323.012 227.051 322.786C226.623 322.639 226.009 322.267 225.687 321.96C225.366 321.652 225.444 321.785 225.862 322.254ZM228.639 322.797C227.903 323.012 227.891 323.035 228.504 323.049C228.875 323.057 229.422 322.943 229.719 322.797C230.385 322.468 229.764 322.468 228.639 322.797ZM119.309 340.06C119.076 340.328 119.134 345 119.386 346.211C119.532 346.916 119.631 346.449 119.794 344.272C119.951 342.169 120.108 341.404 120.379 341.404C120.582 341.404 120.749 341.543 120.749 341.714C120.749 341.885 120.901 342.023 121.087 342.023C121.272 342.023 123.156 342.67 125.273 343.462L129.121 344.903V346.118C129.121 347.643 129.652 351.72 129.889 352.01C129.986 352.13 130.045 350.329 130.018 348.009L129.97 343.789L127.858 343.041C126.696 342.63 125.381 342.106 124.935 341.877C122.628 340.691 119.609 339.716 119.309 340.06Z" fill="#04ABE2"/>
<path fill-rule="evenodd" clip-rule="evenodd" d="M191.234 120.271C191.011 120.413 190.288 120.633 189.625 120.758C188.201 121.028 185.296 122.246 184.266 123.004C181.902 124.746 179.518 127.279 178.351 129.289C177.708 130.394 177.08 131.447 176.953 131.629C175.382 133.886 174.521 139.306 174.704 145.8L174.816 149.755L175.531 149.969C176.513 150.263 180.353 150.269 181.539 149.978L182.511 149.74L182.665 145.172C182.776 141.903 182.941 140.338 183.244 139.672C183.478 139.161 183.67 138.54 183.671 138.295C183.679 136.203 188.585 130.524 190.385 130.524C190.686 130.524 191.009 130.382 191.102 130.208C191.195 130.035 191.385 129.974 191.523 130.072C191.661 130.17 191.926 130.138 192.112 130C192.583 129.651 206.194 129.614 207.843 129.957C208.586 130.111 209.74 130.315 210.407 130.408C211.075 130.502 211.683 130.686 211.758 130.816C211.832 130.947 212.38 131.235 212.974 131.457C213.568 131.678 214.601 132.14 215.27 132.484C216.47 133.102 216.696 133.2 217.093 133.276C217.204 133.298 217.656 133.672 218.096 134.107C218.537 134.541 219.317 135.195 219.829 135.559C221.992 137.094 226.612 142.529 226.612 143.537C226.612 143.728 226.855 144.185 227.152 144.551C227.449 144.916 227.693 145.455 227.693 145.745C227.693 146.036 227.875 146.354 228.098 146.452C228.32 146.55 228.503 146.845 228.503 147.105C228.503 147.971 229.044 147.601 230.644 145.642C231.513 144.576 232.905 143.215 233.737 142.618C235.476 141.369 235.494 141.307 234.543 139.7C234.152 139.038 233.673 138.147 233.48 137.719C232.654 135.891 227.689 129.947 225.656 128.352C224.919 127.773 224.195 127.128 224.047 126.917C222.862 125.235 215.405 121.838 210.699 120.836C207.374 120.129 192.146 119.686 191.234 120.271ZM217.178 124.953C217.993 125.454 217.879 127.033 216.993 127.496C215.748 128.147 214.821 126.388 215.81 125.252C216.434 124.535 216.481 124.525 217.178 124.953ZM212.026 127.264C212.475 127.885 212.176 128.663 211.489 128.663C211.182 128.663 210.861 128.452 210.775 128.194C210.62 127.73 211.095 126.802 211.489 126.802C211.601 126.802 211.843 127.01 212.026 127.264ZM182.322 134.245C182.984 135.666 181.35 136.988 180.351 135.842C179.877 135.297 179.841 135.086 180.107 134.414C180.507 133.406 181.883 133.302 182.322 134.245ZM227.287 136.416C227.287 137.3 226.435 137.675 226.177 136.905C225.932 136.169 226.279 135.426 226.814 135.545C227.113 135.611 227.287 135.932 227.287 136.416ZM179.568 142.115C179.518 142.525 179.256 142.811 178.878 142.873C178.075 143.004 177.736 142.057 178.389 141.51C179.027 140.973 179.669 141.303 179.568 142.115ZM236.476 151.72C234.549 153.932 233.904 156.206 233.904 160.779V163.989L234.917 164.183C237.552 164.689 237.604 164.815 237.67 170.839L237.702 173.785L238.976 174.712C239.677 175.221 240.342 175.686 240.453 175.745C241.114 176.096 240.508 159.073 239.702 154.66C238.718 149.276 238.654 149.217 236.476 151.72ZM230.573 153.99C230.231 154.382 230.395 155.267 230.846 155.467C231.432 155.725 232.084 154.975 231.86 154.303C231.686 153.784 230.915 153.597 230.573 153.99ZM227.863 160.951C227.223 162.002 227.777 163.072 228.966 163.082C229.86 163.089 230.271 161.996 229.731 161.05C229.201 160.121 228.395 160.078 227.863 160.951ZM257.17 161.5C256.568 161.938 256.915 162.931 257.669 162.931C258.108 162.931 258.371 162.731 258.435 162.348C258.519 161.847 258.099 161.235 257.669 161.235C257.595 161.235 257.37 161.354 257.17 161.5ZM212.127 169.532C210.831 170.465 211.084 176.886 212.417 176.886C213.13 176.886 213.457 175.31 213.333 172.473C213.233 170.211 212.766 169.072 212.127 169.532ZM206.674 170.929C206.082 171.749 205.78 174.291 206.084 175.913C206.783 179.66 207.978 178.708 207.978 174.406C207.978 171.376 207.422 169.894 206.674 170.929ZM201.064 171.821C200.697 172.502 200.614 176.626 200.944 177.774C201.646 180.217 202.642 178.585 202.64 174.995C202.639 172.132 201.803 170.448 201.064 171.821ZM253.639 175.778C252.623 176.945 253.693 178.604 254.986 177.866C255.872 177.361 255.973 176.303 255.194 175.676C254.409 175.044 254.269 175.054 253.639 175.778ZM256.322 182.465C255.874 183.086 256.172 183.864 256.859 183.864C257.166 183.864 257.487 183.653 257.573 183.395C257.728 182.931 257.253 182.003 256.859 182.003C256.747 182.003 256.505 182.211 256.322 182.465ZM242.979 186.603C242.663 187.189 242.909 191.898 243.229 191.398C243.791 190.515 245.172 191.914 244.809 192.999C244.592 193.645 243.7 194.187 243.308 193.909C243.085 193.751 243.049 194.151 243.176 195.367C243.272 196.29 243.353 197.412 243.354 197.864C243.355 198.487 243.525 198.731 244.061 198.885C244.449 198.997 245.269 199.35 245.884 199.668C246.499 199.988 247.672 200.336 248.489 200.442C249.308 200.549 250.152 200.76 250.366 200.912C251.46 201.689 251.728 200.809 251.728 196.439C251.728 191.787 251.644 191.312 250.821 191.296C250.503 191.291 249.757 191.016 249.162 190.687C248.568 190.357 247.961 190.083 247.812 190.077C247.325 190.057 244.046 187.605 243.6 186.926C243.316 186.494 243.099 186.381 242.979 186.603ZM259.562 197.457L259.563 202.626L260.51 203.367C261.03 203.773 261.607 204.433 261.791 204.832C261.975 205.231 262.474 206.117 262.901 206.799C263.742 208.145 264.351 213.847 263.995 217.047C263.634 220.292 262.963 223.627 262.64 223.769C262.45 223.852 262.216 224.363 262.121 224.903C261.614 227.801 258.106 236.328 256.544 238.465C255.975 239.243 255.509 240.022 255.509 240.195C255.509 240.368 254.908 241.207 254.174 242.059L252.839 243.607L255.877 247.086L258.914 250.564L259.925 249.438C260.481 248.818 261.238 247.761 261.607 247.089C261.976 246.416 262.514 245.596 262.803 245.265C263.441 244.532 265.771 240.169 265.771 239.707C265.771 239.525 265.872 239.375 265.995 239.375C266.118 239.375 266.504 238.677 266.852 237.825C267.199 236.972 267.592 236.274 267.724 236.274C267.855 236.274 267.897 236.15 267.815 235.997C267.673 235.733 268.373 233.567 269.129 231.932C269.684 230.732 270.406 227.646 270.651 225.42C270.773 224.311 271.06 222.148 271.289 220.613C271.517 219.078 271.832 216.706 271.989 215.341C272.147 213.977 272.343 212.353 272.424 211.734C272.512 211.069 272.452 210.521 272.278 210.397C272.116 210.281 271.983 209.602 271.983 208.887C271.983 206.599 269.932 200.051 269.084 199.632C268.965 199.573 268.393 198.854 267.813 198.033C266.394 196.025 262.75 193.293 260.573 192.606L259.56 192.287L259.562 197.457ZM143.703 231.843V257.998L144.394 258.299C145.596 258.824 147.141 258.995 148.687 258.773L150.185 258.557V250.818C150.185 243.596 150.144 242.948 149.583 241.148C148.627 238.086 148.701 231.089 149.721 228.019C150.404 225.964 150.458 225.456 150.491 220.731C150.51 217.937 150.61 214.046 150.713 212.085L150.902 208.518L150.948 211.803C150.974 213.609 151.073 217.171 151.169 219.718L151.344 224.348L152.783 222.733C157.996 216.889 168.149 216.456 174.163 221.82C178.807 225.964 180.63 232.438 180.328 243.717C180.071 253.298 180.522 255.977 182.6 257.212C183.66 257.841 183.706 257.823 184.557 256.442C186.363 253.51 186.651 249.815 185.348 246.293C182.481 238.546 183.568 231.267 188.605 224.49C191.82 220.163 192.722 217.236 192.048 213.304C191.485 210.022 191.525 209.449 192.312 209.449C193.501 209.449 194.051 211.303 194.061 215.341C194.072 219.486 193.189 222.017 190.528 225.464C185.658 231.775 184.591 238.257 187.231 245.499C188.787 249.771 188.367 254.225 186.044 258.092C185.751 258.578 185.774 258.721 186.195 259.022C194.377 264.882 197.598 270.664 197.966 280.156L198.122 284.187L198.71 282.924C199.862 280.449 200.401 277.958 200.674 273.842C201.133 266.91 204.009 260.773 206.801 260.773H207.438L207.459 234.491C207.47 220.035 207.52 207.965 207.57 207.667C207.715 206.797 207.501 206.788 201.593 207.428C184.554 209.275 162.561 208.846 147.822 206.378L143.703 205.689V231.843ZM270.044 207.67C270.16 208.604 269.331 208.974 268.843 208.207C268.569 207.777 268.556 207.535 268.789 207.213C269.233 206.599 269.943 206.858 270.044 207.67ZM132.685 209.046C132.507 209.25 132.361 209.711 132.361 210.069C132.361 210.427 132.507 210.888 132.685 211.092C132.863 211.297 133.264 211.465 133.576 211.465C133.888 211.465 134.289 211.297 134.467 211.092C134.645 210.888 134.791 210.427 134.791 210.069C134.791 209.711 134.645 209.25 134.467 209.046C134.289 208.841 133.888 208.674 133.576 208.674C133.264 208.674 132.863 208.841 132.685 209.046ZM159.503 211.156C159.908 211.669 159.939 211.912 159.686 212.552C159.154 213.892 157.476 213.42 157.476 211.93C157.476 210.544 158.664 210.091 159.503 211.156ZM230.968 218.87C227.755 219.945 227.693 220.044 227.693 224.104C227.693 229.028 227.972 229.292 231.685 227.871C235.195 226.529 235.254 226.441 235.254 222.615C235.254 219.721 235.207 219.445 234.591 218.738C233.804 217.834 234.102 217.823 230.968 218.87ZM201.642 220.788C201.933 221.328 201.536 222.545 201.017 222.701C200.16 222.958 199.336 222.404 199.336 221.571C199.336 220.103 200.974 219.546 201.642 220.788ZM281.473 222.421C281.014 223.056 281.39 223.92 282.077 223.808C282.485 223.741 282.65 223.493 282.65 222.943C282.65 222.058 281.957 221.751 281.473 222.421ZM285.925 223.72C285.031 224.746 285.567 226.04 286.885 226.04C287.473 226.04 287.675 225.861 287.816 225.217C288.152 223.68 286.854 222.653 285.925 223.72ZM130.74 223.778C128.277 224.812 128.737 228.831 131.318 228.831C133.775 228.831 134.352 224.821 132.029 223.891C131.573 223.709 131.187 223.57 131.172 223.584C131.158 223.597 130.963 223.685 130.74 223.778ZM197.696 226.339C198.519 226.844 198.919 228.361 198.522 229.463C197.56 232.128 193.898 231.124 194.296 228.305C194.578 226.313 196.163 225.396 197.696 226.339ZM134.512 231.333C134.137 232.136 134.812 233.483 135.589 233.483C136.135 233.483 136.952 232.715 136.952 232.2C136.952 230.745 135.093 230.085 134.512 231.333ZM230.585 231.893C227.677 232.891 227.702 232.847 227.697 237.079C227.691 241.978 227.902 242.156 231.903 240.626C235.094 239.405 235.254 239.155 235.254 235.379C235.254 230.669 234.906 230.409 230.585 231.893ZM263.338 233.014C263.786 233.635 263.488 234.413 262.801 234.413C262.494 234.413 262.173 234.202 262.087 233.944C261.932 233.48 262.407 232.553 262.801 232.553C262.913 232.553 263.154 232.76 263.338 233.014ZM263.186 238.312C264.002 239.249 263.532 240.616 262.396 240.616C260.764 240.616 260.812 237.883 262.443 237.834C262.619 237.828 262.953 238.044 263.186 238.312ZM201.091 242.166C201.091 243.05 200.239 243.425 199.981 242.655C199.736 241.919 200.083 241.176 200.618 241.295C200.917 241.361 201.091 241.682 201.091 242.166ZM244.841 245.147L243.761 246.241L243.681 254.065L243.601 261.89H244.551C245.18 261.89 245.733 262.139 246.184 262.626C247.645 264.202 246.625 266.976 244.584 266.976H243.626V271.007C243.626 273.842 243.719 275.039 243.937 275.039C244.359 275.039 258.75 258.492 258.75 258.007C258.75 255.808 248.391 243.997 246.5 244.04C246.182 244.047 245.436 244.546 244.841 245.147ZM257.215 257.642C256.586 258.65 246.867 247.554 246.867 245.827C246.867 245.682 249.212 248.253 252.08 251.54C254.947 254.828 257.258 257.573 257.215 257.642ZM151.459 246.599C151.26 247.196 151.204 257.982 151.4 257.982C152.14 257.982 153.714 256.641 153.515 256.18C153.392 255.892 153.286 254.261 153.281 252.555C153.272 249.467 151.947 245.138 151.459 246.599ZM203.597 246.991C204.814 247.969 203.791 250.061 202.44 249.355C201.62 248.925 201.492 247.342 202.239 246.843C202.864 246.426 202.899 246.43 203.597 246.991ZM173.326 249.967C172.757 250.332 172.732 251.573 173.283 252.098C173.825 252.615 175.033 252.024 175.026 251.244C175.018 250.126 174.124 249.455 173.326 249.967ZM269.32 254.363C268.861 254.998 269.238 255.863 269.924 255.75C270.333 255.683 270.497 255.435 270.497 254.885C270.497 254 269.805 253.693 269.32 254.363ZM250.056 256.523C250.167 257.575 249.253 258.199 248.318 257.711C247.488 257.277 247.464 256.018 248.272 255.368C249.036 254.754 249.931 255.335 250.056 256.523ZM122.161 257.052C122.161 257.649 122.216 257.893 122.285 257.595C122.352 257.296 122.352 256.808 122.285 256.509C122.216 256.211 122.161 256.455 122.161 257.052ZM270.507 258.28C270.092 258.806 270.059 259.047 270.314 259.689C270.731 260.741 272.16 260.79 272.506 259.765C273.019 258.246 271.452 257.081 270.507 258.28ZM153.364 259.499L151.547 260.618L151.451 269.857C151.352 279.259 151.437 280.273 152.15 278.215C153.031 275.674 153.232 273.456 153.058 268.216C152.86 262.317 152.956 261.955 155.174 260.126C156.318 259.182 156.388 259.053 155.957 258.691C155.378 258.204 155.56 258.147 153.364 259.499ZM176.94 259.73C175.261 262.182 177.999 265.165 179.913 262.968C181.358 261.307 180.549 258.913 178.541 258.913C177.739 258.913 177.372 259.099 176.94 259.73ZM143.703 273.224V285.935L144.311 285.727C146.245 285.064 147.906 283.82 148.373 282.685C148.639 282.037 149.186 281.291 149.588 281.026L150.32 280.544L150.245 270.736L150.171 260.928L147.93 261.035C146.697 261.094 145.242 261.001 144.696 260.828L143.703 260.513V273.224ZM206.285 263.604C204.148 265.435 202.926 268.998 202.565 274.454C202.155 280.621 200.686 284.951 198.007 287.889C197.55 288.39 197.176 289.044 197.176 289.344C197.176 289.643 197.066 289.965 196.931 290.061C196.797 290.156 196.75 290.77 196.826 291.425C196.982 292.764 196.33 294.576 195.69 294.576C194.077 294.576 193.878 299.736 195.428 301.407C196.687 302.766 195.888 305.074 194.316 304.62C193.867 304.491 193.67 304.612 193.534 305.102C192.63 308.375 189.66 305.579 189.188 301.011C188.983 299.028 188.644 298.699 188.393 300.239C188.212 301.345 188.588 302.782 189.292 303.674C189.884 304.426 189.106 305.228 188.17 304.832C186.657 304.193 185.834 299.219 186.996 297.744C187.531 297.065 187.603 296.329 187.116 296.513C186.93 296.583 186.739 296.944 186.692 297.314C186.586 298.145 185.814 298.2 185.2 297.421C184.248 296.213 185.01 294.58 186.529 294.572C188.15 294.563 190.163 292.77 189.037 292.339C188.478 292.125 189.065 289.672 189.905 288.706C193.236 284.883 191.678 273.892 187.101 268.921C184.696 266.31 183.831 266.107 185.115 268.455C186.745 271.437 187.268 273.716 187.091 277.065C186.774 283.03 184.784 289.537 182.067 293.491C177.123 300.685 175.577 310.108 178.313 316.362L178.822 317.525H182.211C188.526 317.525 205.29 318.965 205.768 319.549C205.87 319.673 204.98 319.686 203.792 319.576C196.604 318.913 179.351 318.257 179.353 318.647C179.354 318.797 179.597 319.339 179.892 319.851C181.526 322.684 177.076 329.622 173.626 329.619C168.945 329.612 168.671 322.092 173.31 320.9C174.804 320.516 174.835 320.02 173.365 320.01C172.907 320.007 172.462 319.717 172.142 319.213L171.638 318.419L165.212 318.674C159.79 318.889 158.748 319.005 158.546 319.418C158.415 319.688 157.127 320.802 155.683 321.895C151.873 324.78 149.809 324.616 148.429 321.319C147.792 319.796 147.899 319.813 143.155 320.477C135.722 321.517 130.432 322.949 127.306 324.768C125.55 325.789 125.186 325.82 126.441 324.841C129.293 322.615 134.529 320.965 143.264 319.537C145.769 319.128 147.875 318.73 147.943 318.651C148.011 318.574 148.281 318.044 148.543 317.474C148.972 316.545 150.084 315.642 151.301 315.238C151.701 315.104 151.708 314.916 151.374 313.284C150.044 306.797 151.703 298.04 155.522 291.384C157.58 287.795 158.633 280.528 157.902 274.936C157.553 272.262 157.206 273.422 157.2 277.287C157.189 283.648 155.363 288.975 153.187 288.999C151.999 289.012 151.836 289.631 151.279 296.282C151.151 297.817 151.032 299.212 151.016 299.383C150.907 300.537 150.462 298.367 150.459 296.662C150.455 294.722 150.404 294.539 149.796 294.273C148.795 293.836 148.49 292.944 148.836 291.466C149.127 290.226 149.032 289.614 148.548 289.614C148.408 289.614 148.294 289.983 148.294 290.434C148.294 290.988 147.981 291.567 147.33 292.218C146.589 292.958 146.33 293.491 146.211 294.52C146.038 296.034 145.188 296.936 144.257 296.597C143.707 296.396 143.703 296.459 143.703 306.023V315.652L143.096 315.799C142.761 315.88 140.847 316.242 138.842 316.603C129.494 318.288 123.67 320.188 123.857 321.491C123.923 321.953 124.107 323.374 124.265 324.648C124.423 325.922 124.729 327.189 124.945 327.463C125.162 327.738 125.339 328.129 125.339 328.332C125.339 330.013 133.391 332.908 141.813 334.255C158.455 336.916 186.522 337.395 205.345 335.338L207.168 335.139V318.164C207.168 308.829 207.249 292.585 207.347 282.068C207.455 270.573 207.428 262.948 207.28 262.954C207.144 262.96 206.697 263.252 206.285 263.604ZM268.121 266.241C267.613 266.825 267.94 267.906 268.625 267.906C269.221 267.906 269.306 267.787 269.233 267.055C269.151 266.243 268.521 265.782 268.121 266.241ZM175.49 266.862C175.027 267.394 175.306 268.259 175.908 268.16C176.305 268.095 176.516 267.848 176.516 267.445C176.516 266.83 175.848 266.45 175.49 266.862ZM162.405 274.004C162.219 274.09 162.068 274.564 162.068 275.059C162.068 276.095 163.121 276.638 163.826 275.966C164.909 274.933 163.776 273.369 162.405 274.004ZM130.298 277.054C130.084 277.695 130.374 278.45 130.833 278.45C131.043 278.45 131.366 278.241 131.551 277.985C131.939 277.446 131.499 276.589 130.833 276.589C130.625 276.589 130.383 276.799 130.298 277.054ZM250.648 277.113C250.648 279.221 259.833 290.253 263.825 292.94C265.677 294.186 265.397 293.61 263.002 291.241C260.652 288.918 254.42 281.735 252.051 278.621C251.279 277.606 250.648 276.927 250.648 277.113ZM164.597 279.533C164.503 279.813 164.556 280.191 164.714 280.373C165.125 280.845 165.905 280.413 165.798 279.773C165.678 279.059 164.813 278.886 164.597 279.533ZM132.983 280.86C132.085 281.67 131.811 282.796 132.232 283.944C133.195 286.575 136.42 285.842 136.491 282.976C136.544 280.836 134.425 279.559 132.983 280.86ZM259.425 283.412C260.156 284.265 260.816 284.962 260.89 284.962C260.964 284.962 260.426 284.265 259.695 283.412C258.964 282.559 258.304 281.861 258.23 281.861C258.156 281.861 258.694 282.559 259.425 283.412ZM142.926 288.745C142.365 289.157 141.77 290.018 141.384 290.975C140.65 292.794 140.741 293.187 141.602 291.91C141.936 291.414 142.745 290.347 143.398 289.537C144.656 287.978 144.446 287.627 142.926 288.745ZM144.923 289.61C143.34 290.804 142.138 294.934 143.163 295.662C143.318 295.772 143.436 295.482 143.439 294.982C143.446 293.925 144.293 291.71 145.23 290.3C146.065 289.043 145.968 288.824 144.923 289.61ZM254.478 291.32C253.375 292.386 253.294 293.922 254.281 295.055C255.726 296.714 257.993 295.56 257.993 293.167C257.993 290.911 255.99 289.859 254.478 291.32ZM174.029 291.956L173.164 292.739L171.464 292.207C169.34 291.542 164.611 291.442 163.664 292.043C159.102 294.936 156.132 307.452 158.359 314.4C158.765 315.666 159.097 316.932 159.097 317.211C159.097 317.66 171.036 317.809 171.469 317.366C171.515 317.319 171.355 316.184 171.113 314.844C169.785 307.51 171.347 297.911 174.763 292.401C175.681 290.921 175.376 290.737 174.029 291.956ZM243.449 293.801C243.45 295.165 243.497 295.685 243.554 294.955C243.611 294.226 243.611 293.11 243.553 292.474C243.495 291.839 243.448 292.436 243.449 293.801ZM127.904 292.717C126.825 294.085 128.634 295.71 129.776 294.399C130.333 293.76 130.312 293.238 129.707 292.608C129.051 291.928 128.499 291.961 127.904 292.717ZM248.208 292.736C247.838 293.529 248.504 294.886 249.262 294.886C250.135 294.886 250.782 293.766 250.426 292.869C250.027 291.863 248.653 291.78 248.208 292.736ZM190.865 299.471C190.507 300.136 191.221 302.262 192.084 303.094C193.122 304.098 193.37 303.907 192.614 302.686C192.3 302.181 191.822 301.169 191.552 300.438C191.251 299.625 190.984 299.249 190.865 299.471ZM135.655 303.011C134.833 303.956 135.565 305.567 136.729 305.377C137.522 305.246 138.012 303.824 137.505 303.123C137.09 302.548 136.111 302.489 135.655 303.011ZM172.534 304.888C172.333 305.516 172.609 306.05 173.134 306.05C173.732 306.05 174.018 305.322 173.605 304.848C173.204 304.387 172.688 304.406 172.534 304.888ZM245.759 307.254C244.97 307.987 245.224 309.366 246.199 309.647C247.123 309.913 247.724 309.271 247.623 308.126C247.516 306.906 246.596 306.476 245.759 307.254ZM195.96 312.257C195.96 312.806 195.796 313.055 195.387 313.122C194.7 313.234 194.324 312.37 194.783 311.735C195.268 311.065 195.96 311.372 195.96 312.257ZM243.163 312.718C243.165 313.571 243.218 313.883 243.28 313.412C243.342 312.94 243.341 312.242 243.276 311.861C243.212 311.48 243.161 311.865 243.163 312.718ZM174.223 312.094C174.032 312.358 173.962 312.887 174.06 313.334C174.353 314.673 176.381 314.172 176.381 312.761C176.381 311.846 174.764 311.346 174.223 312.094ZM147.012 316.332C147.652 316.717 147.609 317.215 146.935 317.215C146.058 317.215 144.455 316.335 144.655 315.963C144.844 315.612 146.157 315.818 147.012 316.332ZM201.216 324.716C202.041 325.733 201.961 327.538 201.055 328.356C198.905 330.299 196.167 327.035 198.033 324.755C198.824 323.788 200.447 323.768 201.216 324.716ZM229.988 326.695C226.974 328.491 225.639 333.087 227.065 336.762C229.436 342.875 236.068 339.894 236.056 332.721C236.048 327.993 232.959 324.924 229.988 326.695ZM233.709 329.31L234.396 329.931L233.615 331.558C232.664 333.539 232.668 333.391 233.527 334.562C234.32 335.645 234.237 336.281 233.232 336.807C232.647 337.113 232.488 337.078 232.166 336.572C231.958 336.245 231.738 336.047 231.678 336.133C231.618 336.217 231.297 336.74 230.964 337.292C230.373 338.276 230.341 338.288 229.566 337.827C228.61 337.26 228.617 337.394 229.448 335.512C230.287 333.61 230.286 333.545 229.391 332.196L228.657 331.093L229.458 330.352L230.258 329.611L230.84 330.436L231.422 331.261L231.993 329.975C232.646 328.505 232.766 328.459 233.709 329.31ZM195.225 331.343C196.317 332.22 195.415 334.225 194.166 333.695C193.268 333.314 193.023 332.217 193.671 331.473C194.315 330.733 194.454 330.722 195.225 331.343Z" fill="#FB3D04"/>
<path fill-rule="evenodd" clip-rule="evenodd" d="M215.81 125.252C214.821 126.388 215.749 128.147 216.994 127.496C217.879 127.033 217.993 125.454 217.178 124.953C216.481 124.525 216.435 124.535 215.81 125.252ZM210.952 127.264C210.503 127.885 210.802 128.663 211.489 128.663C211.796 128.663 212.117 128.453 212.203 128.194C212.358 127.73 211.883 126.803 211.489 126.803C211.377 126.803 211.135 127.01 210.952 127.264ZM180.107 134.414C179.841 135.086 179.877 135.297 180.352 135.842C181.35 136.989 182.984 135.666 182.322 134.246C181.883 133.302 180.508 133.407 180.107 134.414ZM226.178 135.928C225.932 136.664 226.28 137.406 226.814 137.288C227.113 137.222 227.288 136.901 227.288 136.416C227.288 135.533 226.435 135.157 226.178 135.928ZM238.998 139.655C237.347 140.052 235.58 140.859 235.254 141.364C235.18 141.48 234.426 142.098 233.579 142.737C232.731 143.377 231.371 144.728 230.555 145.741C229.739 146.753 228.953 147.581 228.807 147.581C228.45 147.581 226.975 151.216 226.581 153.067C226.407 153.887 226.164 154.709 226.039 154.892C225.659 155.456 225.397 164.017 225.76 164.017C225.932 164.017 226.072 164.224 226.072 164.476C226.072 165.146 227.226 165.412 230.123 165.412C233.904 165.41 233.904 165.411 233.904 161.092C233.904 156.209 234.513 153.967 236.426 151.797C239.908 147.849 247.197 148.343 249.409 152.679C249.793 153.433 250.269 154.233 250.464 154.459C251.35 155.476 251.426 157.576 251.476 182.004C251.504 195.393 251.636 207.14 251.771 208.109C252.085 210.371 253.02 213.701 253.453 214.101C253.638 214.271 253.994 214.885 254.244 215.465C255.213 217.717 258.528 221.656 259.705 221.954C259.922 222.009 260.1 222.158 260.1 222.285C260.1 222.67 262.261 223.935 262.636 223.77C263.032 223.596 263.784 219.576 264.049 216.217L264.225 213.991L263.257 212.961C261.86 211.474 260.407 208.523 260.203 206.76C260.108 205.936 259.929 205.262 259.804 205.262C259.68 205.262 259.543 193.784 259.5 179.755L259.422 154.248L258.81 152.248C257.489 147.933 252.79 141.688 250.862 141.688C250.723 141.688 250.431 141.483 250.213 141.232C248.913 139.74 242.436 138.829 238.998 139.655ZM178.389 141.51C177.736 142.057 178.076 143.004 178.878 142.873C179.256 142.811 179.518 142.525 179.568 142.116C179.67 141.303 179.028 140.974 178.389 141.51ZM231.86 154.303C232.085 154.975 231.432 155.725 230.846 155.467C230.395 155.268 230.231 154.382 230.574 153.99C230.915 153.597 231.686 153.784 231.86 154.303ZM229.731 161.05C230.271 161.996 229.86 163.089 228.966 163.082C227.777 163.073 227.223 162.002 227.864 160.951C228.396 160.078 229.201 160.121 229.731 161.05ZM258.169 161.5C258.771 161.938 258.424 162.931 257.67 162.931C257.231 162.931 256.968 162.731 256.904 162.348C256.82 161.847 257.24 161.235 257.67 161.235C257.744 161.235 257.969 161.354 258.169 161.5ZM255.195 175.676C255.973 176.303 255.872 177.361 254.986 177.867C253.694 178.604 252.623 176.945 253.639 175.778C254.27 175.054 254.409 175.045 255.195 175.676ZM257.397 182.465C257.845 183.086 257.547 183.864 256.859 183.864C256.553 183.864 256.232 183.653 256.146 183.395C255.991 182.931 256.466 182.004 256.859 182.004C256.972 182.004 257.213 182.211 257.397 182.465ZM243.194 191.433C242.958 192.138 243.194 193.885 243.542 194.016C243.894 194.149 244.977 193.042 244.977 192.548C244.977 191.607 243.454 190.654 243.194 191.433ZM124.418 200.566C122.407 204.303 121.457 292.535 123.165 317.03C123.449 321.11 123.155 320.86 126.328 319.723C129.492 318.59 133.85 317.503 138.842 316.603C140.848 316.242 142.762 315.88 143.096 315.799L143.704 315.653V305.941C143.704 295.648 143.71 295.711 142.771 296.121C141.549 296.655 140.867 295.859 140.871 293.903C140.874 292.694 140.778 292.214 140.555 292.312C139.965 292.572 139.588 291.244 139.921 290.085C140.236 288.99 141.906 287.044 143.043 286.449L143.704 286.104V273.346V260.587L142.484 259.907C137.382 257.061 135.872 250.896 138.632 244.182C141.996 235.994 142.166 233.299 139.74 226.506C137.252 219.539 137.171 215.197 139.406 208.701C140.272 206.184 140.858 205.409 141.638 205.752C142.384 206.082 142.358 206.853 141.524 209.033C139.55 214.199 139.421 219.355 141.148 224.078C144.261 232.592 144.208 235.969 140.827 244.378C138.271 250.738 138.986 255.155 142.961 257.551L143.704 257.999V231.84V205.68L140.935 205.136C136.23 204.21 132.379 203.14 128.547 201.691C124.487 200.157 124.619 200.193 124.418 200.566ZM268.789 207.213C268.557 207.535 268.569 207.778 268.843 208.207C269.331 208.974 270.16 208.604 270.044 207.671C269.943 206.858 269.233 206.599 268.789 207.213ZM134.467 209.046C134.646 209.251 134.791 209.711 134.791 210.069C134.791 210.427 134.646 210.888 134.467 211.093C134.289 211.297 133.888 211.465 133.576 211.465C133.264 211.465 132.863 211.297 132.685 211.093C132.507 210.888 132.361 210.427 132.361 210.069C132.361 209.711 132.507 209.251 132.685 209.046C132.863 208.841 133.264 208.674 133.576 208.674C133.888 208.674 134.289 208.841 134.467 209.046ZM150.656 213.298C150.296 221.858 150.378 226.305 150.878 225.484C151.252 224.873 151.275 223.816 151.079 216.654L150.856 208.519L150.656 213.298ZM157.801 210.907C157.622 211.111 157.477 211.572 157.477 211.93C157.477 213.42 159.154 213.892 159.686 212.552C160.213 211.222 158.686 209.89 157.801 210.907ZM271.88 216.456C271.78 216.824 271.192 220.958 270.704 224.722L270.573 225.73H274.789C277.107 225.73 279.005 225.837 279.005 225.967C279.005 226.098 279.643 226.46 280.422 226.771C285.648 228.861 287.498 237.367 283.702 241.851C283.049 242.622 282.515 243.358 282.515 243.488C282.515 244.147 279.273 245.332 276.709 245.61C270.878 246.243 266.331 251.08 266.314 256.664C266.313 257.219 266.2 257.672 266.064 257.672C265.927 257.672 265.851 258.215 265.894 258.878C266.189 263.426 264.032 269.838 260.505 274.898L259.846 275.843L262.828 279.239L265.81 282.637L267.138 280.931C267.869 279.993 268.467 279.058 268.469 278.853C268.471 278.649 268.63 278.37 268.823 278.233C269.39 277.833 270.213 276.289 271.19 273.798C271.692 272.519 272.192 271.398 272.302 271.307C272.78 270.91 273.905 264.951 274.175 261.394C274.581 256.036 275.155 255.191 278.385 255.191C279.938 255.191 283.037 254.326 283.536 253.754C283.738 253.521 284.063 253.331 284.256 253.331C286.618 253.331 291.885 246.877 292.969 242.656C293.191 241.79 293.512 240.885 293.683 240.645C294.089 240.075 294.113 231.074 293.71 230.758C293.554 230.636 293.267 229.909 293.071 229.142C292.625 227.389 291.279 224.297 290.816 223.965C290.625 223.827 290.07 223.128 289.584 222.41C288.083 220.194 284.421 217.649 281.651 216.893C279.125 216.206 272.034 215.888 271.88 216.456ZM163.355 218.202C163.841 218.271 164.57 218.27 164.976 218.199C165.381 218.128 164.984 218.072 164.093 218.073C163.202 218.075 162.87 218.133 163.355 218.202ZM199.918 220.336C199.138 220.963 199.147 222.258 199.934 222.593C200.799 222.96 201.479 222.661 201.66 221.834C201.953 220.494 200.875 219.566 199.918 220.336ZM282.65 222.943C282.65 223.493 282.486 223.742 282.077 223.808C281.391 223.921 281.014 223.056 281.473 222.421C281.958 221.751 282.65 222.058 282.65 222.943ZM287.726 223.899C287.875 224.171 287.915 224.764 287.816 225.217C287.512 226.609 285.486 226.211 285.486 224.76C285.486 223.437 287.129 222.805 287.726 223.899ZM132.029 223.891C134.352 224.822 133.775 228.831 131.318 228.831C128.737 228.831 128.278 224.812 130.741 223.778C130.963 223.685 131.158 223.597 131.173 223.584C131.187 223.57 131.573 223.709 132.029 223.891ZM194.911 226.622C194.077 227.679 194.044 229.294 194.836 230.204C196.599 232.228 199.463 230.188 198.522 227.579C197.945 225.98 195.854 225.426 194.911 226.622ZM136.672 231.292C137.052 232.107 137.026 232.424 136.527 232.996C135.544 234.126 133.858 232.736 134.512 231.333C134.907 230.485 136.284 230.459 136.672 231.292ZM262.263 233.014C261.815 233.635 262.114 234.414 262.801 234.414C263.107 234.414 263.429 234.203 263.514 233.944C263.67 233.48 263.194 232.553 262.801 232.553C262.689 232.553 262.447 232.761 262.263 233.014ZM261.653 238.16C260.692 238.802 261.24 240.616 262.396 240.616C263.533 240.616 264.003 239.249 263.186 238.312C262.698 237.751 262.319 237.714 261.653 238.16ZM199.982 241.678C199.736 242.414 200.084 243.157 200.618 243.038C200.917 242.972 201.092 242.651 201.092 242.166C201.092 241.283 200.239 240.907 199.982 241.678ZM150.197 250.617C150.187 257.099 150.246 258.293 150.574 258.293C151.531 258.293 151.715 246.167 150.788 244.182L150.209 242.942L150.197 250.617ZM180.23 244.492C180.233 245.175 180.288 245.417 180.353 245.031C180.418 244.646 180.415 244.088 180.348 243.791C180.28 243.495 180.227 243.81 180.23 244.492ZM246.867 245.827C246.867 247.554 256.586 258.65 257.215 257.642C257.258 257.573 254.947 254.828 252.08 251.541C249.213 248.253 246.867 245.682 246.867 245.827ZM202.239 246.843C201.493 247.342 201.62 248.925 202.441 249.355C203.791 250.061 204.814 247.97 203.597 246.991C202.899 246.43 202.864 246.426 202.239 246.843ZM270.498 254.885C270.498 255.435 270.333 255.684 269.924 255.75C269.238 255.863 268.862 254.998 269.32 254.363C269.805 253.694 270.498 254.001 270.498 254.885ZM248.272 255.368C246.939 256.44 248.113 258.566 249.55 257.683C250.289 257.229 250.217 255.912 249.42 255.308C248.95 254.952 248.779 254.961 248.272 255.368ZM272.399 258.448C272.942 259.431 272.454 260.463 271.445 260.463C270.304 260.463 269.768 259.217 270.507 258.28C271.106 257.52 271.927 257.593 272.399 258.448ZM150.658 260.677C150.22 260.808 150.185 261.545 150.185 270.586V280.354L150.782 280.255L151.379 280.156L151.47 270.31C151.52 264.894 151.464 260.48 151.346 260.499C151.227 260.519 150.918 260.599 150.658 260.677ZM243.964 261.903C243.734 262.014 243.626 262.851 243.626 264.521V266.976H244.584C246.561 266.976 247.651 264.203 246.26 262.711C245.613 262.019 244.522 261.634 243.964 261.903ZM269.233 267.056C269.306 267.788 269.222 267.906 268.625 267.906C268.079 267.906 267.932 267.753 267.932 267.183C267.932 265.751 269.091 265.638 269.233 267.056ZM246.738 278.687L243.774 282.017L243.593 291.475C243.13 315.707 243.092 320.626 243.368 320.626C243.887 320.626 266.418 294.482 266.469 293.82C266.649 291.502 255.72 278.239 251.543 275.706C250.294 274.949 249.785 275.265 246.738 278.687ZM131.551 277.055C131.819 277.426 131.819 277.614 131.551 277.985C130.876 278.918 129.914 278.204 130.298 277.055C130.383 276.799 130.625 276.59 130.834 276.59C131.043 276.59 131.366 276.799 131.551 277.055ZM257.115 284.753C259.128 287.11 261.777 290.03 263.002 291.241C265.397 293.61 265.677 294.186 263.826 292.94C260.58 290.756 254.204 283.565 251.709 279.274C250.229 276.73 250.386 276.431 252.052 278.621C252.823 279.636 255.102 282.395 257.115 284.753ZM135.776 281.047C137.776 283.021 135.469 286.685 133.131 285.249C132.34 284.762 131.817 283.158 132.133 282.185C132.734 280.333 134.496 279.782 135.776 281.047ZM257.493 291.445C258.211 292.269 258.153 294.12 257.379 295.066C256.043 296.7 253.619 295.512 253.619 293.223C253.619 290.968 256.09 289.834 257.493 291.445ZM129.707 292.609C130.312 293.238 130.333 293.76 129.776 294.399C128.634 295.711 126.825 294.086 127.904 292.717C128.5 291.961 129.051 291.928 129.707 292.609ZM250.427 292.869C250.782 293.766 250.136 294.886 249.262 294.886C248.504 294.886 247.838 293.53 248.208 292.737C248.653 291.781 250.028 291.863 250.427 292.869ZM150.85 293.729C150.364 294.01 150.31 294.287 150.39 296.094C150.584 300.514 150.996 300.607 151.239 296.289C151.33 294.665 151.404 293.353 151.402 293.374C151.402 293.395 151.152 293.554 150.85 293.729ZM137.506 303.123C137.755 303.468 137.782 303.846 137.601 304.441C137.15 305.917 135.332 305.611 135.332 304.059C135.332 302.73 136.773 302.109 137.506 303.123ZM247.623 308.126C247.725 309.271 247.123 309.913 246.199 309.647C245.225 309.366 244.971 307.987 245.759 307.255C246.596 306.476 247.516 306.907 247.623 308.126ZM194.783 311.735C194.325 312.37 194.701 313.235 195.387 313.122C195.796 313.055 195.96 312.807 195.96 312.257C195.96 311.372 195.268 311.065 194.783 311.735ZM144.655 315.963C144.55 316.157 144.876 316.49 145.431 316.756C146.524 317.281 147.484 317.355 147.484 316.916C147.484 316.239 144.963 315.389 144.655 315.963ZM178.863 317.99C179.1 318.579 179.408 318.614 184.971 318.684C190.663 318.755 199.816 319.19 203.927 319.585C207.207 319.9 205.881 319.36 202.257 318.905C198.373 318.417 186.279 317.558 181.751 317.447C178.699 317.372 178.62 317.387 178.863 317.99ZM160.18 317.804C159.291 317.941 158.942 318.144 158.872 318.563C158.801 318.993 158.901 319.095 159.275 318.972C159.548 318.882 162.536 318.764 165.915 318.71C169.293 318.655 172.057 318.587 172.059 318.559C172.089 317.551 164.837 317.09 160.18 317.804ZM147.967 318.624C147.886 318.717 145.769 319.128 143.264 319.538C134.529 320.965 129.294 322.616 126.441 324.841C125.186 325.821 125.551 325.79 127.306 324.769C130.592 322.856 137.132 321.17 144.697 320.284C147.628 319.941 148.002 319.831 148.13 319.269C148.28 318.604 148.214 318.341 147.967 318.624ZM198.033 324.755C196.167 327.036 198.906 330.299 201.055 328.357C201.961 327.538 202.041 325.733 201.216 324.716C200.448 323.768 198.824 323.789 198.033 324.755ZM193.671 331.473C193.024 332.217 193.268 333.314 194.167 333.695C195.415 334.226 196.317 332.221 195.225 331.343C194.454 330.722 194.315 330.734 193.671 331.473Z" fill="#FBB304"/>
<path fill-rule="evenodd" clip-rule="evenodd" d="M172.737 148.621C170.194 149.501 171.709 150.816 175.865 151.335C182.857 152.208 189.507 149.621 183.562 148.34C182.654 148.145 182.593 148.182 182.593 148.927C182.593 149.917 181.583 150.224 178.407 150.199C175.466 150.177 174.761 149.939 174.761 148.97C174.761 148.096 174.424 148.038 172.737 148.621ZM216.792 149.598C216.197 151.381 208.694 153.206 196.771 154.468C191.576 155.018 165.765 155.017 160.583 154.466C149.445 153.284 142.119 151.647 140.87 150.064C140.136 149.132 139.698 149.305 139.502 150.604C139.405 151.244 139.211 152.325 139.07 153.007C137.897 158.679 139.03 177.499 140.687 179.842C145.43 186.553 210.144 186.709 216.425 180.025C217.579 178.797 218.775 170.065 218.779 162.841C218.783 155.025 217.604 147.169 216.792 149.598ZM151.042 155.846C151.69 156.52 151.669 157.661 150.995 158.434C149.983 159.597 148.295 158.824 148.295 157.199C148.295 155.518 149.944 154.706 151.042 155.846ZM142.424 160.27C153.136 164.502 204.173 164.52 214.865 160.295C217.269 159.345 218.291 159.708 216.077 160.725C211.458 162.848 196.594 164.574 180.837 164.817L171.385 164.964L171.25 167.669L171.115 170.374L165.686 170.326L160.257 170.279L160.107 175.854C160.024 178.921 159.885 181.512 159.797 181.613C159.336 182.142 159.228 180.595 159.179 172.794C159.15 168.098 159.072 164.195 159.007 164.119C158.941 164.044 157.141 163.777 155.009 163.527C147.28 162.623 140.193 160.917 140.193 159.962C140.193 159.533 140.754 159.61 142.424 160.27ZM160.079 164.258C159.986 164.431 159.988 165.635 160.083 166.931L160.257 169.288H162.47C163.688 169.288 165.98 169.379 167.562 169.491L170.44 169.693V167.213V164.733L166.57 164.531C164.441 164.42 162.148 164.242 161.475 164.137C160.749 164.022 160.18 164.072 160.079 164.258ZM236.867 164.907C238.523 166.227 225.03 166.776 222.908 165.475L222.039 164.941L222.175 170.604C222.249 173.718 222.378 177.41 222.459 178.809L222.608 181.353L223.598 181.755C224.965 182.312 235.001 182.317 236.363 181.761L237.338 181.364L237.511 179.001C237.952 173.011 237.593 164.938 236.875 164.716C236.521 164.606 236.52 164.63 236.867 164.907ZM213.333 172.473C213.457 175.31 213.131 176.886 212.418 176.886C211.414 176.886 210.906 173.55 211.521 170.994C212.165 168.32 213.187 169.154 213.333 172.473ZM207.665 171.319C208.306 172.935 207.916 178.282 207.158 178.282C206.325 178.282 205.675 174.972 206.09 172.846C206.548 170.5 207.12 169.945 207.665 171.319ZM202.329 172.126C202.724 172.973 202.735 176.926 202.346 178.049C201.57 180.29 200.547 177.967 200.746 174.414C200.912 171.425 201.564 170.484 202.329 172.126ZM114.763 178.67C113.487 181.496 113.894 190.982 115.376 192.932C115.669 193.317 116.141 194.078 116.424 194.621C117.284 196.271 123.029 200.3 124.521 200.3C124.776 200.3 125.658 200.566 126.479 200.891C143.782 207.727 174.317 210.385 201.594 207.428C207.501 206.788 207.715 206.796 207.57 207.667C207.52 207.965 207.47 220.035 207.459 234.491L207.438 260.773H206.801C204.01 260.773 201.133 266.91 200.674 273.842C200.397 278.02 199.857 280.483 198.645 283.102C198.289 283.869 197.833 285.443 197.632 286.6L197.265 288.702L198.051 287.84C200.685 284.954 202.159 280.583 202.565 274.454C202.852 270.125 203.43 267.792 204.778 265.523C205.531 264.257 207.077 262.735 207.323 263.018C207.391 263.096 207.364 279.358 207.263 299.154L207.08 335.149L205.301 335.343C186.503 337.395 158.436 336.913 141.813 334.255C133.239 332.883 125.34 330.013 125.34 328.269C125.34 328.03 125.157 327.661 124.935 327.448C124.283 326.827 124.413 328.435 125.095 329.431C129.854 336.378 182.009 341.022 207.243 336.744C208.741 336.49 209.216 336.519 209.869 336.907C210.908 337.524 215.15 338.678 215.901 338.548C216.69 338.411 212.019 336.45 210.369 336.224C209.679 336.13 208.986 335.961 208.829 335.85C208.629 335.708 208.531 316.19 208.504 271.152L208.465 206.658L212.611 205.832C214.89 205.378 217.09 204.994 217.498 204.979L218.241 204.952V272.054V339.158L216.283 339.49C174.466 346.573 115.617 339.714 115.617 327.758C115.617 326.013 115.262 326.217 114.666 328.301C113.485 332.437 114.183 344.195 115.611 344.195C115.709 344.195 116.062 344.755 116.397 345.439C117.417 347.522 122.068 350.676 126.285 352.142C127.176 352.452 127.967 352.804 128.043 352.923C128.312 353.346 137.106 355.73 142.759 356.912C146.922 357.783 154.942 358.741 161.162 359.111C164.26 359.295 167.009 359.576 167.272 359.735C167.878 360.101 189.495 360.082 190.109 359.715C190.357 359.567 193.112 359.293 196.231 359.105C204.454 358.611 216.442 357.052 217.836 356.296C218.133 356.134 219.044 355.864 219.861 355.693C224.134 354.802 229.615 353.256 229.854 352.874C229.928 352.755 230.475 352.489 231.069 352.282C233.603 351.399 236.617 349.94 237.302 349.264C237.708 348.864 238.181 348.536 238.354 348.536C238.972 348.536 240.944 346.286 241.437 345.019C242.035 343.482 242.447 339.725 242.803 332.565C243.312 322.307 243.34 320.962 243.053 320.757C242.899 320.648 242.842 320.242 242.926 319.856C243.623 316.668 244.01 207.914 243.358 198.44C243.188 195.966 243.008 191.428 242.958 188.355C242.868 182.748 242.717 180.677 242.241 178.514C241.901 176.967 241.479 177.024 241.663 178.593C243.256 192.236 169.968 198.895 131.281 188.621C120.326 185.712 115.243 182.425 115.697 178.542C115.879 176.98 115.503 177.031 114.763 178.67ZM233.375 197.897C238.003 200.577 236.292 211.158 231.231 211.154C226.68 211.149 224.834 203.019 228.461 198.952C230.099 197.116 231.504 196.814 233.375 197.897ZM231.99 202.529C230.895 205.127 230.913 205.111 230.008 204.293C229.214 203.577 228.228 204.1 228.237 205.233C228.24 205.716 230.95 208.675 231.388 208.672C231.72 208.67 234.788 201.617 234.604 201.276C233.861 199.896 232.907 200.353 231.99 202.529ZM139.707 208.114C137.297 214.781 137.276 219.11 139.62 225.881C142.266 233.524 142.137 235.98 138.655 244.261C133.82 255.757 143.156 265.191 153.604 259.365C155.029 258.57 155.549 258.413 155.948 258.659C156.314 258.884 156.409 258.876 156.279 258.633C156.167 258.426 156.321 258.292 156.672 258.292C157.418 258.292 158.827 256.673 158.827 255.814C158.827 252.457 154.417 251.988 154.176 255.32C154.002 257.733 148.569 259.593 144.966 258.474C139.202 256.682 137.86 251.822 140.926 243.85C144.117 235.557 144.226 232.764 141.631 225.779C139.398 219.766 139.329 214.358 141.42 209.009C142.265 206.846 142.218 206.074 141.235 205.943C140.587 205.856 140.455 206.044 139.707 208.114ZM191.602 209.76C191.508 210.041 191.563 210.784 191.724 211.41C192.979 216.295 192.168 219.696 188.606 224.489C183.569 231.267 182.482 238.546 185.348 246.293C186.674 249.876 186.356 253.605 184.474 256.543L183.652 257.827L184.673 258.319C185.85 258.885 185.706 259.044 187.232 255.501C188.499 252.561 188.499 248.976 187.231 245.499C184.592 238.257 185.659 231.775 190.529 225.464C193.879 221.123 195.199 214.601 193.52 210.689C192.942 209.341 191.909 208.841 191.602 209.76ZM236.627 213.854C238.334 215.012 238.226 211.404 238.225 267.022C238.223 316.635 238.213 317.7 237.699 318.667C237.033 319.922 236.714 320.109 232.451 321.751C228.023 323.456 226.907 323.506 225.641 322.052L224.722 320.998V269.492V217.987L225.465 217.043C226.075 216.267 226.739 215.939 229.186 215.206C230.824 214.715 232.586 214.103 233.102 213.845C234.368 213.212 235.684 213.215 236.627 213.854ZM165.579 238.256C165.579 241.173 166.259 241.613 168.752 240.314C169.834 239.75 170.447 238.757 169.439 239.201C169.186 239.313 168.484 239.482 167.879 239.577L166.779 239.75L166.438 237.857C165.977 235.288 165.579 235.473 165.579 238.256ZM152.132 241.158L152.211 243.562L153.217 243.658C154.294 243.76 155.996 243.005 156.223 242.325C156.332 241.999 156.179 241.971 155.503 242.193C153.547 242.838 153.258 242.662 152.908 240.616C152.454 237.969 152.037 238.262 152.132 241.158ZM247.878 241.399C246.589 242.406 245.776 244.027 246.561 244.027C248.228 244.027 256.909 253.583 258.365 257.021L258.862 258.192L260.204 256.714C262.208 254.509 262.068 254.186 256.152 247.344C250.291 240.564 249.592 240.062 247.878 241.399ZM161.528 248.002C161.528 248.142 162.015 249.154 162.612 250.25C163.208 251.347 164.07 252.978 164.528 253.873C164.985 254.769 165.47 255.501 165.604 255.501C166.026 255.501 165.859 253.231 165.343 251.935C164.619 250.121 161.528 246.934 161.528 248.002ZM160.718 252.563C160.718 253.737 162.684 256.916 163.189 256.557C164.004 255.98 162.913 253.377 161.506 252.543C160.796 252.12 160.718 252.122 160.718 252.563ZM251.526 272.756C249.652 275.018 249.525 275.349 250.523 275.349C253.209 275.349 267.047 291.259 266.489 293.707C266.264 294.699 266.827 294.308 268.476 292.328C269.672 290.891 270.09 290.161 270.091 289.507C270.093 288.614 269.339 286.823 268.961 286.823C268.848 286.823 268.572 286.414 268.347 285.914C267.874 284.864 257.189 272.558 256.748 272.557C256.587 272.557 256.029 272.138 255.509 271.627C254.084 270.226 253.479 270.398 251.526 272.756ZM150.286 280.604C149.114 281.208 148.721 281.66 148.322 282.864C147.992 283.862 148.487 283.764 149.734 282.584C152.292 280.163 155.949 284.867 153.533 287.473C152.789 288.275 152.687 288.994 153.318 288.994C154.045 288.994 155.529 287.026 155.73 285.796C156.255 282.581 152.816 279.301 150.286 280.604ZM190.014 288.56C189.201 289.583 188.88 290.437 188.831 291.707C188.789 292.808 189.535 292.534 189.884 291.321C190.971 287.539 195.901 289.089 195.441 293.069C195.234 294.862 195.808 295.185 196.494 293.661C198.318 289.612 192.696 285.186 190.014 288.56ZM233.009 326.539C234.935 327.376 236.051 329.642 236.056 332.72C236.068 339.894 229.437 342.875 227.065 336.762C225.012 331.469 228.914 324.757 233.009 326.539ZM231.994 329.975L231.423 331.261L230.841 330.436L230.259 329.611L229.459 330.352L228.658 331.093L229.391 332.196C230.286 333.545 230.288 333.61 229.448 335.512C228.617 337.394 228.611 337.26 229.567 337.827C230.342 338.288 230.373 338.275 230.964 337.292C231.297 336.74 231.618 336.217 231.679 336.133C231.739 336.047 231.959 336.245 232.167 336.572C232.489 337.078 232.647 337.113 233.233 336.807C234.237 336.281 234.32 335.645 233.527 334.562C232.669 333.391 232.664 333.539 233.616 331.558L234.397 329.931L233.709 329.31C232.767 328.459 232.647 328.505 231.994 329.975ZM122.026 340.656C123.18 341.098 124.489 341.648 124.935 341.877C125.38 342.106 126.695 342.629 127.857 343.041L129.97 343.789L130.018 348.008C130.044 350.329 129.986 352.13 129.888 352.01C129.652 351.72 129.12 347.643 129.12 346.118V344.903L125.272 343.462C123.155 342.67 121.272 342.022 121.086 342.022C120.9 342.023 120.749 341.884 120.749 341.714C120.749 341.543 120.582 341.404 120.379 341.404C120.107 341.404 119.951 342.169 119.793 344.272C119.541 347.645 119.213 346.867 119.16 342.774C119.117 339.401 118.991 339.495 122.026 340.656ZM131.281 345.807C131.281 347.703 130.847 347.485 130.694 345.513C130.622 344.589 130.695 344.195 130.936 344.195C131.172 344.195 131.281 344.707 131.281 345.807Z" fill="#042C4C"/>
<defs>
<linearGradient id="paint0_linear_489_1876" x1="180" y1="0" x2="180" y2="480" gradientUnits="userSpaceOnUse">
<stop stop-color="#080505"/>
<stop offset="1" stop-color="#080505" stop-opacity="0"/>
</linearGradient>
</defs>
</svg>
