<svg width="520" height="640" viewBox="0 0 520 640" fill="none" xmlns="http://www.w3.org/2000/svg">
<g filter="url(#filter0_d_483_1850)">
<rect x="80" y="76" width="360" height="480" fill="url(#paint0_linear_483_1850)"/>
<path fill-rule="evenodd" clip-rule="evenodd" d="M259.003 196.256C259.003 196.397 258.792 196.96 258.535 197.506C258.277 198.052 258.066 198.64 258.066 198.811C258.066 198.983 257.771 199.631 257.41 200.251C257.049 200.872 256.754 201.609 256.754 201.89C256.754 202.17 256.543 202.689 256.285 203.042C256.027 203.395 255.816 203.809 255.816 203.961C255.816 204.113 255.605 204.594 255.348 205.03C255.09 205.466 254.879 206.074 254.879 206.381C254.879 206.689 254.752 206.94 254.598 206.94C254.443 206.94 254.317 207.078 254.317 207.246C254.317 207.415 254.107 207.915 253.851 208.357C253.595 208.8 253.384 209.421 253.383 209.738C253.381 210.054 253.215 210.408 253.014 210.525C252.813 210.641 252.597 211.036 252.533 211.402C252.469 211.768 252.338 212.068 252.242 212.068C252.146 212.068 252.067 212.299 252.067 212.581C252.067 212.863 251.941 213.094 251.786 213.094C251.627 213.094 251.505 213.401 251.505 213.803C251.505 214.559 251.099 215.487 250.768 215.487C250.658 215.487 250.567 215.681 250.567 215.919C250.567 216.156 250.356 216.639 250.099 216.992C249.841 217.345 249.63 217.921 249.63 218.27C249.63 218.62 249.546 218.906 249.443 218.906C249.339 218.906 249.255 219.137 249.255 219.419C249.255 219.701 249.129 219.932 248.974 219.932C248.819 219.932 248.693 220.069 248.693 220.238C248.693 220.406 248.483 220.906 248.227 221.349C247.971 221.791 247.761 222.337 247.759 222.561C247.757 222.785 247.334 223.771 246.818 224.751C246.303 225.732 245.881 226.741 245.881 226.993C245.881 227.246 245.796 227.453 245.693 227.453C245.59 227.453 245.506 227.684 245.506 227.966C245.506 228.285 245.329 228.479 245.037 228.479C244.779 228.479 244.569 228.632 244.569 228.821C244.569 229.678 243 228.914 242.638 227.88C242.555 227.645 242.323 227.453 242.122 227.453C241.921 227.453 241.757 227.299 241.757 227.111C241.757 226.923 241.63 226.769 241.475 226.769C241.321 226.769 241.194 226.618 241.194 226.434C241.194 226.25 240.983 226.002 240.726 225.884C240.468 225.766 240.257 225.532 240.257 225.365C240.257 225.197 240.046 225.06 239.788 225.06C239.53 225.06 239.32 224.885 239.32 224.67C239.32 224.209 238.759 223.377 238.439 223.362C238.315 223.356 237.987 222.966 237.708 222.496C237.414 221.999 236.979 221.641 236.668 221.641C236.317 221.641 236.133 221.464 236.133 221.128C236.133 220.846 236.006 220.615 235.852 220.615C235.697 220.615 235.57 220.462 235.57 220.274C235.57 220.085 235.48 219.932 235.369 219.932C235.259 219.932 235.051 219.739 234.907 219.504C234.243 218.418 234.062 218.222 233.724 218.222C233.524 218.222 233.312 217.991 233.253 217.709C233.194 217.427 232.973 217.197 232.764 217.197C232.555 217.197 232.383 217.043 232.383 216.855C232.383 216.667 232.257 216.513 232.102 216.513C231.948 216.513 231.821 216.37 231.821 216.196C231.821 215.786 230.742 214.803 230.293 214.803C230.102 214.803 229.946 214.628 229.946 214.414C229.946 213.888 229.368 213.118 228.962 213.105C228.782 213.099 228.634 212.863 228.634 212.581C228.634 212.299 228.508 212.068 228.353 212.068C228.198 212.068 228.072 211.915 228.072 211.726C228.072 211.538 227.9 211.385 227.691 211.385C227.482 211.385 227.261 211.154 227.202 210.872C227.143 210.59 226.912 210.359 226.69 210.359C226.468 210.359 226.128 209.974 225.934 209.504C225.741 209.034 225.425 208.65 225.234 208.65C225.042 208.65 224.885 208.496 224.885 208.308C224.885 208.12 224.758 207.966 224.604 207.966C224.449 207.966 224.323 207.842 224.323 207.69C224.323 207.209 222.911 206.256 222.198 206.256C221.59 206.256 221.511 206.355 221.511 207.111C221.511 207.581 221.426 207.966 221.323 207.966C221.22 207.966 221.136 208.488 221.136 209.126C221.136 209.842 221.028 210.362 220.854 210.483C220.678 210.606 220.573 211.129 220.573 211.886C220.573 212.55 220.489 213.094 220.386 213.094C220.283 213.094 220.198 213.863 220.198 214.803C220.198 216.095 220.129 216.513 219.917 216.513C219.721 216.513 219.636 216.874 219.636 217.709C219.636 218.368 219.552 218.906 219.448 218.906C219.345 218.906 219.261 219.521 219.261 220.274C219.261 221.262 219.183 221.641 218.98 221.641C218.784 221.641 218.699 222 218.699 222.817C218.699 223.464 218.614 224.089 218.511 224.205C218.408 224.321 218.324 224.946 218.324 225.593C218.324 226.41 218.238 226.769 218.043 226.769C217.83 226.769 217.761 227.187 217.761 228.479C217.761 229.419 217.677 230.188 217.574 230.188C217.471 230.188 217.386 230.71 217.386 231.348C217.386 232.064 217.279 232.584 217.105 232.705C216.929 232.828 216.824 233.351 216.824 234.109C216.824 234.773 216.74 235.316 216.637 235.316C216.533 235.316 216.449 235.838 216.449 236.476C216.449 237.192 216.341 237.712 216.168 237.833C215.976 237.968 215.887 238.515 215.887 239.559C215.887 240.4 215.802 241.183 215.699 241.299C215.596 241.415 215.512 242.04 215.512 242.687C215.512 243.504 215.426 243.863 215.231 243.863C215.076 243.863 214.949 244.024 214.949 244.221C214.949 244.685 214.088 246.256 213.833 246.256C213.725 246.256 213.637 246.487 213.637 246.769C213.637 247.129 213.438 247.282 212.967 247.282C212.6 247.282 212.172 247.051 212.017 246.769C211.8 246.374 211.249 246.256 209.604 246.256C208.386 246.256 207.423 246.11 207.357 245.915C207.291 245.718 206.299 245.573 205.023 245.573C203.224 245.573 202.784 245.476 202.696 245.06C202.609 244.644 202.165 244.547 200.333 244.547C198.955 244.547 198.078 244.415 198.078 244.205C198.078 243.991 196.953 243.863 195.078 243.863H192.079V246.256C192.079 247.624 192.159 248.65 192.266 248.65C192.378 248.65 192.454 249.946 192.454 251.856C192.454 254.288 192.522 255.164 192.735 255.487C192.95 255.813 193.016 256.705 193.016 259.29C193.016 261.313 193.091 262.667 193.204 262.667C193.316 262.667 193.391 264.021 193.391 266.044C193.391 268.628 193.457 269.521 193.672 269.846C193.899 270.189 193.954 271.237 193.954 275.203V280.135L193.07 281.657C192.459 282.709 192.025 283.179 191.664 283.179C191.377 283.179 191.142 283.333 191.142 283.521C191.142 283.709 190.931 283.863 190.673 283.863C190.381 283.863 190.204 284.057 190.204 284.376C190.204 284.683 190.031 284.889 189.773 284.889C189.186 284.889 188.333 285.647 188.331 286.171C188.33 286.43 188.075 286.598 187.685 286.598C187.33 286.598 186.987 286.752 186.924 286.94C186.86 287.128 186.612 287.282 186.373 287.282C186.134 287.282 185.834 287.513 185.705 287.795C185.577 288.077 185.271 288.308 185.026 288.308C184.781 288.308 184.58 288.462 184.58 288.65C184.58 288.838 184.409 288.991 184.199 288.991C183.99 288.991 183.77 289.222 183.711 289.504C183.652 289.786 183.401 290.017 183.154 290.017C182.908 290.017 182.706 290.171 182.706 290.359C182.706 290.547 182.408 290.701 182.044 290.701C181.628 290.701 181.342 290.891 181.274 291.214C181.214 291.496 181.011 291.727 180.822 291.727C180.633 291.727 180.426 291.88 180.362 292.068C180.299 292.256 180.08 292.41 179.877 292.41C179.674 292.41 179.458 292.641 179.399 292.923C179.34 293.205 179.09 293.436 178.843 293.436C178.596 293.436 178.394 293.59 178.394 293.778C178.394 293.966 178.108 294.12 177.758 294.12C177.365 294.12 177.08 294.316 177.014 294.632C176.955 294.915 176.735 295.145 176.526 295.145C176.316 295.145 176.145 295.299 176.145 295.487C176.145 295.675 175.94 295.829 175.689 295.829C175.439 295.829 175.107 296.06 174.953 296.342C174.798 296.624 174.497 296.855 174.284 296.855C174.07 296.855 173.895 297.009 173.895 297.197C173.895 297.385 173.648 297.538 173.346 297.538C173.044 297.538 172.67 297.769 172.516 298.051C172.361 298.333 172.107 298.564 171.951 298.564C171.795 298.564 171.615 298.718 171.552 298.906C171.488 299.094 171.291 299.248 171.114 299.248C170.936 299.248 170.646 299.557 170.469 299.936C170.114 300.691 170.038 301.641 170.333 301.641C170.436 301.641 170.521 301.803 170.521 302.003C170.521 302.202 173.473 307.746 177.082 314.325C181.042 321.543 183.643 326.538 183.643 326.926C183.643 327.279 183.749 327.656 183.877 327.767C184.065 327.926 184.065 328.006 183.877 328.165C183.749 328.275 183.643 328.737 183.643 329.191C183.643 329.697 183.534 330.017 183.362 330.017C183.207 330.017 183.081 330.182 183.081 330.384C183.081 330.856 182.604 331.726 182.344 331.726C182.234 331.726 182.143 331.891 182.143 332.093C182.143 332.566 181.666 333.436 181.407 333.436C181.297 333.436 181.206 333.667 181.206 333.949C181.206 334.232 181.04 334.462 180.835 334.462C180.595 334.462 180.422 334.764 180.346 335.316C180.281 335.786 180.131 336.171 180.012 336.171C179.893 336.171 179.569 336.556 179.291 337.026C179.013 337.496 178.733 337.88 178.67 337.88C178.479 337.88 178.019 338.831 178.019 339.223C178.019 339.425 177.929 339.59 177.818 339.59C177.569 339.59 177.082 340.452 177.082 340.893C177.082 341.073 176.907 341.303 176.693 341.405C176.479 341.507 176.258 341.909 176.203 342.299C176.146 342.69 176.004 343.009 175.886 343.009C175.768 343.009 175.513 343.393 175.319 343.863C175.126 344.333 174.845 344.718 174.695 344.718C174.546 344.718 173.715 346.026 172.848 347.624C171.981 349.222 171.188 350.53 171.084 350.53C170.98 350.53 170.896 350.724 170.896 350.962C170.896 351.199 170.706 351.545 170.474 351.731C169.842 352.236 169.842 355.432 170.474 355.597C170.706 355.656 170.896 355.926 170.896 356.195C170.896 356.464 171.022 356.684 171.177 356.684C171.331 356.684 171.458 356.838 171.458 357.026C171.458 357.214 171.546 357.368 171.653 357.368C171.761 357.368 172.077 357.752 172.355 358.222C172.633 358.692 172.967 359.077 173.096 359.077C173.226 359.077 173.333 359.308 173.333 359.59C173.333 359.909 173.51 360.103 173.801 360.103C174.14 360.103 174.27 360.286 174.27 360.763C174.27 361.132 174.442 361.524 174.659 361.65C174.873 361.774 175.345 362.399 175.706 363.04C176.068 363.68 176.526 364.205 176.723 364.205C176.92 364.205 177.082 364.436 177.082 364.718C177.082 365 177.157 365.231 177.25 365.231C177.342 365.231 177.616 365.613 177.859 366.079C178.102 366.546 178.411 366.931 178.547 366.934C178.683 366.938 179.073 367.479 179.413 368.137C179.753 368.795 180.091 369.333 180.164 369.333C180.236 369.333 180.413 369.526 180.557 369.761C181.131 370.699 181.383 371.043 181.499 371.043C181.566 371.043 181.787 371.427 181.989 371.897C182.192 372.368 182.481 372.752 182.632 372.752C182.782 372.752 182.954 372.983 183.013 373.265C183.072 373.547 183.2 373.778 183.296 373.778C183.393 373.778 183.699 374.162 183.977 374.632C184.256 375.103 184.589 375.487 184.719 375.487C184.849 375.487 184.955 375.641 184.955 375.829C184.955 376.017 185.082 376.171 185.237 376.171C185.391 376.171 185.518 376.336 185.518 376.538C185.518 377.085 186.012 377.88 186.352 377.88C186.517 377.88 186.729 378.249 186.822 378.699C186.916 379.15 187.075 379.573 187.175 379.639C187.578 379.909 187.517 385.744 187.111 385.744C186.899 385.744 186.83 386.159 186.83 387.432C186.83 388.362 186.746 389.217 186.642 389.333C186.539 389.45 186.455 390.365 186.455 391.368C186.455 392.674 186.375 393.248 186.174 393.389C185.955 393.542 185.893 394.225 185.893 396.502C185.893 398.219 185.815 399.419 185.705 399.419C185.602 399.419 185.518 400.188 185.518 401.128C185.518 402.42 185.449 402.838 185.237 402.838C185.018 402.838 184.955 403.293 184.955 404.889C184.955 406.028 184.872 406.94 184.768 406.94C184.665 406.94 184.58 407.693 184.58 408.613C184.58 409.785 184.496 410.344 184.299 410.483C184.08 410.636 184.018 411.319 184.018 413.596C184.018 415.313 183.941 416.513 183.831 416.513C183.727 416.513 183.643 417.282 183.643 418.222V419.932H184.557C185.141 419.932 185.556 419.746 185.705 419.419C185.887 419.018 186.404 418.906 188.071 418.906C189.368 418.906 190.204 418.772 190.204 418.564C190.204 418.354 191.143 418.222 192.647 418.222C194.646 418.222 195.11 418.129 195.198 417.709C195.288 417.28 195.841 417.197 198.567 417.197C200.615 417.197 201.827 417.069 201.827 416.855C201.827 416.645 202.729 416.513 204.157 416.513C205.978 416.513 206.548 416.401 206.768 416C207.247 415.126 208.701 415.33 209.215 416.342C209.454 416.812 209.75 417.197 209.871 417.197C209.993 417.197 210.289 417.581 210.528 418.051C210.767 418.521 211.142 418.906 211.362 418.906C211.583 418.906 211.763 419.119 211.763 419.379C211.763 419.64 212.054 420.106 212.411 420.415C212.767 420.723 213.109 421.126 213.172 421.309C213.234 421.491 213.448 421.641 213.648 421.641C213.849 421.641 214.012 421.795 214.012 421.983C214.012 422.171 214.214 422.325 214.461 422.325C214.708 422.325 214.958 422.556 215.017 422.838C215.076 423.12 215.297 423.35 215.506 423.35C215.715 423.35 215.887 423.504 215.887 423.692C215.887 423.88 216.089 424.034 216.335 424.034C216.582 424.034 216.832 424.265 216.892 424.547C216.966 424.898 217.267 425.06 217.849 425.06C218.316 425.06 218.699 425.214 218.699 425.402C218.699 425.59 219.112 425.744 219.616 425.744C220.258 425.744 220.565 425.897 220.641 426.256C220.794 426.982 223.241 426.982 223.64 426.256C223.815 425.935 224.277 425.744 224.871 425.744C225.394 425.744 225.822 425.59 225.822 425.402C225.822 425.214 226.111 425.06 226.465 425.06C226.819 425.06 227.234 424.829 227.389 424.547C227.544 424.265 227.761 424.034 227.871 424.034C227.981 424.034 228.072 423.88 228.072 423.692C228.072 423.504 228.243 423.35 228.453 423.35C228.662 423.35 228.882 423.12 228.941 422.838C229.001 422.556 229.13 422.325 229.23 422.325C229.33 422.325 229.528 422.132 229.672 421.897C230.292 420.883 230.505 420.615 230.688 420.615C230.796 420.615 230.884 420.462 230.884 420.274C230.884 420.085 231.01 419.932 231.165 419.932C231.32 419.932 231.446 419.767 231.446 419.565C231.446 419.016 231.941 418.222 232.282 418.222C232.448 418.222 232.631 417.991 232.69 417.709C232.75 417.427 232.97 417.197 233.179 417.197C233.388 417.197 233.754 416.812 233.993 416.342C234.232 415.872 234.6 415.487 234.812 415.487C235.022 415.487 235.195 415.333 235.195 415.145C235.195 414.957 235.312 414.803 235.454 414.803C235.596 414.803 235.817 414.573 235.945 414.291C236.074 414.009 236.379 413.778 236.624 413.778C236.869 413.778 237.07 413.624 237.07 413.436C237.07 413.248 237.242 413.094 237.451 413.094C237.66 413.094 237.88 412.863 237.939 412.581C238.006 412.265 238.291 412.068 238.684 412.068C239.033 412.068 239.32 411.915 239.32 411.726C239.32 411.526 239.972 411.385 240.902 411.385C241.772 411.385 242.536 411.538 242.6 411.726C242.664 411.915 242.922 412.068 243.174 412.068C243.455 412.068 243.631 412.266 243.631 412.581C243.631 412.9 243.808 413.094 244.1 413.094C244.358 413.094 244.569 413.248 244.569 413.436C244.569 413.624 244.779 413.778 245.037 413.778C245.295 413.778 245.506 413.929 245.506 414.113C245.506 414.297 245.717 414.545 245.975 414.663C246.232 414.781 246.443 415.015 246.443 415.182C246.443 415.35 246.534 415.487 246.644 415.487C246.754 415.487 246.962 415.679 247.106 415.915C247.598 416.72 248.38 417.697 248.862 418.11C249.006 418.234 249.414 418.849 249.768 419.475C250.123 420.103 250.52 420.615 250.651 420.615C250.782 420.615 251.048 421 251.242 421.47C251.435 421.94 251.662 422.325 251.746 422.325C251.829 422.325 252.093 422.709 252.332 423.179C252.571 423.65 252.904 424.034 253.073 424.034C253.242 424.034 253.379 424.265 253.379 424.547C253.379 424.829 253.458 425.06 253.556 425.06C253.653 425.06 254.17 425.825 254.705 426.76C255.239 427.695 255.919 428.656 256.215 428.895C256.511 429.133 256.754 429.456 256.754 429.612C256.754 430.018 257.253 430.872 257.49 430.872C257.6 430.872 257.691 431.037 257.691 431.238C257.691 431.711 258.168 432.581 258.427 432.581C258.538 432.581 258.628 432.746 258.628 432.948C258.628 434.455 260.577 434.878 260.878 433.436C260.987 432.913 261.203 432.581 261.436 432.581C261.645 432.581 261.815 432.416 261.815 432.215C261.815 431.849 262.271 430.872 262.442 430.872C262.491 430.872 263.046 429.949 263.675 428.821C264.303 427.692 264.901 426.769 265.003 426.769C265.106 426.769 265.189 426.604 265.189 426.403C265.189 425.854 265.684 425.06 266.026 425.06C266.191 425.06 266.375 424.829 266.434 424.547C266.493 424.265 266.623 424.034 266.722 424.034C266.966 424.034 267.439 423.147 267.439 422.691C267.439 422.49 267.566 422.325 267.72 422.325C267.875 422.325 268.001 422.171 268.001 421.983C268.001 421.795 268.158 421.641 268.35 421.641C268.542 421.641 268.857 421.256 269.051 420.786C269.244 420.316 269.509 419.932 269.639 419.932C269.77 419.932 269.876 419.701 269.876 419.419C269.876 419.134 270.043 418.906 270.251 418.906C270.457 418.906 270.626 418.752 270.626 418.564C270.626 418.376 270.752 418.222 270.907 418.222C271.062 418.222 271.188 417.991 271.188 417.709C271.188 417.427 271.345 417.197 271.536 417.197C271.727 417.197 272.111 416.812 272.389 416.342C272.667 415.872 272.996 415.482 273.12 415.476C273.44 415.461 274 414.628 274 414.168C274 413.95 274.29 413.778 274.656 413.778C275.017 413.778 275.312 413.624 275.312 413.436C275.312 413.248 275.43 413.094 275.573 413.094C275.717 413.094 275.883 412.863 275.943 412.581C276.005 412.285 276.285 412.068 276.608 412.068C276.914 412.068 277.217 411.915 277.281 411.726C277.432 411.28 280.129 411.28 280.28 411.726C280.344 411.915 280.635 412.068 280.927 412.068C281.226 412.068 281.506 412.292 281.567 412.581C281.626 412.863 281.841 413.094 282.044 413.094C282.248 413.094 282.466 413.248 282.53 413.436C282.594 413.624 282.936 413.778 283.291 413.778C283.685 413.778 283.936 413.945 283.936 414.21C283.936 414.448 284.286 414.948 284.713 415.321C285.952 416.403 286.185 416.658 286.185 416.936C286.185 417.079 286.396 417.197 286.654 417.197C286.945 417.197 287.123 417.391 287.123 417.709C287.123 417.991 287.211 418.222 287.318 418.222C287.426 418.222 287.741 418.607 288.019 419.077C288.298 419.547 288.631 419.932 288.761 419.932C288.891 419.932 288.997 420.085 288.997 420.274C288.997 420.462 289.124 420.615 289.278 420.615C289.433 420.615 289.56 420.846 289.56 421.128C289.56 421.41 289.686 421.641 289.841 421.641C289.995 421.641 290.122 421.795 290.122 421.983C290.122 422.171 290.291 422.325 290.497 422.325C290.705 422.325 290.872 422.553 290.872 422.838C290.872 423.12 290.998 423.35 291.153 423.35C291.308 423.35 291.434 423.504 291.434 423.692C291.434 423.88 291.645 424.034 291.903 424.034C292.194 424.034 292.372 424.228 292.372 424.547C292.372 424.903 292.568 425.06 293.016 425.06C293.371 425.06 293.714 425.214 293.778 425.402C293.841 425.59 294.395 425.744 295.007 425.744C295.872 425.744 296.121 425.858 296.121 426.256C296.121 426.663 296.392 426.769 297.439 426.769C298.438 426.769 298.783 426.645 298.865 426.256C298.944 425.881 299.268 425.744 300.078 425.744C300.689 425.744 301.182 425.591 301.182 425.402C301.182 425.214 301.467 425.06 301.815 425.06C302.164 425.06 302.554 424.829 302.682 424.547C302.81 424.265 303.074 424.034 303.267 424.034C303.461 424.034 303.619 423.88 303.619 423.692C303.619 423.504 303.82 423.35 304.065 423.35C304.31 423.35 304.616 423.12 304.744 422.838C304.873 422.556 305.094 422.325 305.236 422.325C305.378 422.325 305.494 422.171 305.494 421.983C305.494 421.795 305.699 421.641 305.949 421.641C306.2 421.641 306.531 421.41 306.686 421.128C306.84 420.846 307.057 420.615 307.168 420.615C307.278 420.615 307.369 420.462 307.369 420.274C307.369 420.085 307.526 419.932 307.717 419.932C307.909 419.932 308.221 419.556 308.409 419.097C308.598 418.638 308.948 418.174 309.186 418.065C309.424 417.956 309.618 417.716 309.618 417.532C309.618 417.348 309.709 417.197 309.819 417.197C310.078 417.197 310.555 416.327 310.555 415.854C310.555 415.243 312.93 415.382 313.06 416C313.148 416.416 313.592 416.513 315.423 416.513C316.802 416.513 317.679 416.645 317.679 416.855C317.679 417.07 318.953 417.197 321.127 417.197C324.019 417.197 324.593 417.279 324.683 417.709C324.771 418.126 325.213 418.222 327.035 418.222C328.329 418.222 329.328 418.367 329.395 418.564C329.462 418.761 330.453 418.906 331.73 418.906C333.529 418.906 333.969 419.003 334.056 419.419C334.13 419.77 334.431 419.932 335.013 419.932H335.863V417.026C335.863 415.316 335.786 414.12 335.675 414.12C335.567 414.12 335.488 413.033 335.488 411.544C335.488 409.572 335.422 408.924 335.207 408.774C335.005 408.632 334.926 408.058 334.926 406.753C334.926 405.75 334.841 404.834 334.738 404.718C334.635 404.602 334.551 403.746 334.551 402.817C334.551 401.544 334.481 401.128 334.27 401.128C334.051 401.128 333.988 400.673 333.988 399.077C333.988 397.938 333.905 397.026 333.801 397.026C333.698 397.026 333.613 396.251 333.613 395.305C333.613 394.092 333.53 393.527 333.332 393.389C333.115 393.237 333.051 392.579 333.051 390.514C333.051 389.04 332.967 387.74 332.864 387.624C332.76 387.508 332.676 386.652 332.676 385.723C332.676 384.45 332.607 384.034 332.395 384.034C332.037 384.034 331.998 380.801 332.348 380.09C332.904 378.959 333.051 378.572 333.051 378.237C333.051 378.041 333.141 377.88 333.252 377.88C333.362 377.88 333.57 377.688 333.714 377.453C334.292 376.508 334.541 376.171 334.661 376.171C334.731 376.171 335.066 375.632 335.406 374.974C335.747 374.316 336.16 373.778 336.325 373.778C336.49 373.778 336.673 373.547 336.732 373.265C336.792 372.983 336.922 372.752 337.021 372.752C337.264 372.752 337.738 371.865 337.738 371.409C337.738 371.208 337.864 371.043 338.019 371.043C338.173 371.043 338.3 370.889 338.3 370.701C338.3 370.513 338.457 370.359 338.649 370.359C338.84 370.359 339.156 369.974 339.349 369.504C339.543 369.034 339.787 368.65 339.893 368.65C339.998 368.65 340.312 368.265 340.59 367.795C340.868 367.325 341.184 366.94 341.291 366.94C341.399 366.94 341.487 366.709 341.487 366.427C341.487 366.145 341.613 365.915 341.768 365.915C341.923 365.915 342.049 365.761 342.049 365.573C342.049 365.385 342.156 365.231 342.285 365.231C342.415 365.231 342.749 364.846 343.027 364.376C343.305 363.906 343.612 363.521 343.708 363.521C343.805 363.521 343.932 363.291 343.992 363.009C344.051 362.726 344.229 362.496 344.386 362.496C344.544 362.496 344.674 362.342 344.674 362.154C344.674 361.966 344.8 361.812 344.955 361.812C345.11 361.812 345.236 361.581 345.236 361.299C345.236 361.017 345.327 360.786 345.437 360.786C345.547 360.786 345.758 360.567 345.906 360.298C346.053 360.029 346.173 359.644 346.173 359.444C346.173 359.242 346.353 359.077 346.573 359.077C346.793 359.077 347.24 358.577 347.567 357.966C348.154 356.867 348.628 356.216 349.173 355.761C349.845 355.198 350.32 352.239 349.738 352.239C349.636 352.239 349.129 351.47 348.61 350.53C348.092 349.59 347.579 348.821 347.47 348.821C347.212 348.821 346.736 347.949 346.736 347.478C346.736 347.276 346.655 347.111 346.556 347.111C346.458 347.111 345.65 345.803 344.762 344.205C343.874 342.607 343.038 341.299 342.905 341.299C342.773 341.299 342.506 340.915 342.312 340.444C342.119 339.974 341.854 339.59 341.724 339.59C341.593 339.59 341.487 339.425 341.487 339.223C341.487 339.022 341.366 338.638 341.219 338.368C341.072 338.1 340.861 337.88 340.751 337.88C340.64 337.88 340.55 337.715 340.55 337.514C340.55 337.068 340.079 336.171 339.845 336.171C339.752 336.171 339.563 335.786 339.425 335.316C339.287 334.846 339.077 334.462 338.957 334.462C338.838 334.462 338.542 334.077 338.3 333.607C338.058 333.137 337.748 332.752 337.611 332.752C337.475 332.752 337.363 332.54 337.363 332.28C337.363 332.021 337.025 331.175 336.613 330.4C335.888 329.038 335.522 326.598 336.042 326.598C336.14 326.598 336.36 326.06 336.532 325.402C336.703 324.744 336.96 324.205 337.103 324.205C337.246 324.205 337.363 324.04 337.363 323.838C337.363 323.638 337.483 323.253 337.63 322.984C337.778 322.715 337.989 322.496 338.099 322.496C338.21 322.496 338.3 322.331 338.3 322.129C338.3 321.928 338.42 321.544 338.568 321.274C338.715 321.006 338.926 320.786 339.036 320.786C339.147 320.786 339.237 320.621 339.237 320.42C339.237 319.947 339.714 319.077 339.974 319.077C340.084 319.077 340.175 318.912 340.175 318.71C340.175 318.238 340.652 317.368 340.911 317.368C341.021 317.368 341.112 317.203 341.112 317.001C341.112 316.528 341.589 315.658 341.848 315.658C341.959 315.658 342.049 315.493 342.049 315.291C342.049 314.819 342.526 313.949 342.785 313.949C342.896 313.949 342.987 313.784 342.987 313.582C342.987 313.109 343.464 312.239 343.723 312.239C343.833 312.239 343.924 312.074 343.924 311.873C343.924 311.4 344.401 310.53 344.66 310.53C344.771 310.53 344.861 310.365 344.861 310.163C344.861 309.691 345.338 308.821 345.597 308.821C345.708 308.821 345.798 308.656 345.798 308.454C345.798 307.981 346.276 307.111 346.535 307.111C346.645 307.111 346.736 306.946 346.736 306.744C346.736 306.272 347.213 305.402 347.472 305.402C347.583 305.402 347.673 305.237 347.673 305.035C347.673 304.562 348.15 303.692 348.409 303.692C348.52 303.692 348.61 303.532 348.61 303.336C348.61 303.139 348.821 302.564 349.079 302.057C349.62 300.992 349.657 300.67 349.267 300.397C349.112 300.289 348.985 299.986 348.985 299.724C348.985 299.444 348.792 299.248 348.517 299.248C348.259 299.248 348.048 299.094 348.048 298.906C348.048 298.718 347.846 298.564 347.6 298.564C347.353 298.564 347.102 298.333 347.043 298.051C346.98 297.751 346.699 297.538 346.367 297.538C346.054 297.538 345.798 297.385 345.798 297.197C345.798 297.009 345.597 296.855 345.35 296.855C345.103 296.855 344.853 296.624 344.793 296.342C344.734 296.06 344.472 295.829 344.211 295.829C343.95 295.829 343.736 295.675 343.736 295.487C343.736 295.299 343.578 295.145 343.384 295.145C343.191 295.145 342.928 294.915 342.799 294.632C342.671 294.35 342.328 294.12 342.038 294.12C341.747 294.12 341.457 293.966 341.393 293.778C341.329 293.59 341.123 293.436 340.933 293.436C340.744 293.436 340.541 293.205 340.482 292.923C340.419 292.623 340.138 292.41 339.806 292.41C339.493 292.41 339.237 292.256 339.237 292.068C339.237 291.88 339.079 291.727 338.885 291.727C338.692 291.727 338.428 291.496 338.3 291.214C338.172 290.932 337.866 290.701 337.621 290.701C337.376 290.701 337.175 290.547 337.175 290.359C337.175 290.171 336.88 290.017 336.519 290.017C336.061 290.017 335.863 289.862 335.863 289.504C335.863 289.222 335.699 288.991 335.499 288.991C335.299 288.991 335.083 288.838 335.019 288.65C334.956 288.462 334.707 288.308 334.466 288.308C334.225 288.308 333.98 288.077 333.92 287.795C333.858 287.495 333.576 287.282 333.245 287.282C332.932 287.282 332.676 287.128 332.676 286.94C332.676 286.752 332.474 286.598 332.228 286.598C331.981 286.598 331.73 286.368 331.671 286.085C331.612 285.803 331.397 285.573 331.193 285.573C330.99 285.573 330.771 285.419 330.708 285.231C330.644 285.043 330.386 284.889 330.134 284.889C329.882 284.889 329.677 284.738 329.677 284.554C329.677 284.369 329.466 284.121 329.208 284.003C328.95 283.885 328.739 283.652 328.739 283.485C328.739 283.316 328.453 283.179 328.103 283.179C327.711 283.179 327.426 282.983 327.359 282.667C327.3 282.385 327.116 282.154 326.951 282.154C326.621 282.154 326.115 281.366 326.115 280.853C326.115 280.674 325.988 280.337 325.834 280.103C325.623 279.784 325.552 278.927 325.552 276.684C325.552 274.44 325.623 273.584 325.834 273.265C326.049 272.939 326.115 272.047 326.115 269.462C326.115 267.439 326.19 266.085 326.302 266.085C326.415 266.085 326.49 264.732 326.49 262.709C326.49 260.124 326.556 259.232 326.771 258.906C326.984 258.583 327.052 257.707 327.052 255.274C327.052 253.365 327.128 252.068 327.24 252.068C327.353 252.068 327.427 250.587 327.427 248.308V244.547H326.49C325.974 244.547 325.552 244.393 325.552 244.205C325.552 243.985 323.423 243.863 319.54 243.863C314.446 243.863 313.485 243.785 313.247 243.35C313.02 242.936 312.373 242.838 309.886 242.838C307.958 242.838 306.806 242.709 306.806 242.496C306.806 242.308 306.595 242.154 306.338 242.154C306.046 242.154 305.869 241.96 305.869 241.641C305.869 241.359 305.794 241.128 305.703 241.128C305.612 241.128 305.488 240.859 305.427 240.53C305.367 240.201 305.244 239.701 305.154 239.419C304.739 238.121 304.557 237.336 304.557 236.849C304.557 236.558 304.43 236.232 304.275 236.124C304.121 236.015 303.994 235.559 303.994 235.109C303.994 234.659 303.91 234.291 303.807 234.291C303.704 234.291 303.619 233.763 303.619 233.119C303.619 232.474 303.493 231.715 303.338 231.433C303.183 231.151 303.057 230.611 303.057 230.232C303.057 229.854 302.973 229.45 302.869 229.333C302.766 229.217 302.682 228.819 302.682 228.448C302.682 228.077 302.555 227.685 302.401 227.577C302.242 227.466 302.12 226.956 302.12 226.411C302.12 225.878 302.035 225.347 301.932 225.231C301.829 225.115 301.745 224.585 301.745 224.056C301.745 223.526 301.618 222.901 301.464 222.667C301.309 222.432 301.182 221.962 301.182 221.62C301.182 221.278 301.098 220.903 300.995 220.786C300.892 220.67 300.807 220.216 300.807 219.777C300.807 219.338 300.681 218.891 300.526 218.782C300.372 218.674 300.245 218.205 300.245 217.74C300.245 217.275 300.161 216.8 300.058 216.684C299.954 216.568 299.87 216.097 299.87 215.638C299.87 215.124 299.762 214.803 299.589 214.803C299.386 214.803 299.308 214.424 299.308 213.436C299.308 212.684 299.223 212.068 299.12 212.068C299.017 212.068 298.933 211.756 298.933 211.374C298.933 210.992 298.806 210.591 298.652 210.483C298.478 210.362 298.37 209.842 298.37 209.126C298.37 208.488 298.286 207.966 298.183 207.966C298.08 207.966 297.995 207.581 297.995 207.111C297.995 206.342 297.92 206.256 297.246 206.256C296.833 206.256 296.496 206.41 296.496 206.598C296.496 206.786 296.324 206.94 296.115 206.94C295.906 206.94 295.685 207.171 295.626 207.453C295.567 207.735 295.368 207.966 295.183 207.966C294.999 207.966 294.649 208.348 294.406 208.815C294.164 209.281 293.817 209.666 293.637 209.669C293.457 209.673 293.309 209.829 293.309 210.017C293.309 210.205 293.098 210.359 292.84 210.359C292.549 210.359 292.372 210.553 292.372 210.872C292.372 211.154 292.218 211.385 292.031 211.385C291.843 211.385 291.358 211.923 290.953 212.581C290.548 213.239 290.068 213.778 289.888 213.778C289.707 213.778 289.56 214.009 289.56 214.291C289.56 214.609 289.382 214.803 289.091 214.803C288.833 214.803 288.622 214.939 288.622 215.105C288.622 215.272 288.475 215.497 288.294 215.609C287.976 215.803 287.312 216.509 287.123 216.855C286.944 217.181 286.275 217.88 285.576 218.473C285.189 218.799 284.873 219.262 284.873 219.499C284.873 219.737 284.693 219.932 284.473 219.932C284.253 219.932 283.877 220.316 283.638 220.786C283.399 221.256 283.031 221.641 282.82 221.641C282.609 221.641 282.436 221.795 282.436 221.983C282.436 222.171 282.33 222.325 282.2 222.325C282.07 222.325 281.736 222.709 281.458 223.179C281.18 223.65 280.82 224.034 280.657 224.034C280.495 224.034 280.313 224.265 280.254 224.547C280.195 224.829 279.983 225.06 279.783 225.06C279.584 225.06 279.193 225.444 278.915 225.915C278.637 226.385 278.297 226.769 278.16 226.769C277.86 226.769 277.375 227.6 277.375 228.112C277.375 228.314 277.164 228.479 276.906 228.479C276.648 228.479 276.437 228.632 276.437 228.821C276.437 229.009 276.132 229.162 275.759 229.162C275.099 229.162 273.625 227.105 273.625 226.184C273.625 226.005 273.414 225.653 273.157 225.402C272.899 225.15 272.687 224.701 272.685 224.403C272.683 224.107 272.472 223.501 272.216 223.058C271.96 222.615 271.751 222.115 271.751 221.947C271.751 221.779 271.624 221.641 271.469 221.641C271.315 221.641 271.188 221.41 271.188 221.128C271.188 220.846 271.104 220.615 271.001 220.615C270.898 220.615 270.813 220.421 270.813 220.185C270.813 219.948 270.602 219.339 270.345 218.832C270.087 218.325 269.876 217.834 269.876 217.742C269.876 217.65 269.665 217.159 269.407 216.651C269.15 216.144 268.939 215.521 268.939 215.267C268.939 215.012 268.812 214.803 268.658 214.803C268.503 214.803 268.376 214.638 268.376 214.437C268.376 213.964 267.899 213.094 267.64 213.094C267.529 213.094 267.439 212.766 267.439 212.365C267.439 211.964 267.144 211.128 266.783 210.508C266.422 209.887 266.127 209.215 266.127 209.015C266.127 208.814 266 208.65 265.846 208.65C265.691 208.65 265.564 208.353 265.564 207.991C265.564 207.628 265.353 207.029 265.096 206.659C264.838 206.29 264.627 205.883 264.627 205.756C264.627 205.391 264.113 204.547 263.891 204.547C263.78 204.547 263.69 204.219 263.69 203.818C263.69 203.417 263.394 202.581 263.034 201.961C262.673 201.34 262.378 200.668 262.378 200.468C262.378 200.267 262.251 200.103 262.096 200.103C261.937 200.103 261.815 199.796 261.815 199.394C261.815 198.638 261.409 197.709 261.079 197.709C260.968 197.709 260.878 197.544 260.878 197.343C260.878 196.613 260.328 196 259.673 196C259.305 196 259.003 196.115 259.003 196.256ZM259.94 219.419C259.94 219.701 260.028 219.932 260.134 219.932C260.24 219.932 260.383 220.197 260.451 220.522C260.52 220.847 260.77 221.442 261.008 221.844C261.246 222.245 261.44 222.749 261.44 222.962C261.44 223.176 261.503 223.35 261.581 223.351C261.658 223.351 261.996 224.088 262.333 224.988C262.669 225.888 263.112 226.844 263.317 227.114C263.522 227.384 263.69 227.794 263.69 228.026C263.69 228.258 263.901 228.832 264.158 229.303C264.416 229.773 264.627 230.318 264.627 230.515C264.627 230.711 264.754 230.872 264.908 230.872C265.063 230.872 265.189 231.037 265.189 231.238C265.189 231.439 265.295 231.819 265.424 232.081C265.942 233.135 266.127 233.589 266.127 233.809C266.127 233.935 266.422 234.547 266.783 235.168C267.144 235.788 267.439 236.45 267.439 236.637C267.439 237.128 268.661 239.419 268.923 239.419C269.045 239.419 269.339 239.803 269.578 240.274C269.817 240.744 270.193 241.128 270.413 241.128C270.644 241.128 270.813 241.345 270.813 241.641C270.813 241.96 270.99 242.154 271.282 242.154C271.54 242.154 271.751 242.308 271.751 242.496C271.751 242.684 272.037 242.838 272.387 242.838C272.779 242.838 273.064 243.034 273.131 243.35C273.219 243.769 273.681 243.863 275.658 243.863C277.581 243.863 278.126 243.758 278.312 243.35C278.44 243.068 278.788 242.838 279.085 242.838C279.381 242.838 279.624 242.684 279.624 242.496C279.624 242.308 279.835 242.154 280.093 242.154C280.384 242.154 280.561 241.96 280.561 241.641C280.561 241.322 280.739 241.128 281.03 241.128C281.288 241.128 281.499 240.974 281.499 240.786C281.499 240.598 281.625 240.444 281.78 240.444C281.935 240.444 282.061 240.214 282.061 239.932C282.061 239.596 282.246 239.419 282.596 239.419C282.907 239.419 283.343 239.061 283.637 238.564C283.915 238.094 284.265 237.709 284.414 237.709C284.563 237.709 284.686 237.556 284.686 237.368C284.686 237.179 284.812 237.026 284.967 237.026C285.121 237.026 285.248 236.795 285.248 236.513C285.248 236.194 285.425 236 285.717 236C285.974 236 286.185 235.863 286.185 235.695C286.185 235.527 286.396 235.294 286.654 235.176C286.912 235.058 287.123 234.81 287.123 234.626C287.123 234.442 287.211 234.291 287.318 234.291C287.502 234.291 287.714 234.023 288.334 233.009C288.478 232.774 288.749 232.576 288.937 232.57C289.353 232.557 289.935 231.794 289.935 231.262C289.935 231.047 290.145 230.872 290.403 230.872C290.661 230.872 290.872 230.718 290.872 230.53C290.872 230.342 290.998 230.188 291.153 230.188C291.308 230.188 291.434 229.957 291.434 229.675C291.434 229.356 291.611 229.162 291.903 229.162C292.161 229.162 292.372 229.009 292.372 228.821C292.372 228.632 292.543 228.479 292.753 228.479C292.962 228.479 293.181 228.249 293.24 227.968C293.379 227.309 293.684 227.648 293.684 228.462C293.684 228.807 293.81 229.178 293.965 229.286C294.128 229.4 294.246 229.911 294.246 230.499C294.246 231.058 294.331 231.61 294.434 231.726C294.537 231.843 294.621 232.241 294.621 232.612C294.621 232.983 294.748 233.375 294.902 233.483C295.057 233.591 295.184 234.039 295.184 234.478C295.184 234.917 295.268 235.371 295.371 235.487C295.474 235.603 295.558 236.209 295.558 236.833C295.558 237.457 295.685 238.159 295.84 238.393C295.994 238.627 296.121 239.098 296.121 239.44C296.121 239.782 296.205 240.157 296.308 240.274C296.411 240.39 296.496 240.788 296.496 241.159C296.496 241.53 296.622 241.922 296.777 242.03C296.932 242.138 297.058 242.595 297.058 243.045C297.058 243.495 297.142 243.863 297.246 243.863C297.349 243.863 297.433 244.391 297.433 245.035C297.433 245.68 297.56 246.438 297.714 246.721C297.869 247.003 297.995 247.398 297.995 247.599C297.995 247.801 298.08 247.966 298.183 247.966C298.286 247.966 298.37 248.279 298.37 248.661C298.37 249.042 298.497 249.444 298.652 249.551C298.806 249.66 298.933 249.897 298.933 250.078C298.933 250.521 299.419 251.385 299.669 251.385C299.78 251.385 299.87 251.55 299.87 251.751C299.87 252.207 300.343 253.094 300.587 253.094C300.686 253.094 300.816 253.325 300.875 253.607C300.934 253.889 301.155 254.12 301.364 254.12C301.573 254.12 301.745 254.274 301.745 254.462C301.745 254.65 301.835 254.803 301.946 254.803C302.056 254.803 302.273 255.034 302.428 255.316C302.582 255.598 302.914 255.829 303.164 255.829C303.415 255.829 303.619 255.983 303.619 256.171C303.619 256.359 303.904 256.513 304.252 256.513C304.601 256.513 304.991 256.744 305.119 257.026C305.309 257.443 305.921 257.538 308.411 257.538C310.249 257.538 311.517 257.675 311.587 257.88C311.657 258.088 313.057 258.222 315.16 258.222H318.616V260.75C318.616 262.681 318.55 263.324 318.335 263.474C318.111 263.631 318.054 264.368 318.054 267.1C318.054 269.159 317.979 270.53 317.867 270.53C317.748 270.53 317.679 272.98 317.679 277.197C317.679 281.413 317.748 283.863 317.867 283.863C317.97 283.863 318.054 284.407 318.054 285.071C318.054 285.828 318.158 286.351 318.335 286.474C318.49 286.583 318.619 286.924 318.622 287.233C318.63 287.942 319.058 288.991 319.34 288.991C319.458 288.991 319.554 289.309 319.554 289.697C319.554 290.622 321.471 294.12 321.979 294.12C322.191 294.12 322.366 294.312 322.367 294.547C322.368 294.946 323.177 295.829 323.541 295.829C323.631 295.829 323.831 296.06 323.986 296.342C324.14 296.624 324.425 296.855 324.618 296.855C324.81 296.855 325.02 297.009 325.084 297.197C325.148 297.385 325.369 297.538 325.577 297.538C325.784 297.538 326.081 297.769 326.235 298.051C326.39 298.333 326.721 298.564 326.972 298.564C327.222 298.564 327.427 298.718 327.427 298.906C327.427 299.094 327.638 299.248 327.896 299.248C328.187 299.248 328.364 299.442 328.364 299.761C328.364 300.079 328.542 300.274 328.833 300.274C329.091 300.274 329.302 300.427 329.302 300.615C329.302 300.803 329.504 300.957 329.75 300.957C329.997 300.957 330.248 301.188 330.307 301.47C330.375 301.792 330.661 301.983 331.077 301.983C331.441 301.983 331.739 302.137 331.739 302.325C331.739 302.513 331.95 302.667 332.207 302.667C332.499 302.667 332.676 302.861 332.676 303.179C332.676 303.498 332.853 303.692 333.145 303.692C333.403 303.692 333.613 303.846 333.613 304.034C333.613 304.222 333.815 304.376 334.062 304.376C334.309 304.376 334.559 304.607 334.619 304.889C334.678 305.171 334.898 305.402 335.107 305.402C335.673 305.402 335.706 305.326 332.676 310.838C331.13 313.651 329.864 316.118 329.864 316.319C329.864 316.52 329.781 316.684 329.68 316.684C329.579 316.684 329.443 317.068 329.379 317.538C329.314 318.009 329.186 318.393 329.094 318.393C329.002 318.393 328.927 318.682 328.927 319.035C328.927 319.388 328.8 319.868 328.646 320.103C328.491 320.337 328.364 320.971 328.364 321.512C328.364 322.053 328.28 322.496 328.177 322.496C328.06 322.496 327.99 324.547 327.99 327.966C327.99 331.385 328.06 333.436 328.177 333.436C328.28 333.436 328.364 333.809 328.364 334.266C328.364 334.723 328.491 335.327 328.646 335.609C328.8 335.891 328.927 336.351 328.927 336.632C328.927 337.261 329.531 339.243 329.724 339.245C329.801 339.247 329.864 339.409 329.864 339.606C329.864 340.171 332.423 344.718 332.74 344.718C332.897 344.718 333.078 345.018 333.142 345.385C333.206 345.75 333.422 346.145 333.623 346.262C333.824 346.379 333.988 346.617 333.988 346.792C333.988 346.968 334.115 347.111 334.27 347.111C334.424 347.111 334.551 347.276 334.551 347.478C334.551 347.679 334.671 348.063 334.818 348.332C334.966 348.601 335.177 348.821 335.287 348.821C335.398 348.821 335.488 348.985 335.488 349.187C335.488 349.556 335.944 350.53 336.117 350.53C336.167 350.53 336.468 351.003 336.786 351.582C337.103 352.161 337.363 352.71 337.363 352.803C337.363 353.117 336.828 353.949 336.626 353.949C336.516 353.949 336.425 354.179 336.425 354.462C336.425 354.744 336.299 354.974 336.144 354.974C335.989 354.974 335.863 355.128 335.863 355.316C335.863 355.504 335.757 355.658 335.627 355.658C335.497 355.658 335.163 356.043 334.885 356.513C334.607 356.983 334.292 357.368 334.184 357.368C334.076 357.368 333.988 357.598 333.988 357.88C333.988 358.165 333.821 358.393 333.613 358.393C333.407 358.393 333.238 358.547 333.238 358.735C333.238 358.923 333.112 359.077 332.957 359.077C332.803 359.077 332.676 359.308 332.676 359.59C332.676 359.872 332.55 360.103 332.395 360.103C332.24 360.103 332.114 360.246 332.114 360.421C332.114 360.597 331.949 360.835 331.748 360.952C331.548 361.068 331.331 361.463 331.267 361.829C331.203 362.196 330.986 362.496 330.783 362.496C330.58 362.496 330.366 362.726 330.307 363.009C330.248 363.291 330.103 363.524 329.985 363.528C329.867 363.532 329.434 364.07 329.022 364.725C328.611 365.379 328.211 365.915 328.132 365.915C328.054 365.915 327.99 366.145 327.99 366.427C327.99 366.709 327.899 366.94 327.788 366.94C327.678 366.94 327.467 367.16 327.32 367.428C327.173 367.697 327.052 368.082 327.052 368.283C327.052 368.485 326.962 368.65 326.851 368.65C326.741 368.65 326.53 368.869 326.382 369.138C326.235 369.407 326.115 369.791 326.115 369.992C326.115 370.194 326.009 370.36 325.881 370.362C325.593 370.365 325.178 371.921 325.178 372.991C325.178 373.462 325.065 373.778 324.896 373.778C324.7 373.778 324.615 374.138 324.615 374.974C324.615 375.632 324.531 376.171 324.428 376.171C324.311 376.171 324.24 378.222 324.24 381.641C324.24 385.06 324.311 387.111 324.428 387.111C324.531 387.111 324.615 387.885 324.615 388.832C324.615 390.044 324.698 390.609 324.896 390.748C325.113 390.9 325.178 391.558 325.178 393.623C325.178 395.097 325.262 396.397 325.365 396.513C325.468 396.629 325.552 397.412 325.552 398.253C325.552 399.297 325.642 399.844 325.834 399.979C326.017 400.107 326.115 400.639 326.115 401.507V402.838H322.821C320.143 402.838 319.474 402.742 319.246 402.325C319.072 402.008 318.612 401.812 318.04 401.812C317.18 401.812 317.117 401.753 317.117 400.957C317.117 400.426 317.223 400.103 317.398 400.103C317.573 400.103 317.679 399.779 317.679 399.248C317.679 398.778 317.763 398.393 317.867 398.393C317.97 398.393 318.054 397.871 318.054 397.233C318.054 396.517 318.162 395.997 318.335 395.876C318.528 395.742 318.616 395.192 318.616 394.131C318.616 393.279 318.701 392.581 318.804 392.581C318.922 392.581 318.991 390.245 318.991 386.256C318.991 382.268 318.922 379.932 318.804 379.932C318.7 379.932 318.616 379.016 318.616 377.869C318.616 376.352 318.542 375.756 318.335 375.611C318.152 375.483 318.054 374.95 318.054 374.083C318.054 373.351 317.97 372.752 317.867 372.752C317.763 372.752 317.679 372.214 317.679 371.556C317.679 370.72 317.594 370.359 317.398 370.359C317.19 370.359 317.117 369.962 317.117 368.841C317.117 368.006 317.032 367.227 316.929 367.111C316.826 366.995 316.742 366.597 316.742 366.226C316.742 365.855 316.615 365.462 316.461 365.355C316.306 365.246 316.179 364.79 316.179 364.339C316.179 363.89 316.095 363.521 315.992 363.521C315.889 363.521 315.804 363.209 315.804 362.827C315.804 362.445 315.678 362.044 315.523 361.936C315.369 361.827 315.242 361.471 315.242 361.144C315.242 360.354 314.698 358.393 314.479 358.393C314.383 358.393 314.305 358.108 314.305 357.759C314.305 357.411 314.094 356.71 313.836 356.203C313.578 355.696 313.367 355.051 313.367 354.772C313.367 354.294 313.246 353.946 312.664 352.765C312.536 352.503 312.43 352.179 312.43 352.046C312.43 351.914 312.219 351.449 311.961 351.013C311.704 350.577 311.49 350.021 311.487 349.777C311.479 349.165 311.029 348.137 310.769 348.137C310.652 348.137 310.555 347.972 310.555 347.77C310.555 347.297 310.078 346.427 309.819 346.427C309.709 346.427 309.618 346.121 309.618 345.748C309.618 344.956 305.259 336.855 304.833 336.855C304.681 336.855 304.557 336.701 304.557 336.513C304.557 336.325 304.43 336.171 304.275 336.171C304.121 336.171 303.994 336.006 303.994 335.804C303.994 335.332 303.517 334.462 303.258 334.462C303.147 334.462 303.057 334.318 303.057 334.143C303.057 333.968 302.871 333.716 302.644 333.585C302.161 333.305 301.745 332.615 301.745 332.093C301.745 331.891 301.618 331.726 301.464 331.726C301.309 331.726 301.182 331.573 301.182 331.385C301.182 331.197 301.011 331.043 300.801 331.043C300.592 331.043 300.372 330.812 300.313 330.53C300.253 330.248 300.023 330.017 299.801 330.017C299.579 330.017 299.238 329.632 299.045 329.162C298.851 328.692 298.536 328.308 298.344 328.308C298.152 328.308 297.995 328.154 297.995 327.966C297.995 327.778 297.905 327.624 297.794 327.624C297.684 327.624 297.467 327.393 297.313 327.111C297.158 326.829 296.827 326.598 296.576 326.598C296.326 326.598 296.121 326.444 296.121 326.256C296.121 326.068 295.919 325.915 295.672 325.915C295.425 325.915 295.175 325.684 295.116 325.402C295.056 325.12 294.841 324.889 294.638 324.889C294.435 324.889 294.216 324.735 294.152 324.547C294.089 324.359 293.841 324.205 293.602 324.205C293.363 324.205 293.062 323.974 292.934 323.692C292.785 323.365 292.37 323.179 291.786 323.179C291.283 323.179 290.872 323.026 290.872 322.838C290.872 322.65 290.489 322.496 290.022 322.496C289.44 322.496 289.139 322.334 289.065 321.983C288.983 321.591 288.631 321.47 287.582 321.47C286.826 321.47 286.155 321.316 286.092 321.128C286.025 320.93 285 320.786 283.655 320.786C282.31 320.786 281.285 320.93 281.218 321.128C281.154 321.316 280.48 321.47 279.72 321.47C278.742 321.47 278.257 321.62 278.057 321.983C277.89 322.289 277.431 322.496 276.919 322.496C276.448 322.496 276.062 322.65 276.062 322.838C276.062 323.026 275.731 323.179 275.326 323.179C274.921 323.179 274.463 323.41 274.308 323.692C274.153 323.974 273.81 324.205 273.545 324.205C273.28 324.205 273.063 324.359 273.063 324.547C273.063 324.735 272.862 324.889 272.617 324.889C272.372 324.889 272.067 325.12 271.938 325.402C271.81 325.684 271.588 325.915 271.446 325.915C271.304 325.915 271.188 326.068 271.188 326.256C271.188 326.444 270.932 326.598 270.62 326.598C270.288 326.598 270.007 326.811 269.944 327.111C269.884 327.393 269.719 327.624 269.575 327.624C269.431 327.624 269.314 327.778 269.314 327.966C269.314 328.154 269.142 328.308 268.933 328.308C268.724 328.308 268.503 328.538 268.444 328.821C268.385 329.103 268.177 329.333 267.981 329.333C267.786 329.333 267.626 329.487 267.626 329.675C267.626 329.863 267.5 330.017 267.345 330.017C267.191 330.017 267.064 330.248 267.064 330.53C267.064 330.812 266.902 331.043 266.705 331.043C266.508 331.043 266.042 331.581 265.671 332.239C265.299 332.897 264.912 333.436 264.811 333.436C264.71 333.436 264.627 333.667 264.627 333.949C264.627 334.231 264.508 334.462 264.364 334.462C264.218 334.462 263.662 335.231 263.127 336.171C262.593 337.111 262.079 337.88 261.985 337.88C261.892 337.88 261.815 338.041 261.815 338.237C261.815 338.433 261.604 339.009 261.346 339.515C261.089 340.023 260.878 340.632 260.878 340.868C260.878 341.105 260.758 341.299 260.612 341.299C260.466 341.299 260.173 341.722 259.962 342.239L259.577 343.179L259.572 342.239C259.568 341.637 259.465 341.299 259.284 341.299C259.13 341.299 259.003 341.134 259.003 340.932C259.003 340.46 258.526 339.59 258.267 339.59C258.156 339.59 258.066 339.425 258.066 339.223C258.066 338.75 257.589 337.88 257.33 337.88C257.219 337.88 257.129 337.715 257.129 337.514C257.129 337.041 256.651 336.171 256.392 336.171C256.282 336.171 256.191 336.006 256.191 335.804C256.191 335.332 255.714 334.462 255.455 334.462C255.344 334.462 255.254 334.318 255.254 334.143C255.254 333.968 255.068 333.716 254.841 333.585C254.358 333.305 253.942 332.615 253.942 332.093C253.942 331.891 253.835 331.726 253.705 331.726C253.575 331.726 253.31 331.342 253.116 330.872C252.923 330.402 252.636 330.017 252.48 330.017C252.324 330.017 251.92 329.632 251.582 329.162C251.244 328.692 250.877 328.308 250.767 328.308C250.657 328.308 250.567 328.154 250.567 327.966C250.567 327.778 250.356 327.624 250.099 327.624C249.807 327.624 249.63 327.43 249.63 327.111C249.63 326.792 249.453 326.598 249.161 326.598C248.904 326.598 248.693 326.444 248.693 326.256C248.693 326.068 248.491 325.915 248.244 325.915C247.997 325.915 247.747 325.684 247.687 325.402C247.628 325.12 247.413 324.889 247.21 324.889C247.006 324.889 246.788 324.735 246.724 324.547C246.661 324.359 246.413 324.205 246.174 324.205C245.935 324.205 245.634 323.974 245.506 323.692C245.363 323.379 244.953 323.179 244.452 323.179C244.001 323.179 243.631 323.026 243.631 322.838C243.631 322.65 243.218 322.496 242.714 322.496C242.072 322.496 241.765 322.342 241.689 321.983C241.605 321.583 241.23 321.47 239.982 321.47C239.04 321.47 238.382 321.329 238.382 321.128C238.382 320.92 237.511 320.786 236.144 320.786C234.854 320.786 233.856 320.931 233.789 321.128C233.726 321.316 233.001 321.47 232.179 321.47C231.023 321.47 230.66 321.586 230.577 321.983C230.501 322.342 230.194 322.496 229.551 322.496C229.047 322.496 228.634 322.65 228.634 322.838C228.634 323.026 228.252 323.179 227.785 323.179C227.202 323.179 226.901 323.341 226.828 323.692C226.768 323.974 226.522 324.205 226.282 324.205C226.041 324.205 225.792 324.359 225.729 324.547C225.665 324.735 225.412 324.889 225.166 324.889C224.921 324.889 224.671 325.033 224.611 325.209C224.452 325.679 223.381 326.598 222.992 326.598C222.808 326.598 222.609 326.743 222.549 326.92C222.489 327.097 222.062 327.585 221.6 328.006C221.138 328.426 220.761 328.897 220.761 329.052C220.761 329.207 220.634 329.333 220.48 329.333C220.325 329.333 220.198 329.487 220.198 329.675C220.198 329.863 220.027 330.017 219.817 330.017C219.608 330.017 219.388 330.248 219.329 330.53C219.269 330.812 219.104 331.043 218.96 331.043C218.816 331.043 218.699 331.197 218.699 331.385C218.699 331.573 218.542 331.726 218.35 331.726C218.158 331.726 217.843 332.111 217.649 332.581C217.456 333.051 217.191 333.436 217.061 333.436C216.93 333.436 216.824 333.667 216.824 333.949C216.824 334.231 216.661 334.462 216.463 334.462C216.264 334.462 215.935 334.846 215.733 335.316C215.53 335.786 215.307 336.171 215.237 336.171C215.037 336.171 214.574 337.109 214.574 337.514C214.574 337.715 214.468 337.88 214.338 337.88C214.208 337.88 213.943 338.265 213.749 338.735C213.556 339.205 213.28 339.59 213.136 339.59C212.993 339.59 212.819 339.859 212.75 340.188C212.682 340.517 212.22 341.507 211.725 342.388C211.23 343.269 210.825 344.136 210.825 344.314C210.825 344.492 210.65 344.721 210.436 344.824C210.223 344.926 210.002 345.328 209.946 345.718C209.89 346.109 209.758 346.427 209.652 346.427C209.383 346.427 208.964 347.509 208.957 348.222C208.953 348.551 208.838 348.821 208.701 348.821C208.564 348.821 208.332 349.244 208.186 349.761C207.915 350.717 207.729 351.203 207.31 352.056C207.181 352.318 207.076 352.697 207.076 352.898C207.076 353.1 206.995 353.265 206.897 353.265C206.799 353.265 206.57 353.842 206.388 354.547C206.066 355.795 205.92 356.198 205.436 357.184C205.307 357.446 205.201 357.979 205.201 358.368C205.201 358.758 205.096 359.078 204.967 359.079C204.684 359.083 204.264 360.632 204.264 361.673C204.264 362.085 204.137 362.511 203.983 362.62C203.828 362.727 203.702 363.129 203.702 363.51C203.702 363.892 203.617 364.205 203.514 364.205C203.411 364.205 203.327 364.573 203.327 365.023C203.327 365.473 203.2 365.93 203.045 366.038C202.891 366.146 202.764 366.615 202.764 367.08C202.764 367.545 202.68 368.021 202.577 368.137C202.474 368.253 202.389 368.784 202.389 369.317C202.389 369.862 202.267 370.372 202.108 370.483C201.916 370.617 201.827 371.165 201.827 372.209C201.827 373.05 201.743 373.832 201.64 373.949C201.536 374.065 201.452 374.777 201.452 375.532C201.452 376.295 201.327 377.131 201.171 377.416C200.972 377.779 200.89 378.665 200.89 380.449C200.89 381.834 200.805 383.063 200.702 383.179C200.599 383.297 200.515 384.835 200.515 386.619C200.515 388.543 200.591 389.846 200.702 389.846C200.81 389.846 200.89 390.875 200.89 392.25C200.89 394.072 200.958 394.702 201.171 394.85C201.343 394.971 201.452 395.49 201.452 396.187C201.452 396.815 201.536 397.422 201.64 397.538C201.743 397.655 201.827 398.195 201.827 398.738C201.827 399.282 201.94 399.85 202.078 400C202.816 400.803 202.567 401.812 201.631 401.812C201.029 401.812 200.669 401.98 200.568 402.309C200.445 402.712 199.741 402.826 196.903 402.908C193.357 403.009 192.968 402.878 193.672 401.812C193.872 401.509 193.954 400.71 193.954 399.056C193.954 397.773 194.038 396.629 194.141 396.513C194.244 396.397 194.328 395.481 194.328 394.478C194.328 393.173 194.408 392.598 194.61 392.457C194.808 392.319 194.891 391.754 194.891 390.541C194.891 389.595 194.975 388.821 195.078 388.821C195.181 388.821 195.266 387.963 195.266 386.915C195.266 385.679 195.364 384.832 195.547 384.498C195.941 383.78 195.941 379.16 195.547 378.442C195.379 378.136 195.266 377.3 195.266 376.367C195.266 375.507 195.181 374.803 195.078 374.803C194.975 374.803 194.891 374.414 194.891 373.938C194.891 373.462 194.764 372.984 194.61 372.876C194.455 372.768 194.328 372.404 194.328 372.068C194.328 371.732 194.119 371.094 193.863 370.651C193.607 370.209 193.396 369.666 193.394 369.445C193.391 369.018 192.325 366.94 192.109 366.94C192.039 366.94 191.754 366.556 191.476 366.085C191.198 365.615 190.882 365.231 190.775 365.231C190.667 365.231 190.579 365.056 190.579 364.841C190.579 364.315 190 363.545 189.595 363.532C189.415 363.526 189.267 363.291 189.267 363.009C189.267 362.726 189.184 362.496 189.083 362.496C188.982 362.496 188.595 361.957 188.223 361.299C187.852 360.641 187.461 360.103 187.356 360.103C187.167 360.103 186.526 359.144 185.926 357.966C185.759 357.637 185.527 357.368 185.411 357.368C185.295 357.368 184.896 356.829 184.525 356.171C184.153 355.513 183.73 354.974 183.585 354.974C183.44 354.974 183.162 354.59 182.969 354.12C182.775 353.65 182.51 353.265 182.38 353.265C182.25 353.265 182.143 353.034 182.143 352.752C182.143 352.47 182.234 352.239 182.344 352.239C182.455 352.239 182.665 352.02 182.813 351.751C182.96 351.482 183.081 351.097 183.081 350.897C183.081 350.695 183.171 350.53 183.282 350.53C183.541 350.53 184.018 349.66 184.018 349.187C184.018 348.985 184.19 348.821 184.401 348.821C184.631 348.821 185.425 347.658 186.388 345.915C187.27 344.316 188.068 343.009 188.161 343.009C188.254 343.009 188.33 342.844 188.33 342.642C188.33 342.169 188.807 341.299 189.066 341.299C189.177 341.299 189.267 341.162 189.267 340.993C189.267 340.825 189.476 340.325 189.732 339.882C189.988 339.439 190.199 338.808 190.201 338.479C190.203 338.15 190.289 337.88 190.392 337.88C190.495 337.88 190.579 337.668 190.579 337.409C190.579 337.15 190.706 336.747 190.86 336.513C191.015 336.279 191.142 335.721 191.142 335.274C191.142 334.827 191.226 334.462 191.329 334.462C191.432 334.462 191.517 333.709 191.517 332.789C191.517 331.617 191.601 331.057 191.798 330.919C192.192 330.644 192.197 325.645 191.804 324.697C191.652 324.332 191.526 323.457 191.523 322.752C191.519 322.047 191.432 321.47 191.329 321.47C191.226 321.47 191.142 321.085 191.142 320.615C191.142 320.084 191.035 319.761 190.86 319.761C190.686 319.761 190.579 319.438 190.579 318.906C190.579 318.436 190.495 318.051 190.392 318.051C190.289 318.051 190.204 317.755 190.204 317.392C190.204 317.03 189.993 316.431 189.736 316.061C189.478 315.691 189.267 315.219 189.267 315.01C189.267 314.803 189.177 314.632 189.066 314.632C188.78 314.632 188.401 313.873 188.248 312.992C188.173 312.558 187.964 312.239 187.755 312.239C187.555 312.239 187.392 312.009 187.392 311.726C187.392 311.444 187.302 311.214 187.191 311.214C186.932 311.214 186.455 310.344 186.455 309.871C186.455 309.669 186.365 309.504 186.254 309.504C185.995 309.504 185.518 308.634 185.518 308.162C185.518 307.96 185.427 307.795 185.317 307.795C185.057 307.795 184.58 306.925 184.58 306.452C184.58 306.25 184.454 306.085 184.299 306.085C184.145 306.085 184.018 305.932 184.018 305.744C184.018 305.556 184.229 305.402 184.487 305.402C184.778 305.402 184.955 305.208 184.955 304.889C184.955 304.57 185.132 304.376 185.424 304.376C185.682 304.376 185.893 304.222 185.893 304.034C185.893 303.846 186.097 303.692 186.348 303.692C186.598 303.692 186.93 303.462 187.084 303.179C187.239 302.897 187.54 302.667 187.754 302.667C187.967 302.667 188.142 302.513 188.142 302.325C188.142 302.137 188.385 301.983 188.682 301.983C188.978 301.983 189.326 301.752 189.454 301.47C189.583 301.188 189.841 300.957 190.029 300.957C190.216 300.957 190.422 300.803 190.485 300.615C190.549 300.427 190.768 300.274 190.971 300.274C191.174 300.274 191.39 300.043 191.449 299.761C191.508 299.479 191.758 299.248 192.005 299.248C192.252 299.248 192.454 299.094 192.454 298.906C192.454 298.718 192.665 298.564 192.922 298.564C193.214 298.564 193.391 298.37 193.391 298.051C193.391 297.695 193.588 297.538 194.036 297.538C194.391 297.538 194.733 297.385 194.797 297.197C194.861 297.009 195.079 296.855 195.283 296.855C195.486 296.855 195.701 296.624 195.76 296.342C195.82 296.06 196.07 295.829 196.317 295.829C196.563 295.829 196.765 295.675 196.765 295.487C196.765 295.299 196.922 295.145 197.114 295.145C197.306 295.145 197.621 294.761 197.815 294.291C198.008 293.821 198.264 293.436 198.383 293.436C198.502 293.436 198.649 293.205 198.708 292.923C198.767 292.641 198.939 292.41 199.09 292.41C199.241 292.41 199.412 292.141 199.47 291.812C199.528 291.483 199.871 290.609 200.232 289.869C200.594 289.13 200.89 288.245 200.89 287.903C200.89 287.562 201.016 287.282 201.171 287.282C201.346 287.282 201.452 286.959 201.452 286.427C201.452 285.957 201.536 285.573 201.64 285.573C201.76 285.573 201.827 282.268 201.827 276.342C201.827 270.839 201.756 267.111 201.652 267.111C201.555 267.111 201.45 265.496 201.417 263.521L201.358 259.93L203.444 259.931C205.07 259.932 205.582 260.045 205.764 260.444C205.946 260.845 206.463 260.957 208.13 260.957C209.427 260.957 210.263 261.091 210.263 261.299C210.263 261.509 211.196 261.641 212.689 261.641C214.104 261.641 215.163 261.498 215.231 261.299C215.294 261.111 215.639 260.957 215.997 260.957C216.403 260.957 216.689 260.764 216.756 260.444C216.816 260.162 217.066 259.932 217.313 259.932C217.559 259.932 217.761 259.778 217.761 259.59C217.761 259.402 217.933 259.248 218.142 259.248C218.351 259.248 218.572 259.017 218.631 258.735C218.69 258.453 218.883 258.222 219.06 258.222C219.676 258.222 222.073 253.345 222.073 252.092C222.073 251.703 222.157 251.385 222.26 251.385C222.364 251.385 222.448 251.22 222.448 251.018C222.448 250.817 222.574 250.421 222.729 250.139C222.884 249.857 223.01 249.262 223.01 248.816C223.01 248.371 223.095 247.911 223.198 247.795C223.301 247.679 223.385 247.15 223.385 246.62C223.385 246.09 223.512 245.465 223.666 245.231C223.838 244.971 223.948 244.222 223.948 243.309C223.948 242.485 224.032 241.812 224.135 241.812C224.238 241.812 224.323 241.339 224.323 240.762C224.323 240.185 224.449 239.481 224.604 239.199C224.758 238.917 224.885 238.244 224.885 237.705C224.885 237.166 224.969 236.629 225.072 236.513C225.175 236.397 225.26 235.915 225.26 235.443C225.26 234.97 225.386 234.353 225.541 234.071C225.715 233.754 225.822 232.915 225.822 231.873C225.822 230.946 225.907 230.188 226.01 230.188C226.113 230.188 226.197 229.726 226.197 229.162C226.197 228.024 226.48 227.85 227.052 228.638C227.252 228.915 227.554 229.145 227.724 229.151C227.893 229.157 228.08 229.393 228.14 229.675C228.199 229.957 228.419 230.188 228.628 230.188C228.838 230.188 229.009 230.342 229.009 230.53C229.009 230.718 229.136 230.872 229.29 230.872C229.445 230.872 229.571 231.015 229.571 231.189C229.571 231.598 230.651 232.581 231.1 232.581C231.291 232.581 231.446 232.756 231.446 232.971C231.446 233.432 232.007 234.264 232.327 234.279C232.45 234.285 232.779 234.675 233.057 235.145C233.335 235.615 233.71 236 233.891 236C234.071 236 234.267 236.231 234.326 236.513C234.385 236.795 234.585 237.026 234.77 237.026C234.955 237.026 235.265 237.41 235.458 237.88C235.652 238.35 235.967 238.735 236.159 238.735C236.351 238.735 236.508 238.889 236.508 239.077C236.508 239.265 236.672 239.419 236.873 239.419C237.074 239.419 237.466 239.803 237.744 240.274C238.022 240.744 238.397 241.128 238.577 241.128C238.757 241.128 238.953 241.359 239.013 241.641C239.072 241.923 239.292 242.154 239.501 242.154C239.71 242.154 239.882 242.308 239.882 242.496C239.882 242.684 240.167 242.838 240.515 242.838C240.863 242.838 241.253 243.068 241.382 243.35C241.715 244.084 246.018 244.093 246.548 243.362C246.748 243.085 247.102 242.855 247.334 242.849C247.566 242.843 247.755 242.684 247.755 242.496C247.755 242.308 247.96 242.154 248.21 242.154C248.461 242.154 248.793 241.923 248.947 241.641C249.102 241.359 249.319 241.128 249.429 241.128C249.54 241.128 249.63 240.974 249.63 240.786C249.63 240.598 249.757 240.444 249.911 240.444C250.066 240.444 250.192 240.214 250.192 239.932C250.192 239.641 250.361 239.419 250.581 239.419C250.934 239.419 251.505 238.703 251.505 238.261C251.505 238.161 251.842 237.451 252.255 236.684C252.667 235.916 253.004 235.165 253.004 235.013C253.004 234.862 253.3 234.183 253.66 233.505C254.021 232.827 254.317 232.056 254.317 231.791C254.317 231.526 254.527 231.021 254.785 230.668C255.043 230.315 255.254 229.832 255.254 229.594C255.254 229.356 255.365 229.162 255.5 229.162C255.635 229.162 255.862 228.624 256.004 227.966C256.145 227.308 256.372 226.769 256.508 226.769C256.643 226.769 256.754 226.575 256.754 226.338C256.754 226.1 256.965 225.617 257.222 225.264C257.48 224.911 257.691 224.336 257.691 223.986C257.691 223.637 257.775 223.35 257.878 223.35C257.982 223.35 258.066 223.12 258.066 222.838C258.066 222.556 258.156 222.325 258.267 222.325C258.517 222.325 259.003 221.462 259.003 221.018C259.003 220.837 259.13 220.6 259.284 220.491C259.439 220.384 259.566 219.982 259.566 219.601C259.566 219.219 259.65 218.906 259.753 218.906C259.856 218.906 259.94 219.137 259.94 219.419ZM239.882 336.513C239.882 336.701 240.183 336.855 240.552 336.855C240.92 336.855 241.347 337.085 241.502 337.368C241.657 337.65 242.068 337.88 242.415 337.88C242.762 337.88 243.099 338.034 243.163 338.222C243.226 338.41 243.433 338.564 243.622 338.564C243.811 338.564 244.015 338.795 244.074 339.077C244.133 339.359 244.348 339.59 244.552 339.59C244.755 339.59 244.973 339.744 245.037 339.932C245.101 340.12 245.308 340.273 245.497 340.273C245.686 340.273 245.889 340.504 245.949 340.786C246.008 341.068 246.228 341.299 246.437 341.299C246.647 341.299 246.818 341.453 246.818 341.641C246.818 341.829 247.029 341.983 247.287 341.983C247.578 341.983 247.755 342.177 247.755 342.496C247.755 342.778 247.831 343.009 247.923 343.009C248.016 343.009 248.29 343.391 248.532 343.857C248.775 344.324 249.091 344.709 249.233 344.712C249.376 344.715 249.771 345.256 250.111 345.915C250.451 346.573 250.819 347.111 250.93 347.111C251.04 347.111 251.13 347.276 251.13 347.478C251.13 347.95 251.607 348.821 251.866 348.821C251.977 348.821 252.067 349.017 252.067 349.258C252.067 349.498 252.244 349.921 252.46 350.198C252.676 350.474 252.928 351.047 253.018 351.47C253.114 351.915 253.342 352.239 253.562 352.239C253.842 352.239 253.942 352.464 253.942 353.094C253.942 353.564 254.026 353.949 254.129 353.949C254.232 353.949 254.317 354.101 254.317 354.286C254.317 354.868 255.336 357.341 255.582 357.355C255.711 357.362 255.816 357.754 255.816 358.226C255.816 359.177 256.157 360.466 256.519 360.889C256.648 361.039 256.754 361.453 256.754 361.809C256.754 362.164 256.838 362.55 256.941 362.667C257.044 362.783 257.129 363.177 257.129 363.542C257.129 363.907 257.255 364.205 257.41 364.205C257.606 364.205 257.691 364.566 257.691 365.402C257.691 366.06 257.775 366.598 257.878 366.598C257.982 366.598 258.066 366.813 258.066 367.074C258.066 367.337 258.192 367.639 258.347 367.748C258.502 367.856 258.628 368.248 258.628 368.619C258.628 368.99 258.713 369.388 258.816 369.504C258.919 369.621 259.003 370.015 259.003 370.379C259.003 370.912 259.135 371.043 259.673 371.043C260.417 371.043 260.878 370.413 260.878 369.394C260.878 369.025 261.004 368.634 261.159 368.526C261.314 368.418 261.44 368.016 261.44 367.635C261.44 367.253 261.525 366.94 261.628 366.94C261.731 366.94 261.815 366.572 261.815 366.122C261.815 365.672 261.942 365.215 262.096 365.107C262.251 364.999 262.378 364.597 262.378 364.216C262.378 363.834 262.462 363.521 262.565 363.521C262.668 363.521 262.752 363.232 262.752 362.879C262.752 362.526 262.879 362.046 263.034 361.812C263.188 361.578 263.315 361.097 263.315 360.744C263.315 360.391 263.399 360.103 263.502 360.103C263.605 360.103 263.69 359.803 263.69 359.437C263.69 359.07 263.901 358.356 264.158 357.848C264.416 357.341 264.627 356.64 264.627 356.292C264.627 355.944 264.723 355.658 264.841 355.658C265.097 355.658 265.55 354.632 265.558 354.032C265.562 353.797 265.986 352.85 266.502 351.93C267.037 350.973 267.439 349.949 267.439 349.538C267.439 349.059 267.559 348.821 267.798 348.821C267.995 348.821 268.67 347.897 269.299 346.769C269.927 345.641 270.525 344.718 270.627 344.718C270.729 344.718 270.813 344.571 270.813 344.392C270.813 344.213 271.109 343.811 271.469 343.498C271.83 343.186 272.126 342.717 272.126 342.456C272.126 342.196 272.252 341.983 272.407 341.983C272.561 341.983 272.688 341.829 272.688 341.641C272.688 341.453 272.889 341.299 273.134 341.299C273.379 341.299 273.684 341.068 273.813 340.786C273.941 340.504 274.162 340.273 274.304 340.273C274.446 340.273 274.563 340.12 274.563 339.932C274.563 339.744 274.734 339.59 274.944 339.59C275.153 339.59 275.373 339.359 275.432 339.077C275.491 338.795 275.742 338.564 275.989 338.564C276.235 338.564 276.437 338.41 276.437 338.222C276.437 338.034 276.82 337.88 277.287 337.88C277.869 337.88 278.17 337.719 278.244 337.368C278.317 337.02 278.616 336.855 279.176 336.855C279.628 336.855 279.999 336.701 279.999 336.513C279.999 336.297 281.343 336.171 283.655 336.171C285.966 336.171 287.31 336.297 287.31 336.513C287.31 336.701 287.681 336.855 288.134 336.855C288.693 336.855 288.992 337.02 289.065 337.368C289.139 337.719 289.44 337.88 290.022 337.88C290.489 337.88 290.872 338.034 290.872 338.222C290.872 338.41 291.043 338.564 291.253 338.564C291.462 338.564 291.682 338.795 291.741 339.077C291.801 339.359 292.051 339.59 292.298 339.59C292.544 339.59 292.746 339.744 292.746 339.932C292.746 340.12 292.837 340.273 292.948 340.273C293.058 340.273 293.275 340.504 293.429 340.786C293.584 341.068 293.915 341.299 294.166 341.299C294.416 341.299 294.621 341.453 294.621 341.641C294.621 341.829 294.748 341.983 294.902 341.983C295.057 341.983 295.184 342.214 295.184 342.496C295.184 342.778 295.31 343.009 295.465 343.009C295.619 343.009 295.746 343.162 295.746 343.35C295.746 343.538 295.906 343.692 296.101 343.692C296.296 343.692 296.504 343.923 296.564 344.205C296.623 344.487 296.812 344.718 296.983 344.718C297.155 344.718 297.574 345.256 297.914 345.915C298.254 346.573 298.623 347.111 298.733 347.111C298.843 347.111 298.933 347.276 298.933 347.478C298.933 347.911 299.401 348.821 299.625 348.821C299.711 348.821 299.939 349.205 300.133 349.675C300.327 350.145 300.602 350.53 300.746 350.53C300.889 350.53 301.062 350.799 301.13 351.128C301.198 351.457 301.659 352.474 302.155 353.387C302.651 354.301 303.057 355.185 303.057 355.353C303.057 355.521 303.183 355.658 303.338 355.658C303.493 355.658 303.619 355.852 303.619 356.09C303.619 356.327 303.83 356.81 304.088 357.163C304.346 357.516 304.557 358.035 304.557 358.316C304.557 358.597 304.768 359.184 305.025 359.62C305.283 360.056 305.494 360.594 305.494 360.816C305.494 361.038 305.705 361.577 305.963 362.013C306.22 362.449 306.431 362.966 306.431 363.163C306.431 363.36 306.516 363.521 306.619 363.521C306.722 363.521 306.806 363.834 306.806 364.216C306.806 364.597 306.933 364.999 307.087 365.107C307.242 365.215 307.369 365.606 307.369 365.975C307.369 366.345 307.474 366.862 307.603 367.124C308.142 368.22 308.306 368.636 308.306 368.909C308.306 369.565 308.791 371.038 309.009 371.04C309.157 371.042 309.243 371.545 309.243 372.41C309.243 373.162 309.328 373.778 309.431 373.778C309.534 373.778 309.618 374.151 309.618 374.608C309.618 375.065 309.745 375.669 309.899 375.951C310.054 376.233 310.181 376.85 310.181 377.323C310.181 377.796 310.265 378.277 310.368 378.393C310.471 378.509 310.555 379.211 310.555 379.952C310.555 380.921 310.634 381.299 310.837 381.299C311.254 381.299 311.254 389.678 310.837 389.97C310.66 390.093 310.555 390.616 310.555 391.374C310.555 392.038 310.471 392.581 310.368 392.581C310.265 392.581 310.181 392.812 310.181 393.094C310.181 393.376 310.098 393.607 309.997 393.607C309.896 393.607 309.76 393.991 309.695 394.462C309.63 394.932 309.502 395.316 309.411 395.316C309.318 395.316 309.243 395.635 309.243 396.025C309.243 396.414 309.138 396.947 309.009 397.209C308.453 398.34 308.306 398.727 308.306 399.062C308.306 399.258 308.215 399.419 308.105 399.419C307.846 399.419 307.369 400.289 307.369 400.762C307.369 400.963 307.286 401.128 307.185 401.128C307.084 401.128 306.948 401.513 306.883 401.983C306.808 402.532 306.634 402.838 306.398 402.838C306 402.838 305.494 403.589 305.494 404.18C305.494 404.382 305.404 404.547 305.293 404.547C305.034 404.547 304.557 405.417 304.557 405.89C304.557 406.091 304.346 406.256 304.088 406.256C303.83 406.256 303.619 406.41 303.619 406.598C303.619 406.786 303.502 406.94 303.358 406.94C303.214 406.94 303.049 407.171 302.989 407.453C302.93 407.735 302.71 407.966 302.501 407.966C302.291 407.966 302.12 408.12 302.12 408.308C302.12 408.496 301.948 408.65 301.739 408.65C301.53 408.65 301.309 408.88 301.25 409.162C301.191 409.444 300.987 409.675 300.798 409.675C300.609 409.675 300.402 409.829 300.339 410.017C300.275 410.205 300.023 410.359 299.779 410.359C299.535 410.359 299.208 410.59 299.053 410.872C298.857 411.229 298.377 411.385 297.466 411.385C296.479 411.385 296.135 411.26 296.053 410.872C295.994 410.59 295.774 410.359 295.565 410.359C295.355 410.359 295.184 410.205 295.184 410.017C295.184 409.829 295.057 409.675 294.902 409.675C294.748 409.675 294.621 409.444 294.621 409.162C294.621 408.88 294.558 408.65 294.481 408.65C294.403 408.649 294.095 408.264 293.795 407.795C293.496 407.325 293.137 406.94 292.999 406.94C292.86 406.94 292.746 406.786 292.746 406.598C292.746 406.41 292.536 406.256 292.278 406.256C292.02 406.256 291.809 406.091 291.809 405.89C291.809 405.311 290.951 404.064 290.263 403.643C290.082 403.532 289.935 403.306 289.935 403.139C289.935 402.974 289.733 402.838 289.486 402.838C289.239 402.838 288.989 402.607 288.929 402.325C288.87 402.043 288.65 401.812 288.441 401.812C288.231 401.812 288.06 401.676 288.06 401.51C288.06 401.344 287.912 401.115 287.732 401.001C287.551 400.887 287.151 400.496 286.841 400.132C286.532 399.767 286.002 399.457 285.664 399.444C285.3 399.429 285.005 399.209 284.941 398.906C284.881 398.624 284.636 398.393 284.395 398.393C284.155 398.393 283.906 398.239 283.842 398.051C283.778 397.863 283.404 397.709 283.01 397.709C282.603 397.709 282.194 397.489 282.061 397.197C281.871 396.778 281.249 396.684 278.677 396.684C276.127 396.684 275.473 396.781 275.245 397.197C275.091 397.479 274.71 397.709 274.4 397.709C274.089 397.709 273.783 397.863 273.719 398.051C273.655 398.239 273.437 398.393 273.233 398.393C273.03 398.393 272.815 398.624 272.756 398.906C272.696 399.188 272.445 399.419 272.197 399.419C271.693 399.419 270.986 400.049 270.757 400.701C270.675 400.936 270.443 401.128 270.242 401.128C270.041 401.128 269.876 401.282 269.876 401.47C269.876 401.658 269.76 401.812 269.618 401.812C269.476 401.812 269.255 402.043 269.126 402.325C268.998 402.607 268.723 402.838 268.516 402.838C268.308 402.838 267.943 403.222 267.704 403.692C267.465 404.162 267.193 404.547 267.101 404.547C267.007 404.547 266.704 404.932 266.426 405.402C266.147 405.872 265.84 406.256 265.742 406.256C265.645 406.256 265.564 406.41 265.564 406.598C265.564 406.786 265.407 406.94 265.216 406.94C265.024 406.94 264.709 407.325 264.515 407.795C264.146 408.691 262.378 409.103 262.378 408.291C262.378 408.053 261.18 407.952 258.782 407.989C255.666 408.037 255.157 407.971 254.965 407.492C254.843 407.189 254.595 406.94 254.412 406.94C254.229 406.94 253.801 406.402 253.461 405.744C253.121 405.085 252.707 404.547 252.542 404.547C252.378 404.547 252.194 404.316 252.135 404.034C252.075 403.752 251.91 403.521 251.766 403.521C251.622 403.521 251.505 403.368 251.505 403.179C251.505 402.991 251.294 402.838 251.036 402.838C250.744 402.838 250.567 402.644 250.567 402.325C250.567 402.037 250.4 401.812 250.184 401.812C249.974 401.812 249.616 401.497 249.391 401.113C248.8 400.109 247.969 399.419 247.352 399.419C247.002 399.419 246.818 399.242 246.818 398.906C246.818 398.587 246.641 398.393 246.349 398.393C246.092 398.393 245.881 398.239 245.881 398.051C245.881 397.863 245.594 397.709 245.245 397.709C244.852 397.709 244.567 397.513 244.501 397.197C244.411 396.768 243.857 396.684 241.13 396.684C238.457 396.684 237.824 396.777 237.632 397.197C237.499 397.489 237.091 397.709 236.683 397.709C236.29 397.709 235.915 397.863 235.852 398.051C235.788 398.239 235.527 398.393 235.272 398.393C235.017 398.393 234.76 398.624 234.701 398.906C234.634 399.222 234.349 399.419 233.957 399.419C233.607 399.419 233.321 399.573 233.321 399.761C233.321 399.949 233.149 400.103 232.94 400.103C232.731 400.103 232.51 400.333 232.451 400.615C232.392 400.897 232.225 401.128 232.08 401.128C231.738 401.128 231.019 401.864 230.827 402.41C230.745 402.645 230.483 402.838 230.246 402.838C230.008 402.838 229.586 403.222 229.308 403.692C229.03 404.162 228.68 404.547 228.531 404.547C228.382 404.547 228.259 404.701 228.259 404.889C228.259 405.077 228.133 405.231 227.978 405.231C227.823 405.231 227.697 405.462 227.697 405.744C227.697 406.026 227.57 406.256 227.416 406.256C227.261 406.256 227.134 406.41 227.134 406.598C227.134 406.786 226.977 406.94 226.786 406.94C226.594 406.94 226.279 407.325 226.085 407.795C225.892 408.265 225.671 408.65 225.596 408.65C225.413 408.65 223.684 410.801 223.604 411.128C223.473 411.667 220.573 411.421 220.573 410.872C220.573 410.514 220.376 410.359 219.917 410.359C219.556 410.359 219.261 410.205 219.261 410.017C219.261 409.829 219.097 409.675 218.896 409.675C218.695 409.675 218.303 409.291 218.025 408.821C217.747 408.35 217.372 407.966 217.191 407.966C217.011 407.966 216.816 407.735 216.756 407.453C216.697 407.171 216.477 406.94 216.268 406.94C216.058 406.94 215.887 406.786 215.887 406.598C215.887 406.41 215.799 406.256 215.691 406.256C215.508 406.256 215.295 405.989 214.675 404.974C214.531 404.739 214.323 404.547 214.213 404.547C214.103 404.547 214.012 404.382 214.012 404.18C214.012 403.708 213.535 402.838 213.276 402.838C213.165 402.838 213.075 402.673 213.075 402.471C213.075 401.998 212.598 401.128 212.339 401.128C212.228 401.128 212.137 400.817 212.137 400.436C212.137 400.012 211.956 399.618 211.669 399.419C211.382 399.22 211.2 398.826 211.2 398.402C211.2 398.021 211.116 397.709 211.013 397.709C210.91 397.709 210.825 397.479 210.825 397.197C210.825 396.915 210.747 396.684 210.651 396.684C210.458 396.684 209.888 394.762 209.888 394.109C209.888 393.879 209.761 393.499 209.607 393.265C209.452 393.031 209.326 392.55 209.326 392.197C209.326 391.844 209.241 391.556 209.138 391.556C209.035 391.556 208.951 390.858 208.951 390.006C208.951 388.944 208.862 388.395 208.669 388.261C208.27 387.98 208.27 384.191 208.669 383.91C208.877 383.766 208.951 383.169 208.951 381.652C208.951 380.505 209.034 379.59 209.138 379.59C209.241 379.59 209.326 379.068 209.326 378.43C209.326 377.714 209.433 377.194 209.607 377.073C209.799 376.938 209.888 376.389 209.888 375.327C209.888 374.475 209.972 373.778 210.075 373.778C210.178 373.778 210.263 373.409 210.263 372.96C210.263 372.509 210.389 372.053 210.544 371.944C210.699 371.837 210.825 371.435 210.825 371.054C210.825 370.672 210.91 370.359 211.013 370.359C211.116 370.359 211.2 370.118 211.2 369.823C211.2 369.529 211.411 368.784 211.669 368.168C211.927 367.55 212.137 366.71 212.137 366.299C212.137 365.888 212.264 365.462 212.419 365.355C212.573 365.246 212.7 364.944 212.7 364.681C212.7 364.42 212.784 364.205 212.887 364.205C212.99 364.205 213.075 364.044 213.075 363.849C213.075 363.514 213.221 363.126 213.778 361.996C213.907 361.733 214.012 361.2 214.012 360.811C214.012 360.409 214.134 360.103 214.293 360.103C214.448 360.103 214.574 359.938 214.574 359.738C214.574 359.537 214.87 358.865 215.231 358.244C215.591 357.624 215.887 356.788 215.887 356.387C215.887 355.986 215.977 355.658 216.088 355.658C216.347 355.658 216.824 354.788 216.824 354.315C216.824 354.114 216.914 353.949 217.025 353.949C217.284 353.949 217.761 353.079 217.761 352.606C217.761 352.404 217.852 352.239 217.962 352.239C218.222 352.239 218.699 351.369 218.699 350.897C218.699 350.695 218.789 350.53 218.9 350.53C219.159 350.53 219.636 349.66 219.636 349.187C219.636 348.985 219.726 348.821 219.837 348.821C219.947 348.821 220.158 348.601 220.306 348.332C220.453 348.063 220.573 347.679 220.573 347.478C220.573 347.276 220.735 347.111 220.932 347.111C221.13 347.111 221.58 346.598 221.935 345.971C222.289 345.344 222.697 344.73 222.841 344.606C223.631 343.928 224.323 342.875 224.323 342.35C224.323 342.148 224.533 341.983 224.791 341.983C225.049 341.983 225.26 341.829 225.26 341.641C225.26 341.453 225.471 341.299 225.729 341.299C226.02 341.299 226.197 341.105 226.197 340.786C226.197 340.468 226.374 340.273 226.666 340.273C226.924 340.273 227.134 340.12 227.134 339.932C227.134 339.744 227.306 339.59 227.515 339.59C227.725 339.59 227.945 339.359 228.004 339.077C228.063 338.795 228.314 338.564 228.561 338.564C228.807 338.564 229.009 338.41 229.009 338.222C229.009 338.034 229.336 337.88 229.736 337.88C230.154 337.88 230.562 337.662 230.696 337.368C230.825 337.085 231.209 336.855 231.552 336.855C231.894 336.855 232.226 336.701 232.29 336.513C232.36 336.303 233.854 336.171 236.144 336.171C238.511 336.171 239.882 336.297 239.882 336.513ZM233.764 351.043C233.69 351.391 233.391 351.556 232.832 351.556C232.379 351.556 232.009 351.709 232.009 351.897C232.009 352.085 231.766 352.239 231.469 352.239C231.172 352.239 230.825 352.47 230.696 352.752C230.568 353.034 230.385 353.265 230.29 353.265C230.128 353.265 229.907 353.55 229.297 354.547C229.153 354.782 228.945 354.974 228.835 354.974C228.725 354.974 228.634 355.128 228.634 355.316C228.634 355.504 228.508 355.658 228.353 355.658C228.198 355.658 228.072 355.774 228.072 355.915C228.072 356.056 227.777 356.776 227.416 357.515C227.055 358.255 226.76 359.067 226.76 359.321C226.76 359.574 226.633 359.871 226.478 359.979C226.324 360.087 226.197 360.544 226.197 360.994C226.197 361.444 226.113 361.812 226.01 361.812C225.895 361.812 225.822 363.464 225.822 366.085V370.359H229.759H233.696V368.686C233.696 367.188 233.744 366.992 234.164 366.8C234.422 366.682 234.633 366.434 234.633 366.25C234.633 366.066 234.844 365.915 235.102 365.915C235.359 365.915 235.57 365.761 235.57 365.573C235.57 365.374 236.191 365.231 237.059 365.231C237.878 365.231 238.6 365.385 238.663 365.573C238.727 365.761 239.028 365.915 239.331 365.915C239.634 365.915 239.882 366.079 239.882 366.281C239.882 366.754 240.359 367.624 240.618 367.624C240.729 367.624 240.819 368.239 240.819 368.991V370.359H244.756H248.693V367.795C248.693 366.314 248.614 365.231 248.505 365.231C248.402 365.231 248.318 364.462 248.318 363.521C248.318 362.23 248.249 361.812 248.037 361.812C247.845 361.812 247.754 361.456 247.749 360.701C247.743 359.528 247.39 358.393 247.032 358.393C246.914 358.393 246.818 358.228 246.818 358.027C246.818 357.554 246.341 356.684 246.082 356.684C245.971 356.684 245.881 356.519 245.881 356.317C245.881 355.844 245.404 354.974 245.145 354.974C245.034 354.974 244.943 354.744 244.943 354.462C244.943 354.173 244.776 353.949 244.561 353.949C244.35 353.949 243.95 353.564 243.672 353.094C243.387 352.611 242.941 352.239 242.649 352.239C242.364 352.239 242.132 352.085 242.132 351.897C242.132 351.709 241.71 351.556 241.194 351.556C240.486 351.556 240.257 351.43 240.257 351.043C240.257 350.607 239.777 350.53 237.064 350.53C234.399 350.53 233.854 350.615 233.764 351.043ZM279.249 351.043C279.249 351.413 279.041 351.556 278.499 351.556C278.087 351.556 277.749 351.709 277.749 351.897C277.749 352.085 277.463 352.239 277.113 352.239C276.721 352.239 276.436 352.436 276.369 352.752C276.31 353.034 276.09 353.265 275.881 353.265C275.671 353.265 275.5 353.419 275.5 353.607C275.5 353.795 275.416 353.949 275.315 353.949C275.052 353.949 273.641 355.771 273.632 356.121C273.629 356.283 273.414 356.717 273.157 357.086C272.899 357.456 272.688 357.984 272.688 358.258C272.688 358.532 272.561 358.845 272.407 358.953C272.252 359.062 272.126 359.364 272.126 359.626C272.126 359.888 272.041 360.103 271.938 360.103C271.835 360.103 271.751 360.625 271.751 361.262C271.751 361.979 271.643 362.498 271.469 362.62C271.243 362.778 271.188 363.551 271.188 366.594V370.373L275.172 370.28L279.155 370.188L279.212 368.599C279.252 367.472 279.361 366.954 279.587 366.815C279.762 366.707 280.032 366.484 280.186 366.32C281.059 365.393 281.434 365.231 282.704 365.231C283.472 365.231 284.153 365.385 284.217 365.573C284.281 365.761 284.493 365.915 284.69 365.915C285.321 365.915 286.185 367.79 286.185 369.157V370.373L290.169 370.28L294.152 370.188L294.207 367.362C294.251 365.069 294.207 364.498 293.972 364.334C293.767 364.19 293.684 363.65 293.684 362.459C293.684 361.539 293.599 360.786 293.496 360.786C293.393 360.786 293.309 360.5 293.309 360.15C293.309 359.801 293.098 359.226 292.84 358.873C292.582 358.52 292.372 358.129 292.372 358.005C292.372 357.609 291.358 355.658 291.153 355.658C291.044 355.658 290.831 355.341 290.679 354.953C290.527 354.565 290.108 353.997 289.747 353.69C289.386 353.382 289.023 352.93 288.941 352.685C288.859 352.44 288.542 352.239 288.238 352.239C287.934 352.239 287.685 352.085 287.685 351.897C287.685 351.709 287.358 351.556 286.958 351.556C286.541 351.556 286.132 351.338 285.998 351.043C285.807 350.623 285.174 350.53 282.507 350.53C279.736 350.53 279.249 350.607 279.249 351.043ZM237.07 416.855C237.07 417.043 236.654 417.197 236.146 417.197C235.575 417.197 235.115 417.392 234.941 417.709C234.786 417.991 234.54 418.222 234.393 418.222C234.245 418.222 233.898 418.607 233.62 419.077C233.341 419.547 233.07 419.932 233.017 419.932C232.849 419.932 232.383 420.892 232.383 421.238C232.383 421.42 232.257 421.656 232.102 421.765C231.938 421.879 231.821 422.392 231.821 422.997C231.821 423.568 231.737 424.034 231.634 424.034C231.52 424.034 231.446 425.573 231.446 427.966C231.446 430.359 231.52 431.897 231.634 431.897C231.737 431.897 231.821 432.436 231.821 433.094C231.821 433.93 231.906 434.291 232.102 434.291C232.257 434.291 232.383 434.456 232.383 434.657C232.383 435.935 232.73 436 239.587 436H246.256L247.006 434.632L247.755 433.265V428.376C247.755 423.477 247.565 421.65 247.052 421.644C246.924 421.642 246.818 421.476 246.818 421.274C246.818 420.802 246.341 419.932 246.082 419.932C245.971 419.932 245.88 419.739 245.879 419.504C245.878 419.105 245.07 418.222 244.705 418.222C244.615 418.222 244.415 417.991 244.261 417.709C244.087 417.392 243.627 417.197 243.055 417.197C242.547 417.197 242.132 417.043 242.132 416.855C242.132 416.644 241.163 416.513 239.601 416.513C238.039 416.513 237.07 416.644 237.07 416.855ZM277.375 416.855C277.375 417.043 276.962 417.197 276.457 417.197C275.815 417.197 275.508 417.35 275.432 417.709C275.373 417.991 275.158 418.222 274.954 418.222C274.751 418.222 274.533 418.376 274.469 418.564C274.405 418.752 274.189 418.906 273.989 418.906C273.789 418.906 273.625 419.111 273.625 419.361C273.625 419.611 273.414 420.022 273.157 420.274C272.899 420.525 272.688 420.936 272.688 421.186C272.688 421.436 272.605 421.641 272.504 421.641C272.403 421.641 272.267 422.026 272.202 422.496C272.138 422.966 272.01 423.35 271.918 423.35C271.826 423.35 271.751 425.427 271.751 427.966C271.751 430.815 271.822 432.581 271.938 432.581C272.041 432.581 272.126 432.894 272.126 433.276C272.126 433.657 272.252 434.059 272.407 434.167C272.561 434.275 272.688 434.522 272.688 434.717C272.688 435.879 273.262 435.979 279.999 435.978C287.39 435.977 287.076 436.072 287.742 433.64C288.107 432.303 288.221 423.35 287.872 423.35C287.769 423.35 287.685 423.048 287.685 422.679C287.685 421.975 286.713 419.932 286.379 419.932C286.272 419.932 286.185 419.701 286.185 419.419C286.185 419.137 286.059 418.906 285.904 418.906C285.749 418.906 285.623 418.752 285.623 418.564C285.623 418.376 285.465 418.222 285.271 418.222C285.077 418.222 284.814 417.991 284.686 417.709C284.537 417.384 284.123 417.197 283.549 417.197C283.052 417.197 282.594 417.043 282.53 416.855C282.462 416.654 281.372 416.513 279.894 416.513C278.34 416.513 277.375 416.644 277.375 416.855Z" fill="#14ECE4"/>
</g>
<defs>
<filter id="filter0_d_483_1850" x="0" y="0" width="520" height="640" filterUnits="userSpaceOnUse" color-interpolation-filters="sRGB">
<feFlood flood-opacity="0" result="BackgroundImageFix"/>
<feColorMatrix in="SourceAlpha" type="matrix" values="0 0 0 0 0 0 0 0 0 0 0 0 0 0 0 0 0 0 127 0" result="hardAlpha"/>
<feOffset dy="4"/>
<feGaussianBlur stdDeviation="40"/>
<feComposite in2="hardAlpha" operator="out"/>
<feColorMatrix type="matrix" values="0 0 0 0 0.317647 0 0 0 0 0.462745 0 0 0 0 0.847059 0 0 0 0.78 0"/>
<feBlend mode="normal" in2="BackgroundImageFix" result="effect1_dropShadow_483_1850"/>
<feBlend mode="normal" in="SourceGraphic" in2="effect1_dropShadow_483_1850" result="shape"/>
</filter>
<linearGradient id="paint0_linear_483_1850" x1="260" y1="76" x2="260" y2="556" gradientUnits="userSpaceOnUse">
<stop stop-color="#0A05FA" stop-opacity="0.32"/>
<stop offset="0.480324" stop-color="#F841C4" stop-opacity="0.2463"/>
<stop offset="1" stop-color="#0B131F" stop-opacity="0"/>
</linearGradient>
</defs>
</svg>
