<svg width="360" height="480" viewBox="0 0 360 480" fill="none" xmlns="http://www.w3.org/2000/svg">
<rect width="360" height="480" rx="8" fill="url(#paint0_linear_492_2030)"/>
<path fill-rule="evenodd" clip-rule="evenodd" d="M204.593 120.564C204.533 120.86 204.212 122.557 203.879 124.334C203.547 126.111 202.757 130.182 202.125 133.381C201.492 136.579 200.423 142.007 199.748 145.443C199.073 148.879 197.911 154.791 197.165 158.582C196.419 162.373 195.055 169.352 194.133 174.091C193.211 178.83 191.807 186.003 191.013 190.031C190.22 194.059 189.003 200.262 188.309 203.816C187.616 207.371 186.517 212.993 185.868 216.31C185.219 219.627 184.121 225.249 183.428 228.803C182.735 232.357 181.759 237.3 181.258 239.788C180.757 242.276 179.923 246.541 179.405 249.266C178.582 253.592 176.662 263.419 172 287.176C171.325 290.612 170.225 296.234 169.556 299.67C168.886 303.105 167.812 308.533 167.169 311.732C166.526 314.931 165.184 321.813 164.187 327.025C163.19 332.238 161.966 338.539 161.468 341.026C160.621 345.26 158.356 356.841 157.95 359.022L157.767 360L163.136 359.884L168.506 359.766L169.752 353.304C171.041 346.616 171.525 344.13 173.951 331.764C177.148 315.467 177.89 311.674 179.093 305.485C179.784 301.931 181.003 295.728 181.8 291.7C182.597 287.672 184.064 280.208 185.06 275.114C186.056 270.02 187.402 263.138 188.052 259.821C188.702 256.503 189.782 250.978 190.453 247.543C192.489 237.11 194.137 228.682 195.38 222.341C196.031 219.024 197.226 212.917 198.036 208.771C200.744 194.919 203.037 183.231 205.135 172.583C206.279 166.778 207.568 160.151 207.999 157.854C208.43 155.558 209.012 152.65 209.291 151.392C209.571 150.134 209.936 148.329 210.102 147.382C210.269 146.434 210.948 142.944 211.612 139.627C212.275 136.31 213.08 132.142 213.399 130.365C213.718 128.588 214.275 125.707 214.637 123.961C214.999 122.216 215.295 120.617 215.295 120.407C215.295 119.771 204.723 119.925 204.593 120.564ZM221.97 120.377C221.831 120.734 221.588 121.949 218.42 138.119C217.421 143.214 216.073 150.096 215.423 153.413C213.285 164.319 211.561 173.139 210.414 179.045C209.793 182.244 208.635 188.157 207.84 192.185C207.044 196.213 205.701 203.095 204.855 207.478C204.009 211.862 202.91 217.484 202.413 219.971C201.167 226.205 199.266 235.86 197.917 242.804C196.398 250.626 194.304 261.34 193.623 264.775C192.595 269.956 190.134 282.622 189.414 286.427C189.022 288.502 188.632 290.489 188.546 290.842C188.411 291.404 189.62 291.484 198.189 291.484H207.985L208.242 290.515C208.383 289.982 208.941 287.219 209.484 284.376C210.025 281.533 211.137 275.814 211.954 271.668C214.009 261.228 215.567 253.297 217.198 244.958C217.964 241.048 219.011 235.717 219.526 233.111C220.04 230.505 220.636 227.403 220.848 226.218C221.061 225.033 221.515 222.707 221.858 221.048L222.482 218.033L236.66 217.921C247.663 217.835 250.86 217.69 250.939 217.275C250.995 216.981 251.53 214.317 252.129 211.355C252.727 208.394 253.607 203.935 254.084 201.447C254.56 198.959 255.303 195.186 255.733 193.064C256.162 190.941 256.513 188.954 256.513 188.648C256.513 188.201 253.773 188.092 242.548 188.092C230.269 188.092 228.583 188.014 228.583 187.441C228.583 186.817 229.469 182.013 231.284 172.799C232.913 164.523 234.505 156.405 235.084 153.413C235.945 148.96 234.467 149.32 251.887 149.318L267.225 149.316L268.286 144.041C268.87 141.139 269.81 136.342 270.375 133.381C270.94 130.419 271.761 126.202 272.201 124.011L273 120.026H247.553C233.558 120.026 222.046 120.184 221.97 120.377ZM126.314 189.277C126.151 189.929 125.416 193.563 124.679 197.354C123.942 201.146 122.812 206.961 122.167 210.278C121.522 213.596 119.01 226.39 116.584 238.711C114.158 251.032 111.962 262.276 111.703 263.698C111.268 266.083 110.411 270.475 107.248 286.53C106.594 289.847 105.554 295.179 104.937 298.377C104.319 301.576 103.709 304.678 103.58 305.27C103.451 305.862 102.652 309.933 101.805 314.317C100.958 318.7 99.7732 324.71 99.1719 327.672C98.5712 330.633 97.9848 333.638 97.8689 334.349C97.753 335.06 96.7808 340.1 95.709 345.55C92.9892 359.372 93.0034 359.299 93 359.659C92.9986 359.836 97.3855 359.982 102.749 359.982H112.5L113.889 352.981C116.633 339.152 118.455 329.898 120.1 321.425C123.222 305.357 124.217 300.324 125.082 296.223L125.945 292.131L135.503 292.018C140.761 291.955 145.062 292.066 145.062 292.264C145.062 292.461 144.887 293.482 144.673 294.531C144.459 295.58 143.594 300.025 142.752 304.408C141.91 308.792 140.813 314.414 140.314 316.902C139.815 319.39 139.019 323.461 138.547 325.948C138.073 328.436 137.283 332.507 136.789 334.995C136.297 337.483 135.141 343.396 134.222 348.135C133.303 352.873 132.437 357.313 132.299 358C132.16 358.687 132.046 359.414 132.046 359.615C132.046 359.817 136.423 359.982 141.774 359.982H151.502L152.34 355.781C153.967 347.625 156.179 336.414 157.63 328.964C160.362 314.945 162.204 305.516 163.649 298.162C164.44 294.134 165.537 288.512 166.086 285.669C166.635 282.825 167.239 279.724 167.428 278.776C168.025 275.78 169.672 267.397 171.108 260.036C172.641 252.187 174.823 241.076 176.651 231.819C177.306 228.501 178.588 221.91 179.502 217.171C180.414 212.432 181.625 206.229 182.191 203.386C183.981 194.403 184.636 190.934 184.817 189.487L184.993 188.081L175.265 188.195L165.536 188.308L164.281 194.554C162.752 202.167 159.797 217.219 155.908 237.204C155.286 240.402 154.249 245.636 153.603 248.835C152.957 252.034 152.155 256.255 151.82 258.215C151.067 262.621 152.121 262.243 140.995 262.095C132.086 261.977 131.912 261.958 131.99 261.113C132.074 260.219 133.907 250.698 136.718 236.557C137.614 232.055 138.503 227.5 138.694 226.434C138.886 225.367 139.68 221.296 140.458 217.387C141.237 213.477 142.104 209.018 142.385 207.478C142.815 205.122 144.241 197.853 145.739 190.388C146.23 187.937 146.875 188.092 136.197 188.092H126.609L126.314 189.277Z" fill="#FA5214"/>
<defs>
<linearGradient id="paint0_linear_492_2030" x1="180" y1="0" x2="180" y2="480" gradientUnits="userSpaceOnUse">
<stop stop-color="#080505"/>
<stop offset="1" stop-color="#080505" stop-opacity="0"/>
</linearGradient>
</defs>
</svg>
