<svg width="360" height="480" viewBox="0 0 360 480" fill="none" xmlns="http://www.w3.org/2000/svg">
<rect width="360" height="480" rx="8" fill="url(#paint0_linear_492_1963)"/>
<path fill-rule="evenodd" clip-rule="evenodd" d="M159.05 120.628C157.44 121.572 156.213 123.306 155.442 125.726C154.262 129.43 151.238 146.227 149.231 160.228C149.09 161.217 148.844 162.887 148.685 163.938C148.527 164.989 148.156 167.57 147.861 169.672C147.566 171.775 147.201 174.355 147.05 175.406C146.899 176.458 146.56 178.919 146.298 180.877L145.928 183.624C145.858 184.144 146 184.67 146.322 185.084V185.084C150.332 190.258 181.435 192.5 200.648 188.999C207.856 187.686 211.777 185.981 211.756 184.168C211.75 183.613 210.685 175.672 209.826 169.785C209.673 168.733 209.336 166.406 209.077 164.613C208.237 158.792 206.986 150.659 206.241 146.174C205.841 143.762 205.446 141.384 205.364 140.89C203.966 132.441 202.418 125.677 201.456 123.819C198.21 117.547 194.712 118.842 187.776 128.882C184.497 133.628 183.003 134.873 179.922 135.426C176.284 136.078 173.692 134.413 170.038 129.078C164.426 120.882 161.912 118.949 159.05 120.628ZM139.857 202.857C139.506 202.964 138.77 203.153 138.219 203.277C135.356 203.92 134.363 204.18 133.034 204.634C132.234 204.908 131.129 205.286 130.578 205.473C130.028 205.662 129.291 205.894 128.941 205.991C128.591 206.087 127.322 206.489 126.121 206.884C124.92 207.28 123.365 207.788 122.665 208.014C121.554 208.374 119.743 208.968 117.207 209.808C115.332 210.428 107.575 213.273 106.473 213.745C102.235 215.559 101.712 215.795 100.442 216.474C100.127 216.643 99.8114 216.781 99.7409 216.781C99.6336 216.781 97.4132 218.135 95.3847 219.437C93.6364 220.56 92.5303 222.684 92.9001 224.21C94.2741 229.877 106.962 235.054 126.758 238.023C131.522 238.737 132.189 238.829 135.054 239.162C172.235 243.489 220.486 241.667 246.101 234.97C261.271 231.004 268.235 225.052 263.22 220.338C260.264 217.559 250.073 212.812 241.098 210.032C240.798 209.939 239.898 209.638 239.097 209.362C238.297 209.087 237.232 208.73 236.732 208.57C233.664 207.585 231.372 206.844 229.455 206.215C228.254 205.821 226.863 205.366 226.362 205.204C225.862 205.042 224.961 204.735 224.361 204.522C223.761 204.309 223.065 204.093 222.815 204.043C222.565 203.992 221.746 203.803 220.995 203.622C220.245 203.442 218.988 203.141 218.202 202.954C215.963 202.423 214.332 202.502 213.059 203.204C212.471 203.528 211.785 203.875 211.535 203.974C211.285 204.074 210.63 204.372 210.08 204.636C208.709 205.293 203.393 207.49 202.117 207.926C198.956 209.005 198.128 209.261 195.435 209.996C183.492 213.254 170.723 212.876 158.504 208.904C157.303 208.514 156.075 208.116 155.775 208.019C153.757 207.374 148.097 204.946 145.064 203.425C143.361 202.57 141.462 202.364 139.857 202.857ZM118.207 246.005C117.857 246.236 116.951 247.066 116.194 247.85C115.437 248.633 111.425 252.782 107.279 257.069C89.0446 275.928 90.0088 274.913 90.0088 275.251C90.0088 275.376 90.6524 275.471 91.502 275.471C95.4166 275.471 111.322 278.389 118.599 280.442C123.777 281.903 136.015 286.885 137.622 288.187C138.46 288.866 138.2 289.266 134.329 293.256C134.041 293.554 133.713 293.905 133.601 294.037C133.49 294.168 130.745 297.094 127.502 300.537C120.186 308.306 120.373 308.076 121.38 308.076C122.846 308.076 130.43 310.881 135.399 313.261C140.043 315.486 161.56 329.274 169.419 335.063C174.462 338.776 174.421 338.75 174.62 338.503C174.708 338.395 174.866 337.5 174.972 336.514C175.487 331.759 176.462 327.411 178.126 322.467C178.283 322 178.186 321.873 176.333 320.111C175.432 319.254 174.654 318.495 174.604 318.425C174.554 318.354 174.145 317.944 173.696 317.515C161.512 305.873 149.801 289.367 142.19 273.11C138.568 265.372 133.769 252.29 133.397 249.142C133.2 247.481 133.46 247.587 127.64 246.782C124.703 246.376 121.704 245.935 120.974 245.803C119.227 245.488 118.96 245.507 118.207 246.005ZM238.625 245.66C238.582 245.713 235.806 246.123 232.455 246.57C225.247 247.532 225.619 247.451 225.464 248.091C225.397 248.371 225.264 250.826 225.17 253.546C224.834 263.258 224.385 266.342 222.812 269.737C222.062 271.358 218.108 276.086 209.441 285.731C197.837 298.643 192.945 305.825 185.102 321.46C180.517 330.6 177.898 342.644 177.058 358.445C176.938 360.7 177.149 360.553 178.166 357.671C178.859 355.707 180.291 352.561 181.037 351.362C183.986 346.624 189.991 339.389 195.982 333.358C199.583 329.731 202.542 326.951 206.098 323.854C209.504 320.887 220.723 314.215 225.998 312.018C230.573 310.114 234.809 308.622 236.687 308.254C237.462 308.101 238.096 307.89 238.096 307.785C238.096 307.546 237.792 307.212 232.093 301.216C225.877 294.677 225.976 294.78 223.224 291.909C220.061 288.61 220.062 288.625 222.997 287.233C227.595 285.052 235.064 282.131 239.188 280.901C246.676 278.667 264.016 275.471 268.646 275.471C270.575 275.471 270.56 275.418 267.841 272.621C264.498 269.181 243.754 248.021 242.827 247.104C241.481 245.773 239.174 244.981 238.625 245.66ZM142.646 248.165C141.972 250.337 143.938 258.558 146.067 262.464C149.013 267.87 160.265 270.062 166.555 266.455C167.534 265.893 168.076 265.361 169.238 263.817C174.42 256.931 175.907 255.816 179.88 255.843C183.655 255.868 185.162 257 190.068 263.494C193.759 268.38 200.453 269.671 207.715 266.898C212.662 265.009 214.299 262.515 216.538 253.452C216.899 251.988 217.09 248.51 216.834 248.049C216.682 247.773 216.361 247.867 214.777 248.652C211.579 250.236 211.881 250.194 200.802 250.613C195.749 250.803 188.955 251.061 185.705 251.184C181.753 251.334 177.807 251.333 173.789 251.181C170.485 251.057 163.73 250.805 158.777 250.623C148.365 250.239 147.745 250.158 145.035 248.81C142.76 247.679 142.795 247.688 142.646 248.165Z" fill="white"/>
<defs>
<linearGradient id="paint0_linear_492_1963" x1="180" y1="0" x2="180" y2="480" gradientUnits="userSpaceOnUse">
<stop stop-color="#080505"/>
<stop offset="1" stop-color="#080505" stop-opacity="0"/>
</linearGradient>
</defs>
</svg>
