<svg width="80" height="120" viewBox="0 0 80 120" fill="none" xmlns="http://www.w3.org/2000/svg">
<path fill-rule="evenodd" clip-rule="evenodd" d="M39.557 0.128206C39.5568 0.198719 39.463 0.479915 39.3487 0.752992C39.2341 1.02607 39.1404 1.32009 39.1404 1.40556C39.1404 1.49145 39.0092 1.81538 38.8488 2.12564C38.6884 2.4359 38.5572 2.8047 38.5572 2.94487C38.5572 3.08504 38.4634 3.34444 38.3489 3.52094C38.2343 3.69744 38.1406 3.90427 38.1406 3.98034C38.1406 4.05641 38.0468 4.29701 37.9323 4.51496C37.8177 4.73291 37.724 5.03675 37.724 5.1906C37.724 5.34445 37.6678 5.47009 37.599 5.47009C37.5303 5.47009 37.474 5.53889 37.474 5.62308C37.474 5.70727 37.3809 5.95727 37.2672 6.17863C37.1535 6.4 37.0598 6.71068 37.0589 6.8688C37.0581 7.02692 36.9843 7.20385 36.895 7.26239C36.8058 7.32051 36.7096 7.51795 36.6813 7.70086C36.6527 7.88419 36.5946 8.03419 36.5519 8.03419C36.5092 8.03419 36.4742 8.14957 36.4742 8.2906C36.4742 8.43162 36.418 8.54701 36.3493 8.54701C36.2784 8.54701 36.2243 8.70043 36.2243 8.90128C36.2243 9.27949 36.0439 9.74359 35.8971 9.74359C35.8479 9.74359 35.8077 9.8406 35.8077 9.9594C35.8077 10.0782 35.714 10.3197 35.5994 10.4962C35.4849 10.6727 35.3911 10.9603 35.3911 11.135C35.3911 11.3098 35.3536 11.453 35.3078 11.453C35.262 11.453 35.2245 11.5684 35.2245 11.7094C35.2245 11.8504 35.1683 11.9658 35.0995 11.9658C35.0308 11.9658 34.9745 12.0346 34.9745 12.1188C34.9745 12.203 34.8814 12.453 34.7677 12.6744C34.654 12.8957 34.5602 13.1684 34.5594 13.2803C34.5586 13.3927 34.3705 13.8855 34.1414 14.3756C33.9122 14.8658 33.7248 15.3705 33.7248 15.4966C33.7248 15.6231 33.6873 15.7265 33.6415 15.7265C33.5956 15.7265 33.5582 15.8419 33.5582 15.9829C33.5582 16.1423 33.4794 16.2393 33.3499 16.2393C33.2353 16.2393 33.1416 16.3162 33.1416 16.4103C33.1416 16.8389 32.4446 16.4568 32.2834 15.9402C32.2467 15.8227 32.1436 15.7265 32.0543 15.7265C31.9649 15.7265 31.8918 15.6496 31.8918 15.5556C31.8918 15.4615 31.8356 15.3846 31.7668 15.3846C31.6981 15.3846 31.6419 15.309 31.6419 15.2171C31.6419 15.1248 31.5481 15.0009 31.4336 14.9419C31.319 14.8829 31.2253 14.7662 31.2253 14.6825C31.2253 14.5983 31.1315 14.5299 31.017 14.5299C30.9024 14.5299 30.8087 14.4423 30.8087 14.335C30.8087 14.1047 30.5596 13.6885 30.4173 13.6808C30.3623 13.6778 30.2163 13.4829 30.0926 13.2479C29.962 12.9996 29.7683 12.8205 29.6302 12.8205C29.4744 12.8205 29.3923 12.7321 29.3923 12.5641C29.3923 12.4231 29.3361 12.3077 29.2673 12.3077C29.1986 12.3077 29.1424 12.2308 29.1424 12.1368C29.1424 12.0427 29.1022 11.9658 29.053 11.9658C29.0041 11.9658 28.9116 11.8697 28.8476 11.7521C28.5525 11.209 28.4721 11.1111 28.3217 11.1111C28.233 11.1111 28.1388 10.9957 28.1124 10.8547C28.0861 10.7137 27.9882 10.5983 27.8953 10.5983C27.8022 10.5983 27.726 10.5214 27.726 10.4274C27.726 10.3333 27.6697 10.2564 27.601 10.2564C27.5323 10.2564 27.476 10.185 27.476 10.0979C27.476 9.89316 26.9963 9.40171 26.7968 9.40171C26.712 9.40171 26.6429 9.3141 26.6429 9.20684C26.6429 8.94402 26.3856 8.55897 26.2054 8.55256C26.1252 8.54957 26.0596 8.43162 26.0596 8.2906C26.0596 8.14957 26.0034 8.03419 25.9347 8.03419C25.8659 8.03419 25.8097 7.95727 25.8097 7.86325C25.8097 7.76923 25.7335 7.69231 25.6403 7.69231C25.5474 7.69231 25.4495 7.57692 25.4233 7.4359C25.3969 7.29487 25.2944 7.17949 25.1956 7.17949C25.0969 7.17949 24.9457 6.98718 24.8597 6.75214C24.7736 6.5171 24.6335 6.32479 24.5483 6.32479C24.4631 6.32479 24.3933 6.24786 24.3933 6.15385C24.3933 6.05983 24.3371 5.98291 24.2683 5.98291C24.1996 5.98291 24.1433 5.92094 24.1433 5.84487C24.1433 5.60427 23.5162 5.12821 23.199 5.12821C22.9288 5.12821 22.8936 5.17735 22.8936 5.55556C22.8936 5.7906 22.8561 5.98291 22.8103 5.98291C22.7645 5.98291 22.727 6.24402 22.727 6.56282C22.727 6.92094 22.6791 7.18077 22.602 7.24145C22.5235 7.30299 22.477 7.56453 22.477 7.94316C22.477 8.27521 22.4395 8.54701 22.3937 8.54701C22.3479 8.54701 22.3104 8.93162 22.3104 9.40171C22.3104 10.0474 22.2798 10.2564 22.1854 10.2564C22.0981 10.2564 22.0604 10.4368 22.0604 10.8547C22.0604 11.1838 22.0229 11.453 21.9771 11.453C21.9313 11.453 21.8938 11.7607 21.8938 12.1368C21.8938 12.6308 21.859 12.8205 21.7688 12.8205C21.682 12.8205 21.6438 13 21.6438 13.4085C21.6438 13.7321 21.6064 14.0444 21.5605 14.1026C21.5147 14.1607 21.4772 14.4731 21.4772 14.7966C21.4772 15.2051 21.4391 15.3846 21.3522 15.3846C21.2579 15.3846 21.2273 15.5936 21.2273 16.2393C21.2273 16.7094 21.1898 17.094 21.1439 17.094C21.0981 17.094 21.0606 17.3551 21.0606 17.6739C21.0606 18.0321 21.0127 18.2919 20.9357 18.3526C20.8571 18.4141 20.8107 18.6756 20.8107 19.0543C20.8107 19.3863 20.7732 19.6581 20.7274 19.6581C20.6815 19.6581 20.644 19.9192 20.644 20.238C20.644 20.5962 20.5961 20.856 20.5191 20.9167C20.4337 20.9838 20.3941 21.2577 20.3941 21.7795C20.3941 22.2 20.3566 22.5915 20.3108 22.6496C20.2649 22.7077 20.2275 23.0201 20.2275 23.3436C20.2275 23.7521 20.1893 23.9316 20.1025 23.9316C20.0337 23.9316 19.9775 24.012 19.9775 24.1103C19.9775 24.3423 19.5945 25.1282 19.4814 25.1282C19.4334 25.1282 19.3943 25.2436 19.3943 25.3846C19.3943 25.5645 19.3058 25.641 19.0966 25.641C18.9331 25.641 18.743 25.5256 18.6742 25.3846C18.5778 25.1868 18.3328 25.1282 17.6019 25.1282C17.0604 25.1282 16.6325 25.0551 16.6032 24.9573C16.5736 24.859 16.1331 24.7863 15.5657 24.7863C14.7662 24.7863 14.5707 24.738 14.5317 24.5299C14.4928 24.3218 14.2955 24.2735 13.4815 24.2735C12.8687 24.2735 12.479 24.2073 12.479 24.1026C12.479 23.9957 11.9791 23.9316 11.1459 23.9316H9.81285V25.1282C9.81285 25.812 9.84847 26.3248 9.89617 26.3248C9.94574 26.3248 9.97948 26.9731 9.97948 27.9278C9.97948 29.144 10.0097 29.5821 10.1045 29.7436C10.2001 29.9064 10.2294 30.3526 10.2294 31.6449C10.2294 32.6564 10.2628 33.3333 10.3128 33.3333C10.3627 33.3333 10.3961 34.0103 10.3961 35.0218C10.3961 36.3141 10.4254 36.7603 10.521 36.9231C10.6216 37.0944 10.646 37.6184 10.646 39.6017V42.0675L10.2534 42.8286C9.98198 43.3547 9.7889 43.5897 9.62851 43.5897C9.50083 43.5897 9.39627 43.6667 9.39627 43.7607C9.39627 43.8547 9.30253 43.9316 9.18797 43.9316C9.05842 43.9316 8.97968 44.0286 8.97968 44.188C8.97968 44.3415 8.90282 44.4444 8.78805 44.4444C8.52706 44.4444 8.14797 44.8235 8.14714 45.0855C8.14672 45.215 8.0332 45.2991 7.8599 45.2991C7.70223 45.2991 7.54996 45.3761 7.52164 45.4701C7.49331 45.5641 7.38312 45.641 7.27689 45.641C7.17066 45.641 7.03715 45.7564 6.98008 45.8974C6.92301 46.0385 6.7872 46.1538 6.67826 46.1538C6.56933 46.1538 6.48018 46.2308 6.48018 46.3248C6.48018 46.4188 6.40394 46.4957 6.31083 46.4957C6.21794 46.4957 6.12004 46.6111 6.09379 46.7521C6.06734 46.8932 5.95611 47.0086 5.84634 47.0086C5.73678 47.0086 5.64701 47.0855 5.64701 47.1795C5.64701 47.2735 5.51453 47.3504 5.35269 47.3504C5.16814 47.3504 5.04067 47.4457 5.01067 47.6068C4.98422 47.7479 4.89382 47.8633 4.80988 47.8633C4.72573 47.8633 4.63387 47.9402 4.60555 48.0342C4.57722 48.1282 4.48016 48.2051 4.38976 48.2051C4.29936 48.2051 4.20375 48.3205 4.17751 48.4615C4.15105 48.6026 4.03983 48.718 3.93006 48.718C3.82049 48.718 3.73072 48.7949 3.73072 48.8889C3.73072 48.9829 3.60345 49.0598 3.44807 49.0598C3.27352 49.0598 3.14688 49.1581 3.1173 49.3162C3.09106 49.4573 2.99316 49.5727 2.90026 49.5727C2.80715 49.5727 2.73092 49.6496 2.73092 49.7436C2.73092 49.8376 2.63989 49.9145 2.52867 49.9145C2.41723 49.9145 2.26997 50.0299 2.20123 50.1709C2.13249 50.312 1.99856 50.4274 1.90379 50.4274C1.80881 50.4274 1.73112 50.5043 1.73112 50.5983C1.73112 50.6923 1.62135 50.7692 1.48721 50.7692C1.35286 50.7692 1.18685 50.8846 1.11811 51.0256C1.04938 51.1667 0.936482 51.2821 0.86712 51.2821C0.797759 51.2821 0.717983 51.359 0.689655 51.453C0.661328 51.547 0.573636 51.6239 0.494902 51.6239C0.416168 51.6239 0.287235 51.7786 0.208292 51.968C0.0506151 52.3457 0.0170799 52.8205 0.148096 52.8205C0.19392 52.8205 0.231413 52.9017 0.231413 53.0013C0.231413 53.1009 1.54365 55.8731 3.1475 59.1624C4.90736 62.7714 6.06359 65.2692 6.06359 65.4628C6.06359 65.6393 6.11046 65.8282 6.16774 65.8833C6.25105 65.9628 6.25105 66.003 6.16774 66.0825C6.11046 66.1376 6.06359 66.3684 6.06359 66.5953C6.06359 66.8487 6.01527 67.0085 5.93862 67.0085C5.86988 67.0085 5.81364 67.091 5.81364 67.1919C5.81364 67.4282 5.6016 67.8632 5.48641 67.8632C5.43726 67.8632 5.39706 67.9457 5.39706 68.0466C5.39706 68.2829 5.18502 68.7179 5.06983 68.7179C5.02067 68.7179 4.98047 68.8333 4.98047 68.9744C4.98047 69.1158 4.90653 69.2308 4.81551 69.2308C4.70886 69.2308 4.63179 69.3821 4.59805 69.6581C4.5693 69.8932 4.50265 70.0855 4.44995 70.0855C4.39705 70.0855 4.25291 70.2778 4.12918 70.5128C4.00567 70.7479 3.88152 70.9402 3.8534 70.9402C3.76863 70.9402 3.56409 71.4154 3.56409 71.6115C3.56409 71.7124 3.52389 71.7949 3.47473 71.7949C3.36413 71.7949 3.1475 72.2261 3.1475 72.4466C3.1475 72.5363 3.06981 72.6513 2.97462 72.7026C2.87964 72.7534 2.78153 72.9547 2.75675 73.1496C2.73175 73.3449 2.66843 73.5043 2.61594 73.5043C2.56345 73.5043 2.45014 73.6966 2.36412 73.9316C2.27809 74.1667 2.15332 74.359 2.08688 74.359C2.02043 74.359 1.65092 75.0128 1.26579 75.812C0.880659 76.6111 0.527812 77.265 0.48178 77.265C0.435747 77.265 0.398046 77.362 0.398046 77.4808C0.398046 77.5996 0.313688 77.7726 0.210583 77.8654C-0.0701944 78.1179 -0.0701944 79.7162 0.210583 79.7983C0.313688 79.8282 0.398046 79.9628 0.398046 80.0974C0.398046 80.2321 0.454285 80.3419 0.523022 80.3419C0.591758 80.3419 0.647997 80.4188 0.647997 80.5128C0.647997 80.6068 0.687156 80.6838 0.734855 80.6838C0.782762 80.6838 0.922942 80.8761 1.04646 81.1111C1.17019 81.3461 1.31849 81.5385 1.37619 81.5385C1.43388 81.5385 1.48117 81.6538 1.48117 81.7949C1.48117 81.9543 1.5599 82.0513 1.68946 82.0513C1.83984 82.0513 1.89775 82.1432 1.89775 82.3816C1.89775 82.5658 1.97419 82.762 2.07063 82.8248C2.16582 82.8868 2.37536 83.1996 2.53617 83.5201C2.69697 83.8402 2.90026 84.1026 2.98795 84.1026C3.07564 84.1026 3.1475 84.2179 3.1475 84.359C3.1475 84.5 3.18104 84.6154 3.22207 84.6154C3.2631 84.6154 3.38496 84.8064 3.49285 85.0397C3.60075 85.2731 3.73843 85.4654 3.79883 85.4671C3.85924 85.4688 4.03233 85.7393 4.18355 86.0684C4.33477 86.3974 4.48495 86.6667 4.51723 86.6667C4.54952 86.6667 4.62804 86.7628 4.69199 86.8803C4.94694 87.3496 5.05921 87.5214 5.11086 87.5214C5.14044 87.5214 5.23855 87.7137 5.32853 87.9487C5.41872 88.1838 5.54724 88.3761 5.6141 88.3761C5.68096 88.3761 5.75719 88.4915 5.78344 88.6325C5.80989 88.7735 5.86655 88.8889 5.90946 88.8889C5.95236 88.8889 6.08859 89.0812 6.2121 89.3162C6.33583 89.5513 6.48413 89.7436 6.54183 89.7436C6.59953 89.7436 6.64681 89.8205 6.64681 89.9145C6.64681 90.0085 6.70305 90.0855 6.77179 90.0855C6.84052 90.0855 6.89676 90.168 6.89676 90.2688C6.89676 90.5427 7.11651 90.9402 7.26773 90.9402C7.34084 90.9402 7.43499 91.1244 7.47665 91.3496C7.5183 91.5748 7.58892 91.7863 7.63328 91.8197C7.81262 91.9543 7.78534 94.8718 7.60495 94.8718C7.51081 94.8718 7.47998 95.0795 7.47998 95.7162C7.47998 96.1808 7.44249 96.6085 7.39666 96.6667C7.35084 96.7248 7.31334 97.1825 7.31334 97.6842C7.31334 98.3368 7.27794 98.6239 7.18837 98.6944C7.09089 98.7709 7.06339 99.1124 7.06339 100.251C7.06339 101.109 7.02903 101.709 6.98008 101.709C6.93425 101.709 6.89676 102.094 6.89676 102.564C6.89676 103.21 6.86614 103.419 6.77179 103.419C6.67451 103.419 6.64681 103.647 6.64681 104.444C6.64681 105.014 6.60973 105.47 6.56349 105.47C6.51767 105.47 6.48018 105.847 6.48018 106.306C6.48018 106.892 6.44268 107.172 6.3552 107.241C6.25772 107.318 6.23023 107.659 6.23023 108.798C6.23023 109.656 6.19586 110.256 6.14691 110.256C6.10108 110.256 6.06359 110.641 6.06359 111.111V111.966H6.46997C6.7295 111.966 6.91384 111.873 6.98008 111.709C7.0611 111.509 7.29085 111.453 8.03174 111.453C8.60809 111.453 8.97968 111.386 8.97968 111.282C8.97968 111.177 9.3971 111.111 10.0655 111.111C10.9537 111.111 11.1599 111.065 11.199 110.855C11.2392 110.64 11.485 110.598 12.6962 110.598C13.6067 110.598 14.1453 110.535 14.1453 110.427C14.1453 110.323 14.5461 110.256 15.1807 110.256C15.9902 110.256 16.2437 110.2 16.3414 110C16.5542 109.563 17.2003 109.665 17.4291 110.171C17.5353 110.406 17.6665 110.598 17.7207 110.598C17.7748 110.598 17.906 110.791 18.0123 111.026C18.1185 111.261 18.2853 111.453 18.3832 111.453C18.4811 111.453 18.5611 111.559 18.5611 111.69C18.5611 111.82 18.6907 112.053 18.8492 112.207C19.0077 112.362 19.1598 112.563 19.1875 112.654C19.2149 112.746 19.3103 112.821 19.3993 112.821C19.4882 112.821 19.5609 112.897 19.5609 112.991C19.5609 113.085 19.6507 113.162 19.7603 113.162C19.87 113.162 19.9813 113.278 20.0077 113.419C20.034 113.56 20.1319 113.675 20.2247 113.675C20.3179 113.675 20.3941 113.752 20.3941 113.846C20.3941 113.94 20.4839 114.017 20.5934 114.017C20.7032 114.017 20.8144 114.132 20.8409 114.274C20.8736 114.449 21.0075 114.53 21.2662 114.53C21.4739 114.53 21.6438 114.607 21.6438 114.701C21.6438 114.795 21.8273 114.872 22.0515 114.872C22.337 114.872 22.4735 114.949 22.5072 115.128C22.5751 115.491 23.6628 115.491 23.8399 115.128C23.918 114.968 24.1229 114.872 24.3873 114.872C24.6197 114.872 24.8099 114.795 24.8099 114.701C24.8099 114.607 24.9384 114.53 25.0955 114.53C25.2527 114.53 25.4375 114.415 25.5062 114.274C25.5749 114.132 25.6714 114.017 25.7203 114.017C25.7695 114.017 25.8097 113.94 25.8097 113.846C25.8097 113.752 25.8859 113.675 25.979 113.675C26.0719 113.675 26.1698 113.56 26.1961 113.419C26.2225 113.278 26.2802 113.162 26.3244 113.162C26.3687 113.162 26.4571 113.066 26.521 112.949C26.7966 112.441 26.8909 112.308 26.9726 112.308C27.0203 112.308 27.0594 112.231 27.0594 112.137C27.0594 112.043 27.1157 111.966 27.1844 111.966C27.2532 111.966 27.3094 111.883 27.3094 111.782C27.3094 111.508 27.5291 111.111 27.681 111.111C27.7545 111.111 27.8362 110.996 27.8624 110.855C27.8889 110.714 27.9865 110.598 28.0794 110.598C28.1723 110.598 28.3352 110.406 28.4415 110.171C28.5477 109.936 28.7112 109.744 28.8051 109.744C28.8989 109.744 28.9757 109.667 28.9757 109.573C28.9757 109.479 29.0274 109.402 29.0905 109.402C29.1536 109.402 29.2519 109.286 29.309 109.145C29.3661 109.004 29.5019 108.889 29.6108 108.889C29.7197 108.889 29.8089 108.812 29.8089 108.718C29.8089 108.624 29.8851 108.547 29.9782 108.547C30.0711 108.547 30.169 108.432 30.1953 108.291C30.2249 108.132 30.3515 108.034 30.526 108.034C30.6814 108.034 30.8087 107.957 30.8087 107.863C30.8087 107.763 31.0986 107.692 31.5119 107.692C31.8987 107.692 32.2384 107.769 32.2667 107.863C32.2951 107.957 32.4098 108.034 32.5217 108.034C32.6469 108.034 32.725 108.133 32.725 108.291C32.725 108.45 32.8037 108.547 32.9333 108.547C33.0478 108.547 33.1416 108.624 33.1416 108.718C33.1416 108.812 33.2353 108.889 33.3499 108.889C33.4644 108.889 33.5582 108.965 33.5582 109.056C33.5582 109.149 33.6519 109.273 33.7664 109.332C33.881 109.391 33.9747 109.507 33.9747 109.591C33.9747 109.675 34.0149 109.744 34.0641 109.744C34.113 109.744 34.2055 109.84 34.2695 109.957C34.4882 110.36 34.8356 110.849 35.0497 111.055C35.1139 111.117 35.2953 111.424 35.4526 111.738C35.61 112.051 35.7865 112.308 35.8448 112.308C35.9033 112.308 36.0214 112.5 36.1074 112.735C36.1935 112.97 36.2943 113.162 36.3314 113.162C36.3684 113.162 36.4857 113.355 36.5919 113.59C36.6982 113.825 36.8463 114.017 36.9212 114.017C36.9962 114.017 37.0575 114.132 37.0575 114.274C37.0575 114.415 37.0927 114.53 37.1358 114.53C37.1791 114.53 37.4088 114.912 37.6465 115.38C37.8842 115.847 38.1862 116.328 38.3178 116.447C38.4495 116.567 38.5572 116.728 38.5572 116.806C38.5572 117.009 38.779 117.436 38.8844 117.436C38.9335 117.436 38.9737 117.518 38.9737 117.619C38.9737 117.856 39.1858 118.291 39.301 118.291C39.3501 118.291 39.3903 118.373 39.3903 118.474C39.3903 119.227 40.2566 119.439 40.3901 118.718C40.4387 118.456 40.5347 118.291 40.638 118.291C40.7309 118.291 40.8067 118.208 40.8067 118.107C40.8067 117.924 41.0092 117.436 41.0852 117.436C41.1073 117.436 41.3539 116.974 41.6332 116.41C41.9123 115.846 42.1781 115.385 42.2237 115.385C42.2691 115.385 42.3064 115.302 42.3064 115.201C42.3064 114.927 42.5262 114.53 42.678 114.53C42.7515 114.53 42.8332 114.415 42.8594 114.274C42.8859 114.132 42.9436 114.017 42.9877 114.017C43.0959 114.017 43.3062 113.574 43.3062 113.346C43.3062 113.245 43.3625 113.162 43.4312 113.162C43.4999 113.162 43.5562 113.085 43.5562 112.991C43.5562 112.897 43.626 112.821 43.7111 112.821C43.7963 112.821 43.9365 112.628 44.0225 112.393C44.1086 112.158 44.2263 111.966 44.2842 111.966C44.3421 111.966 44.3893 111.85 44.3893 111.709C44.3893 111.567 44.4635 111.453 44.556 111.453C44.6476 111.453 44.7226 111.376 44.7226 111.282C44.7226 111.188 44.7789 111.111 44.8476 111.111C44.9163 111.111 44.9726 110.996 44.9726 110.855C44.9726 110.714 45.0421 110.598 45.1271 110.598C45.2119 110.598 45.3827 110.406 45.5062 110.171C45.6299 109.936 45.7759 109.741 45.8309 109.738C45.9732 109.73 46.2223 109.314 46.2223 109.084C46.2223 108.975 46.3512 108.889 46.5139 108.889C46.6743 108.889 46.8055 108.812 46.8055 108.718C46.8055 108.624 46.8578 108.547 46.9216 108.547C46.9855 108.547 47.0592 108.432 47.0857 108.291C47.1134 108.142 47.2379 108.034 47.3813 108.034C47.5175 108.034 47.652 107.957 47.6804 107.863C47.7474 107.64 48.9464 107.64 49.0134 107.863C49.0418 107.957 49.1711 108.034 49.3011 108.034C49.434 108.034 49.5581 108.146 49.5852 108.291C49.6114 108.432 49.707 108.547 49.7974 108.547C49.8878 108.547 49.9849 108.624 50.0132 108.718C50.0416 108.812 50.1938 108.889 50.3515 108.889C50.5269 108.889 50.6381 108.973 50.6381 109.105C50.6381 109.224 50.7937 109.474 50.9837 109.661C51.5344 110.201 51.6379 110.329 51.6379 110.468C51.6379 110.54 51.7316 110.598 51.8462 110.598C51.9758 110.598 52.0545 110.695 52.0545 110.855C52.0545 110.996 52.0937 111.111 52.1413 111.111C52.1893 111.111 52.3294 111.303 52.453 111.538C52.5767 111.774 52.725 111.966 52.7827 111.966C52.8404 111.966 52.8877 112.043 52.8877 112.137C52.8877 112.231 52.9439 112.308 53.0126 112.308C53.0814 112.308 53.1376 112.423 53.1376 112.564C53.1376 112.705 53.1939 112.821 53.2626 112.821C53.3313 112.821 53.3876 112.897 53.3876 112.991C53.3876 113.085 53.4625 113.162 53.5542 113.162C53.6467 113.162 53.7208 113.276 53.7208 113.419C53.7208 113.56 53.7771 113.675 53.8458 113.675C53.9145 113.675 53.9708 113.752 53.9708 113.846C53.9708 113.94 54.0645 114.017 54.1791 114.017C54.3086 114.017 54.3874 114.114 54.3874 114.274C54.3874 114.452 54.4748 114.53 54.674 114.53C54.8317 114.53 54.9839 114.607 55.0122 114.701C55.0406 114.795 55.2866 114.872 55.5588 114.872C55.9431 114.872 56.0537 114.929 56.0537 115.128C56.0537 115.332 56.1743 115.385 56.6396 115.385C57.0835 115.385 57.237 115.323 57.2732 115.128C57.3084 114.941 57.4526 114.872 57.8123 114.872C58.0841 114.872 58.3033 114.795 58.3033 114.701C58.3033 114.607 58.4299 114.53 58.5847 114.53C58.7394 114.53 58.9127 114.415 58.9698 114.274C59.0269 114.132 59.1439 114.017 59.2299 114.017C59.316 114.017 59.3864 113.94 59.3864 113.846C59.3864 113.752 59.4755 113.675 59.5845 113.675C59.6934 113.675 59.8292 113.56 59.8863 113.419C59.9433 113.278 60.0417 113.162 60.1048 113.162C60.1679 113.162 60.2195 113.085 60.2195 112.991C60.2195 112.897 60.3106 112.821 60.4218 112.821C60.5332 112.821 60.6805 112.705 60.7492 112.564C60.818 112.423 60.9144 112.308 60.9634 112.308C61.0125 112.308 61.0527 112.231 61.0527 112.137C61.0527 112.043 61.1225 111.966 61.2077 111.966C61.2929 111.966 61.4314 111.778 61.5153 111.549C61.5993 111.319 61.7544 111.087 61.8603 111.032C61.9661 110.978 62.0525 110.858 62.0525 110.766C62.0525 110.674 62.0927 110.598 62.1419 110.598C62.2571 110.598 62.4691 110.163 62.4691 109.927C62.4691 109.621 63.5245 109.691 63.5824 110C63.6214 110.208 63.8186 110.256 64.6326 110.256C65.2454 110.256 65.6351 110.323 65.6351 110.427C65.6351 110.535 66.2015 110.598 67.1675 110.598C68.4529 110.598 68.7079 110.64 68.7481 110.855C68.787 111.063 68.9836 111.111 69.7935 111.111C70.3686 111.111 70.8127 111.183 70.8424 111.282C70.872 111.38 71.3126 111.453 71.8799 111.453C72.6794 111.453 72.875 111.501 72.9139 111.709C72.9466 111.885 73.0805 111.966 73.3392 111.966H73.7169V110.513C73.7169 109.658 73.6825 109.06 73.6336 109.06C73.5854 109.06 73.5502 108.517 73.5502 107.772C73.5502 106.786 73.5211 106.462 73.4253 106.387C73.3357 106.316 73.3003 106.029 73.3003 105.376C73.3003 104.875 73.2628 104.417 73.217 104.359C73.1711 104.301 73.1337 103.873 73.1337 103.409C73.1337 102.772 73.1028 102.564 73.0087 102.564C72.9114 102.564 72.8837 102.336 72.8837 101.538C72.8837 100.969 72.8466 100.513 72.8004 100.513C72.7546 100.513 72.7171 100.126 72.7171 99.6526C72.7171 99.0461 72.6802 98.7637 72.5921 98.6944C72.4957 98.6184 72.4671 98.2893 72.4671 97.2568C72.4671 96.5201 72.4296 95.8701 72.3838 95.812C72.338 95.7538 72.3005 95.3261 72.3005 94.8615C72.3005 94.2248 72.2697 94.0171 72.1755 94.0171C72.0164 94.0171 71.9993 92.4004 72.1547 92.0449C72.4019 91.4795 72.4671 91.2859 72.4671 91.1184C72.4671 91.0205 72.5073 90.9402 72.5565 90.9402C72.6054 90.9402 72.6979 90.844 72.7619 90.7265C73.0187 90.2538 73.1293 90.0855 73.1828 90.0855C73.2136 90.0855 73.3628 89.8162 73.514 89.4872C73.6652 89.1581 73.8489 88.8889 73.9222 88.8889C73.9954 88.8889 74.077 88.7735 74.1033 88.6325C74.1297 88.4915 74.1874 88.3761 74.2316 88.3761C74.3397 88.3761 74.55 87.9325 74.55 87.7047C74.55 87.6038 74.6063 87.5214 74.675 87.5214C74.7438 87.5214 74.8 87.4444 74.8 87.3504C74.8 87.2564 74.8698 87.1795 74.955 87.1795C75.0402 87.1795 75.1803 86.9872 75.2664 86.7521C75.3524 86.5171 75.4611 86.3248 75.508 86.3248C75.5548 86.3248 75.6942 86.1325 75.8179 85.8974C75.9414 85.6624 76.0816 85.4701 76.1295 85.4701C76.1772 85.4701 76.2164 85.3547 76.2164 85.2137C76.2164 85.0726 76.2726 84.9573 76.3414 84.9573C76.4101 84.9573 76.4663 84.8803 76.4663 84.7863C76.4663 84.6923 76.5136 84.6154 76.5713 84.6154C76.629 84.6154 76.7773 84.4231 76.901 84.188C77.0246 83.953 77.1608 83.7607 77.2037 83.7607C77.2466 83.7607 77.3032 83.6453 77.3297 83.5043C77.3559 83.3632 77.4351 83.2479 77.5051 83.2479C77.5753 83.2479 77.6328 83.1709 77.6328 83.0769C77.6328 82.9829 77.689 82.906 77.7577 82.906C77.8265 82.906 77.8827 82.7906 77.8827 82.6496C77.8827 82.5085 77.9229 82.3932 77.9721 82.3932C78.021 82.3932 78.1148 82.2833 78.1804 82.1491C78.2458 82.0145 78.2993 81.8222 78.2993 81.7218C78.2993 81.6209 78.3793 81.5385 78.477 81.5385C78.5747 81.5385 78.7734 81.2885 78.9185 80.9829C79.1797 80.4333 79.3901 80.1081 79.6324 79.8803C79.9313 79.5992 80.1421 78.1197 79.8834 78.1197C79.8382 78.1197 79.6128 77.735 79.3824 77.265C79.152 76.7949 78.924 76.4103 78.8754 76.4103C78.7611 76.4103 78.5493 75.9744 78.5493 75.7389C78.5493 75.638 78.5134 75.5556 78.4695 75.5556C78.4257 75.5556 78.0668 74.9017 77.6719 74.1026C77.2772 73.3034 76.9058 72.6496 76.8469 72.6496C76.7879 72.6496 76.6692 72.4573 76.5832 72.2222C76.4972 71.9872 76.3795 71.7949 76.3216 71.7949C76.2637 71.7949 76.2164 71.7124 76.2164 71.6115C76.2164 71.5111 76.1628 71.3188 76.0974 71.1842C76.0318 71.05 75.9381 70.9402 75.8892 70.9402C75.84 70.9402 75.7998 70.8577 75.7998 70.7568C75.7998 70.5342 75.5905 70.0855 75.4865 70.0855C75.4453 70.0855 75.3611 69.8932 75.2999 69.6581C75.2387 69.4231 75.1451 69.2308 75.092 69.2308C75.0391 69.2308 74.9077 69.0385 74.8 68.8034C74.6923 68.5684 74.5546 68.3761 74.4938 68.3761C74.4332 68.3761 74.3834 68.2701 74.3834 68.1402C74.3834 68.0107 74.2334 67.5876 74.0501 67.2C73.7281 66.5192 73.5652 65.2991 73.7962 65.2991C73.84 65.2991 73.9379 65.0299 74.0141 64.7009C74.0901 64.3718 74.2045 64.1026 74.268 64.1026C74.3315 64.1026 74.3834 64.0201 74.3834 63.9192C74.3834 63.8188 74.4369 63.6265 74.5023 63.4919C74.568 63.3577 74.6617 63.2479 74.7106 63.2479C74.7598 63.2479 74.8 63.1654 74.8 63.0645C74.8 62.9641 74.8535 62.7718 74.9189 62.6372C74.9845 62.503 75.0783 62.3932 75.1272 62.3932C75.1764 62.3932 75.2166 62.3107 75.2166 62.2098C75.2166 61.9735 75.4286 61.5385 75.5438 61.5385C75.593 61.5385 75.6332 61.456 75.6332 61.3551C75.6332 61.1188 75.8452 60.6838 75.9604 60.6838C76.0095 60.6838 76.0497 60.6013 76.0497 60.5004C76.0497 60.2641 76.2618 59.8291 76.377 59.8291C76.4261 59.8291 76.4663 59.7466 76.4663 59.6457C76.4663 59.4094 76.6784 58.9744 76.7936 58.9744C76.8427 58.9744 76.8829 58.8919 76.8829 58.791C76.8829 58.5547 77.095 58.1197 77.2101 58.1197C77.2593 58.1197 77.2995 58.0372 77.2995 57.9363C77.2995 57.7 77.5115 57.265 77.6267 57.265C77.6759 57.265 77.7161 57.1825 77.7161 57.0816C77.7161 56.8453 77.9281 56.4103 78.0433 56.4103C78.0925 56.4103 78.1327 56.3278 78.1327 56.2269C78.1327 55.9906 78.3447 55.5556 78.4599 55.5556C78.509 55.5556 78.5493 55.4731 78.5493 55.3722C78.5493 55.1359 78.7613 54.7009 78.8765 54.7009C78.9256 54.7009 78.9658 54.6184 78.9658 54.5175C78.9658 54.2812 79.1779 53.8462 79.2931 53.8462C79.3422 53.8462 79.3824 53.7658 79.3824 53.6679C79.3824 53.5697 79.4762 53.2821 79.5907 53.0286C79.8313 52.4962 79.8475 52.335 79.674 52.1987C79.6053 52.1444 79.5491 51.9932 79.5491 51.862C79.5491 51.7222 79.4632 51.6239 79.3408 51.6239C79.2262 51.6239 79.1325 51.547 79.1325 51.453C79.1325 51.359 79.0427 51.2821 78.9331 51.2821C78.8234 51.2821 78.7121 51.1667 78.6857 51.0256C78.6578 50.8756 78.5328 50.7692 78.3853 50.7692C78.2464 50.7692 78.1327 50.6923 78.1327 50.5983C78.1327 50.5043 78.0429 50.4274 77.9333 50.4274C77.8236 50.4274 77.7123 50.312 77.6859 50.1709C77.6596 50.0299 77.543 49.9145 77.4272 49.9145C77.3112 49.9145 77.2162 49.8376 77.2162 49.7436C77.2162 49.6496 77.1458 49.5727 77.0598 49.5727C76.9737 49.5727 76.8567 49.4573 76.7996 49.3162C76.7425 49.1752 76.5903 49.0598 76.4611 49.0598C76.332 49.0598 76.203 48.9829 76.1747 48.8889C76.1464 48.7949 76.0545 48.718 75.9704 48.718C75.8864 48.718 75.796 48.6026 75.7696 48.4615C75.7417 48.3115 75.6167 48.2051 75.4692 48.2051C75.3303 48.2051 75.2166 48.1282 75.2166 48.0342C75.2166 47.9402 75.1462 47.8633 75.0601 47.8633C74.9741 47.8633 74.8571 47.7479 74.8 47.6068C74.7429 47.4658 74.6071 47.3504 74.4982 47.3504C74.3892 47.3504 74.3001 47.2735 74.3001 47.1795C74.3001 47.0855 74.1689 47.0086 74.0085 47.0086C73.8048 47.0086 73.7169 46.9312 73.7169 46.7521C73.7169 46.6111 73.6442 46.4957 73.5552 46.4957C73.4663 46.4957 73.3703 46.4188 73.3419 46.3248C73.3136 46.2308 73.203 46.1538 73.096 46.1538C72.9891 46.1538 72.88 46.0385 72.8535 45.8974C72.8256 45.7474 72.7006 45.641 72.5531 45.641C72.4142 45.641 72.3005 45.5641 72.3005 45.4701C72.3005 45.3761 72.2107 45.2991 72.1012 45.2991C71.9914 45.2991 71.8801 45.1838 71.8537 45.0427C71.8275 44.9017 71.7318 44.7863 71.6415 44.7863C71.5511 44.7863 71.454 44.7094 71.4257 44.6154C71.3973 44.5214 71.2826 44.4444 71.1707 44.4444C71.0589 44.4444 70.9674 44.3688 70.9674 44.2769C70.9674 44.1846 70.8737 44.0607 70.7591 44.0017C70.6446 43.9427 70.5508 43.8261 70.5508 43.7423C70.5508 43.6581 70.4236 43.5897 70.2682 43.5897C70.0936 43.5897 69.967 43.4915 69.9374 43.3333C69.9112 43.1923 69.8295 43.0769 69.756 43.0769C69.6094 43.0769 69.3844 42.6829 69.3844 42.4265C69.3844 42.3372 69.3282 42.1684 69.2594 42.0513C69.1657 41.8919 69.1344 41.4637 69.1344 40.3419C69.1344 39.2201 69.1657 38.7919 69.2594 38.6325C69.355 38.4697 69.3844 38.0235 69.3844 36.7312C69.3844 35.7197 69.4177 35.0427 69.4677 35.0427C69.5177 35.0427 69.551 34.3658 69.551 33.3543C69.551 32.062 69.5804 31.6158 69.676 31.453C69.7708 31.2915 69.801 30.8534 69.801 29.6372C69.801 28.6825 69.8347 28.0342 69.8843 28.0342C69.9347 28.0342 69.9676 27.2936 69.9676 26.1538V24.2735H69.551C69.3219 24.2735 69.1344 24.1966 69.1344 24.1026C69.1344 23.9923 68.1882 23.9316 66.4623 23.9316C64.1983 23.9316 63.7711 23.8923 63.6653 23.6752C63.5643 23.4679 63.2771 23.4188 62.1714 23.4188C61.3145 23.4188 60.8028 23.3547 60.8028 23.2479C60.8028 23.1538 60.709 23.0769 60.5945 23.0769C60.4649 23.0769 60.3862 22.9799 60.3862 22.8205C60.3862 22.6795 60.3531 22.5641 60.3126 22.5641C60.272 22.5641 60.217 22.4295 60.19 22.265C60.1631 22.1004 60.1083 21.8504 60.0683 21.7094C59.884 21.0603 59.803 20.6679 59.803 20.4244C59.803 20.2791 59.7467 20.1158 59.678 20.062C59.6092 20.0077 59.553 19.7795 59.553 19.5543C59.553 19.3295 59.5155 19.1453 59.4697 19.1453C59.4239 19.1453 59.3864 18.8816 59.3864 18.5594C59.3864 18.2368 59.3301 17.8577 59.2614 17.7167C59.1927 17.5756 59.1364 17.3056 59.1364 17.1162C59.1364 16.9269 59.0989 16.7248 59.0531 16.6667C59.0073 16.6085 58.9698 16.4094 58.9698 16.2239C58.9698 16.0385 58.9136 15.8423 58.8448 15.7885C58.7744 15.7329 58.7198 15.4782 58.7198 15.2056C58.7198 14.9389 58.6823 14.6735 58.6365 14.6154C58.5907 14.5573 58.5532 14.2927 58.5532 14.0278C58.5532 13.7628 58.497 13.4504 58.4282 13.3333C58.3595 13.2162 58.3033 12.9808 58.3033 12.8098C58.3033 12.6389 58.2658 12.4513 58.2199 12.3932C58.1741 12.335 58.1366 12.1081 58.1366 11.8885C58.1366 11.6692 58.0804 11.4453 58.0116 11.391C57.9429 11.3372 57.8867 11.1026 57.8867 10.8701C57.8867 10.6376 57.8492 10.4 57.8034 10.3419C57.7575 10.2838 57.72 10.0483 57.72 9.8188C57.72 9.56197 57.6719 9.40171 57.5951 9.40171C57.5049 9.40171 57.4701 9.21197 57.4701 8.71795C57.4701 8.34188 57.4326 8.03419 57.3868 8.03419C57.3409 8.03419 57.3035 7.87778 57.3035 7.68675C57.3035 7.49615 57.2472 7.2953 57.1785 7.24145C57.1014 7.18077 57.0535 6.92094 57.0535 6.56282C57.0535 6.24402 57.016 5.98291 56.9702 5.98291C56.9244 5.98291 56.8869 5.7906 56.8869 5.55556C56.8869 5.17094 56.8535 5.12821 56.5536 5.12821C56.3703 5.12821 56.2203 5.20513 56.2203 5.29915C56.2203 5.39316 56.1441 5.47009 56.051 5.47009C55.9581 5.47009 55.8602 5.58547 55.834 5.7265C55.8075 5.86752 55.719 5.98291 55.6369 5.98291C55.555 5.98291 55.3997 6.17393 55.2918 6.40727C55.1839 6.6406 55.0299 6.83291 54.9497 6.83462C54.8696 6.83633 54.8039 6.91453 54.8039 7.00855C54.8039 7.10256 54.7102 7.17949 54.5957 7.17949C54.4661 7.17949 54.3874 7.2765 54.3874 7.4359C54.3874 7.57692 54.3192 7.69231 54.2359 7.69231C54.1526 7.69231 53.937 7.96154 53.7569 8.2906C53.5767 8.61966 53.3636 8.88889 53.2834 8.88889C53.2032 8.88889 53.1376 9.00427 53.1376 9.1453C53.1376 9.3047 53.0589 9.40171 52.9293 9.40171C52.8148 9.40171 52.721 9.46966 52.721 9.55257C52.721 9.6359 52.6554 9.74872 52.5752 9.80427C52.4336 9.90171 52.1386 10.2547 52.0545 10.4274C51.9749 10.5906 51.6777 10.9402 51.3671 11.2363C51.1953 11.3996 51.0547 11.6308 51.0547 11.7496C51.0547 11.8684 50.9747 11.9658 50.8768 11.9658C50.7789 11.9658 50.6121 12.1581 50.5058 12.3932C50.3996 12.6282 50.2361 12.8205 50.1422 12.8205C50.0484 12.8205 49.9716 12.8974 49.9716 12.9915C49.9716 13.0855 49.9243 13.1624 49.8666 13.1624C49.8089 13.1624 49.6606 13.3547 49.5369 13.5897C49.4134 13.8248 49.2532 14.0171 49.1811 14.0171C49.1088 14.0171 49.0282 14.1325 49.002 14.2735C48.9755 14.4145 48.8814 14.5299 48.7926 14.5299C48.7039 14.5299 48.5302 14.7222 48.4067 14.9573C48.2829 15.1923 48.1319 15.3846 48.0711 15.3846C47.9378 15.3846 47.722 15.8 47.722 16.056C47.722 16.1568 47.6283 16.2393 47.5137 16.2393C47.3992 16.2393 47.3054 16.3162 47.3054 16.4103C47.3054 16.5043 47.1698 16.5812 47.004 16.5812C46.7106 16.5812 46.0557 15.5526 46.0557 15.0919C46.0557 15.0026 45.962 14.8265 45.8474 14.7009C45.7328 14.5752 45.6385 14.3504 45.6376 14.2017C45.6368 14.0534 45.5431 13.7504 45.4293 13.5291C45.3156 13.3077 45.2225 13.0577 45.2225 12.9735C45.2225 12.8893 45.1663 12.8205 45.0975 12.8205C45.0288 12.8205 44.9726 12.7051 44.9726 12.5641C44.9726 12.4231 44.9351 12.3077 44.8892 12.3077C44.8434 12.3077 44.8059 12.2107 44.8059 12.0923C44.8059 11.9739 44.7122 11.6697 44.5976 11.4158C44.4831 11.1624 44.3893 10.9171 44.3893 10.8709C44.3893 10.8248 44.2956 10.5795 44.1811 10.3256C44.0665 10.0722 43.9728 9.76026 43.9728 9.63333C43.9728 9.50598 43.9165 9.40171 43.8478 9.40171C43.779 9.40171 43.7228 9.31923 43.7228 9.21838C43.7228 8.98205 43.5108 8.54701 43.3956 8.54701C43.3464 8.54701 43.3062 8.38291 43.3062 8.18248C43.3062 7.98205 43.175 7.5641 43.0146 7.25385C42.8542 6.94359 42.723 6.60769 42.723 6.50727C42.723 6.40684 42.6668 6.32479 42.598 6.32479C42.5293 6.32479 42.4731 6.1765 42.4731 5.9953C42.4731 5.8141 42.3793 5.51453 42.2648 5.32949C42.1502 5.14487 42.0565 4.94145 42.0565 4.87778C42.0565 4.6953 41.828 4.2735 41.7292 4.2735C41.6801 4.2735 41.6399 4.1094 41.6399 3.90898C41.6399 3.70855 41.5087 3.2906 41.3483 2.98034C41.1879 2.67009 41.0567 2.33419 41.0567 2.23376C41.0567 2.13334 41.0004 2.05128 40.9317 2.05128C40.8609 2.05128 40.8067 1.89786 40.8067 1.69701C40.8067 1.3188 40.6263 0.854701 40.4795 0.854701C40.4303 0.854701 40.3901 0.772223 40.3901 0.671369C40.3901 0.306412 40.1456 0 39.8546 0C39.6909 0 39.557 0.0576936 39.557 0.128206ZM39.9735 11.7094C39.9735 11.8504 40.0123 11.9658 40.0596 11.9658C40.1067 11.9658 40.1702 12.0987 40.2006 12.2611C40.231 12.4235 40.3424 12.7209 40.448 12.9218C40.5536 13.1226 40.6401 13.3744 40.6401 13.4812C40.6401 13.588 40.6682 13.6752 40.7026 13.6756C40.7369 13.6756 40.8873 14.044 41.0369 14.494C41.1862 14.944 41.3831 15.4222 41.4743 15.5568C41.5653 15.6919 41.6399 15.897 41.6399 16.0128C41.6399 16.1291 41.7336 16.4162 41.8482 16.6513C41.9627 16.8863 42.0565 17.159 42.0565 17.2573C42.0565 17.3556 42.1127 17.4359 42.1814 17.4359C42.2502 17.4359 42.3064 17.5184 42.3064 17.6192C42.3064 17.7197 42.3533 17.9094 42.4106 18.0406C42.6409 18.5675 42.723 18.7944 42.723 18.9043C42.723 18.9675 42.8542 19.2735 43.0146 19.5838C43.175 19.894 43.3062 20.2248 43.3062 20.3184C43.3062 20.5641 43.8492 21.7094 43.9657 21.7094C44.0198 21.7094 44.1508 21.9017 44.2571 22.1368C44.3633 22.3718 44.5301 22.5641 44.628 22.5641C44.7305 22.5641 44.8059 22.6727 44.8059 22.8205C44.8059 22.9799 44.8847 23.0769 45.0142 23.0769C45.1288 23.0769 45.2225 23.1538 45.2225 23.2479C45.2225 23.3419 45.3498 23.4188 45.5052 23.4188C45.6797 23.4188 45.8064 23.5171 45.8359 23.6752C45.8751 23.8846 46.0803 23.9316 46.9593 23.9316C47.8137 23.9316 48.0561 23.8791 48.1386 23.6752C48.1957 23.5342 48.3502 23.4188 48.4821 23.4188C48.6139 23.4188 48.7218 23.3419 48.7218 23.2479C48.7218 23.1538 48.8156 23.0769 48.9301 23.0769C49.0597 23.0769 49.1384 22.9799 49.1384 22.8205C49.1384 22.6611 49.2171 22.5641 49.3467 22.5641C49.4613 22.5641 49.555 22.4872 49.555 22.3932C49.555 22.2991 49.6112 22.2222 49.68 22.2222C49.7487 22.2222 49.8049 22.1068 49.8049 21.9658C49.8049 21.7979 49.887 21.7094 50.0428 21.7094C50.1809 21.7094 50.3746 21.5303 50.5052 21.2821C50.6289 21.047 50.7843 20.8547 50.8508 20.8547C50.917 20.8547 50.9714 20.7778 50.9714 20.6838C50.9714 20.5897 51.0276 20.5128 51.0964 20.5128C51.1651 20.5128 51.2213 20.3974 51.2213 20.2564C51.2213 20.097 51.3001 20 51.4296 20C51.5442 20 51.6379 19.9316 51.6379 19.8474C51.6379 19.7637 51.7316 19.647 51.8462 19.588C51.9608 19.5291 52.0545 19.4051 52.0545 19.3128C52.0545 19.2209 52.0937 19.1453 52.1413 19.1453C52.223 19.1453 52.3174 19.0115 52.5929 18.5043C52.6569 18.3868 52.7775 18.288 52.8608 18.285C53.046 18.2786 53.3042 17.897 53.3042 17.6308C53.3042 17.5235 53.398 17.4359 53.5125 17.4359C53.6271 17.4359 53.7208 17.359 53.7208 17.265C53.7208 17.1709 53.7771 17.094 53.8458 17.094C53.9145 17.094 53.9708 16.9786 53.9708 16.8376C53.9708 16.6782 54.0495 16.5812 54.1791 16.5812C54.2936 16.5812 54.3874 16.5043 54.3874 16.4103C54.3874 16.3162 54.4636 16.2393 54.5567 16.2393C54.6496 16.2393 54.7473 16.1244 54.7735 15.9838C54.8352 15.6543 54.9706 15.8239 54.9706 16.2312C54.9706 16.4034 55.0268 16.5889 55.0956 16.6432C55.1678 16.7 55.2205 16.9556 55.2205 17.2496C55.2205 17.5291 55.258 17.8051 55.3038 17.8632C55.3497 17.9214 55.3872 18.1205 55.3872 18.306C55.3872 18.4915 55.4434 18.6876 55.5121 18.7415C55.5809 18.7957 55.6371 19.0197 55.6371 19.2389C55.6371 19.4585 55.6746 19.6855 55.7204 19.7436C55.7663 19.8017 55.8037 20.1047 55.8037 20.4167C55.8037 20.7286 55.86 21.0795 55.9287 21.1966C55.9975 21.3137 56.0537 21.5491 56.0537 21.7201C56.0537 21.891 56.0912 22.0786 56.137 22.1368C56.1828 22.1949 56.2203 22.394 56.2203 22.5795C56.2203 22.765 56.2766 22.9611 56.3453 23.015C56.414 23.0692 56.4703 23.2974 56.4703 23.5226C56.4703 23.7474 56.5078 23.9316 56.5536 23.9316C56.5994 23.9316 56.6369 24.1953 56.6369 24.5175C56.6369 24.8402 56.6932 25.2192 56.7619 25.3603C56.8306 25.5013 56.8869 25.6991 56.8869 25.7996C56.8869 25.9004 56.9244 25.9829 56.9702 25.9829C57.016 25.9829 57.0535 26.1393 57.0535 26.3303C57.0535 26.5209 57.1097 26.7218 57.1785 26.7756C57.2472 26.8299 57.3035 26.9483 57.3035 27.0389C57.3035 27.2607 57.5197 27.6923 57.6307 27.6923C57.6798 27.6923 57.72 27.7748 57.72 27.8756C57.72 28.1034 57.9304 28.547 58.0385 28.547C58.0827 28.547 58.1404 28.6624 58.1668 28.8034C58.1931 28.9444 58.291 29.0598 58.3839 29.0598C58.477 29.0598 58.5532 29.1368 58.5532 29.2308C58.5532 29.3248 58.5934 29.4017 58.6426 29.4017C58.6915 29.4017 58.788 29.5171 58.8567 29.6581C58.9254 29.7991 59.0727 29.9145 59.1841 29.9145C59.2953 29.9145 59.3864 29.9915 59.3864 30.0855C59.3864 30.1795 59.513 30.2564 59.6678 30.2564C59.8225 30.2564 59.9958 30.3718 60.0529 30.5128C60.1373 30.7214 60.4093 30.7692 61.5162 30.7692C62.3329 30.7692 62.8965 30.8376 62.9273 30.9402C62.9586 31.044 63.5808 31.1111 64.5154 31.1111H66.0517V32.3748C66.0517 33.3406 66.0221 33.662 65.9267 33.7372C65.8272 33.8154 65.8018 34.1838 65.8018 35.55C65.8018 36.5795 65.7684 37.265 65.7185 37.265C65.6658 37.265 65.6351 38.4902 65.6351 40.5983C65.6351 42.7064 65.6658 43.9316 65.7185 43.9316C65.7643 43.9316 65.8018 44.2034 65.8018 44.5355C65.8018 44.9141 65.8482 45.1756 65.9267 45.2372C65.9955 45.2915 66.053 45.462 66.0544 45.6167C66.0578 45.9709 66.2481 46.4957 66.3733 46.4957C66.4256 46.4957 66.4683 46.6547 66.4683 46.8487C66.4683 47.3111 67.3206 49.0598 67.546 49.0598C67.6406 49.0598 67.7183 49.156 67.7187 49.2735C67.7193 49.4731 68.0786 49.9145 68.2405 49.9145C68.2804 49.9145 68.3694 50.0299 68.4381 50.1709C68.5069 50.312 68.6333 50.4274 68.7189 50.4274C68.8045 50.4274 68.8978 50.5043 68.9262 50.5983C68.9545 50.6923 69.053 50.7692 69.1453 50.7692C69.2375 50.7692 69.3692 50.8846 69.4379 51.0256C69.5067 51.1667 69.6539 51.2821 69.7654 51.2821C69.8766 51.2821 69.9676 51.359 69.9676 51.453C69.9676 51.547 70.0613 51.6239 70.1759 51.6239C70.3055 51.6239 70.3842 51.7209 70.3842 51.8803C70.3842 52.0397 70.4629 52.1368 70.5925 52.1368C70.707 52.1368 70.8008 52.2137 70.8008 52.3077C70.8008 52.4017 70.8906 52.4786 71.0001 52.4786C71.1099 52.4786 71.2211 52.594 71.2476 52.735C71.2776 52.8962 71.405 52.9915 71.5896 52.9915C71.7514 52.9915 71.8839 53.0684 71.8839 53.1624C71.8839 53.2564 71.9776 53.3333 72.0922 53.3333C72.2218 53.3333 72.3005 53.4303 72.3005 53.5897C72.3005 53.7491 72.3792 53.8462 72.5088 53.8462C72.6233 53.8462 72.7171 53.9231 72.7171 54.0171C72.7171 54.1111 72.8068 54.188 72.9164 54.188C73.0262 54.188 73.1374 54.3034 73.1639 54.4444C73.1901 54.5855 73.288 54.7009 73.3809 54.7009C73.6323 54.7009 73.6473 54.6628 72.3005 57.4192C71.6131 58.8256 71.0507 60.059 71.0507 60.1594C71.0507 60.2598 71.0139 60.3419 70.9691 60.3419C70.9241 60.3419 70.8637 60.5342 70.8349 60.7692C70.8062 61.0043 70.7493 61.1966 70.7085 61.1966C70.6675 61.1966 70.6341 61.341 70.6341 61.5175C70.6341 61.694 70.5779 61.9342 70.5092 62.0513C70.4404 62.1684 70.3842 62.4855 70.3842 62.756C70.3842 63.0265 70.3467 63.2479 70.3009 63.2479C70.2488 63.2479 70.2176 64.2735 70.2176 65.9829C70.2176 67.6923 70.2488 68.7179 70.3009 68.7179C70.3467 68.7179 70.3842 68.9047 70.3842 69.1329C70.3842 69.3615 70.4404 69.6637 70.5092 69.8047C70.5779 69.9457 70.6341 70.1756 70.6341 70.3158C70.6341 70.6303 70.9026 71.6214 70.9882 71.6227C71.0226 71.6235 71.0507 71.7047 71.0507 71.803C71.0507 72.0855 72.1878 74.359 72.329 74.359C72.3988 74.359 72.479 74.509 72.5075 74.6923C72.5359 74.8752 72.6321 75.0727 72.7212 75.1308C72.8106 75.1893 72.8837 75.3085 72.8837 75.3962C72.8837 75.4838 72.9399 75.5556 73.0087 75.5556C73.0774 75.5556 73.1337 75.638 73.1337 75.7389C73.1337 75.8393 73.1872 76.0316 73.2526 76.1662C73.3182 76.3004 73.4119 76.4103 73.4609 76.4103C73.51 76.4103 73.5502 76.4927 73.5502 76.5936C73.5502 76.7778 73.7529 77.265 73.8296 77.265C73.8521 77.265 73.986 77.5017 74.127 77.791C74.268 78.0803 74.3834 78.3551 74.3834 78.4013C74.3834 78.5586 74.146 78.9744 74.0562 78.9744C74.007 78.9744 73.9668 79.0897 73.9668 79.2308C73.9668 79.3718 73.9106 79.4872 73.8418 79.4872C73.7731 79.4872 73.7169 79.5641 73.7169 79.6581C73.7169 79.7521 73.6696 79.8291 73.6119 79.8291C73.5542 79.8291 73.4059 80.0214 73.2822 80.2564C73.1586 80.4914 73.0185 80.6838 72.9706 80.6838C72.9229 80.6838 72.8837 80.7991 72.8837 80.9402C72.8837 81.0825 72.8096 81.1966 72.7171 81.1966C72.6254 81.1966 72.5504 81.2735 72.5504 81.3675C72.5504 81.4615 72.4942 81.5385 72.4255 81.5385C72.3567 81.5385 72.3005 81.6538 72.3005 81.7949C72.3005 81.9359 72.2442 82.0513 72.1755 82.0513C72.1068 82.0513 72.0505 82.1231 72.0505 82.2107C72.0505 82.2983 71.9774 82.4175 71.8881 82.4761C71.7989 82.5342 71.7027 82.7316 71.6744 82.9145C71.6458 83.0979 71.5492 83.2479 71.459 83.2479C71.369 83.2479 71.2738 83.3632 71.2476 83.5043C71.2211 83.6453 71.1568 83.762 71.1043 83.7641C71.052 83.7658 70.8595 84.035 70.6766 84.3624C70.494 84.6893 70.3159 84.9573 70.2809 84.9573C70.2461 84.9573 70.2176 85.0726 70.2176 85.2137C70.2176 85.3547 70.1774 85.4701 70.1282 85.4701C70.0793 85.4701 69.9855 85.5799 69.9199 85.7141C69.8545 85.8487 69.801 86.041 69.801 86.1414C69.801 86.2423 69.7608 86.3248 69.7116 86.3248C69.6627 86.3248 69.5689 86.4346 69.5033 86.5688C69.4379 86.7034 69.3844 86.8957 69.3844 86.9961C69.3844 87.097 69.3375 87.1799 69.2803 87.1808C69.1526 87.1825 68.9678 87.9603 68.9678 88.4957C68.9678 88.7312 68.9176 88.8889 68.8428 88.8889C68.7556 88.8889 68.7179 89.0692 68.7179 89.4872C68.7179 89.8162 68.6804 90.0855 68.6345 90.0855C68.5825 90.0855 68.5512 91.1111 68.5512 92.8205C68.5512 94.5299 68.5825 95.5556 68.6345 95.5556C68.6804 95.5556 68.7179 95.9427 68.7179 96.4158C68.7179 97.0222 68.7547 97.3047 68.8428 97.3739C68.9393 97.45 68.9678 97.7791 68.9678 98.8115C68.9678 99.5483 69.0053 100.198 69.0511 100.256C69.097 100.315 69.1344 100.706 69.1344 101.126C69.1344 101.648 69.174 101.922 69.2594 101.989C69.3409 102.053 69.3844 102.32 69.3844 102.753V103.419H67.9203C66.7301 103.419 66.4331 103.371 66.3315 103.162C66.2542 103.004 66.0496 102.906 65.7957 102.906C65.4133 102.906 65.3852 102.876 65.3852 102.479C65.3852 102.213 65.4325 102.051 65.5102 102.051C65.5879 102.051 65.6351 101.89 65.6351 101.624C65.6351 101.389 65.6726 101.197 65.7185 101.197C65.7643 101.197 65.8018 100.935 65.8018 100.617C65.8018 100.259 65.8497 99.9987 65.9267 99.938C66.0124 99.8709 66.0517 99.5961 66.0517 99.0654C66.0517 98.6393 66.0892 98.2906 66.135 98.2906C66.1875 98.2906 66.2184 97.1227 66.2184 95.1282C66.2184 93.1338 66.1875 91.9658 66.135 91.9658C66.0888 91.9658 66.0517 91.5081 66.0517 90.9346C66.0517 90.1761 66.0188 89.8778 65.9267 89.8056C65.8453 89.7414 65.8018 89.4752 65.8018 89.0415C65.8018 88.6756 65.7643 88.3761 65.7185 88.3761C65.6726 88.3761 65.6351 88.1068 65.6351 87.7778C65.6351 87.3598 65.5974 87.1795 65.5102 87.1795C65.4179 87.1795 65.3852 86.9812 65.3852 86.4205C65.3852 86.003 65.3477 85.6137 65.3019 85.5555C65.256 85.4974 65.2186 85.2983 65.2186 85.1128C65.2186 84.9274 65.1623 84.7312 65.0936 84.6773C65.0248 84.6231 64.9686 84.3949 64.9686 84.1697C64.9686 83.9449 64.9311 83.7607 64.8853 83.7607C64.8395 83.7607 64.802 83.6043 64.802 83.4133C64.802 83.2227 64.7457 83.0218 64.677 82.9679C64.6083 82.9137 64.552 82.7355 64.552 82.5722C64.552 82.1769 64.3102 81.1966 64.2127 81.1966C64.1702 81.1966 64.1354 81.0538 64.1354 80.8795C64.1354 80.7056 64.0417 80.3551 63.9271 80.1017C63.8126 79.8479 63.7188 79.5256 63.7188 79.3859C63.7188 79.147 63.6647 78.9731 63.4064 78.3825C63.3491 78.2513 63.3023 78.0897 63.3023 78.0231C63.3023 77.9568 63.2085 77.7244 63.094 77.5064C62.9794 77.2885 62.8844 77.0107 62.883 76.8885C62.8794 76.5825 62.6795 76.0684 62.5641 76.0684C62.5118 76.0684 62.4691 75.9859 62.4691 75.885C62.4691 75.6487 62.2571 75.2137 62.1419 75.2137C62.0927 75.2137 62.0525 75.0607 62.0525 74.8739C62.0525 74.4782 60.115 70.4273 59.9256 70.4273C59.8582 70.4273 59.803 70.3504 59.803 70.2564C59.803 70.1624 59.7467 70.0855 59.678 70.0855C59.6092 70.0855 59.553 70.003 59.553 69.9021C59.553 69.6658 59.341 69.2308 59.2258 69.2308C59.1766 69.2308 59.1364 69.159 59.1364 69.0714C59.1364 68.9838 59.0537 68.8581 58.9529 68.7923C58.7384 68.6526 58.5532 68.3073 58.5532 68.0466C58.5532 67.9457 58.497 67.8632 58.4282 67.8632C58.3595 67.8632 58.3033 67.7863 58.3033 67.6923C58.3033 67.5983 58.227 67.5214 58.1339 67.5214C58.041 67.5214 57.9431 67.406 57.9169 67.265C57.8904 67.1239 57.7879 67.0085 57.6892 67.0085C57.5905 67.0085 57.4393 66.8162 57.3532 66.5812C57.2672 66.3461 57.127 66.1538 57.0418 66.1538C56.9566 66.1538 56.8869 66.0769 56.8869 65.9829C56.8869 65.8889 56.8467 65.812 56.7975 65.812C56.7486 65.812 56.6521 65.6966 56.5834 65.5556C56.5147 65.4145 56.3674 65.2991 56.256 65.2991C56.1447 65.2991 56.0537 65.2222 56.0537 65.1282C56.0537 65.0342 55.9639 64.9573 55.8544 64.9573C55.7446 64.9573 55.6334 64.8419 55.6069 64.7009C55.5807 64.5598 55.4851 64.4444 55.3947 64.4444C55.3043 64.4444 55.2072 64.3675 55.1789 64.2735C55.1505 64.1795 55.0404 64.1026 54.9341 64.1026C54.8279 64.1026 54.6944 63.9872 54.6373 63.8462C54.5711 63.6825 54.3867 63.5897 54.1272 63.5897C53.9037 63.5897 53.7208 63.5128 53.7208 63.4188C53.7208 63.3248 53.5509 63.2479 53.3432 63.2479C53.0845 63.2479 52.9506 63.1671 52.9179 62.9915C52.8812 62.7957 52.725 62.735 52.2588 62.735C51.9226 62.735 51.6246 62.6581 51.5963 62.5641C51.5665 62.465 51.1109 62.3932 50.5131 62.3932C49.9153 62.3932 49.4598 62.465 49.43 62.5641C49.4017 62.6581 49.1022 62.735 48.7645 62.735C48.3298 62.735 48.114 62.8098 48.0255 62.9915C47.9509 63.1444 47.7472 63.2479 47.5198 63.2479C47.3102 63.2479 47.1388 63.3248 47.1388 63.4188C47.1388 63.5128 46.9915 63.5897 46.8116 63.5897C46.6314 63.5897 46.4279 63.7051 46.3592 63.8462C46.2904 63.9872 46.1377 64.1026 46.0201 64.1026C45.9022 64.1026 45.8057 64.1795 45.8057 64.2735C45.8057 64.3675 45.7166 64.4444 45.6076 64.4444C45.4987 64.4444 45.3629 64.5598 45.3058 64.7009C45.2488 64.8419 45.1504 64.9573 45.0873 64.9573C45.0242 64.9573 44.9726 65.0342 44.9726 65.1282C44.9726 65.2222 44.8588 65.2991 44.7199 65.2991C44.5724 65.2991 44.4475 65.4056 44.4195 65.5556C44.3931 65.6966 44.3194 65.812 44.2554 65.812C44.1917 65.812 44.1394 65.8889 44.1394 65.9829C44.1394 66.0769 44.0632 66.1538 43.9701 66.1538C43.8772 66.1538 43.7793 66.2692 43.753 66.4103C43.7266 66.5513 43.6341 66.6667 43.5472 66.6667C43.4606 66.6667 43.3895 66.7436 43.3895 66.8376C43.3895 66.9316 43.3333 67.0085 43.2646 67.0085C43.1958 67.0085 43.1396 67.1239 43.1396 67.265C43.1396 67.406 43.0677 67.5214 42.98 67.5214C42.8923 67.5214 42.6855 67.7906 42.5203 68.1197C42.3552 68.4487 42.1833 68.7179 42.1383 68.7179C42.0933 68.7179 42.0565 68.8333 42.0565 68.9744C42.0565 69.1154 42.0038 69.2308 41.9394 69.2308C41.8748 69.2308 41.6276 69.6154 41.3899 70.0855C41.1523 70.5556 40.9238 70.9402 40.8821 70.9402C40.8407 70.9402 40.8067 71.0205 40.8067 71.1184C40.8067 71.2167 40.713 71.5043 40.5984 71.7577C40.4839 72.0115 40.3901 72.3158 40.3901 72.4342C40.3901 72.5526 40.337 72.6496 40.272 72.6496C40.2073 72.6496 40.0771 72.8611 39.9831 73.1197L39.8121 73.5897L39.8096 73.1197C39.808 72.8184 39.7621 72.6496 39.6819 72.6496C39.6132 72.6496 39.557 72.5671 39.557 72.4662C39.557 72.2299 39.3449 71.7949 39.2297 71.7949C39.1806 71.7949 39.1404 71.7124 39.1404 71.6115C39.1404 71.3752 38.9283 70.9402 38.8132 70.9402C38.764 70.9402 38.7238 70.8577 38.7238 70.7568C38.7238 70.5205 38.5118 70.0855 38.3966 70.0855C38.3474 70.0855 38.3072 70.003 38.3072 69.9021C38.3072 69.6658 38.0952 69.2308 37.98 69.2308C37.9308 69.2308 37.8906 69.159 37.8906 69.0714C37.8906 68.9838 37.8079 68.8581 37.7071 68.7923C37.4926 68.6526 37.3074 68.3073 37.3074 68.0466C37.3074 67.9457 37.2601 67.8632 37.2022 67.8632C37.1443 67.8632 37.0266 67.6709 36.9406 67.4359C36.8546 67.2009 36.7273 67.0085 36.658 67.0085C36.5884 67.0085 36.4088 66.8162 36.2585 66.5812C36.1083 66.3461 35.9454 66.1538 35.8966 66.1538C35.8477 66.1538 35.8077 66.0769 35.8077 65.9829C35.8077 65.8889 35.714 65.812 35.5994 65.812C35.4699 65.812 35.3911 65.715 35.3911 65.5556C35.3911 65.3962 35.3124 65.2991 35.1828 65.2991C35.0683 65.2991 34.9745 65.2222 34.9745 65.1282C34.9745 65.0342 34.8848 64.9573 34.7752 64.9573C34.6654 64.9573 34.5542 64.8419 34.5278 64.7009C34.5015 64.5598 34.4059 64.4444 34.3155 64.4444C34.2251 64.4444 34.128 64.3675 34.0997 64.2735C34.0714 64.1795 33.9612 64.1026 33.855 64.1026C33.7487 64.1026 33.6152 63.9872 33.5582 63.8462C33.4948 63.6897 33.3124 63.5897 33.0897 63.5897C32.8891 63.5897 32.725 63.5128 32.725 63.4188C32.725 63.3248 32.5415 63.2479 32.3174 63.2479C32.0318 63.2479 31.8954 63.1709 31.8616 62.9915C31.8243 62.7915 31.6579 62.735 31.103 62.735C30.6846 62.735 30.3921 62.6645 30.3921 62.5641C30.3921 62.4598 30.0049 62.3932 29.3973 62.3932C28.8239 62.3932 28.3804 62.4654 28.3509 62.5641C28.3225 62.6581 28.0005 62.735 27.6352 62.735C27.1215 62.735 26.9601 62.7932 26.923 62.9915C26.8893 63.1709 26.7528 63.2479 26.4673 63.2479C26.2431 63.2479 26.0596 63.3248 26.0596 63.4188C26.0596 63.5128 25.8897 63.5897 25.682 63.5897C25.4233 63.5897 25.2894 63.6705 25.2567 63.8462C25.2302 63.9872 25.1211 64.1026 25.0142 64.1026C24.9072 64.1026 24.7966 64.1795 24.7682 64.2735C24.7399 64.3675 24.6274 64.4444 24.5183 64.4444C24.4091 64.4444 24.2981 64.5167 24.2717 64.6047C24.2008 64.8397 23.7249 65.2991 23.5522 65.2991C23.4704 65.2991 23.3816 65.3714 23.355 65.4598C23.3283 65.5487 23.1385 65.7927 22.9334 66.003C22.7282 66.2132 22.5603 66.4487 22.5603 66.5261C22.5603 66.6034 22.5041 66.6667 22.4354 66.6667C22.3666 66.6667 22.3104 66.7436 22.3104 66.8376C22.3104 66.9316 22.2341 67.0085 22.141 67.0085C22.0481 67.0085 21.9502 67.1239 21.924 67.265C21.8975 67.406 21.8238 67.5214 21.7599 67.5214C21.6961 67.5214 21.6438 67.5983 21.6438 67.6923C21.6438 67.7863 21.5741 67.8632 21.4889 67.8632C21.4037 67.8632 21.2635 68.0556 21.1775 68.2906C21.0915 68.5256 20.9738 68.7179 20.9159 68.7179C20.858 68.7179 20.8107 68.8333 20.8107 68.9744C20.8107 69.1154 20.7384 69.2308 20.6501 69.2308C20.5618 69.2308 20.4158 69.4231 20.3256 69.6581C20.2356 69.8932 20.1364 70.0855 20.1054 70.0855C20.0165 70.0855 19.8109 70.5543 19.8109 70.7568C19.8109 70.8577 19.7636 70.9402 19.7057 70.9402C19.6478 70.9402 19.5301 71.1325 19.4441 71.3675C19.358 71.6026 19.2356 71.7949 19.1716 71.7949C19.1079 71.7949 19.0308 71.9295 19.0002 72.094C18.9696 72.2586 18.7646 72.7534 18.5447 73.194C18.3245 73.6346 18.1445 74.068 18.1445 74.1568C18.1445 74.2462 18.0668 74.3607 17.9717 74.412C17.8767 74.4628 17.7786 74.6641 17.7538 74.859C17.7288 75.0543 17.6703 75.2137 17.6232 75.2137C17.5034 75.2137 17.3172 75.7543 17.3141 76.1111C17.3126 76.2756 17.2614 76.4103 17.2006 76.4103C17.1395 76.4103 17.0364 76.6218 16.9714 76.8803C16.851 77.3585 16.7686 77.6017 16.5823 78.0278C16.5251 78.159 16.4782 78.3487 16.4782 78.4492C16.4782 78.55 16.4424 78.6325 16.3988 78.6325C16.3551 78.6325 16.2532 78.9209 16.1724 79.2735C16.0293 79.8974 15.9646 80.0991 15.7492 80.5919C15.6919 80.7231 15.645 80.9897 15.645 81.1842C15.645 81.3791 15.5982 81.5389 15.5409 81.5397C15.4153 81.5415 15.2284 82.3162 15.2284 82.8363C15.2284 83.0427 15.1722 83.2556 15.1035 83.3098C15.0347 83.3637 14.9785 83.5645 14.9785 83.7551C14.9785 83.9462 14.941 84.1026 14.8952 84.1026C14.8494 84.1026 14.8119 84.2867 14.8119 84.5115C14.8119 84.7367 14.7556 84.965 14.6869 85.0192C14.6182 85.0731 14.5619 85.3077 14.5619 85.5402C14.5619 85.7727 14.5244 86.0103 14.4786 86.0684C14.4328 86.1265 14.3953 86.3919 14.3953 86.6586C14.3953 86.9312 14.3407 87.1859 14.2703 87.2414C14.1849 87.3085 14.1453 87.5825 14.1453 88.1043C14.1453 88.5248 14.1078 88.9162 14.062 88.9744C14.0162 89.0325 13.9787 89.3885 13.9787 89.7658C13.9787 90.1474 13.9233 90.5654 13.8537 90.7081C13.7652 90.8897 13.7287 91.3325 13.7287 92.2244C13.7287 92.9171 13.6913 93.5316 13.6454 93.5897C13.5994 93.6483 13.5621 94.4175 13.5621 95.3094C13.5621 96.2714 13.5959 96.9231 13.6454 96.9231C13.6931 96.9231 13.7287 97.4376 13.7287 98.1252C13.7287 99.0359 13.7589 99.3509 13.8537 99.4252C13.9302 99.4855 13.9787 99.7449 13.9787 100.094C13.9787 100.407 14.0162 100.711 14.062 100.769C14.1078 100.827 14.1453 101.097 14.1453 101.369C14.1453 101.641 14.1955 101.925 14.257 102C14.5848 102.401 14.4742 102.906 14.0583 102.906C13.7908 102.906 13.6306 102.99 13.5859 103.155C13.5311 103.356 13.2182 103.413 11.957 103.454C10.3809 103.505 10.2082 103.439 10.521 102.906C10.6098 102.755 10.646 102.355 10.646 101.528C10.646 100.887 10.6835 100.315 10.7293 100.256C10.7752 100.198 10.8127 99.7406 10.8127 99.2389C10.8127 98.5863 10.8481 98.2991 10.9376 98.2286C11.0257 98.1594 11.0626 97.8769 11.0626 97.2705C11.0626 96.7974 11.1001 96.4103 11.1459 96.4103C11.1917 96.4103 11.2292 95.9816 11.2292 95.4577C11.2292 94.8393 11.273 94.4158 11.3542 94.2491C11.5292 93.8902 11.5292 91.5799 11.3542 91.2209C11.2796 91.0679 11.2292 90.65 11.2292 90.1833C11.2292 89.7534 11.1917 89.4017 11.1459 89.4017C11.1001 89.4017 11.0626 89.2068 11.0626 88.9688C11.0626 88.7312 11.0064 88.4919 10.9376 88.438C10.8689 88.3838 10.8127 88.2021 10.8127 88.0338C10.8127 87.8658 10.7195 87.547 10.6058 87.3256C10.4921 87.1043 10.3984 86.8329 10.3975 86.7227C10.3961 86.509 9.9222 85.4701 9.82639 85.4701C9.79515 85.4701 9.6685 85.2778 9.54478 85.0427C9.42126 84.8077 9.28108 84.6154 9.23317 84.6154C9.18548 84.6154 9.14632 84.5278 9.14632 84.4205C9.14632 84.1577 8.88907 83.7727 8.7089 83.7662C8.62871 83.7632 8.5631 83.6453 8.5631 83.5043C8.5631 83.3632 8.52623 83.2479 8.48124 83.2479C8.43625 83.2479 8.26441 82.9786 8.09923 82.6496C7.93406 82.3205 7.76055 82.0513 7.71368 82.0513C7.62995 82.0513 7.3448 81.5718 7.07839 80.9829C7.00403 80.8184 6.90093 80.6838 6.84927 80.6838C6.79782 80.6838 6.62056 80.4145 6.45539 80.0855C6.29021 79.7564 6.10233 79.4872 6.03776 79.4872C5.97319 79.4872 5.84988 79.2949 5.76386 79.0598C5.67783 78.8248 5.56015 78.6325 5.50224 78.6325C5.44434 78.6325 5.39706 78.5171 5.39706 78.3761C5.39706 78.235 5.43726 78.1197 5.48641 78.1197C5.53536 78.1197 5.62909 78.0098 5.69471 77.8756C5.76011 77.741 5.81364 77.5487 5.81364 77.4483C5.81364 77.3474 5.85384 77.265 5.903 77.265C6.01818 77.265 6.23023 76.8299 6.23023 76.5936C6.23023 76.4927 6.30688 76.4103 6.4004 76.4103C6.50246 76.4103 6.85573 75.8291 7.28356 74.9573C7.67577 74.1581 8.03029 73.5043 8.07153 73.5043C8.11277 73.5043 8.14651 73.4218 8.14651 73.3209C8.14651 73.0846 8.35856 72.6496 8.47374 72.6496C8.5229 72.6496 8.5631 72.5808 8.5631 72.4966C8.5631 72.4124 8.6562 72.1624 8.76993 71.941C8.88366 71.7197 8.97739 71.4039 8.97822 71.2393C8.97906 71.0748 9.01717 70.9402 9.063 70.9402C9.10882 70.9402 9.14632 70.8342 9.14632 70.7047C9.14632 70.5752 9.20255 70.3735 9.27129 70.2564C9.34003 70.1393 9.39627 69.8607 9.39627 69.6372C9.39627 69.4137 9.43376 69.2308 9.47958 69.2308C9.52541 69.2308 9.5629 68.8543 9.5629 68.3944C9.5629 67.8085 9.60039 67.5286 9.68788 67.4594C9.86305 67.3218 9.86513 64.8226 9.69058 64.3487C9.6233 64.1662 9.56707 63.7286 9.56561 63.3761C9.56415 63.0235 9.52541 62.735 9.47958 62.735C9.43376 62.735 9.39627 62.5427 9.39627 62.3077C9.39627 62.0419 9.34898 61.8803 9.27129 61.8803C9.1936 61.8803 9.14632 61.7188 9.14632 61.453C9.14632 61.2179 9.10882 61.0256 9.063 61.0256C9.01717 61.0256 8.97968 60.8773 8.97968 60.6962C8.97968 60.515 8.88595 60.2154 8.77139 60.0303C8.65683 59.8457 8.5631 59.6094 8.5631 59.5051C8.5631 59.4013 8.5229 59.3162 8.47374 59.3162C8.34668 59.3162 8.17838 58.9363 8.11027 58.4962C8.07674 58.2791 7.98384 58.1197 7.89094 58.1197C7.80242 58.1197 7.72993 58.0043 7.72993 57.8632C7.72993 57.7222 7.68973 57.6068 7.64057 57.6068C7.52539 57.6068 7.31334 57.1718 7.31334 56.9355C7.31334 56.8346 7.27315 56.7521 7.22399 56.7521C7.1088 56.7521 6.89676 56.3171 6.89676 56.0808C6.89676 55.9799 6.85656 55.8974 6.8074 55.8974C6.69222 55.8974 6.48018 55.4624 6.48018 55.2261C6.48018 55.1252 6.42394 55.0427 6.3552 55.0427C6.28646 55.0427 6.23023 54.9658 6.23023 54.8718C6.23023 54.7778 6.32396 54.7009 6.43852 54.7009C6.56808 54.7009 6.64681 54.6038 6.64681 54.4444C6.64681 54.285 6.72555 54.188 6.8551 54.188C6.96966 54.188 7.06339 54.1111 7.06339 54.0171C7.06339 53.9231 7.15442 53.8462 7.26565 53.8462C7.37708 53.8462 7.52435 53.7308 7.59308 53.5897C7.66182 53.4487 7.79575 53.3333 7.89052 53.3333C7.9855 53.3333 8.0632 53.2564 8.0632 53.1624C8.0632 53.0684 8.17109 52.9915 8.30294 52.9915C8.43479 52.9915 8.58934 52.8761 8.64641 52.735C8.70349 52.594 8.81826 52.4786 8.90157 52.4786C8.98489 52.4786 9.07633 52.4017 9.10466 52.3077C9.13299 52.2137 9.23005 52.1368 9.32045 52.1368C9.41085 52.1368 9.50645 52.0214 9.5327 51.8803C9.55915 51.7393 9.67038 51.6239 9.78015 51.6239C9.88971 51.6239 9.97948 51.547 9.97948 51.453C9.97948 51.359 10.0732 51.2821 10.1878 51.2821C10.3173 51.2821 10.3961 51.185 10.3961 51.0256C10.3961 50.8474 10.4836 50.7692 10.6827 50.7692C10.8404 50.7692 10.9926 50.6923 11.0209 50.5983C11.0493 50.5043 11.1463 50.4274 11.2367 50.4274C11.3271 50.4274 11.4227 50.312 11.449 50.1709C11.4754 50.0299 11.5867 49.9145 11.6964 49.9145C11.806 49.9145 11.8958 49.8376 11.8958 49.7436C11.8958 49.6496 11.9656 49.5727 12.0507 49.5727C12.1359 49.5727 12.2761 49.3803 12.3621 49.1453C12.4482 48.9103 12.5619 48.718 12.6148 48.718C12.6677 48.718 12.7327 48.6026 12.7591 48.4615C12.7854 48.3205 12.8618 48.2051 12.9289 48.2051C12.9962 48.2051 13.072 48.0705 13.0976 47.906C13.1234 47.7415 13.2759 47.3043 13.4365 46.9346C13.5973 46.565 13.7287 46.1227 13.7287 45.9517C13.7287 45.7808 13.785 45.641 13.8537 45.641C13.9314 45.641 13.9787 45.4795 13.9787 45.2137C13.9787 44.9786 14.0162 44.7863 14.062 44.7863C14.1155 44.7863 14.1453 43.1338 14.1453 40.1709C14.1453 37.4197 14.1139 35.5556 14.0674 35.5556C14.0245 35.5556 13.9777 34.7479 13.9633 33.7603L13.937 31.965L14.8641 31.9654C15.5865 31.9658 15.8142 32.0227 15.895 32.2222C15.976 32.4227 16.2058 32.4786 16.9466 32.4786C17.523 32.4786 17.8946 32.5457 17.8946 32.6496C17.8946 32.7547 18.3095 32.8205 18.9727 32.8205C19.6017 32.8205 20.0725 32.7491 20.1025 32.6496C20.1308 32.5556 20.2841 32.4786 20.4432 32.4786C20.6236 32.4786 20.7507 32.3821 20.7805 32.2222C20.8069 32.0812 20.9182 31.9658 21.0279 31.9658C21.1375 31.9658 21.2273 31.8889 21.2273 31.7949C21.2273 31.7009 21.3035 31.6239 21.3966 31.6239C21.4895 31.6239 21.5874 31.5085 21.6136 31.3675C21.6401 31.2265 21.7259 31.1111 21.8044 31.1111C22.0781 31.1111 23.1435 28.6726 23.1435 28.0462C23.1435 27.8517 23.181 27.6923 23.2269 27.6923C23.2727 27.6923 23.3102 27.6098 23.3102 27.509C23.3102 27.4085 23.3664 27.2107 23.4352 27.0697C23.5039 26.9286 23.5601 26.6308 23.5601 26.4081C23.5601 26.1855 23.5976 25.9556 23.6434 25.8974C23.6893 25.8393 23.7268 25.5748 23.7268 25.3098C23.7268 25.0449 23.783 24.7325 23.8517 24.6154C23.928 24.4855 23.9767 24.1111 23.9767 23.6543C23.9767 23.2427 24.0142 22.906 24.06 22.906C24.1059 22.906 24.1433 22.6697 24.1433 22.3808C24.1433 22.0923 24.1996 21.7406 24.2683 21.5996C24.3371 21.4585 24.3933 21.1222 24.3933 20.8526C24.3933 20.5829 24.4308 20.3145 24.4766 20.2564C24.5224 20.1983 24.5599 19.9577 24.5599 19.7214C24.5599 19.485 24.6162 19.1765 24.6849 19.0355C24.7622 18.8769 24.8099 18.4573 24.8099 17.9363C24.8099 17.4731 24.8474 17.094 24.8932 17.094C24.939 17.094 24.9765 16.8632 24.9765 16.5812C24.9765 16.012 25.1023 15.9252 25.3564 16.3192C25.4454 16.4573 25.5797 16.5727 25.6549 16.5756C25.7303 16.5786 25.8134 16.6966 25.8399 16.8376C25.8661 16.9786 25.964 17.094 26.0569 17.094C26.15 17.094 26.2263 17.1709 26.2263 17.265C26.2263 17.359 26.2825 17.4359 26.3512 17.4359C26.42 17.4359 26.4762 17.5073 26.4762 17.5944C26.4762 17.7991 26.9559 18.2906 27.1555 18.2906C27.2402 18.2906 27.3094 18.3782 27.3094 18.4855C27.3094 18.7158 27.5585 19.1321 27.7008 19.1397C27.7558 19.1427 27.9018 19.3376 28.0255 19.5727C28.149 19.8077 28.3156 20 28.3958 20C28.4758 20 28.5629 20.1154 28.5893 20.2564C28.6156 20.3974 28.7045 20.5128 28.7868 20.5128C28.8689 20.5128 29.0066 20.7051 29.0926 20.9402C29.1786 21.1752 29.3188 21.3675 29.404 21.3675C29.4892 21.3675 29.5589 21.4444 29.5589 21.5385C29.5589 21.6325 29.6321 21.7094 29.7212 21.7094C29.8106 21.7094 29.9847 21.9017 30.1084 22.1368C30.2319 22.3718 30.3986 22.5641 30.4788 22.5641C30.5587 22.5641 30.6458 22.6795 30.6723 22.8205C30.6985 22.9615 30.7964 23.0769 30.8893 23.0769C30.9824 23.0769 31.0586 23.1538 31.0586 23.2479C31.0586 23.3419 31.1853 23.4188 31.3401 23.4188C31.4948 23.4188 31.6681 23.5342 31.7252 23.6752C31.8735 24.0419 33.7856 24.0466 34.0214 23.6808C34.1103 23.5427 34.2674 23.4274 34.3705 23.4244C34.4736 23.4214 34.558 23.3419 34.558 23.2479C34.558 23.1538 34.649 23.0769 34.7602 23.0769C34.8716 23.0769 35.0189 22.9615 35.0876 22.8205C35.1564 22.6795 35.2528 22.5641 35.3018 22.5641C35.3509 22.5641 35.3911 22.4872 35.3911 22.3932C35.3911 22.2991 35.4474 22.2222 35.5161 22.2222C35.5848 22.2222 35.6411 22.1068 35.6411 21.9658C35.6411 21.8205 35.7159 21.7094 35.8137 21.7094C35.9708 21.7094 36.2243 21.3517 36.2243 21.1303C36.2243 21.0803 36.3743 20.7256 36.5576 20.3419C36.7409 19.9581 36.8908 19.5825 36.8908 19.5064C36.8908 19.4308 37.0221 19.0915 37.1824 18.7526C37.3428 18.4137 37.474 18.0282 37.474 17.8957C37.474 17.7632 37.5678 17.5103 37.6823 17.3338C37.7969 17.1573 37.8906 16.9158 37.8906 16.797C37.8906 16.6782 37.9398 16.5812 38 16.5812C38.0602 16.5812 38.161 16.312 38.2239 15.9829C38.2868 15.6538 38.3876 15.3846 38.4478 15.3846C38.508 15.3846 38.5572 15.2876 38.5572 15.1688C38.5572 15.05 38.6509 14.8085 38.7655 14.6321C38.88 14.4556 38.9737 14.168 38.9737 13.9932C38.9737 13.8184 39.0112 13.6752 39.0571 13.6752C39.1029 13.6752 39.1404 13.5598 39.1404 13.4188C39.1404 13.2778 39.1806 13.1624 39.2297 13.1624C39.3408 13.1624 39.557 12.7308 39.557 12.509C39.557 12.4184 39.6132 12.3 39.6819 12.2457C39.7507 12.1919 39.8069 11.991 39.8069 11.8004C39.8069 11.6094 39.8444 11.453 39.8902 11.453C39.9361 11.453 39.9735 11.5684 39.9735 11.7094ZM31.0586 70.2564C31.0586 70.3504 31.1926 70.4273 31.3563 70.4273C31.5198 70.4273 31.71 70.5427 31.7787 70.6838C31.8475 70.8248 32.0301 70.9402 32.1845 70.9402C32.3388 70.9402 32.4884 71.0171 32.5167 71.1111C32.545 71.2051 32.6369 71.282 32.721 71.282C32.805 71.282 32.8954 71.3974 32.9218 71.5385C32.9481 71.6795 33.0437 71.7949 33.1341 71.7949C33.2245 71.7949 33.3215 71.8718 33.3499 71.9658C33.3782 72.0598 33.47 72.1367 33.5542 72.1367C33.6381 72.1367 33.7285 72.2521 33.755 72.3932C33.7812 72.5342 33.8791 72.6496 33.972 72.6496C34.0651 72.6496 34.1414 72.7265 34.1414 72.8205C34.1414 72.9145 34.2351 72.9914 34.3497 72.9914C34.4792 72.9914 34.558 73.0885 34.558 73.2479C34.558 73.3889 34.5915 73.5043 34.6325 73.5043C34.6736 73.5043 34.7954 73.6953 34.9033 73.9286C35.0112 74.162 35.1514 74.3543 35.2147 74.356C35.278 74.3577 35.4536 74.6282 35.6048 74.9573C35.7561 75.2863 35.9198 75.5556 35.9687 75.5556C36.0177 75.5556 36.0577 75.638 36.0577 75.7389C36.0577 75.9752 36.2697 76.4103 36.3849 76.4103C36.434 76.4103 36.4742 76.5086 36.4742 76.6291C36.4742 76.7492 36.553 76.9607 36.649 77.0991C36.745 77.2372 36.8567 77.5235 36.8969 77.735C36.9394 77.9577 37.041 78.1197 37.1387 78.1197C37.263 78.1197 37.3074 78.232 37.3074 78.547C37.3074 78.782 37.3449 78.9744 37.3907 78.9744C37.4366 78.9744 37.474 79.0504 37.474 79.1432C37.474 79.4342 37.9273 80.6705 38.0364 80.6774C38.0937 80.6808 38.1406 80.8769 38.1406 81.1132C38.1406 81.5885 38.2918 82.2329 38.453 82.4445C38.5103 82.5197 38.5572 82.7265 38.5572 82.9043C38.5572 83.0821 38.5947 83.2752 38.6405 83.3333C38.6863 83.3915 38.7238 83.5885 38.7238 83.7709C38.7238 83.9534 38.78 84.1026 38.8488 84.1026C38.936 84.1026 38.9737 84.2829 38.9737 84.7008C38.9737 85.0299 39.0112 85.2991 39.0571 85.2991C39.1029 85.2991 39.1404 85.4064 39.1404 85.5372C39.1404 85.6684 39.1966 85.8197 39.2654 85.8739C39.3341 85.9278 39.3903 86.1239 39.3903 86.3094C39.3903 86.4949 39.4278 86.694 39.4736 86.7521C39.5195 86.8103 39.557 87.0073 39.557 87.1897C39.557 87.456 39.6155 87.5214 39.8546 87.5214C40.1854 87.5214 40.3901 87.2064 40.3901 86.697C40.3901 86.5124 40.4464 86.3171 40.5151 86.2628C40.5838 86.209 40.6401 86.0081 40.6401 85.8175C40.6401 85.6265 40.6776 85.4701 40.7234 85.4701C40.7692 85.4701 40.8067 85.2859 40.8067 85.0611C40.8067 84.8359 40.863 84.6077 40.9317 84.5534C41.0004 84.4996 41.0567 84.2987 41.0567 84.1081C41.0567 83.9171 41.0942 83.7607 41.14 83.7607C41.1858 83.7607 41.2233 83.6162 41.2233 83.4397C41.2233 83.2632 41.2795 83.0231 41.3483 82.906C41.417 82.7889 41.4733 82.5487 41.4733 82.3722C41.4733 82.1957 41.5107 82.0513 41.5566 82.0513C41.6024 82.0513 41.6399 81.9013 41.6399 81.7184C41.6399 81.535 41.7336 81.1778 41.8482 80.9239C41.9627 80.6705 42.0565 80.3201 42.0565 80.1462C42.0565 79.9718 42.0992 79.8291 42.1515 79.8291C42.2654 79.8291 42.4666 79.3162 42.4703 79.0162C42.4718 78.8983 42.6605 78.4252 42.8896 77.965C43.1277 77.4867 43.3062 76.9744 43.3062 76.7692C43.3062 76.5295 43.3593 76.4103 43.4656 76.4103C43.5533 76.4103 43.8534 75.9487 44.1327 75.3846C44.4118 74.8205 44.6776 74.359 44.7232 74.359C44.7686 74.359 44.8059 74.2855 44.8059 74.1961C44.8059 74.1064 44.9372 73.9056 45.0975 73.7491C45.2579 73.5932 45.3891 73.3585 45.3891 73.2282C45.3891 73.0979 45.4454 72.9914 45.5141 72.9914C45.5829 72.9914 45.6391 72.9145 45.6391 72.8205C45.6391 72.7265 45.7282 72.6496 45.8372 72.6496C45.9461 72.6496 46.0819 72.5342 46.139 72.3932C46.1961 72.2521 46.2944 72.1367 46.3575 72.1367C46.4206 72.1367 46.4723 72.0598 46.4723 71.9658C46.4723 71.8718 46.5485 71.7949 46.6416 71.7949C46.7345 71.7949 46.8324 71.6795 46.8586 71.5385C46.8851 71.3974 46.9963 71.282 47.1061 71.282C47.2157 71.282 47.3054 71.2051 47.3054 71.1111C47.3054 71.0171 47.4754 70.9402 47.6831 70.9402C47.9418 70.9402 48.0757 70.8594 48.1084 70.6838C48.1411 70.5098 48.274 70.4273 48.5225 70.4273C48.7237 70.4273 48.8885 70.3504 48.8885 70.2564C48.8885 70.1483 49.4856 70.0855 50.5131 70.0855C51.5406 70.0855 52.1378 70.1483 52.1378 70.2564C52.1378 70.3504 52.3026 70.4273 52.5038 70.4273C52.7523 70.4273 52.8852 70.5098 52.9179 70.6838C52.9506 70.8594 53.0845 70.9402 53.3432 70.9402C53.5509 70.9402 53.7208 71.0171 53.7208 71.1111C53.7208 71.2051 53.7971 71.282 53.8902 71.282C53.9831 71.282 54.081 71.3974 54.1072 71.5385C54.1337 71.6795 54.2449 71.7949 54.3547 71.7949C54.4642 71.7949 54.554 71.8718 54.554 71.9658C54.554 72.0598 54.5942 72.1367 54.6434 72.1367C54.6923 72.1367 54.7887 72.2521 54.8575 72.3932C54.9262 72.5342 55.0735 72.6496 55.1849 72.6496C55.2961 72.6496 55.3872 72.7265 55.3872 72.8205C55.3872 72.9145 55.4434 72.9914 55.5121 72.9914C55.5809 72.9914 55.6371 73.1068 55.6371 73.2479C55.6371 73.3889 55.6934 73.5043 55.7621 73.5043C55.8308 73.5043 55.8871 73.5812 55.8871 73.6752C55.8871 73.7692 55.9581 73.8461 56.0447 73.8461C56.1316 73.8461 56.2241 73.9615 56.2505 74.1026C56.2768 74.2436 56.3607 74.359 56.437 74.359C56.5132 74.359 56.6994 74.6282 56.8506 74.9573C57.0018 75.2863 57.1656 75.5556 57.2145 75.5556C57.2635 75.5556 57.3035 75.638 57.3035 75.7389C57.3035 75.9556 57.5117 76.4103 57.6109 76.4103C57.6492 76.4103 57.7509 76.6026 57.8369 76.8376C57.9229 77.0726 58.0454 77.265 58.1093 77.265C58.1731 77.265 58.2499 77.3996 58.2799 77.5641C58.3101 77.7286 58.5153 78.2372 58.7357 78.6936C58.956 79.1504 59.1364 79.5927 59.1364 79.6765C59.1364 79.7607 59.1927 79.8291 59.2614 79.8291C59.3301 79.8291 59.3864 79.9261 59.3864 80.0449C59.3864 80.1637 59.4801 80.4051 59.5947 80.5816C59.7092 80.7581 59.803 81.0175 59.803 81.1581C59.803 81.2987 59.8967 81.5919 60.0113 81.8098C60.1258 82.0278 60.2195 82.297 60.2195 82.4081C60.2195 82.5192 60.3133 82.7885 60.4278 83.0064C60.5424 83.2244 60.6361 83.4829 60.6361 83.5816C60.6361 83.6799 60.6736 83.7607 60.7194 83.7607C60.7653 83.7607 60.8028 83.9171 60.8028 84.1081C60.8028 84.2987 60.859 84.4996 60.9277 84.5534C60.9965 84.6077 61.0527 84.803 61.0527 84.9876C61.0527 85.1727 61.0996 85.4308 61.1569 85.562C61.3964 86.1098 61.4693 86.318 61.4693 86.4543C61.4693 86.7825 61.6851 87.5188 61.7817 87.5201C61.8476 87.5209 61.8859 87.7726 61.8859 88.2051C61.8859 88.5812 61.9234 88.8889 61.9692 88.8889C62.015 88.8889 62.0525 89.0756 62.0525 89.3039C62.0525 89.5325 62.1088 89.8346 62.1775 89.9756C62.2462 90.1167 62.3025 90.4252 62.3025 90.6615C62.3025 90.8979 62.34 91.1385 62.3858 91.1966C62.4316 91.2547 62.4691 91.6056 62.4691 91.9761C62.4691 92.4607 62.5041 92.6496 62.5941 92.6496C62.7797 92.6496 62.7797 96.8389 62.5941 96.985C62.5155 97.0466 62.4691 97.3081 62.4691 97.6868C62.4691 98.0188 62.4316 98.2906 62.3858 98.2906C62.34 98.2906 62.3025 98.406 62.3025 98.547C62.3025 98.688 62.2656 98.8034 62.2208 98.8034C62.1758 98.8034 62.1154 98.9957 62.0867 99.2308C62.0579 99.4658 62.0011 99.6581 61.9602 99.6581C61.9192 99.6581 61.8859 99.8175 61.8859 100.012C61.8859 100.207 61.839 100.474 61.7817 100.605C61.5345 101.17 61.4693 101.364 61.4693 101.531C61.4693 101.629 61.4291 101.709 61.3799 101.709C61.2647 101.709 61.0527 102.144 61.0527 102.381C61.0527 102.482 61.0158 102.564 60.9711 102.564C60.9261 102.564 60.8657 102.756 60.8369 102.991C60.8034 103.266 60.7261 103.419 60.6211 103.419C60.4443 103.419 60.2195 103.794 60.2195 104.09C60.2195 104.191 60.1793 104.274 60.1302 104.274C60.015 104.274 59.803 104.709 59.803 104.945C59.803 105.046 59.7092 105.128 59.5947 105.128C59.4801 105.128 59.3864 105.205 59.3864 105.299C59.3864 105.393 59.3341 105.47 59.2704 105.47C59.2064 105.47 59.1327 105.585 59.1062 105.726C59.08 105.868 58.9821 105.983 58.8892 105.983C58.7961 105.983 58.7198 106.06 58.7198 106.154C58.7198 106.248 58.6436 106.325 58.5505 106.325C58.4576 106.325 58.3597 106.44 58.3335 106.581C58.307 106.722 58.2166 106.838 58.1327 106.838C58.0485 106.838 57.9567 106.915 57.9283 107.009C57.9 107.103 57.7879 107.179 57.6794 107.179C57.5709 107.179 57.4257 107.295 57.357 107.436C57.2699 107.615 57.0564 107.692 56.6517 107.692C56.2128 107.692 56.0599 107.63 56.0235 107.436C55.9972 107.295 55.8994 107.179 55.8065 107.179C55.7133 107.179 55.6371 107.103 55.6371 107.009C55.6371 106.915 55.5809 106.838 55.5121 106.838C55.4434 106.838 55.3872 106.722 55.3872 106.581C55.3872 106.44 55.359 106.325 55.3247 106.325C55.2903 106.324 55.1533 106.132 55.0202 105.897C54.8871 105.662 54.7277 105.47 54.6661 105.47C54.6044 105.47 54.554 105.393 54.554 105.299C54.554 105.205 54.4603 105.128 54.3457 105.128C54.2311 105.128 54.1374 105.046 54.1374 104.945C54.1374 104.656 53.7558 104.032 53.45 103.821C53.3699 103.766 53.3042 103.653 53.3042 103.57C53.3042 103.487 53.2145 103.419 53.1049 103.419C52.9951 103.419 52.8839 103.303 52.8575 103.162C52.8312 103.021 52.7333 102.906 52.6404 102.906C52.5473 102.906 52.4711 102.838 52.4711 102.755C52.4711 102.672 52.4055 102.557 52.3253 102.5C52.2451 102.444 52.067 102.248 51.9295 102.066C51.792 101.883 51.5565 101.729 51.4061 101.722C51.2444 101.715 51.1132 101.605 51.0849 101.453C51.0584 101.312 50.9493 101.197 50.8424 101.197C50.7354 101.197 50.6248 101.12 50.5964 101.026C50.5681 100.932 50.4017 100.855 50.2267 100.855C50.0457 100.855 49.8641 100.744 49.8049 100.598C49.7204 100.389 49.444 100.342 48.3011 100.342C47.1673 100.342 46.877 100.391 46.7757 100.598C46.707 100.739 46.5379 100.855 46.3998 100.855C46.2617 100.855 46.1257 100.932 46.0973 101.026C46.069 101.12 45.9719 101.197 45.8816 101.197C45.7912 101.197 45.6955 101.312 45.6693 101.453C45.6428 101.594 45.531 101.709 45.4208 101.709C45.1971 101.709 44.8826 102.024 44.7809 102.35C44.7443 102.468 44.6412 102.564 44.5518 102.564C44.4625 102.564 44.3893 102.641 44.3893 102.735C44.3893 102.829 44.3377 102.906 44.2746 102.906C44.2115 102.906 44.1131 103.021 44.0561 103.162C43.999 103.303 43.8769 103.419 43.7847 103.419C43.6924 103.419 43.5301 103.611 43.4239 103.846C43.3177 104.081 43.1971 104.274 43.1558 104.274C43.1144 104.274 42.9794 104.466 42.8559 104.701C42.7322 104.936 42.5955 105.128 42.552 105.128C42.5087 105.128 42.4731 105.205 42.4731 105.299C42.4731 105.393 42.4033 105.47 42.3181 105.47C42.2329 105.47 42.0927 105.662 42.0067 105.897C41.8426 106.346 41.0567 106.551 41.0567 106.146C41.0567 106.026 40.5245 105.976 39.4587 105.994C38.0739 106.018 37.8475 105.985 37.7623 105.746C37.7082 105.594 37.5976 105.47 37.5163 105.47C37.4351 105.47 37.2449 105.201 37.0937 104.872C36.9425 104.543 36.7588 104.274 36.6855 104.274C36.6123 104.274 36.5307 104.158 36.5044 104.017C36.478 103.876 36.4043 103.761 36.3403 103.761C36.2766 103.761 36.2243 103.684 36.2243 103.59C36.2243 103.496 36.1306 103.419 36.016 103.419C35.8864 103.419 35.8077 103.322 35.8077 103.162C35.8077 103.018 35.7333 102.906 35.6375 102.906C35.544 102.906 35.3851 102.749 35.2847 102.556C35.0222 102.055 34.6527 101.709 34.3786 101.709C34.2232 101.709 34.1414 101.621 34.1414 101.453C34.1414 101.294 34.0626 101.197 33.9331 101.197C33.8185 101.197 33.7248 101.12 33.7248 101.026C33.7248 100.932 33.5975 100.855 33.4421 100.855C33.2676 100.855 33.1409 100.756 33.1114 100.598C33.0714 100.384 32.8254 100.342 31.6131 100.342C30.4254 100.342 30.1438 100.388 30.0588 100.598C29.9997 100.744 29.8181 100.855 29.6371 100.855C29.4621 100.855 29.2957 100.932 29.2673 101.026C29.239 101.12 29.1232 101.197 29.0099 101.197C28.8966 101.197 28.7822 101.312 28.756 101.453C28.7264 101.611 28.5998 101.709 28.4252 101.709C28.2698 101.709 28.1426 101.786 28.1426 101.88C28.1426 101.974 28.0663 102.051 27.9732 102.051C27.8803 102.051 27.7824 102.167 27.7562 102.308C27.7297 102.449 27.6554 102.564 27.591 102.564C27.4389 102.564 27.1196 102.932 27.0344 103.205C26.9978 103.323 26.8813 103.419 26.776 103.419C26.6703 103.419 26.4827 103.611 26.3592 103.846C26.2354 104.081 26.08 104.274 26.0136 104.274C25.9474 104.274 25.893 104.35 25.893 104.444C25.893 104.538 25.8368 104.615 25.768 104.615C25.6993 104.615 25.6431 104.731 25.6431 104.872C25.6431 105.013 25.5868 105.128 25.5181 105.128C25.4493 105.128 25.3931 105.205 25.3931 105.299C25.3931 105.393 25.3233 105.47 25.2381 105.47C25.1529 105.47 25.0128 105.662 24.9267 105.897C24.8407 106.132 24.7428 106.325 24.7093 106.325C24.6278 106.325 23.8594 107.4 23.824 107.564C23.7657 107.833 22.477 107.711 22.477 107.436C22.477 107.257 22.3891 107.179 22.1854 107.179C22.025 107.179 21.8938 107.103 21.8938 107.009C21.8938 106.915 21.8207 106.838 21.7315 106.838C21.6422 106.838 21.468 106.645 21.3443 106.41C21.2208 106.175 21.0542 105.983 20.974 105.983C20.894 105.983 20.8069 105.868 20.7805 105.726C20.7542 105.585 20.6563 105.47 20.5634 105.47C20.4703 105.47 20.3941 105.393 20.3941 105.299C20.3941 105.205 20.3549 105.128 20.3072 105.128C20.2256 105.128 20.1312 104.994 19.8557 104.487C19.7917 104.37 19.6992 104.274 19.6503 104.274C19.6011 104.274 19.5609 104.191 19.5609 104.09C19.5609 103.854 19.3489 103.419 19.2337 103.419C19.1845 103.419 19.1443 103.336 19.1443 103.235C19.1443 102.999 18.9323 102.564 18.8171 102.564C18.768 102.564 18.7278 102.409 18.7278 102.218C18.7278 102.006 18.6469 101.809 18.5195 101.709C18.392 101.61 18.3112 101.413 18.3112 101.201C18.3112 101.01 18.2737 100.855 18.2279 100.855C18.182 100.855 18.1445 100.739 18.1445 100.598C18.1445 100.457 18.1098 100.342 18.0673 100.342C17.9812 100.342 17.728 99.3808 17.728 99.0547C17.728 98.9393 17.6717 98.7496 17.603 98.6325C17.5342 98.5154 17.478 98.2752 17.478 98.0987C17.478 97.9222 17.4405 97.7778 17.3947 97.7778C17.3489 97.7778 17.3114 97.4291 17.3114 97.003C17.3114 96.4722 17.272 96.1974 17.1864 96.1303C17.0087 95.9902 17.0087 94.0953 17.1864 93.9551C17.2785 93.8829 17.3114 93.5846 17.3114 92.8261C17.3114 92.2526 17.3484 91.7949 17.3947 91.7949C17.4405 91.7949 17.478 91.5338 17.478 91.215C17.478 90.8568 17.5259 90.597 17.603 90.5363C17.6886 90.4692 17.728 90.1944 17.728 89.6637C17.728 89.2376 17.7654 88.8889 17.8113 88.8889C17.8571 88.8889 17.8946 88.7047 17.8946 88.4799C17.8946 88.2547 17.9508 88.0265 18.0196 87.9722C18.0883 87.9184 18.1445 87.7175 18.1445 87.5269C18.1445 87.3359 18.182 87.1795 18.2279 87.1795C18.2737 87.1795 18.3112 87.059 18.3112 86.9115C18.3112 86.7645 18.4049 86.3919 18.5195 86.0838C18.634 85.7752 18.7278 85.3551 18.7278 85.1496C18.7278 84.944 18.784 84.7312 18.8527 84.6773C18.9215 84.6231 18.9777 84.4718 18.9777 84.3406C18.9777 84.2098 19.0152 84.1026 19.061 84.1026C19.1068 84.1026 19.1443 84.0222 19.1443 83.9244C19.1443 83.7568 19.2095 83.5632 19.4568 82.9979C19.5141 82.8667 19.5609 82.6 19.5609 82.4056C19.5609 82.2047 19.6151 82.0513 19.6859 82.0513C19.7546 82.0513 19.8109 81.9692 19.8109 81.8688C19.8109 81.7684 19.9421 81.4325 20.1025 81.1222C20.2629 80.812 20.3941 80.394 20.3941 80.1936C20.3941 79.9932 20.4343 79.8291 20.4834 79.8291C20.5986 79.8291 20.8107 79.394 20.8107 79.1577C20.8107 79.0568 20.8509 78.9744 20.9 78.9744C21.0152 78.9744 21.2273 78.5393 21.2273 78.303C21.2273 78.2021 21.2675 78.1197 21.3166 78.1197C21.4318 78.1197 21.6438 77.6846 21.6438 77.4483C21.6438 77.3474 21.684 77.265 21.7332 77.265C21.8484 77.265 22.0604 76.8299 22.0604 76.5936C22.0604 76.4927 22.1006 76.4103 22.1498 76.4103C22.1987 76.4103 22.2925 76.3004 22.3581 76.1662C22.4235 76.0316 22.477 75.8393 22.477 75.7389C22.477 75.638 22.5489 75.5556 22.6366 75.5556C22.7243 75.5556 22.9246 75.2991 23.0821 74.9855C23.2394 74.6722 23.4208 74.365 23.4849 74.303C23.8361 73.9641 24.1433 73.4376 24.1433 73.1748C24.1433 73.0739 24.2371 72.9914 24.3516 72.9914C24.4662 72.9914 24.5599 72.9145 24.5599 72.8205C24.5599 72.7265 24.6537 72.6496 24.7682 72.6496C24.8978 72.6496 24.9765 72.5526 24.9765 72.3932C24.9765 72.2338 25.0553 72.1367 25.1848 72.1367C25.2994 72.1367 25.3931 72.0598 25.3931 71.9658C25.3931 71.8718 25.4693 71.7949 25.5624 71.7949C25.6553 71.7949 25.7532 71.6795 25.7795 71.5385C25.8059 71.3974 25.9172 71.282 26.0269 71.282C26.1365 71.282 26.2263 71.2051 26.2263 71.1111C26.2263 71.0171 26.3717 70.9402 26.5493 70.9402C26.7349 70.9402 26.9166 70.8312 26.9761 70.6838C27.0332 70.5427 27.2042 70.4273 27.3563 70.4273C27.5083 70.4273 27.656 70.3504 27.6843 70.2564C27.7158 70.1517 28.3794 70.0855 29.3973 70.0855C30.4494 70.0855 31.0586 70.1483 31.0586 70.2564ZM28.3394 77.5214C28.3067 77.6953 28.1738 77.7778 27.9253 77.7778C27.7241 77.7778 27.5593 77.8547 27.5593 77.9487C27.5593 78.0427 27.4514 78.1197 27.3196 78.1197C27.1877 78.1197 27.0332 78.235 26.9761 78.3761C26.919 78.5171 26.8378 78.6325 26.7957 78.6325C26.7235 78.6325 26.6251 78.7752 26.3544 79.2735C26.2904 79.391 26.1979 79.4872 26.149 79.4872C26.0998 79.4872 26.0596 79.5641 26.0596 79.6581C26.0596 79.7521 26.0034 79.8291 25.9347 79.8291C25.8659 79.8291 25.8097 79.8868 25.8097 79.9573C25.8097 80.0278 25.6785 80.388 25.5181 80.7577C25.3577 81.1273 25.2265 81.5333 25.2265 81.6603C25.2265 81.7872 25.1702 81.9355 25.1015 81.9893C25.0328 82.0436 24.9765 82.2718 24.9765 82.497C24.9765 82.7218 24.939 82.906 24.8932 82.906C24.8422 82.906 24.8099 83.7321 24.8099 85.0427V87.1795H26.5595H28.3092V86.3432C28.3092 85.594 28.3309 85.4962 28.5175 85.4C28.632 85.341 28.7258 85.2171 28.7258 85.1248C28.7258 85.0329 28.8195 84.9573 28.9341 84.9573C29.0486 84.9573 29.1424 84.8803 29.1424 84.7863C29.1424 84.6868 29.4183 84.6154 29.8039 84.6154C30.1678 84.6154 30.4888 84.6923 30.5171 84.7863C30.5454 84.8803 30.6789 84.9573 30.8137 84.9573C30.9485 84.9573 31.0586 85.0397 31.0586 85.1406C31.0586 85.3769 31.2707 85.812 31.3859 85.812C31.435 85.812 31.4752 86.1197 31.4752 86.4957V87.1795H33.2249H34.9745V85.8974C34.9745 85.1568 34.9393 84.6154 34.8912 84.6154C34.8454 84.6154 34.8079 84.2308 34.8079 83.7607C34.8079 83.115 34.7773 82.906 34.6829 82.906C34.5979 82.906 34.5571 82.7278 34.5552 82.3504C34.5525 81.7641 34.3957 81.1966 34.2364 81.1966C34.1841 81.1966 34.1414 81.1141 34.1414 81.0133C34.1414 80.7769 33.9293 80.3419 33.8141 80.3419C33.765 80.3419 33.7248 80.2594 33.7248 80.1586C33.7248 79.9222 33.5127 79.4872 33.3976 79.4872C33.3484 79.4872 33.3082 79.3718 33.3082 79.2308C33.3082 79.0863 33.2338 78.9744 33.138 78.9744C33.0443 78.9744 32.8666 78.782 32.7431 78.547C32.6163 78.3056 32.4184 78.1197 32.2884 78.1197C32.162 78.1197 32.0584 78.0427 32.0584 77.9487C32.0584 77.8547 31.871 77.7778 31.6419 77.7778C31.3271 77.7778 31.2253 77.715 31.2253 77.5214C31.2253 77.3034 31.012 77.265 29.8062 77.265C28.6218 77.265 28.3794 77.3073 28.3394 77.5214ZM48.5552 77.5214C48.5552 77.7064 48.4627 77.7778 48.2219 77.7778C48.0386 77.7778 47.8887 77.8547 47.8887 77.9487C47.8887 78.0427 47.7614 78.1197 47.606 78.1197C47.4315 78.1197 47.3048 78.2179 47.2752 78.3761C47.249 78.5171 47.1511 78.6325 47.0582 78.6325C46.9651 78.6325 46.8889 78.7094 46.8889 78.8034C46.8889 78.8974 46.8518 78.9744 46.8066 78.9744C46.6897 78.9744 46.0626 79.8855 46.0588 80.0607C46.0571 80.1415 45.962 80.3586 45.8474 80.5432C45.7328 80.7282 45.6391 80.9919 45.6391 81.1291C45.6391 81.2662 45.5829 81.4226 45.5141 81.4765C45.4454 81.5308 45.3891 81.682 45.3891 81.8132C45.3891 81.944 45.3517 82.0513 45.3058 82.0513C45.26 82.0513 45.2225 82.3124 45.2225 82.6312C45.2225 82.9893 45.1746 83.2491 45.0975 83.3098C44.9969 83.3889 44.9726 83.7756 44.9726 85.297V87.1863L46.743 87.1402L48.5135 87.094L48.5385 86.2996C48.5564 85.7359 48.6048 85.4769 48.7052 85.4073C48.7831 85.3534 48.903 85.2419 48.9718 85.1598C49.3594 84.6966 49.5262 84.6154 50.0905 84.6154C50.4321 84.6154 50.7348 84.6923 50.7631 84.7863C50.7914 84.8803 50.886 84.9573 50.9735 84.9573C51.2538 84.9573 51.6379 85.8949 51.6379 86.5786V87.1863L53.4084 87.1402L55.1789 87.094L55.203 85.6812C55.2228 84.5346 55.203 84.2491 55.0989 84.1671C55.0074 84.0949 54.9706 83.8252 54.9706 83.2295C54.9706 82.7697 54.9331 82.3932 54.8873 82.3932C54.8414 82.3932 54.8039 82.25 54.8039 82.0752C54.8039 81.9004 54.7102 81.6128 54.5957 81.4363C54.4811 81.2598 54.3874 81.0645 54.3874 81.0026C54.3874 80.8047 53.937 79.8291 53.8456 79.8291C53.7973 79.8291 53.7025 79.6705 53.635 79.4765C53.5677 79.2825 53.3813 78.9983 53.2209 78.8449C53.0605 78.691 52.8993 78.465 52.8627 78.3427C52.826 78.2201 52.6854 78.1197 52.5502 78.1197C52.415 78.1197 52.3044 78.0427 52.3044 77.9487C52.3044 77.8547 52.1591 77.7778 51.9814 77.7778C51.7958 77.7778 51.6142 77.6688 51.5546 77.5214C51.4696 77.3115 51.1884 77.265 50.003 77.265C48.7716 77.265 48.5552 77.3034 48.5552 77.5214ZM29.8089 110.427C29.8089 110.521 29.6241 110.598 29.3984 110.598C29.1444 110.598 28.9399 110.696 28.8626 110.855C28.7939 110.996 28.6843 111.111 28.6189 111.111C28.5535 111.111 28.399 111.303 28.2754 111.538C28.1517 111.774 28.0311 111.966 28.0074 111.966C27.9328 111.966 27.726 112.446 27.726 112.619C27.726 112.71 27.6697 112.828 27.601 112.882C27.5279 112.94 27.476 113.196 27.476 113.499C27.476 113.784 27.4385 114.017 27.3927 114.017C27.3421 114.017 27.3094 114.786 27.3094 115.983C27.3094 117.179 27.3421 117.949 27.3927 117.949C27.4385 117.949 27.476 118.218 27.476 118.547C27.476 118.965 27.5137 119.145 27.601 119.145C27.6697 119.145 27.726 119.228 27.726 119.329C27.726 119.968 27.8799 120 30.9276 120H33.8914L34.2247 119.316L34.558 118.632V116.188C34.558 113.738 34.4732 112.825 34.2455 112.822C34.1882 112.821 34.1414 112.738 34.1414 112.637C34.1414 112.401 33.9293 111.966 33.8141 111.966C33.765 111.966 33.7246 111.87 33.7242 111.752C33.7235 111.553 33.3642 111.111 33.2024 111.111C33.1624 111.111 33.0735 110.996 33.0047 110.855C32.9274 110.696 32.7229 110.598 32.469 110.598C32.2432 110.598 32.0584 110.521 32.0584 110.427C32.0584 110.322 31.6279 110.256 30.9337 110.256C30.2394 110.256 29.8089 110.322 29.8089 110.427ZM47.722 110.427C47.722 110.521 47.5385 110.598 47.3144 110.598C47.0288 110.598 46.8924 110.675 46.8586 110.855C46.8324 110.996 46.7368 111.111 46.6464 111.111C46.556 111.111 46.4589 111.188 46.4306 111.282C46.4023 111.376 46.3063 111.453 46.2173 111.453C46.1284 111.453 46.0557 111.556 46.0557 111.68C46.0557 111.806 45.962 112.011 45.8474 112.137C45.7328 112.262 45.6391 112.468 45.6391 112.593C45.6391 112.718 45.6022 112.821 45.5574 112.821C45.5125 112.821 45.452 113.013 45.4233 113.248C45.3946 113.483 45.3377 113.675 45.2969 113.675C45.2558 113.675 45.2225 114.714 45.2225 115.983C45.2225 117.407 45.2544 118.291 45.3058 118.291C45.3517 118.291 45.3891 118.447 45.3891 118.638C45.3891 118.829 45.4454 119.029 45.5141 119.083C45.5829 119.138 45.6391 119.261 45.6391 119.359C45.6391 119.94 45.894 119.989 48.8885 119.989C52.1732 119.988 52.0339 120.036 52.3296 118.82C52.4921 118.151 52.5427 113.675 52.3878 113.675C52.3419 113.675 52.3044 113.524 52.3044 113.339C52.3044 112.988 51.8727 111.966 51.7239 111.966C51.6766 111.966 51.6379 111.85 51.6379 111.709C51.6379 111.568 51.5817 111.453 51.5129 111.453C51.4442 111.453 51.388 111.376 51.388 111.282C51.388 111.188 51.3176 111.111 51.2315 111.111C51.1455 111.111 51.0284 110.996 50.9714 110.855C50.9053 110.692 50.7214 110.598 50.4663 110.598C50.2455 110.598 50.0416 110.521 50.0132 110.427C49.983 110.327 49.4985 110.256 48.8418 110.256C48.1509 110.256 47.722 110.322 47.722 110.427Z" fill="#14ECE4"/>
</svg>
