<svg width="360" height="480" viewBox="0 0 360 480" fill="none" xmlns="http://www.w3.org/2000/svg">
<rect width="360" height="480" fill="url(#paint0_linear_483_1850)"/>
<path fill-rule="evenodd" clip-rule="evenodd" d="M179.003 120.256C179.003 120.397 178.792 120.96 178.535 121.506C178.277 122.052 178.066 122.64 178.066 122.811C178.066 122.983 177.771 123.631 177.41 124.251C177.049 124.872 176.754 125.609 176.754 125.89C176.754 126.17 176.543 126.689 176.285 127.042C176.027 127.395 175.816 127.809 175.816 127.961C175.816 128.113 175.605 128.594 175.348 129.03C175.09 129.466 174.879 130.074 174.879 130.381C174.879 130.689 174.752 130.94 174.598 130.94C174.443 130.94 174.317 131.078 174.317 131.246C174.317 131.415 174.107 131.915 173.851 132.357C173.595 132.8 173.384 133.421 173.383 133.738C173.381 134.054 173.215 134.408 173.014 134.525C172.813 134.641 172.597 135.036 172.533 135.402C172.469 135.768 172.338 136.068 172.242 136.068C172.146 136.068 172.067 136.299 172.067 136.581C172.067 136.863 171.941 137.094 171.786 137.094C171.627 137.094 171.505 137.401 171.505 137.803C171.505 138.559 171.099 139.487 170.768 139.487C170.658 139.487 170.567 139.681 170.567 139.919C170.567 140.156 170.356 140.639 170.099 140.992C169.841 141.345 169.63 141.921 169.63 142.27C169.63 142.62 169.546 142.906 169.443 142.906C169.339 142.906 169.255 143.137 169.255 143.419C169.255 143.701 169.129 143.932 168.974 143.932C168.819 143.932 168.693 144.069 168.693 144.238C168.693 144.406 168.483 144.906 168.227 145.349C167.971 145.791 167.761 146.337 167.759 146.561C167.757 146.785 167.334 147.771 166.818 148.751C166.303 149.732 165.881 150.741 165.881 150.993C165.881 151.246 165.796 151.453 165.693 151.453C165.59 151.453 165.506 151.684 165.506 151.966C165.506 152.285 165.329 152.479 165.037 152.479C164.779 152.479 164.569 152.632 164.569 152.821C164.569 153.678 163 152.914 162.638 151.88C162.555 151.645 162.323 151.453 162.122 151.453C161.921 151.453 161.757 151.299 161.757 151.111C161.757 150.923 161.63 150.769 161.475 150.769C161.321 150.769 161.194 150.618 161.194 150.434C161.194 150.25 160.983 150.002 160.726 149.884C160.468 149.766 160.257 149.532 160.257 149.365C160.257 149.197 160.046 149.06 159.788 149.06C159.53 149.06 159.32 148.885 159.32 148.67C159.32 148.209 158.759 147.377 158.439 147.362C158.315 147.356 157.987 146.966 157.708 146.496C157.414 145.999 156.979 145.641 156.668 145.641C156.317 145.641 156.133 145.464 156.133 145.128C156.133 144.846 156.006 144.615 155.852 144.615C155.697 144.615 155.57 144.462 155.57 144.274C155.57 144.085 155.48 143.932 155.369 143.932C155.259 143.932 155.051 143.739 154.907 143.504C154.243 142.418 154.062 142.222 153.724 142.222C153.524 142.222 153.312 141.991 153.253 141.709C153.194 141.427 152.973 141.197 152.764 141.197C152.555 141.197 152.383 141.043 152.383 140.855C152.383 140.667 152.257 140.513 152.102 140.513C151.948 140.513 151.821 140.37 151.821 140.196C151.821 139.786 150.742 138.803 150.293 138.803C150.102 138.803 149.946 138.628 149.946 138.414C149.946 137.888 149.368 137.118 148.962 137.105C148.782 137.099 148.634 136.863 148.634 136.581C148.634 136.299 148.508 136.068 148.353 136.068C148.198 136.068 148.072 135.915 148.072 135.726C148.072 135.538 147.9 135.385 147.691 135.385C147.482 135.385 147.261 135.154 147.202 134.872C147.143 134.59 146.912 134.359 146.69 134.359C146.468 134.359 146.128 133.974 145.934 133.504C145.741 133.034 145.425 132.65 145.234 132.65C145.042 132.65 144.885 132.496 144.885 132.308C144.885 132.12 144.758 131.966 144.604 131.966C144.449 131.966 144.323 131.842 144.323 131.69C144.323 131.209 142.911 130.256 142.198 130.256C141.59 130.256 141.511 130.355 141.511 131.111C141.511 131.581 141.426 131.966 141.323 131.966C141.22 131.966 141.136 132.488 141.136 133.126C141.136 133.842 141.028 134.362 140.854 134.483C140.678 134.606 140.573 135.129 140.573 135.886C140.573 136.55 140.489 137.094 140.386 137.094C140.283 137.094 140.198 137.863 140.198 138.803C140.198 140.095 140.129 140.513 139.917 140.513C139.721 140.513 139.636 140.874 139.636 141.709C139.636 142.368 139.552 142.906 139.448 142.906C139.345 142.906 139.261 143.521 139.261 144.274C139.261 145.262 139.183 145.641 138.98 145.641C138.784 145.641 138.699 146 138.699 146.817C138.699 147.464 138.614 148.089 138.511 148.205C138.408 148.321 138.324 148.946 138.324 149.593C138.324 150.41 138.238 150.769 138.043 150.769C137.83 150.769 137.761 151.187 137.761 152.479C137.761 153.419 137.677 154.188 137.574 154.188C137.471 154.188 137.386 154.71 137.386 155.348C137.386 156.064 137.279 156.584 137.105 156.705C136.929 156.828 136.824 157.351 136.824 158.109C136.824 158.773 136.74 159.316 136.637 159.316C136.533 159.316 136.449 159.838 136.449 160.476C136.449 161.192 136.341 161.712 136.168 161.833C135.976 161.968 135.887 162.515 135.887 163.559C135.887 164.4 135.802 165.183 135.699 165.299C135.596 165.415 135.512 166.04 135.512 166.687C135.512 167.504 135.426 167.863 135.231 167.863C135.076 167.863 134.949 168.024 134.949 168.221C134.949 168.685 134.088 170.256 133.833 170.256C133.725 170.256 133.637 170.487 133.637 170.769C133.637 171.129 133.438 171.282 132.967 171.282C132.6 171.282 132.172 171.051 132.017 170.769C131.8 170.374 131.249 170.256 129.604 170.256C128.386 170.256 127.423 170.11 127.357 169.915C127.291 169.718 126.299 169.573 125.023 169.573C123.224 169.573 122.784 169.476 122.696 169.06C122.609 168.644 122.165 168.547 120.333 168.547C118.955 168.547 118.078 168.415 118.078 168.205C118.078 167.991 116.953 167.863 115.078 167.863H112.079V170.256C112.079 171.624 112.159 172.65 112.266 172.65C112.378 172.65 112.454 173.946 112.454 175.856C112.454 178.288 112.522 179.164 112.735 179.487C112.95 179.813 113.016 180.705 113.016 183.29C113.016 185.313 113.091 186.667 113.204 186.667C113.316 186.667 113.391 188.021 113.391 190.044C113.391 192.628 113.457 193.521 113.672 193.846C113.899 194.189 113.954 195.237 113.954 199.203V204.135L113.07 205.657C112.459 206.709 112.025 207.179 111.664 207.179C111.377 207.179 111.142 207.333 111.142 207.521C111.142 207.709 110.931 207.863 110.673 207.863C110.381 207.863 110.204 208.057 110.204 208.376C110.204 208.683 110.031 208.889 109.773 208.889C109.186 208.889 108.333 209.647 108.331 210.171C108.33 210.43 108.075 210.598 107.685 210.598C107.33 210.598 106.987 210.752 106.924 210.94C106.86 211.128 106.612 211.282 106.373 211.282C106.134 211.282 105.834 211.513 105.705 211.795C105.577 212.077 105.271 212.308 105.026 212.308C104.781 212.308 104.58 212.462 104.58 212.65C104.58 212.838 104.409 212.991 104.199 212.991C103.99 212.991 103.77 213.222 103.711 213.504C103.652 213.786 103.401 214.017 103.154 214.017C102.908 214.017 102.706 214.171 102.706 214.359C102.706 214.547 102.408 214.701 102.044 214.701C101.628 214.701 101.342 214.891 101.274 215.214C101.214 215.496 101.011 215.727 100.822 215.727C100.633 215.727 100.426 215.88 100.362 216.068C100.299 216.256 100.08 216.41 99.877 216.41C99.6736 216.41 99.4584 216.641 99.3994 216.923C99.3399 217.205 99.0896 217.436 98.8426 217.436C98.5961 217.436 98.3941 217.59 98.3941 217.778C98.3941 217.966 98.1078 218.12 97.7582 218.12C97.3654 218.12 97.0805 218.316 97.0139 218.632C96.9549 218.915 96.7346 219.145 96.5256 219.145C96.3161 219.145 96.1446 219.299 96.1446 219.487C96.1446 219.675 95.9398 219.829 95.6895 219.829C95.4388 219.829 95.1074 220.06 94.9528 220.342C94.7981 220.624 94.4968 220.855 94.2835 220.855C94.0698 220.855 93.895 221.009 93.895 221.197C93.895 221.385 93.648 221.538 93.3462 221.538C93.0439 221.538 92.6704 221.769 92.5158 222.051C92.3611 222.333 92.1071 222.564 91.951 222.564C91.795 222.564 91.6155 222.718 91.5517 222.906C91.488 223.094 91.2907 223.248 91.1135 223.248C90.9364 223.248 90.6463 223.557 90.4687 223.936C90.1139 224.691 90.0384 225.641 90.3332 225.641C90.4363 225.641 90.5207 225.803 90.5207 226.003C90.5207 226.202 93.4732 231.746 97.0819 238.325C101.042 245.543 103.643 250.538 103.643 250.926C103.643 251.279 103.749 251.656 103.877 251.767C104.065 251.926 104.065 252.006 103.877 252.165C103.749 252.275 103.643 252.737 103.643 253.191C103.643 253.697 103.534 254.017 103.362 254.017C103.207 254.017 103.081 254.182 103.081 254.384C103.081 254.856 102.604 255.726 102.344 255.726C102.234 255.726 102.143 255.891 102.143 256.093C102.143 256.566 101.666 257.436 101.407 257.436C101.297 257.436 101.206 257.667 101.206 257.949C101.206 258.232 101.04 258.462 100.835 258.462C100.595 258.462 100.422 258.764 100.346 259.316C100.281 259.786 100.131 260.171 100.012 260.171C99.8934 260.171 99.569 260.556 99.2907 261.026C99.0127 261.496 98.7334 261.88 98.6702 261.88C98.4794 261.88 98.0192 262.831 98.0192 263.223C98.0192 263.425 97.9287 263.59 97.8181 263.59C97.5693 263.59 97.0819 264.452 97.0819 264.893C97.0819 265.073 96.9071 265.303 96.6929 265.405C96.4792 265.507 96.2584 265.909 96.2027 266.299C96.1464 266.69 96.004 267.009 95.8859 267.009C95.7678 267.009 95.5128 267.393 95.3193 267.863C95.1257 268.333 94.845 268.718 94.6955 268.718C94.546 268.718 93.7146 270.026 92.848 271.624C91.9815 273.222 91.1876 274.53 91.084 274.53C90.9804 274.53 90.8956 274.724 90.8956 274.962C90.8956 275.199 90.7058 275.545 90.4738 275.731C89.8421 276.236 89.8421 279.432 90.4738 279.597C90.7058 279.656 90.8956 279.926 90.8956 280.195C90.8956 280.464 91.0221 280.684 91.1768 280.684C91.3315 280.684 91.458 280.838 91.458 281.026C91.458 281.214 91.5461 281.368 91.6534 281.368C91.7612 281.368 92.0766 281.752 92.3545 282.222C92.6329 282.692 92.9666 283.077 93.0964 283.077C93.2262 283.077 93.3326 283.308 93.3326 283.59C93.3326 283.909 93.5098 284.103 93.8013 284.103C94.1396 284.103 94.2699 284.286 94.2699 284.763C94.2699 285.132 94.4419 285.524 94.6589 285.65C94.8731 285.774 95.3446 286.399 95.7064 287.04C96.0682 287.68 96.5256 288.205 96.7229 288.205C96.9202 288.205 97.0819 288.436 97.0819 288.718C97.0819 289 97.1573 289.231 97.2497 289.231C97.342 289.231 97.6161 289.613 97.8589 290.079C98.1017 290.546 98.4115 290.931 98.5474 290.934C98.6833 290.938 99.0727 291.479 99.413 292.137C99.7532 292.795 100.091 293.333 100.164 293.333C100.236 293.333 100.413 293.526 100.557 293.761C101.131 294.699 101.383 295.043 101.499 295.043C101.566 295.043 101.787 295.427 101.989 295.897C102.192 296.368 102.481 296.752 102.632 296.752C102.782 296.752 102.954 296.983 103.013 297.265C103.072 297.547 103.2 297.778 103.296 297.778C103.393 297.778 103.699 298.162 103.977 298.632C104.256 299.103 104.589 299.487 104.719 299.487C104.849 299.487 104.955 299.641 104.955 299.829C104.955 300.017 105.082 300.171 105.237 300.171C105.391 300.171 105.518 300.336 105.518 300.538C105.518 301.085 106.012 301.88 106.352 301.88C106.517 301.88 106.729 302.249 106.822 302.699C106.916 303.15 107.075 303.573 107.175 303.639C107.578 303.909 107.517 309.744 107.111 309.744C106.899 309.744 106.83 310.159 106.83 311.432C106.83 312.362 106.746 313.217 106.642 313.333C106.539 313.45 106.455 314.365 106.455 315.368C106.455 316.674 106.375 317.248 106.174 317.389C105.955 317.542 105.893 318.225 105.893 320.502C105.893 322.219 105.815 323.419 105.705 323.419C105.602 323.419 105.518 324.188 105.518 325.128C105.518 326.42 105.449 326.838 105.237 326.838C105.018 326.838 104.955 327.293 104.955 328.889C104.955 330.028 104.872 330.94 104.768 330.94C104.665 330.94 104.58 331.693 104.58 332.613C104.58 333.785 104.496 334.344 104.299 334.483C104.08 334.636 104.018 335.319 104.018 337.596C104.018 339.313 103.941 340.513 103.831 340.513C103.727 340.513 103.643 341.282 103.643 342.222V343.932H104.557C105.141 343.932 105.556 343.746 105.705 343.419C105.887 343.018 106.404 342.906 108.071 342.906C109.368 342.906 110.204 342.772 110.204 342.564C110.204 342.354 111.143 342.222 112.647 342.222C114.646 342.222 115.11 342.129 115.198 341.709C115.288 341.28 115.841 341.197 118.567 341.197C120.615 341.197 121.827 341.069 121.827 340.855C121.827 340.645 122.729 340.513 124.157 340.513C125.978 340.513 126.548 340.401 126.768 340C127.247 339.126 128.701 339.33 129.215 340.342C129.454 340.812 129.75 341.197 129.871 341.197C129.993 341.197 130.289 341.581 130.528 342.051C130.767 342.521 131.142 342.906 131.362 342.906C131.583 342.906 131.763 343.119 131.763 343.379C131.763 343.64 132.054 344.106 132.411 344.415C132.767 344.723 133.109 345.126 133.172 345.309C133.234 345.491 133.448 345.641 133.648 345.641C133.849 345.641 134.012 345.795 134.012 345.983C134.012 346.171 134.214 346.325 134.461 346.325C134.708 346.325 134.958 346.556 135.017 346.838C135.076 347.12 135.297 347.35 135.506 347.35C135.715 347.35 135.887 347.504 135.887 347.692C135.887 347.88 136.089 348.034 136.335 348.034C136.582 348.034 136.832 348.265 136.892 348.547C136.966 348.898 137.267 349.06 137.849 349.06C138.316 349.06 138.699 349.214 138.699 349.402C138.699 349.59 139.112 349.744 139.616 349.744C140.258 349.744 140.565 349.897 140.641 350.256C140.794 350.982 143.241 350.982 143.64 350.256C143.815 349.935 144.277 349.744 144.871 349.744C145.394 349.744 145.822 349.59 145.822 349.402C145.822 349.214 146.111 349.06 146.465 349.06C146.819 349.06 147.234 348.829 147.389 348.547C147.544 348.265 147.761 348.034 147.871 348.034C147.981 348.034 148.072 347.88 148.072 347.692C148.072 347.504 148.243 347.35 148.453 347.35C148.662 347.35 148.882 347.12 148.941 346.838C149.001 346.556 149.13 346.325 149.23 346.325C149.33 346.325 149.528 346.132 149.672 345.897C150.292 344.883 150.505 344.615 150.688 344.615C150.796 344.615 150.884 344.462 150.884 344.274C150.884 344.085 151.01 343.932 151.165 343.932C151.32 343.932 151.446 343.767 151.446 343.565C151.446 343.016 151.941 342.222 152.282 342.222C152.448 342.222 152.631 341.991 152.69 341.709C152.75 341.427 152.97 341.197 153.179 341.197C153.388 341.197 153.754 340.812 153.993 340.342C154.232 339.872 154.6 339.487 154.812 339.487C155.022 339.487 155.195 339.333 155.195 339.145C155.195 338.957 155.312 338.803 155.454 338.803C155.596 338.803 155.817 338.573 155.945 338.291C156.074 338.009 156.379 337.778 156.624 337.778C156.869 337.778 157.07 337.624 157.07 337.436C157.07 337.248 157.242 337.094 157.451 337.094C157.66 337.094 157.88 336.863 157.939 336.581C158.006 336.265 158.291 336.068 158.684 336.068C159.033 336.068 159.32 335.915 159.32 335.726C159.32 335.526 159.972 335.385 160.902 335.385C161.772 335.385 162.536 335.538 162.6 335.726C162.664 335.915 162.922 336.068 163.174 336.068C163.455 336.068 163.631 336.266 163.631 336.581C163.631 336.9 163.808 337.094 164.1 337.094C164.358 337.094 164.569 337.248 164.569 337.436C164.569 337.624 164.779 337.778 165.037 337.778C165.295 337.778 165.506 337.929 165.506 338.113C165.506 338.297 165.717 338.545 165.975 338.663C166.232 338.781 166.443 339.015 166.443 339.182C166.443 339.35 166.534 339.487 166.644 339.487C166.754 339.487 166.962 339.679 167.106 339.915C167.598 340.72 168.38 341.697 168.862 342.11C169.006 342.234 169.414 342.849 169.768 343.475C170.123 344.103 170.52 344.615 170.651 344.615C170.782 344.615 171.048 345 171.242 345.47C171.435 345.94 171.662 346.325 171.746 346.325C171.829 346.325 172.093 346.709 172.332 347.179C172.571 347.65 172.904 348.034 173.073 348.034C173.242 348.034 173.379 348.265 173.379 348.547C173.379 348.829 173.458 349.06 173.556 349.06C173.653 349.06 174.17 349.825 174.705 350.76C175.239 351.695 175.919 352.656 176.215 352.895C176.511 353.133 176.754 353.456 176.754 353.612C176.754 354.018 177.253 354.872 177.49 354.872C177.6 354.872 177.691 355.037 177.691 355.238C177.691 355.711 178.168 356.581 178.427 356.581C178.538 356.581 178.628 356.746 178.628 356.948C178.628 358.455 180.577 358.878 180.878 357.436C180.987 356.913 181.203 356.581 181.436 356.581C181.645 356.581 181.815 356.416 181.815 356.215C181.815 355.849 182.271 354.872 182.442 354.872C182.491 354.872 183.046 353.949 183.675 352.821C184.303 351.692 184.901 350.769 185.003 350.769C185.106 350.769 185.189 350.604 185.189 350.403C185.189 349.854 185.684 349.06 186.026 349.06C186.191 349.06 186.375 348.829 186.434 348.547C186.493 348.265 186.623 348.034 186.722 348.034C186.966 348.034 187.439 347.147 187.439 346.691C187.439 346.49 187.566 346.325 187.72 346.325C187.875 346.325 188.001 346.171 188.001 345.983C188.001 345.795 188.158 345.641 188.35 345.641C188.542 345.641 188.857 345.256 189.051 344.786C189.244 344.316 189.509 343.932 189.639 343.932C189.77 343.932 189.876 343.701 189.876 343.419C189.876 343.134 190.043 342.906 190.251 342.906C190.457 342.906 190.626 342.752 190.626 342.564C190.626 342.376 190.752 342.222 190.907 342.222C191.062 342.222 191.188 341.991 191.188 341.709C191.188 341.427 191.345 341.197 191.536 341.197C191.727 341.197 192.111 340.812 192.389 340.342C192.667 339.872 192.996 339.482 193.12 339.476C193.44 339.461 194 338.628 194 338.168C194 337.95 194.29 337.778 194.656 337.778C195.017 337.778 195.312 337.624 195.312 337.436C195.312 337.248 195.43 337.094 195.573 337.094C195.717 337.094 195.883 336.863 195.943 336.581C196.005 336.285 196.285 336.068 196.608 336.068C196.914 336.068 197.217 335.915 197.281 335.726C197.432 335.28 200.129 335.28 200.28 335.726C200.344 335.915 200.635 336.068 200.927 336.068C201.226 336.068 201.506 336.292 201.567 336.581C201.626 336.863 201.841 337.094 202.044 337.094C202.248 337.094 202.466 337.248 202.53 337.436C202.594 337.624 202.936 337.778 203.291 337.778C203.685 337.778 203.936 337.945 203.936 338.21C203.936 338.448 204.286 338.948 204.713 339.321C205.952 340.403 206.185 340.658 206.185 340.936C206.185 341.079 206.396 341.197 206.654 341.197C206.945 341.197 207.123 341.391 207.123 341.709C207.123 341.991 207.211 342.222 207.318 342.222C207.426 342.222 207.741 342.607 208.019 343.077C208.298 343.547 208.631 343.932 208.761 343.932C208.891 343.932 208.997 344.085 208.997 344.274C208.997 344.462 209.124 344.615 209.278 344.615C209.433 344.615 209.56 344.846 209.56 345.128C209.56 345.41 209.686 345.641 209.841 345.641C209.995 345.641 210.122 345.795 210.122 345.983C210.122 346.171 210.291 346.325 210.497 346.325C210.705 346.325 210.872 346.553 210.872 346.838C210.872 347.12 210.998 347.35 211.153 347.35C211.308 347.35 211.434 347.504 211.434 347.692C211.434 347.88 211.645 348.034 211.903 348.034C212.194 348.034 212.372 348.228 212.372 348.547C212.372 348.903 212.568 349.06 213.016 349.06C213.371 349.06 213.714 349.214 213.778 349.402C213.841 349.59 214.395 349.744 215.007 349.744C215.872 349.744 216.121 349.858 216.121 350.256C216.121 350.663 216.392 350.769 217.439 350.769C218.438 350.769 218.783 350.645 218.865 350.256C218.944 349.881 219.268 349.744 220.078 349.744C220.689 349.744 221.182 349.591 221.182 349.402C221.182 349.214 221.467 349.06 221.815 349.06C222.164 349.06 222.554 348.829 222.682 348.547C222.81 348.265 223.074 348.034 223.267 348.034C223.461 348.034 223.619 347.88 223.619 347.692C223.619 347.504 223.82 347.35 224.065 347.35C224.31 347.35 224.616 347.12 224.744 346.838C224.873 346.556 225.094 346.325 225.236 346.325C225.378 346.325 225.494 346.171 225.494 345.983C225.494 345.795 225.699 345.641 225.949 345.641C226.2 345.641 226.531 345.41 226.686 345.128C226.84 344.846 227.057 344.615 227.168 344.615C227.278 344.615 227.369 344.462 227.369 344.274C227.369 344.085 227.526 343.932 227.717 343.932C227.909 343.932 228.221 343.556 228.409 343.097C228.598 342.638 228.948 342.174 229.186 342.065C229.424 341.956 229.618 341.716 229.618 341.532C229.618 341.348 229.709 341.197 229.819 341.197C230.078 341.197 230.555 340.327 230.555 339.854C230.555 339.243 232.93 339.382 233.06 340C233.148 340.416 233.592 340.513 235.423 340.513C236.802 340.513 237.679 340.645 237.679 340.855C237.679 341.07 238.953 341.197 241.127 341.197C244.019 341.197 244.593 341.279 244.683 341.709C244.771 342.126 245.213 342.222 247.035 342.222C248.329 342.222 249.328 342.367 249.395 342.564C249.462 342.761 250.453 342.906 251.73 342.906C253.529 342.906 253.969 343.003 254.056 343.419C254.13 343.77 254.431 343.932 255.013 343.932H255.863V341.026C255.863 339.316 255.786 338.12 255.675 338.12C255.567 338.12 255.488 337.033 255.488 335.544C255.488 333.572 255.422 332.924 255.207 332.774C255.005 332.632 254.926 332.058 254.926 330.753C254.926 329.75 254.841 328.834 254.738 328.718C254.635 328.602 254.551 327.746 254.551 326.817C254.551 325.544 254.481 325.128 254.27 325.128C254.051 325.128 253.988 324.673 253.988 323.077C253.988 321.938 253.905 321.026 253.801 321.026C253.698 321.026 253.613 320.251 253.613 319.305C253.613 318.092 253.53 317.527 253.332 317.389C253.115 317.237 253.051 316.579 253.051 314.514C253.051 313.04 252.967 311.74 252.864 311.624C252.76 311.508 252.676 310.652 252.676 309.723C252.676 308.45 252.607 308.034 252.395 308.034C252.037 308.034 251.998 304.801 252.348 304.09C252.904 302.959 253.051 302.572 253.051 302.237C253.051 302.041 253.141 301.88 253.252 301.88C253.362 301.88 253.57 301.688 253.714 301.453C254.292 300.508 254.541 300.171 254.661 300.171C254.731 300.171 255.066 299.632 255.406 298.974C255.747 298.316 256.16 297.778 256.325 297.778C256.49 297.778 256.673 297.547 256.732 297.265C256.792 296.983 256.922 296.752 257.021 296.752C257.264 296.752 257.738 295.865 257.738 295.409C257.738 295.208 257.864 295.043 258.019 295.043C258.173 295.043 258.3 294.889 258.3 294.701C258.3 294.513 258.457 294.359 258.649 294.359C258.84 294.359 259.156 293.974 259.349 293.504C259.543 293.034 259.787 292.65 259.893 292.65C259.998 292.65 260.312 292.265 260.59 291.795C260.868 291.325 261.184 290.94 261.291 290.94C261.399 290.94 261.487 290.709 261.487 290.427C261.487 290.145 261.613 289.915 261.768 289.915C261.923 289.915 262.049 289.761 262.049 289.573C262.049 289.385 262.156 289.231 262.285 289.231C262.415 289.231 262.749 288.846 263.027 288.376C263.305 287.906 263.612 287.521 263.708 287.521C263.805 287.521 263.932 287.291 263.992 287.009C264.051 286.726 264.229 286.496 264.386 286.496C264.544 286.496 264.674 286.342 264.674 286.154C264.674 285.966 264.8 285.812 264.955 285.812C265.11 285.812 265.236 285.581 265.236 285.299C265.236 285.017 265.327 284.786 265.437 284.786C265.547 284.786 265.758 284.567 265.906 284.298C266.053 284.029 266.173 283.644 266.173 283.444C266.173 283.242 266.353 283.077 266.573 283.077C266.793 283.077 267.24 282.577 267.567 281.966C268.154 280.867 268.628 280.216 269.173 279.761C269.845 279.198 270.32 276.239 269.738 276.239C269.636 276.239 269.129 275.47 268.61 274.53C268.092 273.59 267.579 272.821 267.47 272.821C267.212 272.821 266.736 271.949 266.736 271.478C266.736 271.276 266.655 271.111 266.556 271.111C266.458 271.111 265.65 269.803 264.762 268.205C263.874 266.607 263.038 265.299 262.905 265.299C262.773 265.299 262.506 264.915 262.312 264.444C262.119 263.974 261.854 263.59 261.724 263.59C261.593 263.59 261.487 263.425 261.487 263.223C261.487 263.022 261.366 262.638 261.219 262.368C261.072 262.1 260.861 261.88 260.751 261.88C260.64 261.88 260.55 261.715 260.55 261.514C260.55 261.068 260.079 260.171 259.845 260.171C259.752 260.171 259.563 259.786 259.425 259.316C259.287 258.846 259.077 258.462 258.957 258.462C258.838 258.462 258.542 258.077 258.3 257.607C258.058 257.137 257.748 256.752 257.611 256.752C257.475 256.752 257.363 256.54 257.363 256.28C257.363 256.021 257.025 255.175 256.613 254.4C255.888 253.038 255.522 250.598 256.042 250.598C256.14 250.598 256.36 250.06 256.532 249.402C256.703 248.744 256.96 248.205 257.103 248.205C257.246 248.205 257.363 248.04 257.363 247.838C257.363 247.638 257.483 247.253 257.63 246.984C257.778 246.715 257.989 246.496 258.099 246.496C258.21 246.496 258.3 246.331 258.3 246.129C258.3 245.928 258.42 245.544 258.568 245.274C258.715 245.006 258.926 244.786 259.036 244.786C259.147 244.786 259.237 244.621 259.237 244.42C259.237 243.947 259.714 243.077 259.974 243.077C260.084 243.077 260.175 242.912 260.175 242.71C260.175 242.238 260.652 241.368 260.911 241.368C261.021 241.368 261.112 241.203 261.112 241.001C261.112 240.528 261.589 239.658 261.848 239.658C261.959 239.658 262.049 239.493 262.049 239.291C262.049 238.819 262.526 237.949 262.785 237.949C262.896 237.949 262.987 237.784 262.987 237.582C262.987 237.109 263.464 236.239 263.723 236.239C263.833 236.239 263.924 236.074 263.924 235.873C263.924 235.4 264.401 234.53 264.66 234.53C264.771 234.53 264.861 234.365 264.861 234.163C264.861 233.691 265.338 232.821 265.597 232.821C265.708 232.821 265.798 232.656 265.798 232.454C265.798 231.981 266.276 231.111 266.535 231.111C266.645 231.111 266.736 230.946 266.736 230.744C266.736 230.272 267.213 229.402 267.472 229.402C267.583 229.402 267.673 229.237 267.673 229.035C267.673 228.562 268.15 227.692 268.409 227.692C268.52 227.692 268.61 227.532 268.61 227.336C268.61 227.139 268.821 226.564 269.079 226.057C269.62 224.992 269.657 224.67 269.267 224.397C269.112 224.289 268.985 223.986 268.985 223.724C268.985 223.444 268.792 223.248 268.517 223.248C268.259 223.248 268.048 223.094 268.048 222.906C268.048 222.718 267.846 222.564 267.6 222.564C267.353 222.564 267.102 222.333 267.043 222.051C266.98 221.751 266.699 221.538 266.367 221.538C266.054 221.538 265.798 221.385 265.798 221.197C265.798 221.009 265.597 220.855 265.35 220.855C265.103 220.855 264.853 220.624 264.793 220.342C264.734 220.06 264.472 219.829 264.211 219.829C263.95 219.829 263.736 219.675 263.736 219.487C263.736 219.299 263.578 219.145 263.384 219.145C263.191 219.145 262.928 218.915 262.799 218.632C262.671 218.35 262.328 218.12 262.038 218.12C261.747 218.12 261.457 217.966 261.393 217.778C261.329 217.59 261.123 217.436 260.933 217.436C260.744 217.436 260.541 217.205 260.482 216.923C260.419 216.623 260.138 216.41 259.806 216.41C259.493 216.41 259.237 216.256 259.237 216.068C259.237 215.88 259.079 215.727 258.885 215.727C258.692 215.727 258.428 215.496 258.3 215.214C258.172 214.932 257.866 214.701 257.621 214.701C257.376 214.701 257.175 214.547 257.175 214.359C257.175 214.171 256.88 214.017 256.519 214.017C256.061 214.017 255.863 213.862 255.863 213.504C255.863 213.222 255.699 212.991 255.499 212.991C255.299 212.991 255.083 212.838 255.019 212.65C254.956 212.462 254.707 212.308 254.466 212.308C254.225 212.308 253.98 212.077 253.92 211.795C253.858 211.495 253.576 211.282 253.245 211.282C252.932 211.282 252.676 211.128 252.676 210.94C252.676 210.752 252.474 210.598 252.228 210.598C251.981 210.598 251.73 210.368 251.671 210.085C251.612 209.803 251.397 209.573 251.193 209.573C250.99 209.573 250.771 209.419 250.708 209.231C250.644 209.043 250.386 208.889 250.134 208.889C249.882 208.889 249.677 208.738 249.677 208.554C249.677 208.369 249.466 208.121 249.208 208.003C248.95 207.885 248.739 207.652 248.739 207.485C248.739 207.316 248.453 207.179 248.103 207.179C247.711 207.179 247.426 206.983 247.359 206.667C247.3 206.385 247.116 206.154 246.951 206.154C246.621 206.154 246.115 205.366 246.115 204.853C246.115 204.674 245.988 204.337 245.834 204.103C245.623 203.784 245.552 202.927 245.552 200.684C245.552 198.44 245.623 197.584 245.834 197.265C246.049 196.939 246.115 196.047 246.115 193.462C246.115 191.439 246.19 190.085 246.302 190.085C246.415 190.085 246.49 188.732 246.49 186.709C246.49 184.124 246.556 183.232 246.771 182.906C246.984 182.583 247.052 181.707 247.052 179.274C247.052 177.365 247.128 176.068 247.24 176.068C247.353 176.068 247.427 174.587 247.427 172.308V168.547H246.49C245.974 168.547 245.552 168.393 245.552 168.205C245.552 167.985 243.423 167.863 239.54 167.863C234.446 167.863 233.485 167.785 233.247 167.35C233.02 166.936 232.373 166.838 229.886 166.838C227.958 166.838 226.806 166.709 226.806 166.496C226.806 166.308 226.595 166.154 226.338 166.154C226.046 166.154 225.869 165.96 225.869 165.641C225.869 165.359 225.794 165.128 225.703 165.128C225.612 165.128 225.488 164.859 225.427 164.53C225.367 164.201 225.244 163.701 225.154 163.419C224.739 162.121 224.557 161.336 224.557 160.849C224.557 160.558 224.43 160.232 224.275 160.124C224.121 160.015 223.994 159.559 223.994 159.109C223.994 158.659 223.91 158.291 223.807 158.291C223.704 158.291 223.619 157.763 223.619 157.119C223.619 156.474 223.493 155.715 223.338 155.433C223.183 155.151 223.057 154.611 223.057 154.232C223.057 153.854 222.973 153.45 222.869 153.333C222.766 153.217 222.682 152.819 222.682 152.448C222.682 152.077 222.555 151.685 222.401 151.577C222.242 151.466 222.12 150.956 222.12 150.411C222.12 149.878 222.035 149.347 221.932 149.231C221.829 149.115 221.745 148.585 221.745 148.056C221.745 147.526 221.618 146.901 221.464 146.667C221.309 146.432 221.182 145.962 221.182 145.62C221.182 145.278 221.098 144.903 220.995 144.786C220.892 144.67 220.807 144.216 220.807 143.777C220.807 143.338 220.681 142.891 220.526 142.782C220.372 142.674 220.245 142.205 220.245 141.74C220.245 141.275 220.161 140.8 220.058 140.684C219.954 140.568 219.87 140.097 219.87 139.638C219.87 139.124 219.762 138.803 219.589 138.803C219.386 138.803 219.308 138.424 219.308 137.436C219.308 136.684 219.223 136.068 219.12 136.068C219.017 136.068 218.933 135.756 218.933 135.374C218.933 134.992 218.806 134.591 218.652 134.483C218.478 134.362 218.37 133.842 218.37 133.126C218.37 132.488 218.286 131.966 218.183 131.966C218.08 131.966 217.995 131.581 217.995 131.111C217.995 130.342 217.92 130.256 217.246 130.256C216.833 130.256 216.496 130.41 216.496 130.598C216.496 130.786 216.324 130.94 216.115 130.94C215.906 130.94 215.685 131.171 215.626 131.453C215.567 131.735 215.368 131.966 215.183 131.966C214.999 131.966 214.649 132.348 214.406 132.815C214.164 133.281 213.817 133.666 213.637 133.669C213.457 133.673 213.309 133.829 213.309 134.017C213.309 134.205 213.098 134.359 212.84 134.359C212.549 134.359 212.372 134.553 212.372 134.872C212.372 135.154 212.218 135.385 212.031 135.385C211.843 135.385 211.358 135.923 210.953 136.581C210.548 137.239 210.068 137.778 209.888 137.778C209.707 137.778 209.56 138.009 209.56 138.291C209.56 138.609 209.382 138.803 209.091 138.803C208.833 138.803 208.622 138.939 208.622 139.105C208.622 139.272 208.475 139.497 208.294 139.609C207.976 139.803 207.312 140.509 207.123 140.855C206.944 141.181 206.275 141.88 205.576 142.473C205.189 142.799 204.873 143.262 204.873 143.499C204.873 143.737 204.693 143.932 204.473 143.932C204.253 143.932 203.877 144.316 203.638 144.786C203.399 145.256 203.031 145.641 202.82 145.641C202.609 145.641 202.436 145.795 202.436 145.983C202.436 146.171 202.33 146.325 202.2 146.325C202.07 146.325 201.736 146.709 201.458 147.179C201.18 147.65 200.82 148.034 200.657 148.034C200.495 148.034 200.313 148.265 200.254 148.547C200.195 148.829 199.983 149.06 199.783 149.06C199.584 149.06 199.193 149.444 198.915 149.915C198.637 150.385 198.297 150.769 198.16 150.769C197.86 150.769 197.375 151.6 197.375 152.112C197.375 152.314 197.164 152.479 196.906 152.479C196.648 152.479 196.437 152.632 196.437 152.821C196.437 153.009 196.132 153.162 195.759 153.162C195.099 153.162 193.625 151.105 193.625 150.184C193.625 150.005 193.414 149.653 193.157 149.402C192.899 149.15 192.687 148.701 192.685 148.403C192.683 148.107 192.472 147.501 192.216 147.058C191.96 146.615 191.751 146.115 191.751 145.947C191.751 145.779 191.624 145.641 191.469 145.641C191.315 145.641 191.188 145.41 191.188 145.128C191.188 144.846 191.104 144.615 191.001 144.615C190.898 144.615 190.813 144.421 190.813 144.185C190.813 143.948 190.602 143.339 190.345 142.832C190.087 142.325 189.876 141.834 189.876 141.742C189.876 141.65 189.665 141.159 189.407 140.651C189.15 140.144 188.939 139.521 188.939 139.267C188.939 139.012 188.812 138.803 188.658 138.803C188.503 138.803 188.376 138.638 188.376 138.437C188.376 137.964 187.899 137.094 187.64 137.094C187.529 137.094 187.439 136.766 187.439 136.365C187.439 135.964 187.144 135.128 186.783 134.508C186.422 133.887 186.127 133.215 186.127 133.015C186.127 132.814 186 132.65 185.846 132.65C185.691 132.65 185.564 132.353 185.564 131.991C185.564 131.628 185.353 131.029 185.096 130.659C184.838 130.29 184.627 129.883 184.627 129.756C184.627 129.391 184.113 128.547 183.891 128.547C183.78 128.547 183.69 128.219 183.69 127.818C183.69 127.417 183.394 126.581 183.034 125.961C182.673 125.34 182.378 124.668 182.378 124.468C182.378 124.267 182.251 124.103 182.096 124.103C181.937 124.103 181.815 123.796 181.815 123.394C181.815 122.638 181.409 121.709 181.079 121.709C180.968 121.709 180.878 121.544 180.878 121.343C180.878 120.613 180.328 120 179.673 120C179.305 120 179.003 120.115 179.003 120.256ZM179.94 143.419C179.94 143.701 180.028 143.932 180.134 143.932C180.24 143.932 180.383 144.197 180.451 144.522C180.52 144.847 180.77 145.442 181.008 145.844C181.246 146.245 181.44 146.749 181.44 146.962C181.44 147.176 181.503 147.35 181.581 147.351C181.658 147.351 181.996 148.088 182.333 148.988C182.669 149.888 183.112 150.844 183.317 151.114C183.522 151.384 183.69 151.794 183.69 152.026C183.69 152.258 183.901 152.832 184.158 153.303C184.416 153.773 184.627 154.318 184.627 154.515C184.627 154.711 184.754 154.872 184.908 154.872C185.063 154.872 185.189 155.037 185.189 155.238C185.189 155.439 185.295 155.819 185.424 156.081C185.942 157.135 186.127 157.589 186.127 157.809C186.127 157.935 186.422 158.547 186.783 159.168C187.144 159.788 187.439 160.45 187.439 160.637C187.439 161.128 188.661 163.419 188.923 163.419C189.045 163.419 189.339 163.803 189.578 164.274C189.817 164.744 190.193 165.128 190.413 165.128C190.644 165.128 190.813 165.345 190.813 165.641C190.813 165.96 190.99 166.154 191.282 166.154C191.54 166.154 191.751 166.308 191.751 166.496C191.751 166.684 192.037 166.838 192.387 166.838C192.779 166.838 193.064 167.034 193.131 167.35C193.219 167.769 193.681 167.863 195.658 167.863C197.581 167.863 198.126 167.758 198.312 167.35C198.44 167.068 198.788 166.838 199.085 166.838C199.381 166.838 199.624 166.684 199.624 166.496C199.624 166.308 199.835 166.154 200.093 166.154C200.384 166.154 200.561 165.96 200.561 165.641C200.561 165.322 200.739 165.128 201.03 165.128C201.288 165.128 201.499 164.974 201.499 164.786C201.499 164.598 201.625 164.444 201.78 164.444C201.935 164.444 202.061 164.214 202.061 163.932C202.061 163.596 202.246 163.419 202.596 163.419C202.907 163.419 203.343 163.061 203.637 162.564C203.915 162.094 204.265 161.709 204.414 161.709C204.563 161.709 204.686 161.556 204.686 161.368C204.686 161.179 204.812 161.026 204.967 161.026C205.121 161.026 205.248 160.795 205.248 160.513C205.248 160.194 205.425 160 205.717 160C205.974 160 206.185 159.863 206.185 159.695C206.185 159.527 206.396 159.294 206.654 159.176C206.912 159.058 207.123 158.81 207.123 158.626C207.123 158.442 207.211 158.291 207.318 158.291C207.502 158.291 207.714 158.023 208.334 157.009C208.478 156.774 208.749 156.576 208.937 156.57C209.353 156.557 209.935 155.794 209.935 155.262C209.935 155.047 210.145 154.872 210.403 154.872C210.661 154.872 210.872 154.718 210.872 154.53C210.872 154.342 210.998 154.188 211.153 154.188C211.308 154.188 211.434 153.957 211.434 153.675C211.434 153.356 211.611 153.162 211.903 153.162C212.161 153.162 212.372 153.009 212.372 152.821C212.372 152.632 212.543 152.479 212.753 152.479C212.962 152.479 213.181 152.249 213.24 151.968C213.379 151.309 213.684 151.648 213.684 152.462C213.684 152.807 213.81 153.178 213.965 153.286C214.128 153.4 214.246 153.911 214.246 154.499C214.246 155.058 214.331 155.61 214.434 155.726C214.537 155.843 214.621 156.241 214.621 156.612C214.621 156.983 214.748 157.375 214.902 157.483C215.057 157.591 215.184 158.039 215.184 158.478C215.184 158.917 215.268 159.371 215.371 159.487C215.474 159.603 215.558 160.209 215.558 160.833C215.558 161.457 215.685 162.159 215.84 162.393C215.994 162.627 216.121 163.098 216.121 163.44C216.121 163.782 216.205 164.157 216.308 164.274C216.411 164.39 216.496 164.788 216.496 165.159C216.496 165.53 216.622 165.922 216.777 166.03C216.932 166.138 217.058 166.595 217.058 167.045C217.058 167.495 217.142 167.863 217.246 167.863C217.349 167.863 217.433 168.391 217.433 169.035C217.433 169.68 217.56 170.438 217.714 170.721C217.869 171.003 217.995 171.398 217.995 171.599C217.995 171.801 218.08 171.966 218.183 171.966C218.286 171.966 218.37 172.279 218.37 172.661C218.37 173.042 218.497 173.444 218.652 173.551C218.806 173.66 218.933 173.897 218.933 174.078C218.933 174.521 219.419 175.385 219.669 175.385C219.78 175.385 219.87 175.55 219.87 175.751C219.87 176.207 220.343 177.094 220.587 177.094C220.686 177.094 220.816 177.325 220.875 177.607C220.934 177.889 221.155 178.12 221.364 178.12C221.573 178.12 221.745 178.274 221.745 178.462C221.745 178.65 221.835 178.803 221.946 178.803C222.056 178.803 222.273 179.034 222.428 179.316C222.582 179.598 222.914 179.829 223.164 179.829C223.415 179.829 223.619 179.983 223.619 180.171C223.619 180.359 223.904 180.513 224.252 180.513C224.601 180.513 224.991 180.744 225.119 181.026C225.309 181.443 225.921 181.538 228.411 181.538C230.249 181.538 231.517 181.675 231.587 181.88C231.657 182.088 233.057 182.222 235.16 182.222H238.616V184.75C238.616 186.681 238.55 187.324 238.335 187.474C238.111 187.631 238.054 188.368 238.054 191.1C238.054 193.159 237.979 194.53 237.867 194.53C237.748 194.53 237.679 196.98 237.679 201.197C237.679 205.413 237.748 207.863 237.867 207.863C237.97 207.863 238.054 208.407 238.054 209.071C238.054 209.828 238.158 210.351 238.335 210.474C238.49 210.583 238.619 210.924 238.622 211.233C238.63 211.942 239.058 212.991 239.34 212.991C239.458 212.991 239.554 213.309 239.554 213.697C239.554 214.622 241.471 218.12 241.979 218.12C242.191 218.12 242.366 218.312 242.367 218.547C242.368 218.946 243.177 219.829 243.541 219.829C243.631 219.829 243.831 220.06 243.986 220.342C244.14 220.624 244.425 220.855 244.618 220.855C244.81 220.855 245.02 221.009 245.084 221.197C245.148 221.385 245.369 221.538 245.577 221.538C245.784 221.538 246.081 221.769 246.235 222.051C246.39 222.333 246.721 222.564 246.972 222.564C247.222 222.564 247.427 222.718 247.427 222.906C247.427 223.094 247.638 223.248 247.896 223.248C248.187 223.248 248.364 223.442 248.364 223.761C248.364 224.079 248.542 224.274 248.833 224.274C249.091 224.274 249.302 224.427 249.302 224.615C249.302 224.803 249.504 224.957 249.75 224.957C249.997 224.957 250.248 225.188 250.307 225.47C250.375 225.792 250.661 225.983 251.077 225.983C251.441 225.983 251.739 226.137 251.739 226.325C251.739 226.513 251.95 226.667 252.207 226.667C252.499 226.667 252.676 226.861 252.676 227.179C252.676 227.498 252.853 227.692 253.145 227.692C253.403 227.692 253.613 227.846 253.613 228.034C253.613 228.222 253.815 228.376 254.062 228.376C254.309 228.376 254.559 228.607 254.619 228.889C254.678 229.171 254.898 229.402 255.107 229.402C255.673 229.402 255.706 229.326 252.676 234.838C251.13 237.651 249.864 240.118 249.864 240.319C249.864 240.52 249.781 240.684 249.68 240.684C249.579 240.684 249.443 241.068 249.379 241.538C249.314 242.009 249.186 242.393 249.094 242.393C249.002 242.393 248.927 242.682 248.927 243.035C248.927 243.388 248.8 243.868 248.646 244.103C248.491 244.337 248.364 244.971 248.364 245.512C248.364 246.053 248.28 246.496 248.177 246.496C248.06 246.496 247.99 248.547 247.99 251.966C247.99 255.385 248.06 257.436 248.177 257.436C248.28 257.436 248.364 257.809 248.364 258.266C248.364 258.723 248.491 259.327 248.646 259.609C248.8 259.891 248.927 260.351 248.927 260.632C248.927 261.261 249.531 263.243 249.724 263.245C249.801 263.247 249.864 263.409 249.864 263.606C249.864 264.171 252.423 268.718 252.74 268.718C252.897 268.718 253.078 269.018 253.142 269.385C253.206 269.75 253.422 270.145 253.623 270.262C253.824 270.379 253.988 270.617 253.988 270.792C253.988 270.968 254.115 271.111 254.27 271.111C254.424 271.111 254.551 271.276 254.551 271.478C254.551 271.679 254.671 272.063 254.818 272.332C254.966 272.601 255.177 272.821 255.287 272.821C255.398 272.821 255.488 272.985 255.488 273.187C255.488 273.556 255.944 274.53 256.117 274.53C256.167 274.53 256.468 275.003 256.786 275.582C257.103 276.161 257.363 276.71 257.363 276.803C257.363 277.117 256.828 277.949 256.626 277.949C256.516 277.949 256.425 278.179 256.425 278.462C256.425 278.744 256.299 278.974 256.144 278.974C255.989 278.974 255.863 279.128 255.863 279.316C255.863 279.504 255.757 279.658 255.627 279.658C255.497 279.658 255.163 280.043 254.885 280.513C254.607 280.983 254.292 281.368 254.184 281.368C254.076 281.368 253.988 281.598 253.988 281.88C253.988 282.165 253.821 282.393 253.613 282.393C253.407 282.393 253.238 282.547 253.238 282.735C253.238 282.923 253.112 283.077 252.957 283.077C252.803 283.077 252.676 283.308 252.676 283.59C252.676 283.872 252.55 284.103 252.395 284.103C252.24 284.103 252.114 284.246 252.114 284.421C252.114 284.597 251.949 284.835 251.748 284.952C251.548 285.068 251.331 285.463 251.267 285.829C251.203 286.196 250.986 286.496 250.783 286.496C250.58 286.496 250.366 286.726 250.307 287.009C250.248 287.291 250.103 287.524 249.985 287.528C249.867 287.532 249.434 288.07 249.022 288.725C248.611 289.379 248.211 289.915 248.132 289.915C248.054 289.915 247.99 290.145 247.99 290.427C247.99 290.709 247.899 290.94 247.788 290.94C247.678 290.94 247.467 291.16 247.32 291.428C247.173 291.697 247.052 292.082 247.052 292.283C247.052 292.485 246.962 292.65 246.851 292.65C246.741 292.65 246.53 292.869 246.382 293.138C246.235 293.407 246.115 293.791 246.115 293.992C246.115 294.194 246.009 294.36 245.881 294.362C245.593 294.365 245.178 295.921 245.178 296.991C245.178 297.462 245.065 297.778 244.896 297.778C244.7 297.778 244.615 298.138 244.615 298.974C244.615 299.632 244.531 300.171 244.428 300.171C244.311 300.171 244.24 302.222 244.24 305.641C244.24 309.06 244.311 311.111 244.428 311.111C244.531 311.111 244.615 311.885 244.615 312.832C244.615 314.044 244.698 314.609 244.896 314.748C245.113 314.9 245.178 315.558 245.178 317.623C245.178 319.097 245.262 320.397 245.365 320.513C245.468 320.629 245.552 321.412 245.552 322.253C245.552 323.297 245.642 323.844 245.834 323.979C246.017 324.107 246.115 324.639 246.115 325.507V326.838H242.821C240.143 326.838 239.474 326.742 239.246 326.325C239.072 326.008 238.612 325.812 238.04 325.812C237.18 325.812 237.117 325.753 237.117 324.957C237.117 324.426 237.223 324.103 237.398 324.103C237.573 324.103 237.679 323.779 237.679 323.248C237.679 322.778 237.763 322.393 237.867 322.393C237.97 322.393 238.054 321.871 238.054 321.233C238.054 320.517 238.162 319.997 238.335 319.876C238.528 319.742 238.616 319.192 238.616 318.131C238.616 317.279 238.701 316.581 238.804 316.581C238.922 316.581 238.991 314.245 238.991 310.256C238.991 306.268 238.922 303.932 238.804 303.932C238.7 303.932 238.616 303.016 238.616 301.869C238.616 300.352 238.542 299.756 238.335 299.611C238.152 299.483 238.054 298.95 238.054 298.083C238.054 297.351 237.97 296.752 237.867 296.752C237.763 296.752 237.679 296.214 237.679 295.556C237.679 294.72 237.594 294.359 237.398 294.359C237.19 294.359 237.117 293.962 237.117 292.841C237.117 292.006 237.032 291.227 236.929 291.111C236.826 290.995 236.742 290.597 236.742 290.226C236.742 289.855 236.615 289.462 236.461 289.355C236.306 289.246 236.179 288.79 236.179 288.339C236.179 287.89 236.095 287.521 235.992 287.521C235.889 287.521 235.804 287.209 235.804 286.827C235.804 286.445 235.678 286.044 235.523 285.936C235.369 285.827 235.242 285.471 235.242 285.144C235.242 284.354 234.698 282.393 234.479 282.393C234.383 282.393 234.305 282.108 234.305 281.759C234.305 281.411 234.094 280.71 233.836 280.203C233.578 279.696 233.367 279.051 233.367 278.772C233.367 278.294 233.246 277.946 232.664 276.765C232.536 276.503 232.43 276.179 232.43 276.046C232.43 275.914 232.219 275.449 231.961 275.013C231.704 274.577 231.49 274.021 231.487 273.777C231.479 273.165 231.029 272.137 230.769 272.137C230.652 272.137 230.555 271.972 230.555 271.77C230.555 271.297 230.078 270.427 229.819 270.427C229.709 270.427 229.618 270.121 229.618 269.748C229.618 268.956 225.259 260.855 224.833 260.855C224.681 260.855 224.557 260.701 224.557 260.513C224.557 260.325 224.43 260.171 224.275 260.171C224.121 260.171 223.994 260.006 223.994 259.804C223.994 259.332 223.517 258.462 223.258 258.462C223.147 258.462 223.057 258.318 223.057 258.143C223.057 257.968 222.871 257.716 222.644 257.585C222.161 257.305 221.745 256.615 221.745 256.093C221.745 255.891 221.618 255.726 221.464 255.726C221.309 255.726 221.182 255.573 221.182 255.385C221.182 255.197 221.011 255.043 220.801 255.043C220.592 255.043 220.372 254.812 220.313 254.53C220.253 254.248 220.023 254.017 219.801 254.017C219.579 254.017 219.238 253.632 219.045 253.162C218.851 252.692 218.536 252.308 218.344 252.308C218.152 252.308 217.995 252.154 217.995 251.966C217.995 251.778 217.905 251.624 217.794 251.624C217.684 251.624 217.467 251.393 217.313 251.111C217.158 250.829 216.827 250.598 216.576 250.598C216.326 250.598 216.121 250.444 216.121 250.256C216.121 250.068 215.919 249.915 215.672 249.915C215.425 249.915 215.175 249.684 215.116 249.402C215.056 249.12 214.841 248.889 214.638 248.889C214.435 248.889 214.216 248.735 214.152 248.547C214.089 248.359 213.841 248.205 213.602 248.205C213.363 248.205 213.062 247.974 212.934 247.692C212.785 247.365 212.37 247.179 211.786 247.179C211.283 247.179 210.872 247.026 210.872 246.838C210.872 246.65 210.489 246.496 210.022 246.496C209.44 246.496 209.139 246.334 209.065 245.983C208.983 245.591 208.631 245.47 207.582 245.47C206.826 245.47 206.155 245.316 206.092 245.128C206.025 244.93 205 244.786 203.655 244.786C202.31 244.786 201.285 244.93 201.218 245.128C201.154 245.316 200.48 245.47 199.72 245.47C198.742 245.47 198.257 245.62 198.057 245.983C197.89 246.289 197.431 246.496 196.919 246.496C196.448 246.496 196.062 246.65 196.062 246.838C196.062 247.026 195.731 247.179 195.326 247.179C194.921 247.179 194.463 247.41 194.308 247.692C194.153 247.974 193.81 248.205 193.545 248.205C193.28 248.205 193.063 248.359 193.063 248.547C193.063 248.735 192.862 248.889 192.617 248.889C192.372 248.889 192.067 249.12 191.938 249.402C191.81 249.684 191.588 249.915 191.446 249.915C191.304 249.915 191.188 250.068 191.188 250.256C191.188 250.444 190.932 250.598 190.62 250.598C190.288 250.598 190.007 250.811 189.944 251.111C189.884 251.393 189.719 251.624 189.575 251.624C189.431 251.624 189.314 251.778 189.314 251.966C189.314 252.154 189.142 252.308 188.933 252.308C188.724 252.308 188.503 252.538 188.444 252.821C188.385 253.103 188.177 253.333 187.981 253.333C187.786 253.333 187.626 253.487 187.626 253.675C187.626 253.863 187.5 254.017 187.345 254.017C187.191 254.017 187.064 254.248 187.064 254.53C187.064 254.812 186.902 255.043 186.705 255.043C186.508 255.043 186.042 255.581 185.671 256.239C185.299 256.897 184.912 257.436 184.811 257.436C184.71 257.436 184.627 257.667 184.627 257.949C184.627 258.231 184.508 258.462 184.364 258.462C184.218 258.462 183.662 259.231 183.127 260.171C182.593 261.111 182.079 261.88 181.985 261.88C181.892 261.88 181.815 262.041 181.815 262.237C181.815 262.433 181.604 263.009 181.346 263.515C181.089 264.023 180.878 264.632 180.878 264.868C180.878 265.105 180.758 265.299 180.612 265.299C180.466 265.299 180.173 265.722 179.962 266.239L179.577 267.179L179.572 266.239C179.568 265.637 179.465 265.299 179.284 265.299C179.13 265.299 179.003 265.134 179.003 264.932C179.003 264.46 178.526 263.59 178.267 263.59C178.156 263.59 178.066 263.425 178.066 263.223C178.066 262.75 177.589 261.88 177.33 261.88C177.219 261.88 177.129 261.715 177.129 261.514C177.129 261.041 176.651 260.171 176.392 260.171C176.282 260.171 176.191 260.006 176.191 259.804C176.191 259.332 175.714 258.462 175.455 258.462C175.344 258.462 175.254 258.318 175.254 258.143C175.254 257.968 175.068 257.716 174.841 257.585C174.358 257.305 173.942 256.615 173.942 256.093C173.942 255.891 173.835 255.726 173.705 255.726C173.575 255.726 173.31 255.342 173.116 254.872C172.923 254.402 172.636 254.017 172.48 254.017C172.324 254.017 171.92 253.632 171.582 253.162C171.244 252.692 170.877 252.308 170.767 252.308C170.657 252.308 170.567 252.154 170.567 251.966C170.567 251.778 170.356 251.624 170.099 251.624C169.807 251.624 169.63 251.43 169.63 251.111C169.63 250.792 169.453 250.598 169.161 250.598C168.904 250.598 168.693 250.444 168.693 250.256C168.693 250.068 168.491 249.915 168.244 249.915C167.997 249.915 167.747 249.684 167.687 249.402C167.628 249.12 167.413 248.889 167.21 248.889C167.006 248.889 166.788 248.735 166.724 248.547C166.661 248.359 166.413 248.205 166.174 248.205C165.935 248.205 165.634 247.974 165.506 247.692C165.363 247.379 164.953 247.179 164.452 247.179C164.001 247.179 163.631 247.026 163.631 246.838C163.631 246.65 163.218 246.496 162.714 246.496C162.072 246.496 161.765 246.342 161.689 245.983C161.605 245.583 161.23 245.47 159.982 245.47C159.04 245.47 158.382 245.329 158.382 245.128C158.382 244.92 157.511 244.786 156.144 244.786C154.854 244.786 153.856 244.931 153.789 245.128C153.726 245.316 153.001 245.47 152.179 245.47C151.023 245.47 150.66 245.586 150.577 245.983C150.501 246.342 150.194 246.496 149.551 246.496C149.047 246.496 148.634 246.65 148.634 246.838C148.634 247.026 148.252 247.179 147.785 247.179C147.202 247.179 146.901 247.341 146.828 247.692C146.768 247.974 146.522 248.205 146.282 248.205C146.041 248.205 145.792 248.359 145.729 248.547C145.665 248.735 145.412 248.889 145.166 248.889C144.921 248.889 144.671 249.033 144.611 249.209C144.452 249.679 143.381 250.598 142.992 250.598C142.808 250.598 142.609 250.743 142.549 250.92C142.489 251.097 142.062 251.585 141.6 252.006C141.138 252.426 140.761 252.897 140.761 253.052C140.761 253.207 140.634 253.333 140.48 253.333C140.325 253.333 140.198 253.487 140.198 253.675C140.198 253.863 140.027 254.017 139.817 254.017C139.608 254.017 139.388 254.248 139.329 254.53C139.269 254.812 139.104 255.043 138.96 255.043C138.816 255.043 138.699 255.197 138.699 255.385C138.699 255.573 138.542 255.726 138.35 255.726C138.158 255.726 137.843 256.111 137.649 256.581C137.456 257.051 137.191 257.436 137.061 257.436C136.93 257.436 136.824 257.667 136.824 257.949C136.824 258.231 136.661 258.462 136.463 258.462C136.264 258.462 135.935 258.846 135.733 259.316C135.53 259.786 135.307 260.171 135.237 260.171C135.037 260.171 134.574 261.109 134.574 261.514C134.574 261.715 134.468 261.88 134.338 261.88C134.208 261.88 133.943 262.265 133.749 262.735C133.556 263.205 133.28 263.59 133.136 263.59C132.993 263.59 132.819 263.859 132.75 264.188C132.682 264.517 132.22 265.507 131.725 266.388C131.23 267.269 130.825 268.136 130.825 268.314C130.825 268.492 130.65 268.721 130.436 268.824C130.223 268.926 130.002 269.328 129.946 269.718C129.89 270.109 129.758 270.427 129.652 270.427C129.383 270.427 128.964 271.509 128.957 272.222C128.953 272.551 128.838 272.821 128.701 272.821C128.564 272.821 128.332 273.244 128.186 273.761C127.915 274.717 127.729 275.203 127.31 276.056C127.181 276.318 127.076 276.697 127.076 276.898C127.076 277.1 126.995 277.265 126.897 277.265C126.799 277.265 126.57 277.842 126.388 278.547C126.066 279.795 125.92 280.198 125.436 281.184C125.307 281.446 125.201 281.979 125.201 282.368C125.201 282.758 125.096 283.078 124.967 283.079C124.684 283.083 124.264 284.632 124.264 285.673C124.264 286.085 124.137 286.511 123.983 286.62C123.828 286.727 123.702 287.129 123.702 287.51C123.702 287.892 123.617 288.205 123.514 288.205C123.411 288.205 123.327 288.573 123.327 289.023C123.327 289.473 123.2 289.93 123.045 290.038C122.891 290.146 122.764 290.615 122.764 291.08C122.764 291.545 122.68 292.021 122.577 292.137C122.474 292.253 122.389 292.784 122.389 293.317C122.389 293.862 122.267 294.372 122.108 294.483C121.916 294.617 121.827 295.165 121.827 296.209C121.827 297.05 121.743 297.832 121.64 297.949C121.536 298.065 121.452 298.777 121.452 299.532C121.452 300.295 121.327 301.131 121.171 301.416C120.972 301.779 120.89 302.665 120.89 304.449C120.89 305.834 120.805 307.063 120.702 307.179C120.599 307.297 120.515 308.835 120.515 310.619C120.515 312.543 120.591 313.846 120.702 313.846C120.81 313.846 120.89 314.875 120.89 316.25C120.89 318.072 120.958 318.702 121.171 318.85C121.343 318.971 121.452 319.49 121.452 320.187C121.452 320.815 121.536 321.422 121.64 321.538C121.743 321.655 121.827 322.195 121.827 322.738C121.827 323.282 121.94 323.85 122.078 324C122.816 324.803 122.567 325.812 121.631 325.812C121.029 325.812 120.669 325.98 120.568 326.309C120.445 326.712 119.741 326.826 116.903 326.908C113.357 327.009 112.968 326.878 113.672 325.812C113.872 325.509 113.954 324.71 113.954 323.056C113.954 321.773 114.038 320.629 114.141 320.513C114.244 320.397 114.328 319.481 114.328 318.478C114.328 317.173 114.408 316.598 114.61 316.457C114.808 316.319 114.891 315.754 114.891 314.541C114.891 313.595 114.975 312.821 115.078 312.821C115.181 312.821 115.266 311.963 115.266 310.915C115.266 309.679 115.364 308.832 115.547 308.498C115.941 307.78 115.941 303.16 115.547 302.442C115.379 302.136 115.266 301.3 115.266 300.367C115.266 299.507 115.181 298.803 115.078 298.803C114.975 298.803 114.891 298.414 114.891 297.938C114.891 297.462 114.764 296.984 114.61 296.876C114.455 296.768 114.328 296.404 114.328 296.068C114.328 295.732 114.119 295.094 113.863 294.651C113.607 294.209 113.396 293.666 113.394 293.445C113.391 293.018 112.325 290.94 112.109 290.94C112.039 290.94 111.754 290.556 111.476 290.085C111.198 289.615 110.882 289.231 110.775 289.231C110.667 289.231 110.579 289.056 110.579 288.841C110.579 288.315 110 287.545 109.595 287.532C109.415 287.526 109.267 287.291 109.267 287.009C109.267 286.726 109.184 286.496 109.083 286.496C108.982 286.496 108.595 285.957 108.223 285.299C107.852 284.641 107.461 284.103 107.356 284.103C107.167 284.103 106.526 283.144 105.926 281.966C105.759 281.637 105.527 281.368 105.411 281.368C105.295 281.368 104.896 280.829 104.525 280.171C104.153 279.513 103.73 278.974 103.585 278.974C103.44 278.974 103.162 278.59 102.969 278.12C102.775 277.65 102.51 277.265 102.38 277.265C102.25 277.265 102.143 277.034 102.143 276.752C102.143 276.47 102.234 276.239 102.344 276.239C102.455 276.239 102.665 276.02 102.813 275.751C102.96 275.482 103.081 275.097 103.081 274.897C103.081 274.695 103.171 274.53 103.282 274.53C103.541 274.53 104.018 273.66 104.018 273.187C104.018 272.985 104.19 272.821 104.401 272.821C104.631 272.821 105.425 271.658 106.388 269.915C107.27 268.316 108.068 267.009 108.161 267.009C108.254 267.009 108.33 266.844 108.33 266.642C108.33 266.169 108.807 265.299 109.066 265.299C109.177 265.299 109.267 265.162 109.267 264.993C109.267 264.825 109.476 264.325 109.732 263.882C109.988 263.439 110.199 262.808 110.201 262.479C110.203 262.15 110.289 261.88 110.392 261.88C110.495 261.88 110.579 261.668 110.579 261.409C110.579 261.15 110.706 260.747 110.86 260.513C111.015 260.279 111.142 259.721 111.142 259.274C111.142 258.827 111.226 258.462 111.329 258.462C111.432 258.462 111.517 257.709 111.517 256.789C111.517 255.617 111.601 255.057 111.798 254.919C112.192 254.644 112.197 249.645 111.804 248.697C111.652 248.332 111.526 247.457 111.523 246.752C111.519 246.047 111.432 245.47 111.329 245.47C111.226 245.47 111.142 245.085 111.142 244.615C111.142 244.084 111.035 243.761 110.86 243.761C110.686 243.761 110.579 243.438 110.579 242.906C110.579 242.436 110.495 242.051 110.392 242.051C110.289 242.051 110.204 241.755 110.204 241.392C110.204 241.03 109.993 240.431 109.736 240.061C109.478 239.691 109.267 239.219 109.267 239.01C109.267 238.803 109.177 238.632 109.066 238.632C108.78 238.632 108.401 237.873 108.248 236.992C108.173 236.558 107.964 236.239 107.755 236.239C107.555 236.239 107.392 236.009 107.392 235.726C107.392 235.444 107.302 235.214 107.191 235.214C106.932 235.214 106.455 234.344 106.455 233.871C106.455 233.669 106.365 233.504 106.254 233.504C105.995 233.504 105.518 232.634 105.518 232.162C105.518 231.96 105.427 231.795 105.317 231.795C105.057 231.795 104.58 230.925 104.58 230.452C104.58 230.25 104.454 230.085 104.299 230.085C104.145 230.085 104.018 229.932 104.018 229.744C104.018 229.556 104.229 229.402 104.487 229.402C104.778 229.402 104.955 229.208 104.955 228.889C104.955 228.57 105.132 228.376 105.424 228.376C105.682 228.376 105.893 228.222 105.893 228.034C105.893 227.846 106.097 227.692 106.348 227.692C106.598 227.692 106.93 227.462 107.084 227.179C107.239 226.897 107.54 226.667 107.754 226.667C107.967 226.667 108.142 226.513 108.142 226.325C108.142 226.137 108.385 225.983 108.682 225.983C108.978 225.983 109.326 225.752 109.454 225.47C109.583 225.188 109.841 224.957 110.029 224.957C110.216 224.957 110.422 224.803 110.485 224.615C110.549 224.427 110.768 224.274 110.971 224.274C111.174 224.274 111.39 224.043 111.449 223.761C111.508 223.479 111.758 223.248 112.005 223.248C112.252 223.248 112.454 223.094 112.454 222.906C112.454 222.718 112.665 222.564 112.922 222.564C113.214 222.564 113.391 222.37 113.391 222.051C113.391 221.695 113.588 221.538 114.036 221.538C114.391 221.538 114.733 221.385 114.797 221.197C114.861 221.009 115.079 220.855 115.283 220.855C115.486 220.855 115.701 220.624 115.76 220.342C115.82 220.06 116.07 219.829 116.317 219.829C116.563 219.829 116.765 219.675 116.765 219.487C116.765 219.299 116.922 219.145 117.114 219.145C117.306 219.145 117.621 218.761 117.815 218.291C118.008 217.821 118.264 217.436 118.383 217.436C118.502 217.436 118.649 217.205 118.708 216.923C118.767 216.641 118.939 216.41 119.09 216.41C119.241 216.41 119.412 216.141 119.47 215.812C119.528 215.483 119.871 214.609 120.232 213.869C120.594 213.13 120.89 212.245 120.89 211.903C120.89 211.562 121.016 211.282 121.171 211.282C121.346 211.282 121.452 210.959 121.452 210.427C121.452 209.957 121.536 209.573 121.64 209.573C121.76 209.573 121.827 206.268 121.827 200.342C121.827 194.839 121.756 191.111 121.652 191.111C121.555 191.111 121.45 189.496 121.417 187.521L121.358 183.93L123.444 183.931C125.07 183.932 125.582 184.045 125.764 184.444C125.946 184.845 126.463 184.957 128.13 184.957C129.427 184.957 130.263 185.091 130.263 185.299C130.263 185.509 131.196 185.641 132.689 185.641C134.104 185.641 135.163 185.498 135.231 185.299C135.294 185.111 135.639 184.957 135.997 184.957C136.403 184.957 136.689 184.764 136.756 184.444C136.816 184.162 137.066 183.932 137.313 183.932C137.559 183.932 137.761 183.778 137.761 183.59C137.761 183.402 137.933 183.248 138.142 183.248C138.351 183.248 138.572 183.017 138.631 182.735C138.69 182.453 138.883 182.222 139.06 182.222C139.676 182.222 142.073 177.345 142.073 176.092C142.073 175.703 142.157 175.385 142.26 175.385C142.364 175.385 142.448 175.22 142.448 175.018C142.448 174.817 142.574 174.421 142.729 174.139C142.884 173.857 143.01 173.262 143.01 172.816C143.01 172.371 143.095 171.911 143.198 171.795C143.301 171.679 143.385 171.15 143.385 170.62C143.385 170.09 143.512 169.465 143.666 169.231C143.838 168.971 143.948 168.222 143.948 167.309C143.948 166.485 144.032 165.812 144.135 165.812C144.238 165.812 144.323 165.339 144.323 164.762C144.323 164.185 144.449 163.481 144.604 163.199C144.758 162.917 144.885 162.244 144.885 161.705C144.885 161.166 144.969 160.629 145.072 160.513C145.175 160.397 145.26 159.915 145.26 159.443C145.26 158.97 145.386 158.353 145.541 158.071C145.715 157.754 145.822 156.915 145.822 155.873C145.822 154.946 145.907 154.188 146.01 154.188C146.113 154.188 146.197 153.726 146.197 153.162C146.197 152.024 146.48 151.85 147.052 152.638C147.252 152.915 147.554 153.145 147.724 153.151C147.893 153.157 148.08 153.393 148.14 153.675C148.199 153.957 148.419 154.188 148.628 154.188C148.838 154.188 149.009 154.342 149.009 154.53C149.009 154.718 149.136 154.872 149.29 154.872C149.445 154.872 149.571 155.015 149.571 155.189C149.571 155.598 150.651 156.581 151.1 156.581C151.291 156.581 151.446 156.756 151.446 156.971C151.446 157.432 152.007 158.264 152.327 158.279C152.45 158.285 152.779 158.675 153.057 159.145C153.335 159.615 153.71 160 153.891 160C154.071 160 154.267 160.231 154.326 160.513C154.385 160.795 154.585 161.026 154.77 161.026C154.955 161.026 155.265 161.41 155.458 161.88C155.652 162.35 155.967 162.735 156.159 162.735C156.351 162.735 156.508 162.889 156.508 163.077C156.508 163.265 156.672 163.419 156.873 163.419C157.074 163.419 157.466 163.803 157.744 164.274C158.022 164.744 158.397 165.128 158.577 165.128C158.757 165.128 158.953 165.359 159.013 165.641C159.072 165.923 159.292 166.154 159.501 166.154C159.71 166.154 159.882 166.308 159.882 166.496C159.882 166.684 160.167 166.838 160.515 166.838C160.863 166.838 161.253 167.068 161.382 167.35C161.715 168.084 166.018 168.093 166.548 167.362C166.748 167.085 167.102 166.855 167.334 166.849C167.566 166.843 167.755 166.684 167.755 166.496C167.755 166.308 167.96 166.154 168.21 166.154C168.461 166.154 168.793 165.923 168.947 165.641C169.102 165.359 169.319 165.128 169.429 165.128C169.54 165.128 169.63 164.974 169.63 164.786C169.63 164.598 169.757 164.444 169.911 164.444C170.066 164.444 170.192 164.214 170.192 163.932C170.192 163.641 170.361 163.419 170.581 163.419C170.934 163.419 171.505 162.703 171.505 162.261C171.505 162.161 171.842 161.451 172.255 160.684C172.667 159.916 173.004 159.165 173.004 159.013C173.004 158.862 173.3 158.183 173.66 157.505C174.021 156.827 174.317 156.056 174.317 155.791C174.317 155.526 174.527 155.021 174.785 154.668C175.043 154.315 175.254 153.832 175.254 153.594C175.254 153.356 175.365 153.162 175.5 153.162C175.635 153.162 175.862 152.624 176.004 151.966C176.145 151.308 176.372 150.769 176.508 150.769C176.643 150.769 176.754 150.575 176.754 150.338C176.754 150.1 176.965 149.617 177.222 149.264C177.48 148.911 177.691 148.336 177.691 147.986C177.691 147.637 177.775 147.35 177.878 147.35C177.982 147.35 178.066 147.12 178.066 146.838C178.066 146.556 178.156 146.325 178.267 146.325C178.517 146.325 179.003 145.462 179.003 145.018C179.003 144.837 179.13 144.6 179.284 144.491C179.439 144.384 179.566 143.982 179.566 143.601C179.566 143.219 179.65 142.906 179.753 142.906C179.856 142.906 179.94 143.137 179.94 143.419ZM159.882 260.513C159.882 260.701 160.183 260.855 160.552 260.855C160.92 260.855 161.347 261.085 161.502 261.368C161.657 261.65 162.068 261.88 162.415 261.88C162.762 261.88 163.099 262.034 163.163 262.222C163.226 262.41 163.433 262.564 163.622 262.564C163.811 262.564 164.015 262.795 164.074 263.077C164.133 263.359 164.348 263.59 164.552 263.59C164.755 263.59 164.973 263.744 165.037 263.932C165.101 264.12 165.308 264.273 165.497 264.273C165.686 264.273 165.889 264.504 165.949 264.786C166.008 265.068 166.228 265.299 166.437 265.299C166.647 265.299 166.818 265.453 166.818 265.641C166.818 265.829 167.029 265.983 167.287 265.983C167.578 265.983 167.755 266.177 167.755 266.496C167.755 266.778 167.831 267.009 167.923 267.009C168.016 267.009 168.29 267.391 168.532 267.857C168.775 268.324 169.091 268.709 169.233 268.712C169.376 268.715 169.771 269.256 170.111 269.915C170.451 270.573 170.819 271.111 170.93 271.111C171.04 271.111 171.13 271.276 171.13 271.478C171.13 271.95 171.607 272.821 171.866 272.821C171.977 272.821 172.067 273.017 172.067 273.258C172.067 273.498 172.244 273.921 172.46 274.198C172.676 274.474 172.928 275.047 173.018 275.47C173.114 275.915 173.342 276.239 173.562 276.239C173.842 276.239 173.942 276.464 173.942 277.094C173.942 277.564 174.026 277.949 174.129 277.949C174.232 277.949 174.317 278.101 174.317 278.286C174.317 278.868 175.336 281.341 175.582 281.355C175.711 281.362 175.816 281.754 175.816 282.226C175.816 283.177 176.157 284.466 176.519 284.889C176.648 285.039 176.754 285.453 176.754 285.809C176.754 286.164 176.838 286.55 176.941 286.667C177.044 286.783 177.129 287.177 177.129 287.542C177.129 287.907 177.255 288.205 177.41 288.205C177.606 288.205 177.691 288.566 177.691 289.402C177.691 290.06 177.775 290.598 177.878 290.598C177.982 290.598 178.066 290.813 178.066 291.074C178.066 291.337 178.192 291.639 178.347 291.748C178.502 291.856 178.628 292.248 178.628 292.619C178.628 292.99 178.713 293.388 178.816 293.504C178.919 293.621 179.003 294.015 179.003 294.379C179.003 294.912 179.135 295.043 179.673 295.043C180.417 295.043 180.878 294.413 180.878 293.394C180.878 293.025 181.004 292.634 181.159 292.526C181.314 292.418 181.44 292.016 181.44 291.635C181.44 291.253 181.525 290.94 181.628 290.94C181.731 290.94 181.815 290.572 181.815 290.122C181.815 289.672 181.942 289.215 182.096 289.107C182.251 288.999 182.378 288.597 182.378 288.216C182.378 287.834 182.462 287.521 182.565 287.521C182.668 287.521 182.752 287.232 182.752 286.879C182.752 286.526 182.879 286.046 183.034 285.812C183.188 285.578 183.315 285.097 183.315 284.744C183.315 284.391 183.399 284.103 183.502 284.103C183.605 284.103 183.69 283.803 183.69 283.437C183.69 283.07 183.901 282.356 184.158 281.848C184.416 281.341 184.627 280.64 184.627 280.292C184.627 279.944 184.723 279.658 184.841 279.658C185.097 279.658 185.55 278.632 185.558 278.032C185.562 277.797 185.986 276.85 186.502 275.93C187.037 274.973 187.439 273.949 187.439 273.538C187.439 273.059 187.559 272.821 187.798 272.821C187.995 272.821 188.67 271.897 189.299 270.769C189.927 269.641 190.525 268.718 190.627 268.718C190.729 268.718 190.813 268.571 190.813 268.392C190.813 268.213 191.109 267.811 191.469 267.498C191.83 267.186 192.126 266.717 192.126 266.456C192.126 266.196 192.252 265.983 192.407 265.983C192.561 265.983 192.688 265.829 192.688 265.641C192.688 265.453 192.889 265.299 193.134 265.299C193.379 265.299 193.684 265.068 193.813 264.786C193.941 264.504 194.162 264.273 194.304 264.273C194.446 264.273 194.563 264.12 194.563 263.932C194.563 263.744 194.734 263.59 194.944 263.59C195.153 263.59 195.373 263.359 195.432 263.077C195.491 262.795 195.742 262.564 195.989 262.564C196.235 262.564 196.437 262.41 196.437 262.222C196.437 262.034 196.82 261.88 197.287 261.88C197.869 261.88 198.17 261.719 198.244 261.368C198.317 261.02 198.616 260.855 199.176 260.855C199.628 260.855 199.999 260.701 199.999 260.513C199.999 260.297 201.343 260.171 203.655 260.171C205.966 260.171 207.31 260.297 207.31 260.513C207.31 260.701 207.681 260.855 208.134 260.855C208.693 260.855 208.992 261.02 209.065 261.368C209.139 261.719 209.44 261.88 210.022 261.88C210.489 261.88 210.872 262.034 210.872 262.222C210.872 262.41 211.043 262.564 211.253 262.564C211.462 262.564 211.682 262.795 211.741 263.077C211.801 263.359 212.051 263.59 212.298 263.59C212.544 263.59 212.746 263.744 212.746 263.932C212.746 264.12 212.837 264.273 212.948 264.273C213.058 264.273 213.275 264.504 213.429 264.786C213.584 265.068 213.915 265.299 214.166 265.299C214.416 265.299 214.621 265.453 214.621 265.641C214.621 265.829 214.748 265.983 214.902 265.983C215.057 265.983 215.184 266.214 215.184 266.496C215.184 266.778 215.31 267.009 215.465 267.009C215.619 267.009 215.746 267.162 215.746 267.35C215.746 267.538 215.906 267.692 216.101 267.692C216.296 267.692 216.504 267.923 216.564 268.205C216.623 268.487 216.812 268.718 216.983 268.718C217.155 268.718 217.574 269.256 217.914 269.915C218.254 270.573 218.623 271.111 218.733 271.111C218.843 271.111 218.933 271.276 218.933 271.478C218.933 271.911 219.401 272.821 219.625 272.821C219.711 272.821 219.939 273.205 220.133 273.675C220.327 274.145 220.602 274.53 220.746 274.53C220.889 274.53 221.062 274.799 221.13 275.128C221.198 275.457 221.659 276.474 222.155 277.387C222.651 278.301 223.057 279.185 223.057 279.353C223.057 279.521 223.183 279.658 223.338 279.658C223.493 279.658 223.619 279.852 223.619 280.09C223.619 280.327 223.83 280.81 224.088 281.163C224.346 281.516 224.557 282.035 224.557 282.316C224.557 282.597 224.768 283.184 225.025 283.62C225.283 284.056 225.494 284.594 225.494 284.816C225.494 285.038 225.705 285.577 225.963 286.013C226.22 286.449 226.431 286.966 226.431 287.163C226.431 287.36 226.516 287.521 226.619 287.521C226.722 287.521 226.806 287.834 226.806 288.216C226.806 288.597 226.933 288.999 227.087 289.107C227.242 289.215 227.369 289.606 227.369 289.975C227.369 290.345 227.474 290.862 227.603 291.124C228.142 292.22 228.306 292.636 228.306 292.909C228.306 293.565 228.791 295.038 229.009 295.04C229.157 295.042 229.243 295.545 229.243 296.41C229.243 297.162 229.328 297.778 229.431 297.778C229.534 297.778 229.618 298.151 229.618 298.608C229.618 299.065 229.745 299.669 229.899 299.951C230.054 300.233 230.181 300.85 230.181 301.323C230.181 301.796 230.265 302.277 230.368 302.393C230.471 302.509 230.555 303.211 230.555 303.952C230.555 304.921 230.634 305.299 230.837 305.299C231.254 305.299 231.254 313.678 230.837 313.97C230.66 314.093 230.555 314.616 230.555 315.374C230.555 316.038 230.471 316.581 230.368 316.581C230.265 316.581 230.181 316.812 230.181 317.094C230.181 317.376 230.098 317.607 229.997 317.607C229.896 317.607 229.76 317.991 229.695 318.462C229.63 318.932 229.502 319.316 229.411 319.316C229.318 319.316 229.243 319.635 229.243 320.025C229.243 320.414 229.138 320.947 229.009 321.209C228.453 322.34 228.306 322.727 228.306 323.062C228.306 323.258 228.215 323.419 228.105 323.419C227.846 323.419 227.369 324.289 227.369 324.762C227.369 324.963 227.286 325.128 227.185 325.128C227.084 325.128 226.948 325.513 226.883 325.983C226.808 326.532 226.634 326.838 226.398 326.838C226 326.838 225.494 327.589 225.494 328.18C225.494 328.382 225.404 328.547 225.293 328.547C225.034 328.547 224.557 329.417 224.557 329.89C224.557 330.091 224.346 330.256 224.088 330.256C223.83 330.256 223.619 330.41 223.619 330.598C223.619 330.786 223.502 330.94 223.358 330.94C223.214 330.94 223.049 331.171 222.989 331.453C222.93 331.735 222.71 331.966 222.501 331.966C222.291 331.966 222.12 332.12 222.12 332.308C222.12 332.496 221.948 332.65 221.739 332.65C221.53 332.65 221.309 332.88 221.25 333.162C221.191 333.444 220.987 333.675 220.798 333.675C220.609 333.675 220.402 333.829 220.339 334.017C220.275 334.205 220.023 334.359 219.779 334.359C219.535 334.359 219.208 334.59 219.053 334.872C218.857 335.229 218.377 335.385 217.466 335.385C216.479 335.385 216.135 335.26 216.053 334.872C215.994 334.59 215.774 334.359 215.565 334.359C215.355 334.359 215.184 334.205 215.184 334.017C215.184 333.829 215.057 333.675 214.902 333.675C214.748 333.675 214.621 333.444 214.621 333.162C214.621 332.88 214.558 332.65 214.481 332.65C214.403 332.649 214.095 332.264 213.795 331.795C213.496 331.325 213.137 330.94 212.999 330.94C212.86 330.94 212.746 330.786 212.746 330.598C212.746 330.41 212.536 330.256 212.278 330.256C212.02 330.256 211.809 330.091 211.809 329.89C211.809 329.311 210.951 328.064 210.263 327.643C210.082 327.532 209.935 327.306 209.935 327.139C209.935 326.974 209.733 326.838 209.486 326.838C209.239 326.838 208.989 326.607 208.929 326.325C208.87 326.043 208.65 325.812 208.441 325.812C208.231 325.812 208.06 325.676 208.06 325.51C208.06 325.344 207.912 325.115 207.732 325.001C207.551 324.887 207.151 324.496 206.841 324.132C206.532 323.767 206.002 323.457 205.664 323.444C205.3 323.429 205.005 323.209 204.941 322.906C204.881 322.624 204.636 322.393 204.395 322.393C204.155 322.393 203.906 322.239 203.842 322.051C203.778 321.863 203.404 321.709 203.01 321.709C202.603 321.709 202.194 321.489 202.061 321.197C201.871 320.778 201.249 320.684 198.677 320.684C196.127 320.684 195.473 320.781 195.245 321.197C195.091 321.479 194.71 321.709 194.4 321.709C194.089 321.709 193.783 321.863 193.719 322.051C193.655 322.239 193.437 322.393 193.233 322.393C193.03 322.393 192.815 322.624 192.756 322.906C192.696 323.188 192.445 323.419 192.197 323.419C191.693 323.419 190.986 324.049 190.757 324.701C190.675 324.936 190.443 325.128 190.242 325.128C190.041 325.128 189.876 325.282 189.876 325.47C189.876 325.658 189.76 325.812 189.618 325.812C189.476 325.812 189.255 326.043 189.126 326.325C188.998 326.607 188.723 326.838 188.516 326.838C188.308 326.838 187.943 327.222 187.704 327.692C187.465 328.162 187.193 328.547 187.101 328.547C187.007 328.547 186.704 328.932 186.426 329.402C186.147 329.872 185.84 330.256 185.742 330.256C185.645 330.256 185.564 330.41 185.564 330.598C185.564 330.786 185.407 330.94 185.216 330.94C185.024 330.94 184.709 331.325 184.515 331.795C184.146 332.691 182.378 333.103 182.378 332.291C182.378 332.053 181.18 331.952 178.782 331.989C175.666 332.037 175.157 331.971 174.965 331.492C174.843 331.189 174.595 330.94 174.412 330.94C174.229 330.94 173.801 330.402 173.461 329.744C173.121 329.085 172.707 328.547 172.542 328.547C172.378 328.547 172.194 328.316 172.135 328.034C172.075 327.752 171.91 327.521 171.766 327.521C171.622 327.521 171.505 327.368 171.505 327.179C171.505 326.991 171.294 326.838 171.036 326.838C170.744 326.838 170.567 326.644 170.567 326.325C170.567 326.037 170.4 325.812 170.184 325.812C169.974 325.812 169.616 325.497 169.391 325.113C168.8 324.109 167.969 323.419 167.352 323.419C167.002 323.419 166.818 323.242 166.818 322.906C166.818 322.587 166.641 322.393 166.349 322.393C166.092 322.393 165.881 322.239 165.881 322.051C165.881 321.863 165.594 321.709 165.245 321.709C164.852 321.709 164.567 321.513 164.501 321.197C164.411 320.768 163.857 320.684 161.13 320.684C158.457 320.684 157.824 320.777 157.632 321.197C157.499 321.489 157.091 321.709 156.683 321.709C156.29 321.709 155.915 321.863 155.852 322.051C155.788 322.239 155.527 322.393 155.272 322.393C155.017 322.393 154.76 322.624 154.701 322.906C154.634 323.222 154.349 323.419 153.957 323.419C153.607 323.419 153.321 323.573 153.321 323.761C153.321 323.949 153.149 324.103 152.94 324.103C152.731 324.103 152.51 324.333 152.451 324.615C152.392 324.897 152.225 325.128 152.08 325.128C151.738 325.128 151.019 325.864 150.827 326.41C150.745 326.645 150.483 326.838 150.246 326.838C150.008 326.838 149.586 327.222 149.308 327.692C149.03 328.162 148.68 328.547 148.531 328.547C148.382 328.547 148.259 328.701 148.259 328.889C148.259 329.077 148.133 329.231 147.978 329.231C147.823 329.231 147.697 329.462 147.697 329.744C147.697 330.026 147.57 330.256 147.416 330.256C147.261 330.256 147.134 330.41 147.134 330.598C147.134 330.786 146.977 330.94 146.786 330.94C146.594 330.94 146.279 331.325 146.085 331.795C145.892 332.265 145.671 332.65 145.596 332.65C145.413 332.65 143.684 334.801 143.604 335.128C143.473 335.667 140.573 335.421 140.573 334.872C140.573 334.514 140.376 334.359 139.917 334.359C139.556 334.359 139.261 334.205 139.261 334.017C139.261 333.829 139.097 333.675 138.896 333.675C138.695 333.675 138.303 333.291 138.025 332.821C137.747 332.35 137.372 331.966 137.191 331.966C137.011 331.966 136.816 331.735 136.756 331.453C136.697 331.171 136.477 330.94 136.268 330.94C136.058 330.94 135.887 330.786 135.887 330.598C135.887 330.41 135.799 330.256 135.691 330.256C135.508 330.256 135.295 329.989 134.675 328.974C134.531 328.739 134.323 328.547 134.213 328.547C134.103 328.547 134.012 328.382 134.012 328.18C134.012 327.708 133.535 326.838 133.276 326.838C133.165 326.838 133.075 326.673 133.075 326.471C133.075 325.998 132.598 325.128 132.339 325.128C132.228 325.128 132.137 324.817 132.137 324.436C132.137 324.012 131.956 323.618 131.669 323.419C131.382 323.22 131.2 322.826 131.2 322.402C131.2 322.021 131.116 321.709 131.013 321.709C130.91 321.709 130.825 321.479 130.825 321.197C130.825 320.915 130.747 320.684 130.651 320.684C130.458 320.684 129.888 318.762 129.888 318.109C129.888 317.879 129.761 317.499 129.607 317.265C129.452 317.031 129.326 316.55 129.326 316.197C129.326 315.844 129.241 315.556 129.138 315.556C129.035 315.556 128.951 314.858 128.951 314.006C128.951 312.944 128.862 312.395 128.669 312.261C128.27 311.98 128.27 308.191 128.669 307.91C128.877 307.766 128.951 307.169 128.951 305.652C128.951 304.505 129.034 303.59 129.138 303.59C129.241 303.59 129.326 303.068 129.326 302.43C129.326 301.714 129.433 301.194 129.607 301.073C129.799 300.938 129.888 300.389 129.888 299.327C129.888 298.475 129.972 297.778 130.075 297.778C130.178 297.778 130.263 297.409 130.263 296.96C130.263 296.509 130.389 296.053 130.544 295.944C130.699 295.837 130.825 295.435 130.825 295.054C130.825 294.672 130.91 294.359 131.013 294.359C131.116 294.359 131.2 294.118 131.2 293.823C131.2 293.529 131.411 292.784 131.669 292.168C131.927 291.55 132.137 290.71 132.137 290.299C132.137 289.888 132.264 289.462 132.419 289.355C132.573 289.246 132.7 288.944 132.7 288.681C132.7 288.42 132.784 288.205 132.887 288.205C132.99 288.205 133.075 288.044 133.075 287.849C133.075 287.514 133.221 287.126 133.778 285.996C133.907 285.733 134.012 285.2 134.012 284.811C134.012 284.409 134.134 284.103 134.293 284.103C134.448 284.103 134.574 283.938 134.574 283.738C134.574 283.537 134.87 282.865 135.231 282.244C135.591 281.624 135.887 280.788 135.887 280.387C135.887 279.986 135.977 279.658 136.088 279.658C136.347 279.658 136.824 278.788 136.824 278.315C136.824 278.114 136.914 277.949 137.025 277.949C137.284 277.949 137.761 277.079 137.761 276.606C137.761 276.404 137.852 276.239 137.962 276.239C138.222 276.239 138.699 275.369 138.699 274.897C138.699 274.695 138.789 274.53 138.9 274.53C139.159 274.53 139.636 273.66 139.636 273.187C139.636 272.985 139.726 272.821 139.837 272.821C139.947 272.821 140.158 272.601 140.306 272.332C140.453 272.063 140.573 271.679 140.573 271.478C140.573 271.276 140.735 271.111 140.932 271.111C141.13 271.111 141.58 270.598 141.935 269.971C142.289 269.344 142.697 268.73 142.841 268.606C143.631 267.928 144.323 266.875 144.323 266.35C144.323 266.148 144.533 265.983 144.791 265.983C145.049 265.983 145.26 265.829 145.26 265.641C145.26 265.453 145.471 265.299 145.729 265.299C146.02 265.299 146.197 265.105 146.197 264.786C146.197 264.468 146.374 264.273 146.666 264.273C146.924 264.273 147.134 264.12 147.134 263.932C147.134 263.744 147.306 263.59 147.515 263.59C147.725 263.59 147.945 263.359 148.004 263.077C148.063 262.795 148.314 262.564 148.561 262.564C148.807 262.564 149.009 262.41 149.009 262.222C149.009 262.034 149.336 261.88 149.736 261.88C150.154 261.88 150.562 261.662 150.696 261.368C150.825 261.085 151.209 260.855 151.552 260.855C151.894 260.855 152.226 260.701 152.29 260.513C152.36 260.303 153.854 260.171 156.144 260.171C158.511 260.171 159.882 260.297 159.882 260.513ZM153.764 275.043C153.69 275.391 153.391 275.556 152.832 275.556C152.379 275.556 152.009 275.709 152.009 275.897C152.009 276.085 151.766 276.239 151.469 276.239C151.172 276.239 150.825 276.47 150.696 276.752C150.568 277.034 150.385 277.265 150.29 277.265C150.128 277.265 149.907 277.55 149.297 278.547C149.153 278.782 148.945 278.974 148.835 278.974C148.725 278.974 148.634 279.128 148.634 279.316C148.634 279.504 148.508 279.658 148.353 279.658C148.198 279.658 148.072 279.774 148.072 279.915C148.072 280.056 147.777 280.776 147.416 281.515C147.055 282.255 146.76 283.067 146.76 283.321C146.76 283.574 146.633 283.871 146.478 283.979C146.324 284.087 146.197 284.544 146.197 284.994C146.197 285.444 146.113 285.812 146.01 285.812C145.895 285.812 145.822 287.464 145.822 290.085V294.359H149.759H153.696V292.686C153.696 291.188 153.744 290.992 154.164 290.8C154.422 290.682 154.633 290.434 154.633 290.25C154.633 290.066 154.844 289.915 155.102 289.915C155.359 289.915 155.57 289.761 155.57 289.573C155.57 289.374 156.191 289.231 157.059 289.231C157.878 289.231 158.6 289.385 158.663 289.573C158.727 289.761 159.028 289.915 159.331 289.915C159.634 289.915 159.882 290.079 159.882 290.281C159.882 290.754 160.359 291.624 160.618 291.624C160.729 291.624 160.819 292.239 160.819 292.991V294.359H164.756H168.693V291.795C168.693 290.314 168.614 289.231 168.505 289.231C168.402 289.231 168.318 288.462 168.318 287.521C168.318 286.23 168.249 285.812 168.037 285.812C167.845 285.812 167.754 285.456 167.749 284.701C167.743 283.528 167.39 282.393 167.032 282.393C166.914 282.393 166.818 282.228 166.818 282.027C166.818 281.554 166.341 280.684 166.082 280.684C165.971 280.684 165.881 280.519 165.881 280.317C165.881 279.844 165.404 278.974 165.145 278.974C165.034 278.974 164.943 278.744 164.943 278.462C164.943 278.173 164.776 277.949 164.561 277.949C164.35 277.949 163.95 277.564 163.672 277.094C163.387 276.611 162.941 276.239 162.649 276.239C162.364 276.239 162.132 276.085 162.132 275.897C162.132 275.709 161.71 275.556 161.194 275.556C160.486 275.556 160.257 275.43 160.257 275.043C160.257 274.607 159.777 274.53 157.064 274.53C154.399 274.53 153.854 274.615 153.764 275.043ZM199.249 275.043C199.249 275.413 199.041 275.556 198.499 275.556C198.087 275.556 197.749 275.709 197.749 275.897C197.749 276.085 197.463 276.239 197.113 276.239C196.721 276.239 196.436 276.436 196.369 276.752C196.31 277.034 196.09 277.265 195.881 277.265C195.671 277.265 195.5 277.419 195.5 277.607C195.5 277.795 195.416 277.949 195.315 277.949C195.052 277.949 193.641 279.771 193.632 280.121C193.629 280.283 193.414 280.717 193.157 281.086C192.899 281.456 192.688 281.984 192.688 282.258C192.688 282.532 192.561 282.845 192.407 282.953C192.252 283.062 192.126 283.364 192.126 283.626C192.126 283.888 192.041 284.103 191.938 284.103C191.835 284.103 191.751 284.625 191.751 285.262C191.751 285.979 191.643 286.498 191.469 286.62C191.243 286.778 191.188 287.551 191.188 290.594V294.373L195.172 294.28L199.155 294.188L199.212 292.599C199.252 291.472 199.361 290.954 199.587 290.815C199.762 290.707 200.032 290.484 200.186 290.32C201.059 289.393 201.434 289.231 202.704 289.231C203.472 289.231 204.153 289.385 204.217 289.573C204.281 289.761 204.493 289.915 204.69 289.915C205.321 289.915 206.185 291.79 206.185 293.157V294.373L210.169 294.28L214.152 294.188L214.207 291.362C214.251 289.069 214.207 288.498 213.972 288.334C213.767 288.19 213.684 287.65 213.684 286.459C213.684 285.539 213.599 284.786 213.496 284.786C213.393 284.786 213.309 284.5 213.309 284.15C213.309 283.801 213.098 283.226 212.84 282.873C212.582 282.52 212.372 282.129 212.372 282.005C212.372 281.609 211.358 279.658 211.153 279.658C211.044 279.658 210.831 279.341 210.679 278.953C210.527 278.565 210.108 277.997 209.747 277.69C209.386 277.382 209.023 276.93 208.941 276.685C208.859 276.44 208.542 276.239 208.238 276.239C207.934 276.239 207.685 276.085 207.685 275.897C207.685 275.709 207.358 275.556 206.958 275.556C206.541 275.556 206.132 275.338 205.998 275.043C205.807 274.623 205.174 274.53 202.507 274.53C199.736 274.53 199.249 274.607 199.249 275.043ZM157.07 340.855C157.07 341.043 156.654 341.197 156.146 341.197C155.575 341.197 155.115 341.392 154.941 341.709C154.786 341.991 154.54 342.222 154.393 342.222C154.245 342.222 153.898 342.607 153.62 343.077C153.341 343.547 153.07 343.932 153.017 343.932C152.849 343.932 152.383 344.892 152.383 345.238C152.383 345.42 152.257 345.656 152.102 345.765C151.938 345.879 151.821 346.392 151.821 346.997C151.821 347.568 151.737 348.034 151.634 348.034C151.52 348.034 151.446 349.573 151.446 351.966C151.446 354.359 151.52 355.897 151.634 355.897C151.737 355.897 151.821 356.436 151.821 357.094C151.821 357.93 151.906 358.291 152.102 358.291C152.257 358.291 152.383 358.456 152.383 358.657C152.383 359.935 152.73 360 159.587 360H166.256L167.006 358.632L167.755 357.265V352.376C167.755 347.477 167.565 345.65 167.052 345.644C166.924 345.642 166.818 345.476 166.818 345.274C166.818 344.802 166.341 343.932 166.082 343.932C165.971 343.932 165.88 343.739 165.879 343.504C165.878 343.105 165.07 342.222 164.705 342.222C164.615 342.222 164.415 341.991 164.261 341.709C164.087 341.392 163.627 341.197 163.055 341.197C162.547 341.197 162.132 341.043 162.132 340.855C162.132 340.644 161.163 340.513 159.601 340.513C158.039 340.513 157.07 340.644 157.07 340.855ZM197.375 340.855C197.375 341.043 196.962 341.197 196.457 341.197C195.815 341.197 195.508 341.35 195.432 341.709C195.373 341.991 195.158 342.222 194.954 342.222C194.751 342.222 194.533 342.376 194.469 342.564C194.405 342.752 194.189 342.906 193.989 342.906C193.789 342.906 193.625 343.111 193.625 343.361C193.625 343.611 193.414 344.022 193.157 344.274C192.899 344.525 192.688 344.936 192.688 345.186C192.688 345.436 192.605 345.641 192.504 345.641C192.403 345.641 192.267 346.026 192.202 346.496C192.138 346.966 192.01 347.35 191.918 347.35C191.826 347.35 191.751 349.427 191.751 351.966C191.751 354.815 191.822 356.581 191.938 356.581C192.041 356.581 192.126 356.894 192.126 357.276C192.126 357.657 192.252 358.059 192.407 358.167C192.561 358.275 192.688 358.522 192.688 358.717C192.688 359.879 193.262 359.979 199.999 359.978C207.39 359.977 207.076 360.072 207.742 357.64C208.107 356.303 208.221 347.35 207.872 347.35C207.769 347.35 207.685 347.048 207.685 346.679C207.685 345.975 206.713 343.932 206.379 343.932C206.272 343.932 206.185 343.701 206.185 343.419C206.185 343.137 206.059 342.906 205.904 342.906C205.749 342.906 205.623 342.752 205.623 342.564C205.623 342.376 205.465 342.222 205.271 342.222C205.077 342.222 204.814 341.991 204.686 341.709C204.537 341.384 204.123 341.197 203.549 341.197C203.052 341.197 202.594 341.043 202.53 340.855C202.462 340.654 201.372 340.513 199.894 340.513C198.34 340.513 197.375 340.644 197.375 340.855Z" fill="#14ECE4"/>
<defs>
<linearGradient id="paint0_linear_483_1850" x1="180" y1="0" x2="180" y2="480" gradientUnits="userSpaceOnUse">
<stop stop-color="#080505"/>
<stop offset="1" stop-color="#170F0F" stop-opacity="0"/>
</linearGradient>
</defs>
</svg>
