<svg width="180" height="240" viewBox="0 0 180 240" fill="none" xmlns="http://www.w3.org/2000/svg">
<path fill-rule="evenodd" clip-rule="evenodd" d="M89.0032 0.256413C89.0027 0.397439 88.7918 0.95983 88.5345 1.50598C88.2768 2.05214 88.0659 2.64017 88.0659 2.81111C88.0659 2.98291 87.7706 3.63077 87.4097 4.25128C87.0489 4.87179 86.7536 5.6094 86.7536 5.88974C86.7536 6.17008 86.5427 6.68889 86.285 7.04188C86.0272 7.39487 85.8163 7.80855 85.8163 7.96069C85.8163 8.11282 85.6054 8.59402 85.3477 9.02992C85.0899 9.46581 84.879 10.0735 84.879 10.3812C84.879 10.6889 84.7525 10.9402 84.5978 10.9402C84.4431 10.9402 84.3166 11.0778 84.3166 11.2462C84.3166 11.4145 84.1071 11.9145 83.8512 12.3573C83.5953 12.8 83.3844 13.4214 83.3826 13.7376C83.3807 14.0538 83.2148 14.4077 83.0137 14.5248C82.8131 14.641 82.5966 15.0359 82.5329 15.4017C82.4687 15.7684 82.3379 16.0684 82.2419 16.0684C82.1458 16.0684 82.067 16.2991 82.067 16.5812C82.067 16.8632 81.9405 17.094 81.7859 17.094C81.6265 17.094 81.5047 17.4009 81.5047 17.8026C81.5047 18.559 81.0988 19.4872 80.7684 19.4872C80.6578 19.4872 80.5673 19.6812 80.5673 19.9188C80.5673 20.1564 80.3564 20.6393 80.0987 20.9923C79.8409 21.3453 79.63 21.9205 79.63 22.2701C79.63 22.6197 79.5457 22.906 79.4426 22.906C79.3395 22.906 79.2551 23.1368 79.2551 23.4188C79.2551 23.7009 79.1286 23.9316 78.9739 23.9316C78.8193 23.9316 78.6927 24.0692 78.6927 24.2376C78.6927 24.406 78.4832 24.906 78.2273 25.3487C77.9714 25.7915 77.7606 26.3368 77.7587 26.5607C77.7568 26.7855 77.3336 27.7709 76.8181 28.7513C76.3026 29.7316 75.8808 30.741 75.8808 30.9932C75.8808 31.2462 75.7964 31.453 75.6933 31.453C75.5902 31.453 75.5058 31.6838 75.5058 31.9658C75.5058 32.2846 75.3287 32.4786 75.0372 32.4786C74.7794 32.4786 74.5685 32.6325 74.5685 32.8205C74.5685 33.6778 73.0004 32.9137 72.6377 31.8803C72.5552 31.6453 72.3232 31.453 72.1221 31.453C71.9211 31.453 71.7566 31.2991 71.7566 31.1111C71.7566 30.9231 71.63 30.7692 71.4754 30.7692C71.3207 30.7692 71.1942 30.618 71.1942 30.4342C71.1942 30.2496 70.9833 30.0017 70.7255 29.8838C70.4678 29.7658 70.2569 29.5325 70.2569 29.365C70.2569 29.1966 70.046 29.0598 69.7882 29.0598C69.5305 29.0598 69.3196 28.8846 69.3196 28.6701C69.3196 28.2094 68.7591 27.3769 68.439 27.3615C68.3152 27.3556 67.9867 26.9658 67.7083 26.4957C67.4145 25.9991 66.9786 25.641 66.6679 25.641C66.3174 25.641 66.1327 25.4641 66.1327 25.1282C66.1327 24.8462 66.0062 24.6154 65.8515 24.6154C65.6968 24.6154 65.5703 24.4615 65.5703 24.2735C65.5703 24.0855 65.4799 23.9316 65.3693 23.9316C65.2591 23.9316 65.051 23.7393 64.9072 23.5043C64.2431 22.4179 64.0622 22.2222 63.7238 22.2222C63.5242 22.2222 63.3123 21.9915 63.2528 21.7094C63.1937 21.4274 62.9735 21.1966 62.7645 21.1966C62.555 21.1966 62.3834 21.0427 62.3834 20.8547C62.3834 20.6667 62.2569 20.5128 62.1022 20.5128C61.9476 20.5128 61.821 20.3701 61.821 20.1957C61.821 19.7863 60.7417 18.8034 60.2928 18.8034C60.102 18.8034 59.9464 18.6282 59.9464 18.4137C59.9464 17.888 59.3676 17.1179 58.9622 17.1051C58.7818 17.0991 58.6342 16.8632 58.6342 16.5812C58.6342 16.2991 58.5076 16.0684 58.353 16.0684C58.1983 16.0684 58.0718 15.9145 58.0718 15.7265C58.0718 15.5385 57.9003 15.3846 57.6908 15.3846C57.4818 15.3846 57.2615 15.1538 57.2024 14.8718C57.1429 14.5897 56.9123 14.359 56.6902 14.359C56.468 14.359 56.1278 13.9744 55.9342 13.5043C55.7407 13.0342 55.4253 12.6496 55.2336 12.6496C55.0419 12.6496 54.8849 12.4957 54.8849 12.3077C54.8849 12.1197 54.7584 11.9658 54.6037 11.9658C54.4491 11.9658 54.3225 11.8419 54.3225 11.6897C54.3225 11.2085 52.9114 10.2564 52.1976 10.2564C51.5898 10.2564 51.5106 10.3547 51.5106 11.1111C51.5106 11.5812 51.4262 11.9658 51.3231 11.9658C51.22 11.9658 51.1357 12.488 51.1357 13.1256C51.1357 13.8419 51.0279 14.3615 50.8545 14.4829C50.6778 14.606 50.5733 15.1291 50.5733 15.8863C50.5733 16.5504 50.4889 17.094 50.3858 17.094C50.2827 17.094 50.1984 17.8632 50.1984 18.8034C50.1984 20.0949 50.1295 20.5128 49.9172 20.5128C49.7208 20.5128 49.636 20.8735 49.636 21.7094C49.636 22.3675 49.5516 22.906 49.4485 22.906C49.3454 22.906 49.261 23.5214 49.261 24.2735C49.261 25.2615 49.1828 25.641 48.9798 25.641C48.7844 25.641 48.6986 26 48.6986 26.8171C48.6986 27.4641 48.6143 28.0889 48.5112 28.2051C48.4081 28.3214 48.3237 28.9462 48.3237 29.5932C48.3237 30.4103 48.238 30.7692 48.0425 30.7692C47.8302 30.7692 47.7613 31.1872 47.7613 32.4786C47.7613 33.4188 47.677 34.188 47.5739 34.188C47.4708 34.188 47.3864 34.7103 47.3864 35.3479C47.3864 36.0641 47.2786 36.5838 47.1052 36.7051C46.9285 36.8282 46.824 37.3513 46.824 38.1085C46.824 38.7726 46.7397 39.3162 46.6366 39.3162C46.5335 39.3162 46.4491 39.8385 46.4491 40.4761C46.4491 41.1923 46.3413 41.712 46.1679 41.8333C45.9757 41.9675 45.8867 42.5154 45.8867 43.559C45.8867 44.4 45.8023 45.1829 45.6992 45.2991C45.5961 45.4154 45.5118 46.0402 45.5118 46.6872C45.5118 47.5043 45.426 47.8632 45.2306 47.8632C45.0759 47.8632 44.9494 48.0239 44.9494 48.2205C44.9494 48.6846 44.0875 50.2564 43.833 50.2564C43.7253 50.2564 43.6371 50.4872 43.6371 50.7692C43.6371 51.1291 43.438 51.2821 42.9674 51.2821C42.5995 51.2821 42.1717 51.0513 42.017 50.7692C41.8 50.3735 41.2489 50.2564 39.6044 50.2564C38.3858 50.2564 37.4232 50.1103 37.3571 49.9145C37.2906 49.718 36.2994 49.5727 35.0228 49.5727C33.2241 49.5727 32.784 49.4761 32.6963 49.0598C32.6087 48.6436 32.1649 48.547 30.3334 48.547C28.9546 48.547 28.0777 48.4145 28.0777 48.2051C28.0777 47.9915 26.9529 47.8632 25.0783 47.8632H22.0789V50.2564C22.0789 51.6239 22.1591 52.6496 22.2664 52.6496C22.3779 52.6496 22.4538 53.9462 22.4538 55.8556C22.4538 58.288 22.5218 59.1641 22.735 59.4872C22.9501 59.8128 23.0162 60.7051 23.0162 63.2897C23.0162 65.3128 23.0912 66.6667 23.2037 66.6667C23.3162 66.6667 23.3912 68.0205 23.3912 70.0436C23.3912 72.6282 23.4572 73.5205 23.6723 73.8462C23.8987 74.1889 23.9535 75.2368 23.9535 79.2034V84.135L23.0701 85.6573C22.4595 86.7094 22.025 87.1795 21.6642 87.1795C21.3769 87.1795 21.1416 87.3333 21.1416 87.5214C21.1416 87.7094 20.9307 87.8632 20.6729 87.8632C20.3814 87.8632 20.2043 88.0573 20.2043 88.3761C20.2043 88.6829 20.0314 88.8889 19.7731 88.8889C19.1859 88.8889 18.3329 89.647 18.3311 90.1709C18.3301 90.4299 18.0747 90.5983 17.6848 90.5983C17.33 90.5983 16.9874 90.7521 16.9237 90.9402C16.8599 91.1282 16.612 91.282 16.373 91.282C16.134 91.282 15.8336 91.5128 15.7052 91.7949C15.5768 92.0769 15.2712 92.3077 15.0261 92.3077C14.781 92.3077 14.5804 92.4615 14.5804 92.6496C14.5804 92.8376 14.4089 92.9915 14.1994 92.9915C13.9904 92.9915 13.7701 93.2222 13.711 93.5043C13.6515 93.7863 13.4013 94.0171 13.1543 94.0171C12.9078 94.0171 12.7058 94.1709 12.7058 94.359C12.7058 94.547 12.4077 94.7009 12.0436 94.7009C11.6283 94.7009 11.3415 94.8915 11.274 95.2137C11.2145 95.4957 11.0111 95.7265 10.8222 95.7265C10.6329 95.7265 10.4262 95.8803 10.3625 96.0684C10.2987 96.2564 10.0803 96.4103 9.87695 96.4103C9.67355 96.4103 9.45844 96.641 9.39939 96.9231C9.33987 97.2051 9.08961 97.4359 8.84263 97.4359C8.59611 97.4359 8.39412 97.5897 8.39412 97.7778C8.39412 97.9658 8.10777 98.1197 7.75815 98.1197C7.36542 98.1197 7.08047 98.3162 7.01392 98.6325C6.95487 98.9145 6.73461 99.1453 6.52558 99.1453C6.31609 99.1453 6.14457 99.2991 6.14457 99.4872C6.14457 99.6752 5.93976 99.8291 5.6895 99.8291C5.43877 99.8291 5.10743 100.06 4.95277 100.342C4.79811 100.624 4.49677 100.855 4.28353 100.855C4.06982 100.855 3.89501 101.009 3.89501 101.197C3.89501 101.385 3.64803 101.538 3.34621 101.538C3.04393 101.538 2.67041 101.769 2.51575 102.051C2.3611 102.333 2.10708 102.564 1.95102 102.564C1.79496 102.564 1.61546 102.718 1.55172 102.906C1.48799 103.094 1.29068 103.248 1.11353 103.248C0.936377 103.248 0.646279 103.557 0.468657 103.936C0.113884 104.691 0.0384298 105.641 0.333215 105.641C0.43632 105.641 0.520678 105.803 0.520678 106.003C0.520678 106.202 3.47322 111.746 7.08188 118.325C11.0416 125.543 13.6431 130.538 13.6431 130.926C13.6431 131.279 13.7485 131.656 13.8774 131.767C14.0649 131.926 14.0649 132.006 13.8774 132.165C13.7485 132.275 13.6431 132.737 13.6431 133.191C13.6431 133.697 13.5344 134.017 13.3619 134.017C13.2072 134.017 13.0807 134.182 13.0807 134.384C13.0807 134.856 12.6036 135.726 12.3444 135.726C12.2338 135.726 12.1434 135.891 12.1434 136.093C12.1434 136.566 11.6663 137.436 11.4071 137.436C11.2965 137.436 11.2061 137.667 11.2061 137.949C11.2061 138.232 11.0397 138.462 10.8349 138.462C10.5949 138.462 10.4215 138.764 10.3456 139.316C10.2809 139.786 10.131 140.171 10.0124 140.171C9.89336 140.171 9.56904 140.556 9.29066 141.026C9.01275 141.496 8.73343 141.88 8.67016 141.88C8.47942 141.88 8.01919 142.831 8.01919 143.223C8.01919 143.425 7.92874 143.59 7.81814 143.59C7.56928 143.59 7.08188 144.452 7.08188 144.893C7.08188 145.073 6.90707 145.303 6.69289 145.405C6.47919 145.507 6.25845 145.909 6.20268 146.299C6.14644 146.69 6.00397 147.009 5.88587 147.009C5.76777 147.009 5.51282 147.393 5.31926 147.863C5.1257 148.333 4.84498 148.718 4.69548 148.718C4.54598 148.718 3.71458 150.026 2.84803 151.624C1.98148 153.222 1.18758 154.53 1.084 154.53C0.980431 154.53 0.895604 154.724 0.895604 154.962C0.895604 155.199 0.705798 155.545 0.473813 155.731C-0.157938 156.236 -0.157938 159.432 0.473813 159.597C0.705798 159.656 0.895604 159.926 0.895604 160.195C0.895604 160.464 1.02214 160.684 1.1768 160.684C1.33146 160.684 1.45799 160.838 1.45799 161.026C1.45799 161.214 1.5461 161.368 1.65342 161.368C1.76121 161.368 2.07662 161.752 2.35453 162.222C2.63292 162.692 2.9666 163.077 3.09642 163.077C3.22624 163.077 3.33262 163.308 3.33262 163.59C3.33262 163.909 3.50977 164.103 3.80128 164.103C4.13965 164.103 4.26994 164.286 4.26994 164.763C4.26994 165.132 4.44193 165.524 4.65892 165.65C4.8731 165.774 5.34457 166.399 5.70637 167.04C6.06817 167.68 6.52558 168.205 6.72289 168.205C6.92019 168.205 7.08188 168.436 7.08188 168.718C7.08188 169 7.15733 169.231 7.24966 169.231C7.34198 169.231 7.61615 169.613 7.85891 170.079C8.10168 170.546 8.41146 170.931 8.54737 170.934C8.68328 170.938 9.07274 171.479 9.41298 172.137C9.75323 172.795 10.0911 173.333 10.1638 173.333C10.2364 173.333 10.4131 173.526 10.557 173.761C11.1306 174.699 11.3832 175.043 11.4994 175.043C11.566 175.043 11.7867 175.427 11.9892 175.897C12.1921 176.368 12.4813 176.752 12.6317 176.752C12.7822 176.752 12.9537 176.983 13.0127 177.265C13.0723 177.547 13.1997 177.778 13.2963 177.778C13.3928 177.778 13.6993 178.162 13.9772 178.632C14.2556 179.103 14.5893 179.487 14.7191 179.487C14.8489 179.487 14.9553 179.641 14.9553 179.829C14.9553 180.017 15.0819 180.171 15.2365 180.171C15.3912 180.171 15.5177 180.336 15.5177 180.538C15.5177 181.085 16.0121 181.88 16.3524 181.88C16.5169 181.88 16.7287 182.249 16.8225 182.699C16.9162 183.15 17.0751 183.573 17.1749 183.639C17.5784 183.909 17.517 189.744 17.1111 189.744C16.8993 189.744 16.83 190.159 16.83 191.432C16.83 192.362 16.7456 193.217 16.6425 193.333C16.5394 193.45 16.455 194.365 16.455 195.368C16.455 196.674 16.3754 197.248 16.1738 197.389C15.9545 197.542 15.8926 198.225 15.8926 200.502C15.8926 202.219 15.8153 203.419 15.7052 203.419C15.6021 203.419 15.5177 204.188 15.5177 205.128C15.5177 206.42 15.4488 206.838 15.2365 206.838C15.0177 206.838 14.9553 207.293 14.9553 208.889C14.9553 210.028 14.8719 210.94 14.7679 210.94C14.6648 210.94 14.5804 211.693 14.5804 212.613C14.5804 213.785 14.496 214.344 14.2992 214.483C14.0799 214.636 14.018 215.319 14.018 217.596C14.018 219.313 13.9407 220.513 13.8305 220.513C13.7274 220.513 13.6431 221.282 13.6431 222.222V223.932H14.5574C15.1414 223.932 15.5561 223.746 15.7052 223.419C15.8875 223.018 16.4044 222.906 18.0714 222.906C19.3682 222.906 20.2043 222.772 20.2043 222.564C20.2043 222.354 21.1435 222.222 22.6474 222.222C24.6457 222.222 25.1097 222.129 25.1978 221.709C25.2883 221.28 25.8413 221.197 28.5665 221.197C30.615 221.197 31.827 221.069 31.827 220.855C31.827 220.645 32.7287 220.513 34.1567 220.513C35.9779 220.513 36.5482 220.401 36.768 220C37.247 219.126 38.7008 219.33 39.2154 220.342C39.4544 220.812 39.7496 221.197 39.8715 221.197C39.9933 221.197 40.2886 221.581 40.5276 222.051C40.7666 222.521 41.142 222.906 41.3623 222.906C41.5826 222.906 41.7625 223.119 41.7625 223.379C41.7625 223.64 42.054 224.106 42.4107 224.415C42.7673 224.723 43.1094 225.126 43.1718 225.309C43.2336 225.491 43.4483 225.641 43.6484 225.641C43.8485 225.641 44.0121 225.795 44.0121 225.983C44.0121 226.171 44.2141 226.325 44.4606 226.325C44.7076 226.325 44.9578 226.556 45.0173 226.838C45.0764 227.12 45.2967 227.35 45.5057 227.35C45.7152 227.35 45.8867 227.504 45.8867 227.692C45.8867 227.88 46.0887 228.034 46.3352 228.034C46.5822 228.034 46.8325 228.265 46.892 228.547C46.9656 228.898 47.2669 229.06 47.849 229.06C48.3162 229.06 48.6986 229.214 48.6986 229.402C48.6986 229.59 49.1115 229.744 49.6158 229.744C50.2583 229.744 50.5653 229.897 50.6412 230.256C50.794 230.982 53.2413 230.982 53.6397 230.256C53.8154 229.935 54.2766 229.744 54.8713 229.744C55.3944 229.744 55.8222 229.59 55.8222 229.402C55.8222 229.214 56.1114 229.06 56.4648 229.06C56.8186 229.06 57.2343 228.829 57.389 228.547C57.5436 228.265 57.7606 228.034 57.8707 228.034C57.9813 228.034 58.0718 227.88 58.0718 227.692C58.0718 227.504 58.2433 227.35 58.4528 227.35C58.6618 227.35 58.8821 227.12 58.9412 226.838C59.0007 226.556 59.1305 226.325 59.2298 226.325C59.3297 226.325 59.5284 226.132 59.6723 225.897C60.2923 224.883 60.5046 224.615 60.6883 224.615C60.7956 224.615 60.8837 224.462 60.8837 224.274C60.8837 224.085 61.0103 223.932 61.1649 223.932C61.3196 223.932 61.4461 223.767 61.4461 223.565C61.4461 223.016 61.9406 222.222 62.2822 222.222C62.4476 222.222 62.6314 221.991 62.6904 221.709C62.7499 221.427 62.9697 221.197 63.1788 221.197C63.3878 221.197 63.7543 220.812 63.9933 220.342C64.2323 219.872 64.6002 219.487 64.8116 219.487C65.0225 219.487 65.1954 219.333 65.1954 219.145C65.1954 218.957 65.3116 218.803 65.4536 218.803C65.5956 218.803 65.8168 218.573 65.9452 218.291C66.0736 218.009 66.3792 217.778 66.6243 217.778C66.8694 217.778 67.07 217.624 67.07 217.436C67.07 217.248 67.2415 217.094 67.451 217.094C67.6601 217.094 67.8803 216.863 67.9394 216.581C68.0059 216.265 68.2909 216.068 68.6836 216.068C69.0332 216.068 69.3196 215.915 69.3196 215.726C69.3196 215.526 69.9719 215.385 70.9018 215.385C71.7721 215.385 72.5364 215.538 72.6002 215.726C72.6639 215.915 72.9221 216.068 73.1738 216.068C73.4555 216.068 73.6312 216.266 73.6312 216.581C73.6312 216.9 73.8084 217.094 74.0999 217.094C74.3576 217.094 74.5685 217.248 74.5685 217.436C74.5685 217.624 74.7794 217.778 75.0372 217.778C75.295 217.778 75.5058 217.929 75.5058 218.113C75.5058 218.297 75.7167 218.545 75.9745 218.663C76.2323 218.781 76.4432 219.015 76.4432 219.182C76.4432 219.35 76.5336 219.487 76.6442 219.487C76.7544 219.487 76.9624 219.679 77.1063 219.915C77.5984 220.72 78.3801 221.697 78.8619 222.11C79.0062 222.234 79.4144 222.849 79.7683 223.475C80.1226 224.103 80.5195 224.615 80.6508 224.615C80.7825 224.615 81.0482 225 81.2417 225.47C81.4353 225.94 81.6621 226.325 81.7455 226.325C81.829 226.325 82.0928 226.709 82.3318 227.179C82.5709 227.65 82.9041 228.034 83.0728 228.034C83.2415 228.034 83.3793 228.265 83.3793 228.547C83.3793 228.829 83.4585 229.06 83.5555 229.06C83.653 229.06 84.1699 229.825 84.7046 230.76C85.2394 231.695 85.9189 232.656 86.2151 232.895C86.5113 233.133 86.7536 233.456 86.7536 233.612C86.7536 234.018 87.2527 234.872 87.4899 234.872C87.6005 234.872 87.6909 235.037 87.6909 235.238C87.6909 235.711 88.168 236.581 88.4272 236.581C88.5378 236.581 88.6283 236.746 88.6283 236.948C88.6283 238.455 90.5774 238.878 90.8778 237.436C90.987 236.913 91.203 236.581 91.4355 236.581C91.6445 236.581 91.8151 236.416 91.8151 236.215C91.8151 235.849 92.2707 234.872 92.4417 234.872C92.4914 234.872 93.0463 233.949 93.6747 232.821C94.3027 231.692 94.9008 230.769 95.0034 230.769C95.1056 230.769 95.1895 230.604 95.1895 230.403C95.1895 229.854 95.6839 229.06 96.0255 229.06C96.191 229.06 96.3747 228.829 96.4337 228.547C96.4933 228.265 96.6231 228.034 96.7224 228.034C96.9657 228.034 97.439 227.147 97.439 226.691C97.439 226.49 97.5655 226.325 97.7202 226.325C97.8749 226.325 98.0014 226.171 98.0014 225.983C98.0014 225.795 98.1584 225.641 98.3501 225.641C98.5418 225.641 98.8572 225.256 99.0507 224.786C99.2443 224.316 99.5091 223.932 99.6394 223.932C99.7696 223.932 99.876 223.701 99.876 223.419C99.876 223.134 100.043 222.906 100.251 222.906C100.457 222.906 100.626 222.752 100.626 222.564C100.626 222.376 100.752 222.222 100.907 222.222C101.062 222.222 101.188 221.991 101.188 221.709C101.188 221.427 101.345 221.197 101.536 221.197C101.727 221.197 102.111 220.812 102.389 220.342C102.667 219.872 102.996 219.482 103.12 219.476C103.44 219.461 104 218.628 104 218.168C104 217.95 104.29 217.778 104.656 217.778C105.017 217.778 105.312 217.624 105.312 217.436C105.312 217.248 105.43 217.094 105.573 217.094C105.717 217.094 105.883 216.863 105.943 216.581C106.005 216.285 106.285 216.068 106.608 216.068C106.914 216.068 107.217 215.915 107.281 215.726C107.432 215.28 110.129 215.28 110.28 215.726C110.344 215.915 110.635 216.068 110.927 216.068C111.226 216.068 111.506 216.292 111.567 216.581C111.626 216.863 111.841 217.094 112.044 217.094C112.248 217.094 112.466 217.248 112.53 217.436C112.594 217.624 112.936 217.778 113.291 217.778C113.685 217.778 113.936 217.945 113.936 218.21C113.936 218.448 114.286 218.948 114.713 219.321C115.952 220.403 116.185 220.658 116.185 220.936C116.185 221.079 116.396 221.197 116.654 221.197C116.945 221.197 117.123 221.391 117.123 221.709C117.123 221.991 117.211 222.222 117.318 222.222C117.426 222.222 117.741 222.607 118.019 223.077C118.298 223.547 118.631 223.932 118.761 223.932C118.891 223.932 118.997 224.085 118.997 224.274C118.997 224.462 119.124 224.615 119.278 224.615C119.433 224.615 119.56 224.846 119.56 225.128C119.56 225.41 119.686 225.641 119.841 225.641C119.995 225.641 120.122 225.795 120.122 225.983C120.122 226.171 120.291 226.325 120.497 226.325C120.705 226.325 120.872 226.553 120.872 226.838C120.872 227.12 120.998 227.35 121.153 227.35C121.308 227.35 121.434 227.504 121.434 227.692C121.434 227.88 121.645 228.034 121.903 228.034C122.194 228.034 122.372 228.228 122.372 228.547C122.372 228.903 122.568 229.06 123.016 229.06C123.371 229.06 123.714 229.214 123.778 229.402C123.841 229.59 124.395 229.744 125.007 229.744C125.872 229.744 126.121 229.858 126.121 230.256C126.121 230.663 126.392 230.769 127.439 230.769C128.438 230.769 128.783 230.645 128.865 230.256C128.944 229.881 129.268 229.744 130.078 229.744C130.689 229.744 131.182 229.591 131.182 229.402C131.182 229.214 131.467 229.06 131.815 229.06C132.164 229.06 132.554 228.829 132.682 228.547C132.81 228.265 133.074 228.034 133.267 228.034C133.461 228.034 133.619 227.88 133.619 227.692C133.619 227.504 133.82 227.35 134.065 227.35C134.31 227.35 134.616 227.12 134.744 226.838C134.873 226.556 135.094 226.325 135.236 226.325C135.378 226.325 135.494 226.171 135.494 225.983C135.494 225.795 135.699 225.641 135.949 225.641C136.2 225.641 136.531 225.41 136.686 225.128C136.84 224.846 137.057 224.615 137.168 224.615C137.278 224.615 137.369 224.462 137.369 224.274C137.369 224.085 137.526 223.932 137.717 223.932C137.909 223.932 138.221 223.556 138.409 223.097C138.598 222.638 138.948 222.174 139.186 222.065C139.424 221.956 139.618 221.716 139.618 221.532C139.618 221.348 139.709 221.197 139.819 221.197C140.078 221.197 140.555 220.327 140.555 219.854C140.555 219.243 142.93 219.382 143.06 220C143.148 220.416 143.592 220.513 145.423 220.513C146.802 220.513 147.679 220.645 147.679 220.855C147.679 221.07 148.953 221.197 151.127 221.197C154.019 221.197 154.593 221.279 154.683 221.709C154.771 222.126 155.213 222.222 157.035 222.222C158.329 222.222 159.328 222.367 159.395 222.564C159.462 222.761 160.453 222.906 161.73 222.906C163.529 222.906 163.969 223.003 164.056 223.419C164.13 223.77 164.431 223.932 165.013 223.932H165.863V221.026C165.863 219.316 165.786 218.12 165.675 218.12C165.567 218.12 165.488 217.033 165.488 215.544C165.488 213.572 165.422 212.924 165.207 212.774C165.005 212.632 164.926 212.058 164.926 210.753C164.926 209.75 164.841 208.834 164.738 208.718C164.635 208.602 164.551 207.746 164.551 206.817C164.551 205.544 164.481 205.128 164.27 205.128C164.051 205.128 163.988 204.673 163.988 203.077C163.988 201.938 163.905 201.026 163.801 201.026C163.698 201.026 163.613 200.251 163.613 199.305C163.613 198.092 163.53 197.527 163.332 197.389C163.115 197.237 163.051 196.579 163.051 194.514C163.051 193.04 162.967 191.74 162.864 191.624C162.76 191.508 162.676 190.652 162.676 189.723C162.676 188.45 162.607 188.034 162.395 188.034C162.037 188.034 161.998 184.801 162.348 184.09C162.904 182.959 163.051 182.572 163.051 182.237C163.051 182.041 163.141 181.88 163.252 181.88C163.362 181.88 163.57 181.688 163.714 181.453C164.292 180.508 164.541 180.171 164.661 180.171C164.731 180.171 165.066 179.632 165.406 178.974C165.747 178.316 166.16 177.778 166.325 177.778C166.49 177.778 166.673 177.547 166.732 177.265C166.792 176.983 166.922 176.752 167.021 176.752C167.264 176.752 167.738 175.865 167.738 175.409C167.738 175.208 167.864 175.043 168.019 175.043C168.173 175.043 168.3 174.889 168.3 174.701C168.3 174.513 168.457 174.359 168.649 174.359C168.84 174.359 169.156 173.974 169.349 173.504C169.543 173.034 169.787 172.65 169.893 172.65C169.998 172.65 170.312 172.265 170.59 171.795C170.868 171.325 171.184 170.94 171.291 170.94C171.399 170.94 171.487 170.709 171.487 170.427C171.487 170.145 171.613 169.915 171.768 169.915C171.923 169.915 172.049 169.761 172.049 169.573C172.049 169.385 172.156 169.231 172.285 169.231C172.415 169.231 172.749 168.846 173.027 168.376C173.305 167.906 173.612 167.521 173.708 167.521C173.805 167.521 173.932 167.291 173.992 167.009C174.051 166.726 174.229 166.496 174.386 166.496C174.544 166.496 174.674 166.342 174.674 166.154C174.674 165.966 174.8 165.812 174.955 165.812C175.11 165.812 175.236 165.581 175.236 165.299C175.236 165.017 175.327 164.786 175.437 164.786C175.547 164.786 175.758 164.567 175.906 164.298C176.053 164.029 176.173 163.644 176.173 163.444C176.173 163.242 176.353 163.077 176.573 163.077C176.793 163.077 177.24 162.577 177.567 161.966C178.154 160.867 178.628 160.216 179.173 159.761C179.845 159.198 180.32 156.239 179.738 156.239C179.636 156.239 179.129 155.47 178.61 154.53C178.092 153.59 177.579 152.821 177.47 152.821C177.212 152.821 176.736 151.949 176.736 151.478C176.736 151.276 176.655 151.111 176.556 151.111C176.458 151.111 175.65 149.803 174.762 148.205C173.874 146.607 173.038 145.299 172.905 145.299C172.773 145.299 172.506 144.915 172.312 144.444C172.119 143.974 171.854 143.59 171.724 143.59C171.593 143.59 171.487 143.425 171.487 143.223C171.487 143.022 171.366 142.638 171.219 142.368C171.072 142.1 170.861 141.88 170.751 141.88C170.64 141.88 170.55 141.715 170.55 141.514C170.55 141.068 170.079 140.171 169.845 140.171C169.752 140.171 169.563 139.786 169.425 139.316C169.287 138.846 169.077 138.462 168.957 138.462C168.838 138.462 168.542 138.077 168.3 137.607C168.058 137.137 167.748 136.752 167.611 136.752C167.475 136.752 167.363 136.54 167.363 136.28C167.363 136.021 167.025 135.175 166.613 134.4C165.888 133.038 165.522 130.598 166.042 130.598C166.14 130.598 166.36 130.06 166.532 129.402C166.703 128.744 166.96 128.205 167.103 128.205C167.246 128.205 167.363 128.04 167.363 127.838C167.363 127.638 167.483 127.253 167.63 126.984C167.778 126.715 167.989 126.496 168.099 126.496C168.21 126.496 168.3 126.331 168.3 126.129C168.3 125.928 168.42 125.544 168.568 125.274C168.715 125.006 168.926 124.786 169.036 124.786C169.147 124.786 169.237 124.621 169.237 124.42C169.237 123.947 169.714 123.077 169.974 123.077C170.084 123.077 170.175 122.912 170.175 122.71C170.175 122.238 170.652 121.368 170.911 121.368C171.021 121.368 171.112 121.203 171.112 121.001C171.112 120.528 171.589 119.658 171.848 119.658C171.959 119.658 172.049 119.493 172.049 119.291C172.049 118.819 172.526 117.949 172.785 117.949C172.896 117.949 172.987 117.784 172.987 117.582C172.987 117.109 173.464 116.239 173.723 116.239C173.833 116.239 173.924 116.074 173.924 115.873C173.924 115.4 174.401 114.53 174.66 114.53C174.771 114.53 174.861 114.365 174.861 114.163C174.861 113.691 175.338 112.821 175.597 112.821C175.708 112.821 175.798 112.656 175.798 112.454C175.798 111.981 176.276 111.111 176.535 111.111C176.645 111.111 176.736 110.946 176.736 110.744C176.736 110.272 177.213 109.402 177.472 109.402C177.583 109.402 177.673 109.237 177.673 109.035C177.673 108.562 178.15 107.692 178.409 107.692C178.52 107.692 178.61 107.532 178.61 107.336C178.61 107.139 178.821 106.564 179.079 106.057C179.62 104.992 179.657 104.67 179.267 104.397C179.112 104.289 178.985 103.986 178.985 103.724C178.985 103.444 178.792 103.248 178.517 103.248C178.259 103.248 178.048 103.094 178.048 102.906C178.048 102.718 177.846 102.564 177.6 102.564C177.353 102.564 177.102 102.333 177.043 102.051C176.98 101.751 176.699 101.538 176.367 101.538C176.054 101.538 175.798 101.385 175.798 101.197C175.798 101.009 175.597 100.855 175.35 100.855C175.103 100.855 174.853 100.624 174.793 100.342C174.734 100.06 174.472 99.8291 174.211 99.8291C173.95 99.8291 173.736 99.6752 173.736 99.4872C173.736 99.2991 173.578 99.1453 173.384 99.1453C173.191 99.1453 172.928 98.9145 172.799 98.6325C172.671 98.3504 172.328 98.1197 172.038 98.1197C171.747 98.1197 171.457 97.9658 171.393 97.7778C171.329 97.5897 171.123 97.4359 170.933 97.4359C170.744 97.4359 170.541 97.2051 170.482 96.9231C170.419 96.6231 170.138 96.4103 169.806 96.4103C169.493 96.4103 169.237 96.2564 169.237 96.0684C169.237 95.8803 169.079 95.7265 168.885 95.7265C168.692 95.7265 168.428 95.4957 168.3 95.2137C168.172 94.9316 167.866 94.7009 167.621 94.7009C167.376 94.7009 167.175 94.547 167.175 94.359C167.175 94.1709 166.88 94.0171 166.519 94.0171C166.061 94.0171 165.863 93.8624 165.863 93.5043C165.863 93.2222 165.699 92.9915 165.499 92.9915C165.299 92.9915 165.083 92.8376 165.019 92.6496C164.956 92.4615 164.707 92.3077 164.466 92.3077C164.225 92.3077 163.98 92.0769 163.92 91.7949C163.858 91.4949 163.576 91.282 163.245 91.282C162.932 91.282 162.676 91.1282 162.676 90.9402C162.676 90.7521 162.474 90.5983 162.228 90.5983C161.981 90.5983 161.73 90.3675 161.671 90.0855C161.612 89.8034 161.397 89.5726 161.193 89.5726C160.99 89.5726 160.771 89.4188 160.708 89.2308C160.644 89.0427 160.386 88.8889 160.134 88.8889C159.882 88.8889 159.677 88.7376 159.677 88.5538C159.677 88.3692 159.466 88.1214 159.208 88.0034C158.95 87.8855 158.739 87.6521 158.739 87.4846C158.739 87.3162 158.453 87.1795 158.103 87.1795C157.711 87.1795 157.426 86.9829 157.359 86.6667C157.3 86.3846 157.116 86.1538 156.951 86.1538C156.621 86.1538 156.115 85.3658 156.115 84.853C156.115 84.6744 155.988 84.3368 155.834 84.1026C155.623 83.7838 155.552 82.9274 155.552 80.6838C155.552 78.4402 155.623 77.5838 155.834 77.265C156.049 76.9393 156.115 76.047 156.115 73.4624C156.115 71.4393 156.19 70.0855 156.302 70.0855C156.415 70.0855 156.49 68.7316 156.49 66.7086C156.49 64.1239 156.556 63.2316 156.771 62.906C156.984 62.5829 157.052 61.7068 157.052 59.2744C157.052 57.365 157.128 56.0684 157.24 56.0684C157.353 56.0684 157.427 54.5872 157.427 52.3077V48.547H156.49C155.974 48.547 155.552 48.3932 155.552 48.2051C155.552 47.9846 153.423 47.8632 149.54 47.8632C144.446 47.8632 143.485 47.7846 143.247 47.3504C143.02 46.9359 142.373 46.8376 139.886 46.8376C137.958 46.8376 136.806 46.7094 136.806 46.4957C136.806 46.3077 136.595 46.1538 136.338 46.1538C136.046 46.1538 135.869 45.9598 135.869 45.641C135.869 45.359 135.794 45.1282 135.703 45.1282C135.612 45.1282 135.488 44.859 135.427 44.5299C135.367 44.2009 135.244 43.7009 135.154 43.4188C134.739 42.1205 134.557 41.3359 134.557 40.8487C134.557 40.5581 134.43 40.2316 134.275 40.1239C134.121 40.0154 133.994 39.559 133.994 39.1086C133.994 38.659 133.91 38.2906 133.807 38.2906C133.704 38.2906 133.619 37.7632 133.619 37.1188C133.619 36.4735 133.493 35.7154 133.338 35.4333C133.183 35.1513 133.057 34.6111 133.057 34.2325C133.057 33.8538 132.973 33.4496 132.869 33.3333C132.766 33.2171 132.682 32.8188 132.682 32.4479C132.682 32.0769 132.555 31.6846 132.401 31.5769C132.242 31.4658 132.12 30.9564 132.12 30.4111C132.12 29.8778 132.035 29.347 131.932 29.2308C131.829 29.1145 131.745 28.5855 131.745 28.0556C131.745 27.5256 131.618 26.9009 131.464 26.6667C131.309 26.4325 131.182 25.9615 131.182 25.6197C131.182 25.2778 131.098 24.9026 130.995 24.7863C130.892 24.6701 130.807 24.2162 130.807 23.7769C130.807 23.3385 130.681 22.8906 130.526 22.7821C130.372 22.6744 130.245 22.2051 130.245 21.7402C130.245 21.2752 130.161 20.8 130.058 20.6838C129.954 20.5675 129.87 20.0966 129.87 19.6376C129.87 19.1239 129.762 18.8034 129.589 18.8034C129.386 18.8034 129.308 18.4239 129.308 17.4359C129.308 16.6838 129.223 16.0684 129.12 16.0684C129.017 16.0684 128.933 15.7556 128.933 15.3735C128.933 14.9923 128.806 14.5906 128.652 14.4829C128.478 14.3615 128.37 13.8419 128.37 13.1256C128.37 12.488 128.286 11.9658 128.183 11.9658C128.08 11.9658 127.995 11.5812 127.995 11.1111C127.995 10.3419 127.92 10.2564 127.246 10.2564C126.833 10.2564 126.496 10.4103 126.496 10.5983C126.496 10.7863 126.324 10.9402 126.115 10.9402C125.906 10.9402 125.685 11.1709 125.626 11.453C125.567 11.735 125.368 11.9658 125.183 11.9658C124.999 11.9658 124.649 12.3479 124.406 12.8145C124.164 13.2812 123.817 13.6658 123.637 13.6692C123.457 13.6727 123.309 13.8291 123.309 14.0171C123.309 14.2051 123.098 14.359 122.84 14.359C122.549 14.359 122.372 14.553 122.372 14.8718C122.372 15.1538 122.218 15.3846 122.031 15.3846C121.843 15.3846 121.358 15.9231 120.953 16.5812C120.548 17.2393 120.068 17.7778 119.888 17.7778C119.707 17.7778 119.56 18.0085 119.56 18.2906C119.56 18.6094 119.382 18.8034 119.091 18.8034C118.833 18.8034 118.622 18.9393 118.622 19.1051C118.622 19.2718 118.475 19.4974 118.294 19.6085C117.976 19.8034 117.312 20.5094 117.123 20.8547C116.944 21.1812 116.275 21.8803 115.576 22.4726C115.189 22.7991 114.873 23.2615 114.873 23.4991C114.873 23.7368 114.693 23.9316 114.473 23.9316C114.253 23.9316 113.877 24.3162 113.638 24.7863C113.399 25.2564 113.031 25.641 112.82 25.641C112.609 25.641 112.436 25.7949 112.436 25.9829C112.436 26.1709 112.33 26.3248 112.2 26.3248C112.07 26.3248 111.736 26.7094 111.458 27.1795C111.18 27.6496 110.82 28.0342 110.657 28.0342C110.495 28.0342 110.313 28.265 110.254 28.547C110.195 28.8291 109.983 29.0598 109.783 29.0598C109.584 29.0598 109.193 29.4444 108.915 29.9145C108.637 30.3846 108.297 30.7692 108.16 30.7692C107.86 30.7692 107.375 31.6 107.375 32.112C107.375 32.3137 107.164 32.4786 106.906 32.4786C106.648 32.4786 106.437 32.6325 106.437 32.8205C106.437 33.0085 106.132 33.1624 105.759 33.1624C105.099 33.1624 103.625 31.1051 103.625 30.1838C103.625 30.0051 103.414 29.653 103.157 29.4017C102.899 29.1504 102.687 28.7009 102.685 28.4034C102.683 28.1068 102.472 27.5009 102.216 27.0581C101.96 26.6154 101.751 26.1154 101.751 25.947C101.751 25.7786 101.624 25.641 101.469 25.641C101.315 25.641 101.188 25.4103 101.188 25.1282C101.188 24.8462 101.104 24.6154 101.001 24.6154C100.898 24.6154 100.813 24.4214 100.813 24.1846C100.813 23.9479 100.602 23.3393 100.345 22.8316C100.087 22.3248 99.876 21.8342 99.876 21.7419C99.876 21.6496 99.6651 21.159 99.4074 20.6513C99.1496 20.1444 98.9387 19.5205 98.9387 19.2667C98.9387 19.012 98.8122 18.8034 98.6575 18.8034C98.5029 18.8034 98.3763 18.6385 98.3763 18.4368C98.3763 17.9641 97.8992 17.094 97.6401 17.094C97.5295 17.094 97.439 16.7658 97.439 16.365C97.439 15.9641 97.1438 15.1282 96.7829 14.5077C96.422 13.8872 96.1268 13.2154 96.1268 13.0145C96.1268 12.8137 96.0002 12.6496 95.8456 12.6496C95.6909 12.6496 95.5644 12.353 95.5644 11.9906C95.5644 11.6282 95.3535 11.0291 95.0957 10.659C94.838 10.2897 94.6271 9.88291 94.6271 9.75556C94.6271 9.3906 94.1129 8.54701 93.8908 8.54701C93.7802 8.54701 93.6897 8.21881 93.6897 7.81795C93.6897 7.4171 93.3945 6.5812 93.0336 5.96068C92.6728 5.34017 92.3775 4.66838 92.3775 4.46753C92.3775 4.26667 92.251 4.10257 92.0963 4.10257C91.937 4.10257 91.8151 3.79573 91.8151 3.39402C91.8151 2.63761 91.4093 1.7094 91.0789 1.7094C90.9683 1.7094 90.8778 1.54445 90.8778 1.34274C90.8778 0.612823 90.3276 0 89.6729 0C89.3045 0 89.0032 0.115387 89.0032 0.256413ZM89.9405 23.4188C89.9405 23.7009 90.0277 23.9316 90.134 23.9316C90.24 23.9316 90.3829 24.1974 90.4513 24.5222C90.5198 24.847 90.7705 25.4419 91.0081 25.8436C91.2457 26.2453 91.4402 26.7487 91.4402 26.9624C91.4402 27.1761 91.5035 27.3504 91.5808 27.3513C91.6581 27.3513 91.9965 28.088 92.333 28.988C92.669 29.888 93.1119 30.8444 93.3172 31.1137C93.522 31.3838 93.6897 31.794 93.6897 32.0256C93.6897 32.2581 93.9006 32.8325 94.1584 33.3026C94.4162 33.7727 94.6271 34.318 94.6271 34.5145C94.6271 34.7111 94.7536 34.8718 94.9083 34.8718C95.0629 34.8718 95.1895 35.0368 95.1895 35.2385C95.1895 35.4393 95.2949 35.8188 95.4238 36.0812C95.9421 37.135 96.1268 37.5889 96.1268 37.8085C96.1268 37.935 96.422 38.547 96.7829 39.1675C97.1438 39.788 97.439 40.4496 97.439 40.6368C97.439 41.1282 98.6608 43.4188 98.9228 43.4188C99.0446 43.4188 99.3394 43.8034 99.5784 44.2735C99.8174 44.7436 100.193 45.1282 100.413 45.1282C100.644 45.1282 100.813 45.3453 100.813 45.641C100.813 45.9598 100.99 46.1538 101.282 46.1538C101.54 46.1538 101.751 46.3077 101.751 46.4957C101.751 46.6838 102.037 46.8376 102.387 46.8376C102.779 46.8376 103.064 47.0342 103.131 47.3504C103.219 47.7692 103.681 47.8632 105.658 47.8632C107.581 47.8632 108.126 47.7581 108.312 47.3504C108.44 47.0684 108.788 46.8376 109.085 46.8376C109.381 46.8376 109.624 46.6838 109.624 46.4957C109.624 46.3077 109.835 46.1538 110.093 46.1538C110.384 46.1538 110.561 45.9598 110.561 45.641C110.561 45.3222 110.739 45.1282 111.03 45.1282C111.288 45.1282 111.499 44.9744 111.499 44.7863C111.499 44.5983 111.625 44.4444 111.78 44.4444C111.935 44.4444 112.061 44.2137 112.061 43.9316C112.061 43.5957 112.246 43.4188 112.596 43.4188C112.907 43.4188 113.343 43.0607 113.637 42.5641C113.915 42.094 114.265 41.7094 114.414 41.7094C114.563 41.7094 114.686 41.5556 114.686 41.3675C114.686 41.1795 114.812 41.0256 114.967 41.0256C115.121 41.0256 115.248 40.7949 115.248 40.5128C115.248 40.194 115.425 40 115.717 40C115.974 40 116.185 39.8632 116.185 39.6949C116.185 39.5274 116.396 39.294 116.654 39.1761C116.912 39.0581 117.123 38.8103 117.123 38.6256C117.123 38.4419 117.211 38.2906 117.318 38.2906C117.502 38.2906 117.714 38.0231 118.334 37.0085C118.478 36.7735 118.749 36.5761 118.937 36.5701C119.353 36.5573 119.935 35.794 119.935 35.2615C119.935 35.047 120.145 34.8718 120.403 34.8718C120.661 34.8718 120.872 34.718 120.872 34.5299C120.872 34.3419 120.998 34.188 121.153 34.188C121.308 34.188 121.434 33.9573 121.434 33.6752C121.434 33.3564 121.611 33.1624 121.903 33.1624C122.161 33.1624 122.372 33.0085 122.372 32.8205C122.372 32.6325 122.543 32.4786 122.753 32.4786C122.962 32.4786 123.181 32.2487 123.24 31.9675C123.379 31.3085 123.684 31.6479 123.684 32.4624C123.684 32.8068 123.81 33.1778 123.965 33.2863C124.128 33.4 124.246 33.9111 124.246 34.4991C124.246 35.0581 124.331 35.6103 124.434 35.7265C124.537 35.8427 124.621 36.241 124.621 36.612C124.621 36.9829 124.748 37.3752 124.902 37.4829C125.057 37.5915 125.184 38.0393 125.184 38.4778C125.184 38.9171 125.268 39.3709 125.371 39.4872C125.474 39.6034 125.558 40.2094 125.558 40.8333C125.558 41.4573 125.685 42.159 125.84 42.3932C125.994 42.6273 126.121 43.0983 126.121 43.4402C126.121 43.7821 126.205 44.1573 126.308 44.2735C126.411 44.3897 126.496 44.788 126.496 45.159C126.496 45.5299 126.622 45.9222 126.777 46.0299C126.932 46.1385 127.058 46.5949 127.058 47.0453C127.058 47.4949 127.142 47.8632 127.246 47.8632C127.349 47.8632 127.433 48.3906 127.433 49.035C127.433 49.6803 127.56 50.4385 127.714 50.7205C127.869 51.0026 127.995 51.3983 127.995 51.5991C127.995 51.8009 128.08 51.9658 128.183 51.9658C128.286 51.9658 128.37 52.2786 128.37 52.6607C128.37 53.0419 128.497 53.4436 128.652 53.5513C128.806 53.6598 128.933 53.8966 128.933 54.0778C128.933 54.5214 129.419 55.3846 129.669 55.3846C129.78 55.3846 129.87 55.5496 129.87 55.7513C129.87 56.2068 130.343 57.094 130.587 57.094C130.686 57.094 130.816 57.3248 130.875 57.6068C130.934 57.8889 131.155 58.1197 131.364 58.1197C131.573 58.1197 131.745 58.2735 131.745 58.4615C131.745 58.6496 131.835 58.8034 131.946 58.8034C132.056 58.8034 132.273 59.0342 132.428 59.3162C132.582 59.5983 132.914 59.8291 133.164 59.8291C133.415 59.8291 133.619 59.9829 133.619 60.1709C133.619 60.359 133.904 60.5128 134.252 60.5128C134.601 60.5128 134.991 60.7436 135.119 61.0256C135.309 61.4427 135.921 61.5385 138.411 61.5385C140.249 61.5385 141.517 61.6752 141.587 61.8803C141.657 62.088 143.057 62.2222 145.16 62.2222H148.616V64.7496C148.616 66.6812 148.55 67.3239 148.335 67.4744C148.111 67.6308 148.054 68.3675 148.054 71.1C148.054 73.159 147.979 74.5299 147.867 74.5299C147.748 74.5299 147.679 76.9803 147.679 81.1966C147.679 85.4128 147.748 87.8632 147.867 87.8632C147.97 87.8632 148.054 88.4068 148.054 89.0709C148.054 89.8282 148.158 90.3513 148.335 90.4744C148.49 90.5829 148.619 90.9239 148.622 91.2333C148.63 91.9419 149.058 92.9915 149.34 92.9915C149.458 92.9915 149.554 93.3094 149.554 93.6974C149.554 94.6222 151.471 98.1197 151.979 98.1197C152.191 98.1197 152.366 98.312 152.367 98.547C152.368 98.9462 153.177 99.8291 153.541 99.8291C153.631 99.8291 153.831 100.06 153.986 100.342C154.14 100.624 154.425 100.855 154.618 100.855C154.81 100.855 155.02 101.009 155.084 101.197C155.148 101.385 155.369 101.538 155.577 101.538C155.784 101.538 156.081 101.769 156.235 102.051C156.39 102.333 156.721 102.564 156.972 102.564C157.222 102.564 157.427 102.718 157.427 102.906C157.427 103.094 157.638 103.248 157.896 103.248C158.187 103.248 158.364 103.442 158.364 103.761C158.364 104.079 158.542 104.274 158.833 104.274C159.091 104.274 159.302 104.427 159.302 104.615C159.302 104.803 159.504 104.957 159.75 104.957C159.997 104.957 160.248 105.188 160.307 105.47C160.375 105.792 160.661 105.983 161.077 105.983C161.441 105.983 161.739 106.137 161.739 106.325C161.739 106.513 161.95 106.667 162.207 106.667C162.499 106.667 162.676 106.861 162.676 107.179C162.676 107.498 162.853 107.692 163.145 107.692C163.403 107.692 163.613 107.846 163.613 108.034C163.613 108.222 163.815 108.376 164.062 108.376C164.309 108.376 164.559 108.607 164.619 108.889C164.678 109.171 164.898 109.402 165.107 109.402C165.673 109.402 165.706 109.326 162.676 114.838C161.13 117.651 159.864 120.118 159.864 120.319C159.864 120.52 159.781 120.684 159.68 120.684C159.579 120.684 159.443 121.068 159.379 121.538C159.314 122.009 159.186 122.393 159.094 122.393C159.002 122.393 158.927 122.682 158.927 123.035C158.927 123.388 158.8 123.868 158.646 124.103C158.491 124.337 158.364 124.971 158.364 125.512C158.364 126.053 158.28 126.496 158.177 126.496C158.06 126.496 157.99 128.547 157.99 131.966C157.99 135.385 158.06 137.436 158.177 137.436C158.28 137.436 158.364 137.809 158.364 138.266C158.364 138.723 158.491 139.327 158.646 139.609C158.8 139.891 158.927 140.351 158.927 140.632C158.927 141.261 159.531 143.243 159.724 143.245C159.801 143.247 159.864 143.409 159.864 143.606C159.864 144.171 162.423 148.718 162.74 148.718C162.897 148.718 163.078 149.018 163.142 149.385C163.206 149.75 163.422 150.145 163.623 150.262C163.824 150.379 163.988 150.617 163.988 150.792C163.988 150.968 164.115 151.111 164.27 151.111C164.424 151.111 164.551 151.276 164.551 151.478C164.551 151.679 164.671 152.063 164.818 152.332C164.966 152.601 165.177 152.821 165.287 152.821C165.398 152.821 165.488 152.985 165.488 153.187C165.488 153.556 165.944 154.53 166.117 154.53C166.167 154.53 166.468 155.003 166.786 155.582C167.103 156.161 167.363 156.71 167.363 156.803C167.363 157.117 166.828 157.949 166.626 157.949C166.516 157.949 166.425 158.179 166.425 158.462C166.425 158.744 166.299 158.974 166.144 158.974C165.989 158.974 165.863 159.128 165.863 159.316C165.863 159.504 165.757 159.658 165.627 159.658C165.497 159.658 165.163 160.043 164.885 160.513C164.607 160.983 164.292 161.368 164.184 161.368C164.076 161.368 163.988 161.598 163.988 161.88C163.988 162.165 163.821 162.393 163.613 162.393C163.407 162.393 163.238 162.547 163.238 162.735C163.238 162.923 163.112 163.077 162.957 163.077C162.803 163.077 162.676 163.308 162.676 163.59C162.676 163.872 162.55 164.103 162.395 164.103C162.24 164.103 162.114 164.246 162.114 164.421C162.114 164.597 161.949 164.835 161.748 164.952C161.548 165.068 161.331 165.463 161.267 165.829C161.203 166.196 160.986 166.496 160.783 166.496C160.58 166.496 160.366 166.726 160.307 167.009C160.248 167.291 160.103 167.524 159.985 167.528C159.867 167.532 159.434 168.07 159.022 168.725C158.611 169.379 158.211 169.915 158.132 169.915C158.054 169.915 157.99 170.145 157.99 170.427C157.99 170.709 157.899 170.94 157.788 170.94C157.678 170.94 157.467 171.16 157.32 171.428C157.173 171.697 157.052 172.082 157.052 172.283C157.052 172.485 156.962 172.65 156.851 172.65C156.741 172.65 156.53 172.869 156.382 173.138C156.235 173.407 156.115 173.791 156.115 173.992C156.115 174.194 156.009 174.36 155.881 174.362C155.593 174.365 155.178 175.921 155.178 176.991C155.178 177.462 155.065 177.778 154.896 177.778C154.7 177.778 154.615 178.138 154.615 178.974C154.615 179.632 154.531 180.171 154.428 180.171C154.311 180.171 154.24 182.222 154.24 185.641C154.24 189.06 154.311 191.111 154.428 191.111C154.531 191.111 154.615 191.885 154.615 192.832C154.615 194.044 154.698 194.609 154.896 194.748C155.113 194.9 155.178 195.558 155.178 197.623C155.178 199.097 155.262 200.397 155.365 200.513C155.468 200.629 155.552 201.412 155.552 202.253C155.552 203.297 155.642 203.844 155.834 203.979C156.017 204.107 156.115 204.639 156.115 205.507V206.838H152.821C150.143 206.838 149.474 206.742 149.246 206.325C149.072 206.008 148.612 205.812 148.04 205.812C147.18 205.812 147.117 205.753 147.117 204.957C147.117 204.426 147.223 204.103 147.398 204.103C147.573 204.103 147.679 203.779 147.679 203.248C147.679 202.778 147.763 202.393 147.867 202.393C147.97 202.393 148.054 201.871 148.054 201.233C148.054 200.517 148.162 199.997 148.335 199.876C148.528 199.742 148.616 199.192 148.616 198.131C148.616 197.279 148.701 196.581 148.804 196.581C148.922 196.581 148.991 194.245 148.991 190.256C148.991 186.268 148.922 183.932 148.804 183.932C148.7 183.932 148.616 183.016 148.616 181.869C148.616 180.352 148.542 179.756 148.335 179.611C148.152 179.483 148.054 178.95 148.054 178.083C148.054 177.351 147.97 176.752 147.867 176.752C147.763 176.752 147.679 176.214 147.679 175.556C147.679 174.72 147.594 174.359 147.398 174.359C147.19 174.359 147.117 173.962 147.117 172.841C147.117 172.006 147.032 171.227 146.929 171.111C146.826 170.995 146.742 170.597 146.742 170.226C146.742 169.855 146.615 169.462 146.461 169.355C146.306 169.246 146.179 168.79 146.179 168.339C146.179 167.89 146.095 167.521 145.992 167.521C145.889 167.521 145.804 167.209 145.804 166.827C145.804 166.445 145.678 166.044 145.523 165.936C145.369 165.827 145.242 165.471 145.242 165.144C145.242 164.354 144.698 162.393 144.479 162.393C144.383 162.393 144.305 162.108 144.305 161.759C144.305 161.411 144.094 160.71 143.836 160.203C143.578 159.696 143.367 159.051 143.367 158.772C143.367 158.294 143.246 157.946 142.664 156.765C142.536 156.503 142.43 156.179 142.43 156.046C142.43 155.914 142.219 155.449 141.961 155.013C141.704 154.577 141.49 154.021 141.487 153.777C141.479 153.165 141.029 152.137 140.769 152.137C140.652 152.137 140.555 151.972 140.555 151.77C140.555 151.297 140.078 150.427 139.819 150.427C139.709 150.427 139.618 150.121 139.618 149.748C139.618 148.956 135.259 140.855 134.833 140.855C134.681 140.855 134.557 140.701 134.557 140.513C134.557 140.325 134.43 140.171 134.275 140.171C134.121 140.171 133.994 140.006 133.994 139.804C133.994 139.332 133.517 138.462 133.258 138.462C133.147 138.462 133.057 138.318 133.057 138.143C133.057 137.968 132.871 137.716 132.644 137.585C132.161 137.305 131.745 136.615 131.745 136.093C131.745 135.891 131.618 135.726 131.464 135.726C131.309 135.726 131.182 135.573 131.182 135.385C131.182 135.197 131.011 135.043 130.801 135.043C130.592 135.043 130.372 134.812 130.313 134.53C130.253 134.248 130.023 134.017 129.801 134.017C129.579 134.017 129.238 133.632 129.045 133.162C128.851 132.692 128.536 132.308 128.344 132.308C128.152 132.308 127.995 132.154 127.995 131.966C127.995 131.778 127.905 131.624 127.794 131.624C127.684 131.624 127.467 131.393 127.313 131.111C127.158 130.829 126.827 130.598 126.576 130.598C126.326 130.598 126.121 130.444 126.121 130.256C126.121 130.068 125.919 129.915 125.672 129.915C125.425 129.915 125.175 129.684 125.116 129.402C125.056 129.12 124.841 128.889 124.638 128.889C124.435 128.889 124.216 128.735 124.152 128.547C124.089 128.359 123.841 128.205 123.602 128.205C123.363 128.205 123.062 127.974 122.934 127.692C122.785 127.365 122.37 127.179 121.786 127.179C121.283 127.179 120.872 127.026 120.872 126.838C120.872 126.65 120.489 126.496 120.022 126.496C119.44 126.496 119.139 126.334 119.065 125.983C118.983 125.591 118.631 125.47 117.582 125.47C116.826 125.47 116.155 125.316 116.092 125.128C116.025 124.93 115 124.786 113.655 124.786C112.31 124.786 111.285 124.93 111.218 125.128C111.154 125.316 110.48 125.47 109.72 125.47C108.742 125.47 108.257 125.62 108.057 125.983C107.89 126.289 107.431 126.496 106.919 126.496C106.448 126.496 106.062 126.65 106.062 126.838C106.062 127.026 105.731 127.179 105.326 127.179C104.921 127.179 104.463 127.41 104.308 127.692C104.153 127.974 103.81 128.205 103.545 128.205C103.28 128.205 103.063 128.359 103.063 128.547C103.063 128.735 102.862 128.889 102.617 128.889C102.372 128.889 102.067 129.12 101.938 129.402C101.81 129.684 101.588 129.915 101.446 129.915C101.304 129.915 101.188 130.068 101.188 130.256C101.188 130.444 100.932 130.598 100.62 130.598C100.288 130.598 100.007 130.811 99.944 131.111C99.8845 131.393 99.7186 131.624 99.5747 131.624C99.4313 131.624 99.3136 131.778 99.3136 131.966C99.3136 132.154 99.1421 132.308 98.9326 132.308C98.7236 132.308 98.5033 132.538 98.4443 132.821C98.3848 133.103 98.1767 133.333 97.9812 133.333C97.7863 133.333 97.6265 133.487 97.6265 133.675C97.6265 133.863 97.4999 134.017 97.3453 134.017C97.1906 134.017 97.0641 134.248 97.0641 134.53C97.0641 134.812 96.9024 135.043 96.7051 135.043C96.5078 135.043 96.0424 135.581 95.6708 136.239C95.2991 136.897 94.9125 137.436 94.8112 137.436C94.71 137.436 94.6271 137.667 94.6271 137.949C94.6271 138.231 94.5085 138.462 94.3637 138.462C94.2184 138.462 93.6621 139.231 93.1274 140.171C92.5926 141.111 92.0785 141.88 91.9848 141.88C91.8915 141.88 91.8151 142.041 91.8151 142.237C91.8151 142.433 91.6042 143.009 91.3465 143.515C91.0887 144.023 90.8778 144.632 90.8778 144.868C90.8778 145.105 90.7583 145.299 90.6121 145.299C90.4663 145.299 90.1734 145.722 89.962 146.239L89.5773 147.179L89.5717 146.239C89.5679 145.637 89.4648 145.299 89.2844 145.299C89.1297 145.299 89.0032 145.134 89.0032 144.932C89.0032 144.46 88.5261 143.59 88.2669 143.59C88.1563 143.59 88.0659 143.425 88.0659 143.223C88.0659 142.75 87.5888 141.88 87.3296 141.88C87.219 141.88 87.1285 141.715 87.1285 141.514C87.1285 141.041 86.6514 140.171 86.3923 140.171C86.2817 140.171 86.1912 140.006 86.1912 139.804C86.1912 139.332 85.7141 138.462 85.455 138.462C85.3444 138.462 85.2539 138.318 85.2539 138.143C85.2539 137.968 85.0679 137.716 84.841 137.585C84.3583 137.305 83.9417 136.615 83.9417 136.093C83.9417 135.891 83.8353 135.726 83.705 135.726C83.5747 135.726 83.3099 135.342 83.1164 134.872C82.9228 134.402 82.6365 134.017 82.4804 134.017C82.3239 134.017 81.9199 133.632 81.5815 133.162C81.2436 132.692 80.8771 132.308 80.7675 132.308C80.6573 132.308 80.5673 132.154 80.5673 131.966C80.5673 131.778 80.3564 131.624 80.0987 131.624C79.8072 131.624 79.63 131.43 79.63 131.111C79.63 130.792 79.4529 130.598 79.1614 130.598C78.9036 130.598 78.6927 130.444 78.6927 130.256C78.6927 130.068 78.4907 129.915 78.2442 129.915C77.9972 129.915 77.747 129.684 77.6874 129.402C77.6284 129.12 77.4133 128.889 77.2099 128.889C77.0065 128.889 76.7881 128.735 76.7244 128.547C76.6606 128.359 76.4127 128.205 76.1737 128.205C75.9347 128.205 75.6343 127.974 75.5058 127.692C75.3634 127.379 74.9528 127.179 74.4518 127.179C74.0005 127.179 73.6312 127.026 73.6312 126.838C73.6312 126.65 73.2183 126.496 72.7141 126.496C72.0715 126.496 71.7646 126.342 71.6886 125.983C71.6047 125.583 71.2303 125.47 69.9818 125.47C69.0403 125.47 68.3823 125.329 68.3823 125.128C68.3823 124.92 67.511 124.786 66.1439 124.786C64.8537 124.786 63.856 124.931 63.7894 125.128C63.7257 125.316 63.0011 125.47 62.1791 125.47C61.0234 125.47 60.6602 125.586 60.5768 125.983C60.5008 126.342 60.1939 126.496 59.5513 126.496C59.0471 126.496 58.6342 126.65 58.6342 126.838C58.6342 127.026 58.2518 127.179 57.7845 127.179C57.2024 127.179 56.9011 127.341 56.8275 127.692C56.768 127.974 56.5224 128.205 56.282 128.205C56.0411 128.205 55.7922 128.359 55.7285 128.547C55.6648 128.735 55.4117 128.889 55.1661 128.889C54.9205 128.889 54.6707 129.033 54.6112 129.209C54.4519 129.679 53.381 130.598 52.9925 130.598C52.8083 130.598 52.6087 130.743 52.5487 130.92C52.4887 131.097 52.0617 131.585 51.6001 132.006C51.1385 132.426 50.7607 132.897 50.7607 133.052C50.7607 133.207 50.6342 133.333 50.4795 133.333C50.3249 133.333 50.1984 133.487 50.1984 133.675C50.1984 133.863 50.0268 134.017 49.8173 134.017C49.6083 134.017 49.388 134.248 49.329 134.53C49.2695 134.812 49.1036 135.043 48.9597 135.043C48.8163 135.043 48.6986 135.197 48.6986 135.385C48.6986 135.573 48.5416 135.726 48.35 135.726C48.1583 135.726 47.8429 136.111 47.6493 136.581C47.4558 137.051 47.191 137.436 47.0607 137.436C46.9304 137.436 46.824 137.667 46.824 137.949C46.824 138.231 46.6614 138.462 46.4627 138.462C46.264 138.462 45.9354 138.846 45.7325 139.316C45.5301 139.786 45.307 140.171 45.2371 140.171C45.037 140.171 44.5745 141.109 44.5745 141.514C44.5745 141.715 44.4681 141.88 44.3378 141.88C44.2075 141.88 43.9427 142.265 43.7492 142.735C43.5556 143.205 43.28 143.59 43.1362 143.59C42.9927 143.59 42.8193 143.859 42.7504 144.188C42.6816 144.517 42.2204 145.507 41.7255 146.388C41.2301 147.269 40.8252 148.136 40.8252 148.314C40.8252 148.492 40.6504 148.721 40.4362 148.824C40.2225 148.926 40.0018 149.328 39.946 149.718C39.8898 150.109 39.7581 150.427 39.6522 150.427C39.3827 150.427 38.9637 151.509 38.9567 152.222C38.9534 152.551 38.8381 152.821 38.7013 152.821C38.5639 152.821 38.3319 153.244 38.1857 153.761C37.9148 154.717 37.7293 155.203 37.3103 156.056C37.1814 156.318 37.0759 156.697 37.0759 156.898C37.0759 157.1 36.9953 157.265 36.8974 157.265C36.799 157.265 36.5698 157.842 36.388 158.547C36.066 159.795 35.9202 160.198 35.4356 161.184C35.3068 161.446 35.2013 161.979 35.2013 162.368C35.2013 162.758 35.0959 163.078 34.967 163.079C34.6844 163.083 34.264 164.632 34.264 165.673C34.264 166.085 34.1375 166.511 33.9828 166.62C33.8282 166.727 33.7016 167.129 33.7016 167.51C33.7016 167.892 33.6173 168.205 33.5142 168.205C33.411 168.205 33.3267 168.573 33.3267 169.023C33.3267 169.473 33.2002 169.93 33.0455 170.038C32.8908 170.146 32.7643 170.615 32.7643 171.08C32.7643 171.545 32.6799 172.021 32.5768 172.137C32.4737 172.253 32.3894 172.784 32.3894 173.317C32.3894 173.862 32.2666 174.372 32.1082 174.483C31.916 174.617 31.827 175.165 31.827 176.209C31.827 177.05 31.7426 177.832 31.6395 177.949C31.5364 178.065 31.4521 178.777 31.4521 179.532C31.4521 180.295 31.3274 181.131 31.1709 181.416C30.9717 181.779 30.8897 182.665 30.8897 184.449C30.8897 185.834 30.8053 187.063 30.7022 187.179C30.5986 187.297 30.5147 188.835 30.5147 190.619C30.5147 192.543 30.5907 193.846 30.7022 193.846C30.8095 193.846 30.8897 194.875 30.8897 196.25C30.8897 198.072 30.9576 198.702 31.1709 198.85C31.3429 198.971 31.4521 199.49 31.4521 200.187C31.4521 200.815 31.5364 201.422 31.6395 201.538C31.7426 201.655 31.827 202.195 31.827 202.738C31.827 203.282 31.9399 203.85 32.0782 204C32.8159 204.803 32.567 205.812 31.6311 205.812C31.0293 205.812 30.6689 205.98 30.5682 206.309C30.4449 206.712 29.741 206.826 26.9033 206.908C23.3569 207.009 22.9684 206.878 23.6723 205.812C23.872 205.509 23.9535 204.71 23.9535 203.056C23.9535 201.773 24.0379 200.629 24.141 200.513C24.2441 200.397 24.3285 199.481 24.3285 198.478C24.3285 197.173 24.4081 196.598 24.6097 196.457C24.8079 196.319 24.8909 195.754 24.8909 194.541C24.8909 193.595 24.9752 192.821 25.0783 192.821C25.1814 192.821 25.2658 191.963 25.2658 190.915C25.2658 189.679 25.3642 188.832 25.547 188.498C25.9407 187.78 25.9407 183.16 25.547 182.442C25.3792 182.136 25.2658 181.3 25.2658 180.367C25.2658 179.507 25.1814 178.803 25.0783 178.803C24.9752 178.803 24.8909 178.414 24.8909 177.938C24.8909 177.462 24.7643 176.984 24.6097 176.876C24.455 176.768 24.3285 176.404 24.3285 176.068C24.3285 175.732 24.119 175.094 23.8631 174.651C23.6072 174.209 23.3963 173.666 23.3944 173.445C23.3912 173.018 22.325 170.94 22.1094 170.94C22.0391 170.94 21.7541 170.556 21.4758 170.085C21.1978 169.615 20.8824 169.231 20.7746 169.231C20.6673 169.231 20.5792 169.056 20.5792 168.841C20.5792 168.315 20.0004 167.545 19.595 167.532C19.4146 167.526 19.267 167.291 19.267 167.009C19.267 166.726 19.184 166.496 19.0828 166.496C18.9816 166.496 18.5949 165.957 18.2233 165.299C17.8516 164.641 17.4612 164.103 17.3558 164.103C17.1674 164.103 16.5258 163.144 15.9264 161.966C15.7591 161.637 15.5271 161.368 15.4109 161.368C15.2951 161.368 14.8963 160.829 14.5246 160.171C14.153 159.513 13.7303 158.974 13.585 158.974C13.4397 158.974 13.1622 158.59 12.9687 158.12C12.7751 157.65 12.5103 157.265 12.3801 157.265C12.2498 157.265 12.1434 157.034 12.1434 156.752C12.1434 156.47 12.2338 156.239 12.3444 156.239C12.4546 156.239 12.6655 156.02 12.8131 155.751C12.9602 155.482 13.0807 155.097 13.0807 154.897C13.0807 154.695 13.1711 154.53 13.2817 154.53C13.5409 154.53 14.018 153.66 14.018 153.187C14.018 152.985 14.1905 152.821 14.4009 152.821C14.6305 152.821 15.4254 151.658 16.388 149.915C17.2705 148.316 18.0681 147.009 18.1609 147.009C18.2537 147.009 18.3297 146.844 18.3297 146.642C18.3297 146.169 18.8067 145.299 19.0659 145.299C19.1765 145.299 19.267 145.162 19.267 144.993C19.267 144.825 19.4765 144.325 19.7323 143.882C19.9882 143.439 20.1991 142.808 20.201 142.479C20.2029 142.15 20.2886 141.88 20.3917 141.88C20.4949 141.88 20.5792 141.668 20.5792 141.409C20.5792 141.15 20.7057 140.747 20.8604 140.513C21.0151 140.279 21.1416 139.721 21.1416 139.274C21.1416 138.827 21.226 138.462 21.3291 138.462C21.4322 138.462 21.5165 137.709 21.5165 136.789C21.5165 135.617 21.6009 135.057 21.7977 134.919C22.1919 134.644 22.1965 129.645 21.8038 128.697C21.6524 128.332 21.5259 127.457 21.5226 126.752C21.5193 126.047 21.4322 125.47 21.3291 125.47C21.226 125.47 21.1416 125.085 21.1416 124.615C21.1416 124.084 21.0352 123.761 20.8604 123.761C20.6856 123.761 20.5792 123.438 20.5792 122.906C20.5792 122.436 20.4949 122.051 20.3917 122.051C20.2886 122.051 20.2043 121.755 20.2043 121.392C20.2043 121.03 19.9934 120.431 19.7356 120.061C19.4779 119.691 19.267 119.219 19.267 119.01C19.267 118.803 19.1765 118.632 19.0659 118.632C18.78 118.632 18.4014 117.873 18.2481 116.992C18.1727 116.558 17.9636 116.239 17.7546 116.239C17.5554 116.239 17.3923 116.009 17.3923 115.726C17.3923 115.444 17.3019 115.214 17.1913 115.214C16.9321 115.214 16.455 114.344 16.455 113.871C16.455 113.669 16.3646 113.504 16.254 113.504C15.9948 113.504 15.5177 112.634 15.5177 112.162C15.5177 111.96 15.4273 111.795 15.3167 111.795C15.0575 111.795 14.5804 110.925 14.5804 110.452C14.5804 110.25 14.4539 110.085 14.2992 110.085C14.1445 110.085 14.018 109.932 14.018 109.744C14.018 109.556 14.2289 109.402 14.4867 109.402C14.7782 109.402 14.9553 109.208 14.9553 108.889C14.9553 108.57 15.1325 108.376 15.424 108.376C15.6817 108.376 15.8926 108.222 15.8926 108.034C15.8926 107.846 16.0974 107.692 16.3477 107.692C16.5984 107.692 16.9298 107.462 17.0844 107.179C17.2391 106.897 17.5404 106.667 17.7537 106.667C17.9674 106.667 18.1422 106.513 18.1422 106.325C18.1422 106.137 18.385 105.983 18.6816 105.983C18.9783 105.983 19.326 105.752 19.4544 105.47C19.5828 105.188 19.8411 104.957 20.0285 104.957C20.216 104.957 20.4217 104.803 20.4855 104.615C20.5492 104.427 20.7676 104.274 20.971 104.274C21.1744 104.274 21.3895 104.043 21.4486 103.761C21.5081 103.479 21.7584 103.248 22.0053 103.248C22.2518 103.248 22.4538 103.094 22.4538 102.906C22.4538 102.718 22.6647 102.564 22.9225 102.564C23.214 102.564 23.3912 102.37 23.3912 102.051C23.3912 101.695 23.588 101.538 24.036 101.538C24.3908 101.538 24.7334 101.385 24.7971 101.197C24.8609 101.009 25.0793 100.855 25.2827 100.855C25.4861 100.855 25.7012 100.624 25.7602 100.342C25.8197 100.06 26.07 99.8291 26.317 99.8291C26.5635 99.8291 26.7655 99.6752 26.7655 99.4872C26.7655 99.2991 26.9225 99.1453 27.1142 99.1453C27.3058 99.1453 27.6213 98.7607 27.8148 98.2906C28.0084 97.8205 28.2643 97.4359 28.3833 97.4359C28.5023 97.4359 28.6486 97.2051 28.7081 96.9231C28.7671 96.641 28.9391 96.4103 29.09 96.4103C29.2414 96.4103 29.412 96.141 29.4696 95.812C29.5278 95.4829 29.8708 94.6086 30.2321 93.8692C30.5939 93.1299 30.8897 92.2453 30.8897 91.9034C30.8897 91.5615 31.0162 91.282 31.1709 91.282C31.3457 91.282 31.4521 90.959 31.4521 90.4273C31.4521 89.9573 31.5364 89.5726 31.6395 89.5726C31.76 89.5726 31.827 86.2675 31.827 80.3419C31.827 74.8393 31.7562 71.1111 31.6517 71.1111C31.5552 71.1111 31.4497 69.4957 31.4174 67.5205L31.3583 63.9299L33.4443 63.9308C35.0696 63.9316 35.5819 64.0453 35.7637 64.4444C35.946 64.8453 36.4629 64.9573 38.13 64.9573C39.4267 64.9573 40.2628 65.0915 40.2628 65.2991C40.2628 65.5094 41.1964 65.641 42.6886 65.641C44.1039 65.641 45.1631 65.4983 45.2306 65.2991C45.2943 65.1111 45.6393 64.9573 45.9973 64.9573C46.4032 64.9573 46.689 64.7641 46.7561 64.4444C46.8156 64.1624 47.0658 63.9316 47.3128 63.9316C47.5593 63.9316 47.7613 63.7778 47.7613 63.5897C47.7613 63.4017 47.9329 63.2479 48.1424 63.2479C48.3514 63.2479 48.5716 63.0171 48.6307 62.735C48.6902 62.453 48.8833 62.2222 49.06 62.2222C49.6758 62.2222 52.073 57.3453 52.073 56.0923C52.073 55.7034 52.1573 55.3846 52.2604 55.3846C52.3635 55.3846 52.4479 55.2197 52.4479 55.018C52.4479 54.8171 52.5744 54.4214 52.7291 54.1393C52.8838 53.8573 53.0103 53.2615 53.0103 52.8162C53.0103 52.3709 53.0947 51.9111 53.1978 51.7949C53.3009 51.6786 53.3852 51.1496 53.3852 50.6197C53.3852 50.0897 53.5118 49.465 53.6664 49.2308C53.8379 48.9709 53.9476 48.2222 53.9476 47.3085C53.9476 46.4855 54.032 45.812 54.1351 45.812C54.2382 45.812 54.3225 45.3393 54.3225 44.7615C54.3225 44.1846 54.4491 43.4812 54.6037 43.1991C54.7584 42.9171 54.8849 42.2444 54.8849 41.7051C54.8849 41.1658 54.9693 40.6291 55.0724 40.5128C55.1755 40.3966 55.2599 39.9154 55.2599 39.4427C55.2599 38.9701 55.3864 38.353 55.541 38.0709C55.7149 37.7538 55.8222 36.9145 55.8222 35.8727C55.8222 34.9462 55.9066 34.188 56.0097 34.188C56.1128 34.188 56.1972 33.7265 56.1972 33.1624C56.1972 32.0239 56.4802 31.8504 57.052 32.6385C57.2521 32.9145 57.5544 33.1453 57.7236 33.1513C57.8932 33.1573 58.0802 33.3932 58.1397 33.6752C58.1988 33.9573 58.4191 34.188 58.6281 34.188C58.8376 34.188 59.0091 34.3419 59.0091 34.5299C59.0091 34.718 59.1356 34.8718 59.2903 34.8718C59.445 34.8718 59.5715 35.0145 59.5715 35.1889C59.5715 35.5983 60.6508 36.5812 61.0998 36.5812C61.2905 36.5812 61.4461 36.7564 61.4461 36.9709C61.4461 37.4316 62.0066 38.2641 62.3267 38.2795C62.4505 38.2855 62.779 38.6752 63.0574 39.1453C63.3353 39.6154 63.7102 40 63.8906 40C64.0706 40 64.2665 40.2308 64.326 40.5128C64.3851 40.7949 64.5852 41.0256 64.7703 41.0256C64.955 41.0256 65.2647 41.4103 65.4583 41.8803C65.6519 42.3504 65.9673 42.735 66.1589 42.735C66.3506 42.735 66.5076 42.8889 66.5076 43.0769C66.5076 43.265 66.6721 43.4188 66.8727 43.4188C67.0738 43.4188 67.4656 43.8034 67.7439 44.2735C68.0219 44.7436 68.3968 45.1282 68.5772 45.1282C68.7572 45.1282 68.9531 45.359 69.0126 45.641C69.0716 45.9231 69.2919 46.1538 69.5009 46.1538C69.7104 46.1538 69.882 46.3077 69.882 46.4957C69.882 46.6838 70.1669 46.8376 70.5151 46.8376C70.8633 46.8376 71.2532 47.0684 71.3817 47.3504C71.7153 48.0838 76.0176 48.0932 76.5481 47.3615C76.7483 47.0855 77.1016 46.8547 77.3336 46.8487C77.5656 46.8427 77.7554 46.6838 77.7554 46.4957C77.7554 46.3077 77.9602 46.1538 78.2105 46.1538C78.4612 46.1538 78.7925 45.9231 78.9472 45.641C79.1018 45.359 79.3188 45.1282 79.429 45.1282C79.5396 45.1282 79.63 44.9744 79.63 44.7863C79.63 44.5983 79.7566 44.4444 79.9112 44.4444C80.0659 44.4444 80.1924 44.2137 80.1924 43.9316C80.1924 43.641 80.3607 43.4188 80.5809 43.4188C80.9343 43.4188 81.5047 42.7034 81.5047 42.2607C81.5047 42.1607 81.8421 41.4513 82.2545 40.6838C82.6669 39.9162 83.0044 39.165 83.0044 39.0128C83.0044 38.8615 83.2996 38.1829 83.6605 37.5051C84.0213 36.8274 84.3166 36.0564 84.3166 35.7915C84.3166 35.5265 84.5275 35.0205 84.7853 34.6675C85.043 34.3145 85.2539 33.8316 85.2539 33.594C85.2539 33.3564 85.3645 33.1624 85.5 33.1624C85.6354 33.1624 85.8622 32.6239 86.0038 31.9658C86.1453 31.3077 86.3721 30.7692 86.5076 30.7692C86.643 30.7692 86.7536 30.5752 86.7536 30.3376C86.7536 30.1 86.9645 29.6171 87.2223 29.2641C87.48 28.9111 87.6909 28.3359 87.6909 27.9863C87.6909 27.6368 87.7753 27.3504 87.8784 27.3504C87.9815 27.3504 88.0659 27.1197 88.0659 26.8376C88.0659 26.5556 88.1563 26.3248 88.2669 26.3248C88.5167 26.3248 89.0032 25.4615 89.0032 25.018C89.0032 24.8368 89.1297 24.6 89.2844 24.4915C89.439 24.3838 89.5656 23.9821 89.5656 23.6009C89.5656 23.2188 89.6499 22.906 89.753 22.906C89.8561 22.906 89.9405 23.1368 89.9405 23.4188ZM69.882 140.513C69.882 140.701 70.1833 140.855 70.5517 140.855C70.9196 140.855 71.3475 141.085 71.5021 141.368C71.6568 141.65 72.0678 141.88 72.4151 141.88C72.7623 141.88 73.0988 142.034 73.1626 142.222C73.2263 142.41 73.433 142.564 73.6223 142.564C73.8112 142.564 74.0146 142.795 74.0741 143.077C74.1331 143.359 74.3483 143.59 74.5517 143.59C74.7551 143.59 74.9735 143.744 75.0372 143.932C75.1009 144.12 75.3076 144.273 75.4969 144.273C75.6858 144.273 75.8892 144.504 75.9487 144.786C76.0078 145.068 76.228 145.299 76.4371 145.299C76.6466 145.299 76.8181 145.453 76.8181 145.641C76.8181 145.829 77.029 145.983 77.2867 145.983C77.5782 145.983 77.7554 146.177 77.7554 146.496C77.7554 146.778 77.8309 147.009 77.9232 147.009C78.0155 147.009 78.2897 147.391 78.5324 147.857C78.7752 148.324 79.0906 148.709 79.2331 148.712C79.3755 148.715 79.7706 149.256 80.1109 149.915C80.4511 150.573 80.8195 151.111 80.9296 151.111C81.0398 151.111 81.1297 151.276 81.1297 151.478C81.1297 151.95 81.6068 152.821 81.866 152.821C81.9766 152.821 82.067 153.017 82.067 153.258C82.067 153.498 82.2442 153.921 82.4602 154.198C82.6763 154.474 82.9275 155.047 83.018 155.47C83.1136 155.915 83.3423 156.239 83.5621 156.239C83.8418 156.239 83.9417 156.464 83.9417 157.094C83.9417 157.564 84.026 157.949 84.1291 157.949C84.2322 157.949 84.3166 158.101 84.3166 158.286C84.3166 158.868 85.3364 161.341 85.582 161.355C85.7109 161.362 85.8163 161.754 85.8163 162.226C85.8163 163.177 86.1566 164.466 86.5193 164.889C86.6482 165.039 86.7536 165.453 86.7536 165.809C86.7536 166.164 86.838 166.55 86.9411 166.667C87.0442 166.783 87.1285 167.177 87.1285 167.542C87.1285 167.907 87.2551 168.205 87.4097 168.205C87.6061 168.205 87.6909 168.566 87.6909 169.402C87.6909 170.06 87.7753 170.598 87.8784 170.598C87.9815 170.598 88.0659 170.813 88.0659 171.074C88.0659 171.337 88.1924 171.639 88.3471 171.748C88.5017 171.856 88.6283 172.248 88.6283 172.619C88.6283 172.99 88.7126 173.388 88.8157 173.504C88.9188 173.621 89.0032 174.015 89.0032 174.379C89.0032 174.912 89.1349 175.043 89.6729 175.043C90.4171 175.043 90.8778 174.413 90.8778 173.394C90.8778 173.025 91.0043 172.634 91.159 172.526C91.3137 172.418 91.4402 172.016 91.4402 171.635C91.4402 171.253 91.5246 170.94 91.6277 170.94C91.7308 170.94 91.8151 170.572 91.8151 170.122C91.8151 169.672 91.9417 169.215 92.0963 169.107C92.251 168.999 92.3775 168.597 92.3775 168.216C92.3775 167.834 92.4619 167.521 92.565 167.521C92.6681 167.521 92.7524 167.232 92.7524 166.879C92.7524 166.526 92.879 166.046 93.0336 165.812C93.1883 165.578 93.3148 165.097 93.3148 164.744C93.3148 164.391 93.3992 164.103 93.5023 164.103C93.6054 164.103 93.6897 163.803 93.6897 163.437C93.6897 163.07 93.9006 162.356 94.1584 161.848C94.4162 161.341 94.6271 160.64 94.6271 160.292C94.6271 159.944 94.7231 159.658 94.8408 159.658C95.0971 159.658 95.5498 158.632 95.5583 158.032C95.5616 157.797 95.9862 156.85 96.5017 155.93C97.0374 154.973 97.439 153.949 97.439 153.538C97.439 153.059 97.5585 152.821 97.7975 152.821C97.9948 152.821 98.6702 151.897 99.2986 150.769C99.9266 149.641 100.525 148.718 100.627 148.718C100.729 148.718 100.813 148.571 100.813 148.392C100.813 148.213 101.109 147.811 101.469 147.498C101.83 147.186 102.126 146.717 102.126 146.456C102.126 146.196 102.252 145.983 102.407 145.983C102.561 145.983 102.688 145.829 102.688 145.641C102.688 145.453 102.889 145.299 103.134 145.299C103.379 145.299 103.684 145.068 103.813 144.786C103.941 144.504 104.162 144.273 104.304 144.273C104.446 144.273 104.563 144.12 104.563 143.932C104.563 143.744 104.734 143.59 104.944 143.59C105.153 143.59 105.373 143.359 105.432 143.077C105.491 142.795 105.742 142.564 105.989 142.564C106.235 142.564 106.437 142.41 106.437 142.222C106.437 142.034 106.82 141.88 107.287 141.88C107.869 141.88 108.17 141.719 108.244 141.368C108.317 141.02 108.616 140.855 109.176 140.855C109.628 140.855 109.999 140.701 109.999 140.513C109.999 140.297 111.343 140.171 113.655 140.171C115.966 140.171 117.31 140.297 117.31 140.513C117.31 140.701 117.681 140.855 118.134 140.855C118.693 140.855 118.992 141.02 119.065 141.368C119.139 141.719 119.44 141.88 120.022 141.88C120.489 141.88 120.872 142.034 120.872 142.222C120.872 142.41 121.043 142.564 121.253 142.564C121.462 142.564 121.682 142.795 121.741 143.077C121.801 143.359 122.051 143.59 122.298 143.59C122.544 143.59 122.746 143.744 122.746 143.932C122.746 144.12 122.837 144.273 122.948 144.273C123.058 144.273 123.275 144.504 123.429 144.786C123.584 145.068 123.915 145.299 124.166 145.299C124.416 145.299 124.621 145.453 124.621 145.641C124.621 145.829 124.748 145.983 124.902 145.983C125.057 145.983 125.184 146.214 125.184 146.496C125.184 146.778 125.31 147.009 125.465 147.009C125.619 147.009 125.746 147.162 125.746 147.35C125.746 147.538 125.906 147.692 126.101 147.692C126.296 147.692 126.504 147.923 126.564 148.205C126.623 148.487 126.812 148.718 126.983 148.718C127.155 148.718 127.574 149.256 127.914 149.915C128.254 150.573 128.623 151.111 128.733 151.111C128.843 151.111 128.933 151.276 128.933 151.478C128.933 151.911 129.401 152.821 129.625 152.821C129.711 152.821 129.939 153.205 130.133 153.675C130.327 154.145 130.602 154.53 130.746 154.53C130.889 154.53 131.062 154.799 131.13 155.128C131.198 155.457 131.659 156.474 132.155 157.387C132.651 158.301 133.057 159.185 133.057 159.353C133.057 159.521 133.183 159.658 133.338 159.658C133.493 159.658 133.619 159.852 133.619 160.09C133.619 160.327 133.83 160.81 134.088 161.163C134.346 161.516 134.557 162.035 134.557 162.316C134.557 162.597 134.768 163.184 135.025 163.62C135.283 164.056 135.494 164.594 135.494 164.816C135.494 165.038 135.705 165.577 135.963 166.013C136.22 166.449 136.431 166.966 136.431 167.163C136.431 167.36 136.516 167.521 136.619 167.521C136.722 167.521 136.806 167.834 136.806 168.216C136.806 168.597 136.933 168.999 137.087 169.107C137.242 169.215 137.369 169.606 137.369 169.975C137.369 170.345 137.474 170.862 137.603 171.124C138.142 172.22 138.306 172.636 138.306 172.909C138.306 173.565 138.791 175.038 139.009 175.04C139.157 175.042 139.243 175.545 139.243 176.41C139.243 177.162 139.328 177.778 139.431 177.778C139.534 177.778 139.618 178.151 139.618 178.608C139.618 179.065 139.745 179.669 139.899 179.951C140.054 180.233 140.181 180.85 140.181 181.323C140.181 181.796 140.265 182.277 140.368 182.393C140.471 182.509 140.555 183.211 140.555 183.952C140.555 184.921 140.634 185.299 140.837 185.299C141.254 185.299 141.254 193.678 140.837 193.97C140.66 194.093 140.555 194.616 140.555 195.374C140.555 196.038 140.471 196.581 140.368 196.581C140.265 196.581 140.181 196.812 140.181 197.094C140.181 197.376 140.098 197.607 139.997 197.607C139.896 197.607 139.76 197.991 139.695 198.462C139.63 198.932 139.502 199.316 139.411 199.316C139.318 199.316 139.243 199.635 139.243 200.025C139.243 200.414 139.138 200.947 139.009 201.209C138.453 202.34 138.306 202.727 138.306 203.062C138.306 203.258 138.215 203.419 138.105 203.419C137.846 203.419 137.369 204.289 137.369 204.762C137.369 204.963 137.286 205.128 137.185 205.128C137.084 205.128 136.948 205.513 136.883 205.983C136.808 206.532 136.634 206.838 136.398 206.838C136 206.838 135.494 207.589 135.494 208.18C135.494 208.382 135.404 208.547 135.293 208.547C135.034 208.547 134.557 209.417 134.557 209.89C134.557 210.091 134.346 210.256 134.088 210.256C133.83 210.256 133.619 210.41 133.619 210.598C133.619 210.786 133.502 210.94 133.358 210.94C133.214 210.94 133.049 211.171 132.989 211.453C132.93 211.735 132.71 211.966 132.501 211.966C132.291 211.966 132.12 212.12 132.12 212.308C132.12 212.496 131.948 212.65 131.739 212.65C131.53 212.65 131.309 212.88 131.25 213.162C131.191 213.444 130.987 213.675 130.798 213.675C130.609 213.675 130.402 213.829 130.339 214.017C130.275 214.205 130.023 214.359 129.779 214.359C129.535 214.359 129.208 214.59 129.053 214.872C128.857 215.229 128.377 215.385 127.466 215.385C126.479 215.385 126.135 215.26 126.053 214.872C125.994 214.59 125.774 214.359 125.565 214.359C125.355 214.359 125.184 214.205 125.184 214.017C125.184 213.829 125.057 213.675 124.902 213.675C124.748 213.675 124.621 213.444 124.621 213.162C124.621 212.88 124.558 212.65 124.481 212.65C124.403 212.649 124.095 212.264 123.795 211.795C123.496 211.325 123.137 210.94 122.999 210.94C122.86 210.94 122.746 210.786 122.746 210.598C122.746 210.41 122.536 210.256 122.278 210.256C122.02 210.256 121.809 210.091 121.809 209.89C121.809 209.311 120.951 208.064 120.263 207.643C120.082 207.532 119.935 207.306 119.935 207.139C119.935 206.974 119.733 206.838 119.486 206.838C119.239 206.838 118.989 206.607 118.929 206.325C118.87 206.043 118.65 205.812 118.441 205.812C118.231 205.812 118.06 205.676 118.06 205.51C118.06 205.344 117.912 205.115 117.732 205.001C117.551 204.887 117.151 204.496 116.841 204.132C116.532 203.767 116.002 203.457 115.664 203.444C115.3 203.429 115.005 203.209 114.941 202.906C114.881 202.624 114.636 202.393 114.395 202.393C114.155 202.393 113.906 202.239 113.842 202.051C113.778 201.863 113.404 201.709 113.01 201.709C112.603 201.709 112.194 201.489 112.061 201.197C111.871 200.778 111.249 200.684 108.677 200.684C106.127 200.684 105.473 200.781 105.245 201.197C105.091 201.479 104.71 201.709 104.4 201.709C104.089 201.709 103.783 201.863 103.719 202.051C103.655 202.239 103.437 202.393 103.233 202.393C103.03 202.393 102.815 202.624 102.756 202.906C102.696 203.188 102.445 203.419 102.197 203.419C101.693 203.419 100.986 204.049 100.757 204.701C100.675 204.936 100.443 205.128 100.242 205.128C100.041 205.128 99.876 205.282 99.876 205.47C99.876 205.658 99.7598 205.812 99.6178 205.812C99.4758 205.812 99.2546 206.043 99.1262 206.325C98.9978 206.607 98.7231 206.838 98.5155 206.838C98.3079 206.838 97.9428 207.222 97.7038 207.692C97.4648 208.162 97.1934 208.547 97.1006 208.547C97.0074 208.547 96.7037 208.932 96.4258 209.402C96.1474 209.872 95.84 210.256 95.742 210.256C95.6445 210.256 95.5644 210.41 95.5644 210.598C95.5644 210.786 95.4074 210.94 95.2157 210.94C95.024 210.94 94.7086 211.325 94.5151 211.795C94.1457 212.691 92.3775 213.103 92.3775 212.291C92.3775 212.053 91.1801 211.952 88.782 211.989C85.6663 212.037 85.1569 211.971 84.9652 211.492C84.8434 211.189 84.5945 210.94 84.4117 210.94C84.229 210.94 83.8011 210.402 83.4608 209.744C83.1206 209.085 82.7072 208.547 82.5423 208.547C82.3778 208.547 82.1941 208.316 82.135 208.034C82.0755 207.752 81.9096 207.521 81.7657 207.521C81.6223 207.521 81.5047 207.368 81.5047 207.179C81.5047 206.991 81.2938 206.838 81.036 206.838C80.7445 206.838 80.5673 206.644 80.5673 206.325C80.5673 206.037 80.4 205.812 80.1844 205.812C79.974 205.812 79.6164 205.497 79.3905 205.113C78.8 204.109 77.9686 203.419 77.3519 203.419C77.0023 203.419 76.8181 203.242 76.8181 202.906C76.8181 202.587 76.6409 202.393 76.3494 202.393C76.0917 202.393 75.8808 202.239 75.8808 202.051C75.8808 201.863 75.5944 201.709 75.2448 201.709C74.8521 201.709 74.5671 201.513 74.5006 201.197C74.4106 200.768 73.8571 200.684 71.1295 200.684C68.4572 200.684 67.8236 200.777 67.6324 201.197C67.4993 201.489 67.0906 201.709 66.6834 201.709C66.2897 201.709 65.9152 201.863 65.8515 202.051C65.7878 202.239 65.5272 202.393 65.2722 202.393C65.0173 202.393 64.76 202.624 64.701 202.906C64.6344 203.222 64.3495 203.419 63.9567 203.419C63.6071 203.419 63.3208 203.573 63.3208 203.761C63.3208 203.949 63.1492 204.103 62.9397 204.103C62.7307 204.103 62.5104 204.333 62.4514 204.615C62.3919 204.897 62.2246 205.128 62.0797 205.128C61.7376 205.128 61.0192 205.864 60.8275 206.41C60.745 206.645 60.483 206.838 60.2459 206.838C60.0083 206.838 59.586 207.222 59.3081 207.692C59.0297 208.162 58.6801 208.547 58.5306 208.547C58.3816 208.547 58.2593 208.701 58.2593 208.889C58.2593 209.077 58.1327 209.231 57.9781 209.231C57.8234 209.231 57.6969 209.462 57.6969 209.744C57.6969 210.026 57.5703 210.256 57.4157 210.256C57.261 210.256 57.1345 210.41 57.1345 210.598C57.1345 210.786 56.9775 210.94 56.7858 210.94C56.5941 210.94 56.2787 211.325 56.0852 211.795C55.8916 212.265 55.6713 212.65 55.5959 212.65C55.4126 212.65 53.6838 214.801 53.6041 215.128C53.4729 215.667 50.5733 215.421 50.5733 214.872C50.5733 214.514 50.3755 214.359 49.9172 214.359C49.5563 214.359 49.261 214.205 49.261 214.017C49.261 213.829 49.0965 213.675 48.896 213.675C48.6949 213.675 48.3031 213.291 48.0247 212.821C47.7468 212.35 47.3719 211.966 47.1914 211.966C47.0115 211.966 46.8156 211.735 46.7561 211.453C46.697 211.171 46.4767 210.94 46.2677 210.94C46.0582 210.94 45.8867 210.786 45.8867 210.598C45.8867 210.41 45.7986 210.256 45.6913 210.256C45.5076 210.256 45.2953 209.989 44.6752 208.974C44.5313 208.739 44.3233 208.547 44.2131 208.547C44.1025 208.547 44.0121 208.382 44.0121 208.18C44.0121 207.708 43.535 206.838 43.2758 206.838C43.1652 206.838 43.0748 206.673 43.0748 206.471C43.0748 205.998 42.5977 205.128 42.3385 205.128C42.2279 205.128 42.1374 204.817 42.1374 204.436C42.1374 204.012 41.9556 203.618 41.6688 203.419C41.382 203.22 41.2001 202.826 41.2001 202.402C41.2001 202.021 41.1158 201.709 41.0127 201.709C40.9096 201.709 40.8252 201.479 40.8252 201.197C40.8252 200.915 40.7469 200.684 40.6513 200.684C40.4578 200.684 39.8879 198.762 39.8879 198.109C39.8879 197.879 39.7614 197.499 39.6067 197.265C39.452 197.031 39.3255 196.55 39.3255 196.197C39.3255 195.844 39.2411 195.556 39.138 195.556C39.0349 195.556 38.9506 194.858 38.9506 194.006C38.9506 192.944 38.862 192.395 38.6694 192.261C38.2696 191.98 38.2696 188.191 38.6694 187.91C38.8765 187.766 38.9506 187.169 38.9506 185.652C38.9506 184.505 39.034 183.59 39.138 183.59C39.2411 183.59 39.3255 183.068 39.3255 182.43C39.3255 181.714 39.4333 181.194 39.6067 181.073C39.7993 180.938 39.8879 180.389 39.8879 179.327C39.8879 178.475 39.9722 177.778 40.0754 177.778C40.1785 177.778 40.2628 177.409 40.2628 176.96C40.2628 176.509 40.3894 176.053 40.544 175.944C40.6987 175.837 40.8252 175.435 40.8252 175.054C40.8252 174.672 40.9096 174.359 41.0127 174.359C41.1158 174.359 41.2001 174.118 41.2001 173.823C41.2001 173.529 41.411 172.784 41.6688 172.168C41.9266 171.55 42.1374 170.71 42.1374 170.299C42.1374 169.888 42.264 169.462 42.4186 169.355C42.5733 169.246 42.6998 168.944 42.6998 168.681C42.6998 168.42 42.7842 168.205 42.8873 168.205C42.9904 168.205 43.0748 168.044 43.0748 167.849C43.0748 167.514 43.2215 167.126 43.7777 165.996C43.9066 165.733 44.0121 165.2 44.0121 164.811C44.0121 164.409 44.1339 164.103 44.2933 164.103C44.4479 164.103 44.5745 163.938 44.5745 163.738C44.5745 163.537 44.8697 162.865 45.2306 162.244C45.5915 161.624 45.8867 160.788 45.8867 160.387C45.8867 159.986 45.9772 159.658 46.0878 159.658C46.3469 159.658 46.824 158.788 46.824 158.315C46.824 158.114 46.9145 157.949 47.0251 157.949C47.2842 157.949 47.7613 157.079 47.7613 156.606C47.7613 156.404 47.8518 156.239 47.9624 156.239C48.2216 156.239 48.6986 155.369 48.6986 154.897C48.6986 154.695 48.7891 154.53 48.8997 154.53C49.1589 154.53 49.636 153.66 49.636 153.187C49.636 152.985 49.7264 152.821 49.837 152.821C49.9472 152.821 50.158 152.601 50.3057 152.332C50.4528 152.063 50.5733 151.679 50.5733 151.478C50.5733 151.276 50.735 151.111 50.9323 151.111C51.1296 151.111 51.5804 150.598 51.9347 149.971C52.2886 149.344 52.6968 148.73 52.8411 148.606C53.6313 147.928 54.3225 146.875 54.3225 146.35C54.3225 146.148 54.5334 145.983 54.7912 145.983C55.049 145.983 55.2599 145.829 55.2599 145.641C55.2599 145.453 55.4707 145.299 55.7285 145.299C56.02 145.299 56.1972 145.105 56.1972 144.786C56.1972 144.468 56.3743 144.273 56.6658 144.273C56.9236 144.273 57.1345 144.12 57.1345 143.932C57.1345 143.744 57.306 143.59 57.5155 143.59C57.7245 143.59 57.9448 143.359 58.0038 143.077C58.0634 142.795 58.3136 142.564 58.5606 142.564C58.8071 142.564 59.0091 142.41 59.0091 142.222C59.0091 142.034 59.3362 141.88 59.736 141.88C60.1536 141.88 60.5622 141.662 60.6963 141.368C60.8247 141.085 61.2095 140.855 61.5516 140.855C61.8937 140.855 62.226 140.701 62.2897 140.513C62.3605 140.303 63.8536 140.171 66.1439 140.171C68.5111 140.171 69.882 140.297 69.882 140.513ZM63.7636 155.043C63.6901 155.391 63.3911 155.556 62.8319 155.556C62.3792 155.556 62.0085 155.709 62.0085 155.897C62.0085 156.085 61.7658 156.239 61.4691 156.239C61.1724 156.239 60.8247 156.47 60.6963 156.752C60.5679 157.034 60.3851 157.265 60.2904 157.265C60.1278 157.265 59.9066 157.55 59.2973 158.547C59.1535 158.782 58.9454 158.974 58.8352 158.974C58.7246 158.974 58.6342 159.128 58.6342 159.316C58.6342 159.504 58.5076 159.658 58.353 159.658C58.1983 159.658 58.0718 159.774 58.0718 159.915C58.0718 160.056 57.7765 160.776 57.4157 161.515C57.0548 162.255 56.7596 163.067 56.7596 163.321C56.7596 163.574 56.633 163.871 56.4784 163.979C56.3237 164.087 56.1972 164.544 56.1972 164.994C56.1972 165.444 56.1128 165.812 56.0097 165.812C55.8949 165.812 55.8222 167.464 55.8222 170.085V174.359H59.759H63.6957V172.686C63.6957 171.188 63.7444 170.992 64.1643 170.8C64.4221 170.682 64.633 170.434 64.633 170.25C64.633 170.066 64.8439 169.915 65.1016 169.915C65.3594 169.915 65.5703 169.761 65.5703 169.573C65.5703 169.374 66.1913 169.231 67.0588 169.231C67.8775 169.231 68.5997 169.385 68.6634 169.573C68.7272 169.761 69.0276 169.915 69.3308 169.915C69.634 169.915 69.882 170.079 69.882 170.281C69.882 170.754 70.3591 171.624 70.6182 171.624C70.7288 171.624 70.8193 172.239 70.8193 172.991V174.359H74.756H78.6927V171.795C78.6927 170.314 78.6135 169.231 78.5053 169.231C78.4021 169.231 78.3178 168.462 78.3178 167.521C78.3178 166.23 78.2489 165.812 78.0366 165.812C77.8454 165.812 77.7535 165.456 77.7493 164.701C77.7432 163.528 77.3903 162.393 77.0318 162.393C76.9142 162.393 76.8181 162.228 76.8181 162.027C76.8181 161.554 76.341 160.684 76.0818 160.684C75.9712 160.684 75.8808 160.519 75.8808 160.317C75.8808 159.844 75.4037 158.974 75.1445 158.974C75.0339 158.974 74.9435 158.744 74.9435 158.462C74.9435 158.173 74.7761 157.949 74.5606 157.949C74.3497 157.949 73.9499 157.564 73.672 157.094C73.3866 156.611 72.9414 156.239 72.6489 156.239C72.3644 156.239 72.1315 156.085 72.1315 155.897C72.1315 155.709 71.7097 155.556 71.1942 155.556C70.4861 155.556 70.2569 155.43 70.2569 155.043C70.2569 154.607 69.777 154.53 67.0639 154.53C64.3991 154.53 63.8536 154.615 63.7636 155.043ZM109.249 155.043C109.249 155.413 109.041 155.556 108.499 155.556C108.087 155.556 107.749 155.709 107.749 155.897C107.749 156.085 107.463 156.239 107.113 156.239C106.721 156.239 106.436 156.436 106.369 156.752C106.31 157.034 106.09 157.265 105.881 157.265C105.671 157.265 105.5 157.419 105.5 157.607C105.5 157.795 105.416 157.949 105.315 157.949C105.052 157.949 103.641 159.771 103.632 160.121C103.629 160.283 103.414 160.717 103.157 161.086C102.899 161.456 102.688 161.984 102.688 162.258C102.688 162.532 102.561 162.845 102.407 162.953C102.252 163.062 102.126 163.364 102.126 163.626C102.126 163.888 102.041 164.103 101.938 164.103C101.835 164.103 101.751 164.625 101.751 165.262C101.751 165.979 101.643 166.498 101.469 166.62C101.243 166.778 101.188 167.551 101.188 170.594V174.373L105.172 174.28L109.155 174.188L109.212 172.599C109.252 171.472 109.361 170.954 109.587 170.815C109.762 170.707 110.032 170.484 110.186 170.32C111.059 169.393 111.434 169.231 112.704 169.231C113.472 169.231 114.153 169.385 114.217 169.573C114.281 169.761 114.493 169.915 114.69 169.915C115.321 169.915 116.185 171.79 116.185 173.157V174.373L120.169 174.28L124.152 174.188L124.207 171.362C124.251 169.069 124.207 168.498 123.972 168.334C123.767 168.19 123.684 167.65 123.684 166.459C123.684 165.539 123.599 164.786 123.496 164.786C123.393 164.786 123.309 164.5 123.309 164.15C123.309 163.801 123.098 163.226 122.84 162.873C122.582 162.52 122.372 162.129 122.372 162.005C122.372 161.609 121.358 159.658 121.153 159.658C121.044 159.658 120.831 159.341 120.679 158.953C120.527 158.565 120.108 157.997 119.747 157.69C119.386 157.382 119.023 156.93 118.941 156.685C118.859 156.44 118.542 156.239 118.238 156.239C117.934 156.239 117.685 156.085 117.685 155.897C117.685 155.709 117.358 155.556 116.958 155.556C116.541 155.556 116.132 155.338 115.998 155.043C115.807 154.623 115.174 154.53 112.507 154.53C109.736 154.53 109.249 154.607 109.249 155.043ZM67.07 220.855C67.07 221.043 66.6543 221.197 66.1463 221.197C65.575 221.197 65.1148 221.392 64.9409 221.709C64.7862 221.991 64.5397 222.222 64.3926 222.222C64.2454 222.222 63.8977 222.607 63.6198 223.077C63.3414 223.547 63.07 223.932 63.0166 223.932C62.8488 223.932 62.3834 224.892 62.3834 225.238C62.3834 225.42 62.2569 225.656 62.1022 225.765C61.9377 225.879 61.821 226.392 61.821 226.997C61.821 227.568 61.7367 228.034 61.6336 228.034C61.5197 228.034 61.4461 229.573 61.4461 231.966C61.4461 234.359 61.5197 235.897 61.6336 235.897C61.7367 235.897 61.821 236.436 61.821 237.094C61.821 237.93 61.9059 238.291 62.1022 238.291C62.2569 238.291 62.3834 238.456 62.3834 238.657C62.3834 239.935 62.7298 240 69.5872 240H76.2557L77.0055 238.632L77.7554 237.265V232.376C77.7554 227.477 77.5647 225.65 77.0524 225.644C76.9235 225.642 76.8181 225.476 76.8181 225.274C76.8181 224.802 76.341 223.932 76.0818 223.932C75.9712 223.932 75.8803 223.739 75.8794 223.504C75.878 223.105 75.0695 222.222 74.7054 222.222C74.6154 222.222 74.4153 221.991 74.2606 221.709C74.0867 221.392 73.6265 221.197 73.0552 221.197C72.5472 221.197 72.1315 221.043 72.1315 220.855C72.1315 220.644 71.1628 220.513 69.6008 220.513C68.0387 220.513 67.07 220.644 67.07 220.855ZM107.375 220.855C107.375 221.043 106.962 221.197 106.457 221.197C105.815 221.197 105.508 221.35 105.432 221.709C105.373 221.991 105.158 222.222 104.954 222.222C104.751 222.222 104.533 222.376 104.469 222.564C104.405 222.752 104.189 222.906 103.989 222.906C103.789 222.906 103.625 223.111 103.625 223.361C103.625 223.611 103.414 224.022 103.157 224.274C102.899 224.525 102.688 224.936 102.688 225.186C102.688 225.436 102.605 225.641 102.504 225.641C102.403 225.641 102.267 226.026 102.202 226.496C102.138 226.966 102.01 227.35 101.918 227.35C101.826 227.35 101.751 229.427 101.751 231.966C101.751 234.815 101.822 236.581 101.938 236.581C102.041 236.581 102.126 236.894 102.126 237.276C102.126 237.657 102.252 238.059 102.407 238.167C102.561 238.275 102.688 238.522 102.688 238.717C102.688 239.879 103.262 239.979 109.999 239.978C117.39 239.977 117.076 240.072 117.742 237.64C118.107 236.303 118.221 227.35 117.872 227.35C117.769 227.35 117.685 227.048 117.685 226.679C117.685 225.975 116.713 223.932 116.379 223.932C116.272 223.932 116.185 223.701 116.185 223.419C116.185 223.137 116.059 222.906 115.904 222.906C115.749 222.906 115.623 222.752 115.623 222.564C115.623 222.376 115.465 222.222 115.271 222.222C115.077 222.222 114.814 221.991 114.686 221.709C114.537 221.384 114.123 221.197 113.549 221.197C113.052 221.197 112.594 221.043 112.53 220.855C112.462 220.654 111.372 220.513 109.894 220.513C108.34 220.513 107.375 220.644 107.375 220.855Z" fill="#14ECE4"/>
</svg>
