<svg width="360" height="480" viewBox="0 0 360 480" fill="none" xmlns="http://www.w3.org/2000/svg">
<rect width="360" height="480" rx="8" fill="url(#paint0_linear_493_2116)"/>
<path fill-rule="evenodd" clip-rule="evenodd" d="M170.673 120.659C170.613 120.956 170.563 127.626 170.562 135.481L170.56 149.764L170.007 150.586C169.704 151.039 169.116 152.002 168.702 152.727C168.288 153.453 167.861 154.154 167.752 154.286C167.644 154.418 166.882 155.658 166.059 157.043C165.236 158.428 164.394 159.799 164.187 160.091C163.979 160.382 163.648 160.908 163.45 161.258C163.252 161.609 162.948 162.098 162.775 162.346C162.601 162.594 162.46 162.859 162.46 162.935C162.46 163.13 160.461 166.258 160.274 166.353C160.189 166.398 160.12 166.585 160.12 166.771C160.12 166.957 159.958 167.244 159.76 167.408C159.562 167.573 159.4 167.79 159.4 167.891C159.4 168.159 157.368 171.429 157.201 171.429C157.123 171.429 157.06 171.587 157.06 171.78C157.06 171.973 156.898 172.247 156.7 172.388C156.502 172.528 156.34 172.759 156.34 172.901C156.34 173.205 154.606 176.021 154.248 176.296C154.112 176.401 154 176.62 154 176.782C154 176.944 153.858 177.258 153.685 177.481C153.212 178.087 152.845 178.673 152.52 179.341C152.359 179.67 151.958 180.341 151.628 180.831C151.299 181.321 150.868 182.003 150.67 182.345C150.472 182.687 150.188 183.153 150.04 183.38C149.891 183.607 149.535 184.22 149.247 184.743C148.96 185.266 148.555 185.927 148.347 186.212C148.14 186.496 147.808 187.016 147.61 187.366C147.412 187.716 147.108 188.181 146.935 188.4C146.761 188.619 146.62 188.877 146.62 188.974C146.62 189.07 146.437 189.418 146.215 189.747C145.992 190.076 145.622 190.647 145.393 191.016C145.163 191.386 144.733 192.066 144.435 192.527C144.138 192.989 143.637 193.834 143.322 194.405C143.007 194.977 142.407 195.948 141.988 196.563C141.569 197.179 141.224 197.808 141.223 197.962C141.221 198.116 141.14 198.278 141.043 198.322C140.945 198.366 140.419 199.157 139.872 200.08C138.448 202.484 137.767 203.583 137.305 204.219C137.082 204.526 136.9 204.856 136.9 204.952C136.9 205.049 136.677 205.462 136.405 205.87C134.969 208.021 134.56 208.687 134.56 208.868C134.56 208.977 134.398 209.202 134.2 209.366C134.002 209.531 133.84 209.755 133.84 209.865C133.84 210.146 131.819 213.387 131.644 213.387C131.564 213.387 131.5 213.512 131.5 213.666C131.5 213.82 131.378 214.117 131.23 214.325C131.081 214.534 130.535 215.411 130.015 216.275C129.495 217.138 128.971 218.001 128.849 218.193C128.729 218.384 128.445 218.833 128.219 219.189C127.731 219.961 127.38 220.557 126.517 222.078C126.162 222.704 125.801 223.217 125.715 223.217C125.63 223.217 125.56 223.356 125.56 223.526C125.56 223.697 125.236 224.233 124.84 224.718C124.403 225.252 124.12 225.815 124.12 226.147V226.693L147.093 226.63C164.057 226.583 170.131 226.638 170.313 226.839C170.519 227.067 170.56 231.304 170.56 252.587C170.56 273.982 170.6 278.107 170.808 278.338C170.991 278.54 174.383 278.609 183.5 278.595C190.344 278.585 196.023 278.642 196.121 278.723C196.614 279.128 196.369 279.704 194.545 282.426C194.124 283.053 193.779 283.69 193.779 283.841C193.779 283.992 193.708 284.116 193.621 284.116C193.533 284.116 193.189 284.612 192.856 285.218C192.522 285.824 192.099 286.537 191.915 286.802C191.731 287.068 190.857 288.487 189.972 289.956C187.763 293.625 187.273 294.418 186.804 295.077C186.582 295.39 186.4 295.7 186.4 295.766C186.4 295.991 183.621 300.42 183.48 300.42C183.403 300.42 183.34 300.539 183.34 300.684C183.34 300.995 181.611 303.809 181.248 304.088C181.112 304.193 181 304.412 181 304.574C181 304.736 180.858 305.048 180.685 305.266C180.511 305.485 180.23 305.914 180.058 306.219C179.669 306.911 177.859 309.898 177.544 310.368C177.415 310.56 177.171 310.962 177.002 311.263C176.678 311.836 174.981 314.645 174.52 315.373C174.371 315.607 174.108 315.976 173.935 316.194C173.761 316.412 173.62 316.722 173.62 316.883C173.62 317.044 173.476 317.317 173.301 317.489C173.126 317.661 172.85 318.082 172.686 318.424C172.522 318.766 172.139 319.378 171.834 319.784C171.529 320.19 171.28 320.615 171.28 320.727C171.28 320.84 171.118 321.117 170.92 321.343C170.561 321.751 170.321 358.295 170.669 359.501C170.764 359.831 189.104 360.145 189.319 359.82C189.341 359.787 189.402 353.1 189.454 344.96L189.55 330.159L189.958 329.615C190.182 329.315 190.777 328.37 191.279 327.512C191.781 326.655 192.306 325.868 192.446 325.762C192.585 325.657 192.7 325.418 192.7 325.231C192.7 325.045 192.862 324.776 193.06 324.635C193.258 324.494 193.42 324.245 193.42 324.081C193.42 323.917 193.561 323.612 193.735 323.403C193.908 323.194 194.252 322.671 194.5 322.241C194.747 321.812 195.112 321.209 195.31 320.901C195.508 320.594 195.831 320.063 196.029 319.722C196.227 319.381 196.514 318.918 196.666 318.692C196.818 318.466 197.175 317.85 197.459 317.323C197.743 316.795 198.124 316.148 198.307 315.884C198.489 315.62 198.962 314.937 199.359 314.366C199.755 313.795 200.079 313.244 200.079 313.142C200.079 313.041 200.262 312.687 200.485 312.356C200.707 312.026 201.092 311.409 201.34 310.986C201.587 310.563 201.931 310.038 202.104 309.821C202.278 309.602 202.42 309.293 202.42 309.134C202.42 308.974 202.581 308.775 202.779 308.691C202.977 308.607 203.14 308.408 203.14 308.247C203.14 308.086 203.461 307.473 203.855 306.885C204.247 306.295 204.571 305.737 204.575 305.644C204.577 305.55 204.769 305.227 205.001 304.925C205.232 304.623 206.034 303.351 206.781 302.098C207.529 300.845 208.352 299.518 208.61 299.148C208.868 298.779 209.079 298.376 209.079 298.252C209.079 298.127 209.242 297.891 209.44 297.726C209.638 297.562 209.8 297.345 209.8 297.244C209.8 296.975 211.831 293.706 211.998 293.706C212.076 293.706 212.14 293.546 212.14 293.348C212.14 293.152 212.302 292.856 212.5 292.692C212.698 292.527 212.859 292.302 212.859 292.193C212.859 291.912 214.88 288.671 215.055 288.671C215.135 288.671 215.2 288.551 215.2 288.406C215.2 288.177 217.027 285.061 217.885 283.826C218.041 283.6 218.331 283.129 218.529 282.778C218.727 282.427 219.011 281.961 219.159 281.742C219.308 281.522 219.664 280.915 219.952 280.392C220.239 279.869 220.644 279.207 220.852 278.923C221.059 278.639 221.392 278.119 221.59 277.769C221.788 277.419 222.091 276.954 222.265 276.735C222.438 276.516 222.581 276.226 222.582 276.09C222.584 275.88 223.729 274.065 224.64 272.827C224.794 272.618 224.92 272.321 224.92 272.167C224.92 272.014 224.99 271.888 225.075 271.888C225.213 271.888 225.495 271.433 226.846 269.037C227.024 268.722 227.352 268.224 227.575 267.931C227.797 267.638 227.979 267.281 227.979 267.137C227.979 266.994 228.091 266.791 228.227 266.685C228.363 266.58 228.889 265.792 229.397 264.935C229.905 264.078 230.519 263.083 230.763 262.723C231.006 262.364 231.35 261.773 231.527 261.409C231.705 261.045 231.971 260.574 232.12 260.363C232.268 260.152 232.713 259.452 233.109 258.808C233.505 258.164 234.012 257.386 234.234 257.079C234.457 256.772 234.64 256.419 234.64 256.295C234.64 256.17 234.802 255.933 235 255.768C235.198 255.604 235.359 255.357 235.359 255.221C235.359 255.083 235.522 254.787 235.72 254.561C236.761 253.373 237.829 253.427 212.956 253.427C190.176 253.427 189.829 253.419 189.644 252.957C189.515 252.637 189.457 244.452 189.462 227.377C189.468 207.069 189.424 202.208 189.235 201.956C189.047 201.706 186.535 201.642 176.598 201.635C161.748 201.625 162.571 201.882 165.295 198.102C165.517 197.794 165.7 197.462 165.7 197.365C165.7 197.269 165.841 197.01 166.015 196.792C166.188 196.573 166.469 196.144 166.638 195.839C167.008 195.175 168.079 193.415 168.423 192.904C168.559 192.704 168.832 192.254 169.03 191.906C169.228 191.557 169.522 191.081 169.684 190.848C169.846 190.615 170.049 190.262 170.134 190.066C170.22 189.869 170.614 189.199 171.01 188.578C171.406 187.957 171.892 187.194 172.09 186.883C172.288 186.571 172.591 186.069 172.764 185.766C173.778 183.99 174.982 182.072 175.185 181.906C175.314 181.801 175.42 181.597 175.42 181.454C175.42 181.311 175.602 180.952 175.825 180.658C176.209 180.149 176.48 179.706 177.31 178.234C177.508 177.882 177.837 177.367 178.043 177.089C178.347 176.678 179.677 174.456 180.549 172.904C180.648 172.727 180.912 172.337 181.135 172.038C181.357 171.738 181.54 171.421 181.54 171.333C181.54 171.245 181.823 170.795 182.17 170.333C182.516 169.872 182.8 169.433 182.8 169.357C182.8 169.282 183.009 168.881 183.264 168.466C183.52 168.052 184.026 167.23 184.389 166.641C184.753 166.051 185.232 165.318 185.454 165.011C185.677 164.704 185.86 164.389 185.86 164.311C185.86 164.154 187.362 161.701 187.822 161.107C187.98 160.903 188.191 160.568 188.29 160.363C188.389 160.158 188.695 159.559 188.971 159.031L189.473 158.072L189.463 139.66C189.458 129.534 189.406 120.994 189.347 120.685L189.24 120.12H180.011H170.781L170.673 120.659Z" fill="#FCFBFA"/>
<path fill-rule="evenodd" clip-rule="evenodd" d="M169.66 133.789C169.66 143.914 169.715 147.577 169.873 147.914C170.12 148.442 169.456 150.427 168.895 150.836C168.721 150.963 168.58 151.224 168.58 151.417C168.58 151.61 168.497 151.768 168.395 151.768C168.295 151.768 168.12 152.038 168.007 152.368C167.894 152.697 167.693 152.967 167.561 152.967C167.428 152.967 167.32 153.088 167.32 153.235C167.32 153.467 166.871 154.268 165.994 155.604C165.864 155.802 165.707 156.153 165.645 156.384C165.582 156.614 165.445 156.803 165.341 156.803C165.236 156.803 165.074 157.073 164.98 157.403C164.885 157.732 164.685 158.002 164.534 158.002C164.383 158.002 164.26 158.158 164.26 158.35C164.26 158.541 164.15 158.784 164.016 158.889C163.882 158.995 163.666 159.351 163.537 159.68C163.408 160.01 163.153 160.421 162.971 160.593C162.788 160.765 162.64 161.055 162.64 161.236C162.64 161.417 162.478 161.634 162.28 161.718C162.082 161.802 161.92 162.052 161.922 162.274C161.924 162.714 162.845 161.484 163.81 159.753C164.107 159.219 165.666 156.608 167.275 153.95L170.2 149.116V134.618C170.2 121.891 170.167 120.12 169.93 120.12C169.693 120.12 169.66 121.799 169.66 133.789ZM190.044 139.256L190 158.513L186.188 164.791C184.093 168.244 182.272 171.231 182.143 171.429C182.014 171.626 181.648 172.22 181.328 172.747C181.009 173.275 180.622 173.911 180.469 174.161C180.204 174.591 180.212 174.6 180.595 174.332C180.817 174.176 181 173.93 181 173.785C181 173.64 181.182 173.272 181.405 172.967C182.484 171.492 182.62 171.272 182.62 171.009C182.62 170.853 182.782 170.61 182.98 170.47C183.178 170.329 183.34 170.06 183.34 169.874C183.34 169.687 183.454 169.448 183.593 169.343C183.733 169.237 184.258 168.45 184.76 167.592C185.262 166.735 185.837 165.815 186.036 165.546C186.236 165.278 186.4 164.953 186.4 164.824C186.4 164.696 186.562 164.456 186.76 164.292C186.958 164.127 187.12 163.84 187.12 163.654C187.12 163.469 187.189 163.281 187.274 163.237C187.528 163.106 189.46 159.978 189.46 159.698C189.46 159.556 189.577 159.441 189.721 159.441C190.172 159.441 190.193 158.383 190.139 138.941L190.087 120L190.044 139.256ZM161.096 163.668C160.806 164.147 160.347 164.89 160.075 165.318C159.802 165.747 159.58 166.192 159.58 166.308C159.58 166.424 159.418 166.653 159.22 166.817C159.022 166.982 158.86 167.278 158.86 167.474C158.86 167.672 158.738 167.832 158.59 167.832C158.441 167.832 158.32 167.935 158.32 168.059C158.32 168.185 158.137 168.56 157.915 168.893C157.692 169.226 157.307 169.89 157.06 170.367C156.812 170.844 156.427 171.46 156.205 171.735C155.982 172.009 155.8 172.377 155.8 172.551C155.8 172.724 155.683 172.867 155.542 172.867C155.4 172.867 155.235 173.073 155.175 173.324C155.115 173.576 154.947 173.842 154.803 173.916C154.658 173.99 154.54 174.178 154.54 174.333C154.54 174.488 154.378 174.842 154.181 175.12C153.281 176.388 152.92 176.982 152.92 177.192C152.92 177.316 152.758 177.553 152.56 177.718C152.362 177.883 152.2 178.15 152.2 178.311C152.2 178.472 152.038 178.72 151.84 178.861C151.642 179.002 151.48 179.236 151.48 179.381C151.48 179.526 151.297 179.886 151.075 180.181C150.436 181.025 149.864 182.07 149.862 182.398C149.86 182.562 149.736 182.697 149.585 182.697C149.434 182.697 149.238 182.952 149.149 183.264C149.06 183.575 148.859 183.896 148.703 183.976C148.547 184.056 148.42 184.244 148.42 184.394C148.42 184.545 148.259 184.899 148.062 185.181C147.251 186.345 146.8 187.15 146.8 187.433C146.8 187.597 146.678 187.732 146.53 187.732C146.381 187.732 146.26 187.825 146.26 187.937C146.26 188.049 146.077 188.419 145.855 188.757C145.466 189.345 145.093 189.949 144.227 191.392C144.009 191.756 143.702 192.249 143.546 192.489C143.39 192.728 143.21 193.104 143.146 193.325C143.083 193.546 142.945 193.726 142.841 193.726C142.736 193.726 142.574 193.996 142.48 194.326C142.385 194.655 142.185 194.925 142.034 194.925C141.883 194.925 141.76 195.071 141.76 195.25C141.76 195.555 141.314 196.332 140.496 197.451C140.3 197.719 140.14 198.066 140.14 198.222C140.14 198.378 139.978 198.62 139.78 198.761C139.582 198.902 139.42 199.13 139.42 199.267C139.42 199.404 139.136 199.913 138.791 200.397C137.949 201.578 137.08 202.986 137.08 203.169C137.08 203.311 136.749 203.832 135.991 204.884C135.797 205.152 135.64 205.503 135.64 205.663C135.64 205.823 135.568 205.954 135.481 205.954C135.393 205.954 135.049 206.441 134.716 207.037C134.382 207.633 133.927 208.394 133.705 208.728C133.482 209.062 133.3 209.438 133.3 209.563C133.3 209.688 133.178 209.79 133.03 209.79C132.881 209.79 132.76 209.951 132.76 210.148C132.76 210.345 132.598 210.64 132.4 210.805C132.202 210.97 132.04 211.221 132.04 211.363C132.04 211.505 131.857 211.847 131.635 212.121C131.412 212.396 131.027 213.017 130.78 213.502C130.532 213.987 130.042 214.779 129.689 215.263C129.337 215.748 128.995 216.333 128.93 216.563C128.864 216.794 128.735 216.983 128.643 216.983C128.551 216.983 128.307 217.334 128.102 217.762C127.896 218.191 127.625 218.755 127.499 219.017C127.373 219.279 127.128 219.636 126.955 219.81C126.781 219.984 126.64 220.283 126.64 220.473C126.64 220.663 126.515 220.819 126.364 220.819C126.212 220.819 126.037 221.008 125.974 221.239C125.912 221.47 125.754 221.82 125.623 222.018C124.566 223.612 124.3 224.082 124.3 224.349C124.3 224.517 124.175 224.655 124.024 224.655C123.872 224.655 123.696 224.836 123.633 225.056C123.569 225.278 123.369 225.655 123.188 225.895C122.45 226.88 123.036 228.655 123.841 227.871C124.136 227.584 127.661 227.532 146.993 227.532H169.798L169.897 228.038C169.951 228.316 169.92 228.808 169.828 229.132C169.633 229.813 169.626 277.667 169.82 278.601C169.902 278.997 170.095 279.228 170.387 279.279C170.79 279.351 170.801 279.33 170.514 279.04C170.218 278.74 170.196 277.186 170.154 253.067L170.11 227.413L146.749 227.352C126.799 227.3 123.373 227.241 123.29 226.952C123.18 226.57 123.618 225.564 124.297 224.636C124.546 224.296 125.114 223.379 125.559 222.598C126.004 221.818 126.47 221.093 126.594 220.987C126.718 220.882 126.82 220.69 126.82 220.561C126.82 220.432 127.06 219.979 127.353 219.554C127.647 219.129 128.86 217.163 130.049 215.185C131.238 213.207 132.319 211.427 132.452 211.229C132.585 211.031 134.424 208.01 136.538 204.515C138.652 201.021 140.487 198 140.617 197.802C140.747 197.604 141.274 196.741 141.787 195.884C142.301 195.027 142.849 194.141 143.006 193.916C143.162 193.69 143.429 193.258 143.601 192.957C144.748 190.932 146.528 188.061 146.733 187.9C146.869 187.795 146.98 187.591 146.98 187.448C146.98 187.305 147.162 186.945 147.385 186.647C147.607 186.349 148.194 185.393 148.687 184.521C149.181 183.65 149.636 182.937 149.698 182.937C149.76 182.937 150.044 182.482 150.33 181.926C150.616 181.37 150.971 180.738 151.12 180.522C151.268 180.306 151.592 179.776 151.84 179.346C152.249 178.634 152.702 177.902 153.322 176.954C153.617 176.503 154.331 175.307 154.894 174.321C155.29 173.628 155.602 173.128 156.402 171.908C157.641 170.019 161.905 162.797 161.782 162.797C161.694 162.797 161.385 163.189 161.096 163.668ZM179.816 175.258C179.626 175.515 179.328 175.973 179.155 176.274C178.242 177.87 176.961 179.987 176.703 180.327C176.542 180.541 176.288 180.96 176.14 181.261C175.991 181.561 175.708 182.053 175.51 182.354C175.312 182.656 174.947 183.247 174.7 183.668C174.452 184.09 174.088 184.682 173.89 184.985C172.91 186.484 172.887 186.533 173.177 186.533C173.327 186.533 173.502 186.345 173.565 186.114C173.679 185.692 173.735 185.594 174.65 184.228C174.925 183.817 175.312 183.177 175.51 182.805C175.708 182.432 176.032 181.884 176.23 181.585C176.428 181.286 176.752 180.768 176.95 180.433C177.148 180.099 177.472 179.565 177.67 179.247C177.868 178.928 178.192 178.38 178.39 178.029C178.813 177.277 179.602 176.038 180.035 175.446C180.203 175.216 180.301 174.973 180.252 174.909C180.203 174.843 180.007 175 179.816 175.258ZM171.896 188.257C170.967 189.89 170.788 190.182 170.177 191.07C169.858 191.534 169.841 191.619 170.093 191.49C170.267 191.401 170.443 191.329 170.484 191.329C170.526 191.329 170.56 191.17 170.56 190.977C170.56 190.784 170.722 190.51 170.92 190.37C171.118 190.229 171.28 189.994 171.28 189.849C171.28 189.704 171.462 189.34 171.685 189.041C171.907 188.742 172.171 188.35 172.27 188.171C172.369 187.992 172.562 187.656 172.7 187.424C172.838 187.192 172.907 186.943 172.854 186.873C172.801 186.802 172.37 187.425 171.896 188.257ZM169.466 192.259C169.311 192.472 168.906 193.126 168.566 193.711C168.227 194.296 167.828 194.962 167.68 195.192C167.531 195.422 167.311 195.771 167.19 195.969C167.07 196.165 166.365 197.297 165.624 198.482C164.597 200.127 164.343 200.671 164.553 200.778C164.705 200.856 170.402 200.919 177.212 200.919C187.375 200.919 189.631 200.977 189.797 201.242C189.941 201.475 190.011 208.735 190.044 227.176C190.081 247.702 190.135 252.8 190.319 252.849C190.445 252.884 190.466 252.857 190.364 252.789C190.24 252.707 190.18 244.186 190.18 226.674V200.679H177.4C170.371 200.679 164.62 200.622 164.62 200.552C164.62 200.481 164.883 200.067 165.205 199.632C165.898 198.694 166.96 196.934 166.96 196.721C166.96 196.639 167.243 196.215 167.59 195.78C167.936 195.345 168.22 194.905 168.22 194.805C168.22 194.703 168.402 194.374 168.625 194.072C169.178 193.321 169.896 192.041 169.816 191.947C169.779 191.905 169.622 192.045 169.466 192.259ZM236.544 252.168C236.47 252.267 226.23 252.402 213.79 252.469L191.17 252.591L213.791 252.649C237.833 252.711 237.453 252.693 236.831 253.751C236.687 253.995 232.141 261.47 231.618 262.322C231.505 262.506 231.15 263.089 230.83 263.616C230.51 264.144 230.127 264.769 229.979 265.005C229.739 265.388 229.74 265.42 229.987 265.293C230.139 265.216 230.499 264.717 230.786 264.185C231.074 263.653 231.492 262.962 231.715 262.649C231.937 262.336 232.12 261.971 232.12 261.837C232.12 261.704 232.282 261.48 232.48 261.339C232.678 261.198 232.84 260.95 232.84 260.788C232.84 260.627 233.002 260.36 233.2 260.196C233.398 260.031 233.56 259.802 233.56 259.689C233.56 259.574 233.85 259.063 234.204 258.551C234.559 258.041 234.961 257.339 235.098 256.992C235.234 256.645 235.471 256.298 235.623 256.22C235.775 256.142 235.9 255.913 235.9 255.712C235.9 255.51 236.023 255.345 236.174 255.345C236.325 255.345 236.525 255.075 236.62 254.745C236.714 254.416 236.872 254.146 236.971 254.146C237.219 254.146 237.398 253.092 237.254 252.485C237.135 251.985 236.795 251.833 236.544 252.168ZM228.951 266.752C227.986 268.278 227.204 269.544 226.99 269.926C226.891 270.103 226.607 270.557 226.36 270.937C226.112 271.317 225.748 271.905 225.55 272.244C225.352 272.582 225.109 272.992 225.01 273.153C224.911 273.315 224.348 274.256 223.759 275.245C223.17 276.234 222.603 277.134 222.499 277.246C222.387 277.364 222.445 277.389 222.639 277.306C222.821 277.227 223.003 277.163 223.044 277.163C223.086 277.163 223.12 277.025 223.12 276.857C223.12 276.688 223.261 276.376 223.435 276.164C223.608 275.953 223.912 275.493 224.11 275.144C224.308 274.795 224.692 274.165 224.965 273.744C225.237 273.324 225.46 272.842 225.46 272.674C225.46 272.505 225.581 272.368 225.73 272.368C225.878 272.368 226 272.269 226 272.148C226 271.928 226.178 271.627 227.362 269.85C227.714 269.323 228.115 268.608 228.254 268.261C228.393 267.914 228.631 267.567 228.783 267.489C228.935 267.411 229.06 267.195 229.06 267.01C229.06 266.824 229.242 266.508 229.465 266.309C229.687 266.11 229.82 265.879 229.761 265.795C229.7 265.712 229.336 266.142 228.951 266.752ZM221.95 278.217C221.752 278.488 221.355 279.144 221.068 279.675C220.542 280.648 220.378 280.917 219.708 281.898C219.415 282.327 219.396 282.438 219.614 282.438C219.765 282.438 219.961 282.183 220.05 281.871C220.139 281.559 220.34 281.239 220.496 281.159C220.652 281.079 220.78 280.854 220.78 280.659C220.78 280.463 220.881 280.217 221.005 280.112C221.283 279.875 222.459 277.874 222.373 277.786C222.338 277.751 222.148 277.944 221.95 278.217ZM194.95 279.311C195.499 279.435 195.595 279.518 195.355 279.662C195.181 279.767 195.04 279.975 195.04 280.126C195.04 280.277 194.788 280.718 194.479 281.105C194.171 281.492 193.715 282.221 193.465 282.723C193.216 283.225 192.942 283.636 192.856 283.636C192.77 283.636 192.7 283.795 192.7 283.988C192.7 284.181 192.538 284.455 192.34 284.595C192.142 284.736 191.98 284.971 191.98 285.116C191.98 285.261 191.797 285.62 191.575 285.913C191.352 286.206 191.008 286.738 190.81 287.094C190.612 287.45 190.267 287.971 190.045 288.25C189.822 288.529 189.64 288.896 189.64 289.066C189.64 289.235 189.478 289.49 189.28 289.63C189.082 289.771 188.92 290.019 188.92 290.181C188.92 290.342 188.758 290.609 188.56 290.773C188.362 290.938 188.2 291.167 188.2 291.282C188.2 291.397 187.836 292.017 187.391 292.659C186.947 293.301 186.583 293.957 186.581 294.117C186.58 294.278 186.418 294.524 186.22 294.665C186.022 294.806 185.86 295.017 185.86 295.133C185.86 295.25 185.556 295.784 185.185 296.319C184.813 296.854 184.369 297.538 184.197 297.837C184.026 298.136 183.641 298.801 183.342 299.314C183.044 299.826 182.8 300.339 182.8 300.453C182.8 300.566 182.679 300.659 182.533 300.659C182.386 300.659 182.215 300.929 182.153 301.259C182.091 301.588 181.928 301.858 181.79 301.858C181.652 301.858 181.54 302.024 181.54 302.226C181.54 302.427 181.415 302.656 181.263 302.734C181.111 302.812 180.874 303.159 180.738 303.505C180.601 303.852 180.196 304.558 179.839 305.073C179.481 305.588 179.214 306.112 179.245 306.236C179.276 306.36 181.682 302.54 184.591 297.747C187.499 292.953 189.987 288.869 190.12 288.671C190.252 288.474 190.976 287.287 191.73 286.034C192.483 284.781 193.171 283.72 193.259 283.677C193.348 283.632 193.421 283.47 193.424 283.317C193.426 283.163 193.77 282.536 194.189 281.923C195.939 279.36 196.015 279.058 194.894 279.115L194.23 279.149L194.95 279.311ZM177.008 279.5C180.208 279.537 185.392 279.537 188.528 279.5C191.664 279.463 189.046 279.433 182.71 279.433C176.374 279.433 173.808 279.464 177.008 279.5ZM218.452 283.925C218.038 284.624 217.522 285.495 217.305 285.862C217.087 286.228 216.807 286.681 216.682 286.867C216.557 287.054 215.028 289.558 213.284 292.434C211.541 295.31 209.983 297.867 209.822 298.117C209.543 298.549 209.549 298.558 209.935 298.288C210.157 298.132 210.34 297.901 210.34 297.773C210.34 297.646 210.664 297.123 211.06 296.611C211.456 296.099 211.78 295.579 211.78 295.455C211.78 295.33 211.982 294.975 212.23 294.665C212.477 294.355 212.68 293.985 212.68 293.842C212.68 293.699 212.842 293.447 213.04 293.283C213.238 293.118 213.4 292.88 213.4 292.753C213.4 292.627 213.683 292.146 214.03 291.685C214.376 291.223 214.66 290.764 214.66 290.666C214.66 290.567 214.819 290.267 215.015 289.998C215.745 288.996 216.46 287.76 216.46 287.501C216.46 287.353 216.581 287.233 216.73 287.233C216.878 287.233 217 287.072 217 286.875C217 286.678 217.162 286.383 217.36 286.218C217.558 286.053 217.72 285.827 217.72 285.715C217.72 285.603 218.096 284.924 218.555 284.208C219.015 283.492 219.349 282.849 219.297 282.78C219.245 282.711 218.865 283.227 218.452 283.925ZM208.622 300.114C207.071 302.586 207.149 302.443 207.489 302.196C207.654 302.076 208.037 301.546 208.34 301.019C208.643 300.492 209.071 299.82 209.291 299.528C209.511 299.235 209.646 298.935 209.591 298.862C209.536 298.789 209.1 299.353 208.622 300.114ZM206.515 303.598C206.159 304.157 205.162 305.802 204.298 307.253C203.434 308.703 202.637 309.998 202.528 310.13C202.419 310.262 201.981 310.98 201.555 311.727C201.129 312.474 200.586 313.364 200.349 313.705C200.037 314.152 199.991 314.326 200.183 314.326C200.329 314.326 200.521 314.071 200.61 313.759C200.699 313.448 200.9 313.127 201.056 313.047C201.212 312.967 201.34 312.795 201.34 312.665C201.34 312.535 201.663 311.965 202.057 311.399C202.452 310.833 202.776 310.304 202.777 310.225C202.779 310.145 202.962 309.805 203.185 309.469C203.407 309.132 203.752 308.574 203.95 308.229C204.148 307.883 204.415 307.443 204.544 307.252C204.673 307.06 205.218 306.172 205.755 305.28C206.293 304.387 206.87 303.468 207.037 303.238C207.204 303.008 207.301 302.766 207.252 302.7C207.202 302.634 206.871 303.038 206.515 303.598ZM178.48 307.253C178.385 307.582 178.233 307.852 178.142 307.852C178.05 307.852 177.807 308.203 177.602 308.631C176.883 310.129 176.765 310.332 176.095 311.219C175.723 311.71 175.42 312.196 175.42 312.3C175.42 312.403 175.299 312.658 175.152 312.867C174.308 314.065 173.8 314.949 173.8 315.218C173.8 315.387 173.679 315.524 173.533 315.524C173.386 315.524 173.215 315.794 173.153 316.124C173.091 316.454 172.928 316.723 172.79 316.723C172.652 316.723 172.54 316.816 172.54 316.928C172.54 317.04 172.357 317.405 172.135 317.738C171.912 318.071 171.527 318.688 171.28 319.109C171.032 319.53 170.647 320.142 170.425 320.469C170.202 320.796 170.02 321.267 170.02 321.517C170.02 321.766 169.937 322.038 169.836 322.121C169.511 322.389 169.611 359.88 169.938 359.88C170.165 359.88 170.2 357.315 170.2 340.579C170.2 322.519 170.22 321.252 170.515 320.855C170.688 320.622 171.113 319.948 171.46 319.357C172.554 317.492 172.623 317.382 172.945 316.995C173.118 316.787 173.26 316.483 173.26 316.319C173.26 316.155 173.422 315.905 173.62 315.764C173.818 315.623 173.98 315.397 173.98 315.261C173.98 315.125 174.181 314.724 174.426 314.37C174.672 314.016 175.2 313.187 175.599 312.527C175.998 311.868 176.435 311.167 176.57 310.969C176.705 310.771 177.224 309.908 177.724 309.051C178.224 308.194 178.76 307.304 178.916 307.073C179.167 306.702 179.168 306.653 178.925 306.653C178.774 306.653 178.574 306.923 178.48 307.253ZM199.54 315.005C199.391 315.225 198.865 316.106 198.37 316.963C197.875 317.82 197.328 318.71 197.155 318.941C196.89 319.294 196.884 319.361 197.114 319.361C197.265 319.361 197.461 319.106 197.55 318.794C197.639 318.483 197.84 318.162 197.996 318.082C198.152 318.002 198.28 317.811 198.28 317.657C198.28 317.504 198.462 317.136 198.685 316.841C199.331 315.984 199.9 315.023 199.9 314.785C199.9 314.502 199.865 314.523 199.54 315.005ZM196.453 320.096C196.289 320.324 195.728 321.251 195.206 322.154C194.683 323.057 193.987 324.171 193.658 324.628C193.329 325.086 193.06 325.529 193.06 325.612C193.06 325.696 192.877 326.03 192.655 326.356C192.432 326.681 192.05 327.3 191.805 327.731C191.36 328.516 190.764 329.461 190.266 330.17C190.036 330.498 190.005 332.545 190.043 345.275L190.087 360L190.135 345.391C190.181 331.152 190.191 330.77 190.541 330.336C190.738 330.092 190.9 329.734 190.9 329.541C190.9 329.348 191.024 329.191 191.175 329.191C191.327 329.191 191.502 329.002 191.565 328.771C191.627 328.54 191.785 328.19 191.915 327.992C192.43 327.212 192.99 326.312 193.42 325.577C193.667 325.153 194.011 324.606 194.185 324.361C194.358 324.116 194.5 323.812 194.5 323.685C194.5 323.558 194.662 323.338 194.86 323.197C195.058 323.056 195.22 322.822 195.22 322.677C195.22 322.531 195.402 322.166 195.625 321.864C196.169 321.126 196.898 319.833 196.816 319.748C196.779 319.711 196.616 319.867 196.453 320.096Z" fill="#FC6C34"/>
<path fill-rule="evenodd" clip-rule="evenodd" d="M170.379 134.764V149.408L168.097 153.165C166.842 155.232 165.706 157.085 165.573 157.283C165.17 157.88 162.036 163.039 161.649 163.741C161.451 164.1 160.925 164.978 160.479 165.691C160.034 166.403 159.548 167.192 159.399 167.445C159.251 167.697 159.008 168.084 158.859 168.303C158.711 168.523 158.308 169.181 157.964 169.766C157.621 170.351 157.256 170.97 157.154 171.142C157.053 171.314 156.767 171.767 156.519 172.148C155.91 173.087 155.776 173.309 154.993 174.679C154.62 175.331 154.261 175.918 154.194 175.984C154.128 176.05 151.521 180.312 148.403 185.455C145.284 190.597 141.881 196.208 140.841 197.922C139.801 199.636 137.906 202.765 136.63 204.875C135.355 206.985 134.165 208.927 133.987 209.191C133.809 209.455 133.255 210.355 132.757 211.191C132.259 212.027 131.732 212.871 131.586 213.067C131.439 213.261 131.318 213.494 131.317 213.584C131.315 213.673 131.012 214.206 130.642 214.768C130.272 215.33 129.767 216.128 129.519 216.541C129.114 217.216 128.479 218.244 127.453 219.889C127.257 220.202 126.713 221.107 126.244 221.898C125.776 222.689 125.045 223.857 124.621 224.493C123.718 225.848 123.466 226.569 123.799 226.852C123.925 226.959 134.392 227.047 147.058 227.047C159.723 227.046 170.152 227.133 170.232 227.24C170.312 227.347 170.398 238.974 170.424 253.078L170.469 278.721L183.121 278.783C197.669 278.854 196.561 278.62 194.924 281.27C193.692 283.265 188.638 291.58 187.075 294.186C186.481 295.175 185.881 296.146 185.74 296.344C185.599 296.541 184.933 297.638 184.261 298.78C183.588 299.921 182.923 301.011 182.784 301.199C182.644 301.388 182.327 301.904 182.079 302.346C181.517 303.35 179.887 306.013 179.736 306.174C179.675 306.24 179.196 307.033 178.674 307.936C178.151 308.839 177.59 309.77 177.426 310.005C177.263 310.24 176.967 310.719 176.769 311.07C176.571 311.42 176.283 311.892 176.13 312.117C175.976 312.343 175.573 313.013 175.234 313.606C174.896 314.2 174.564 314.739 174.497 314.805C174.43 314.871 173.796 315.896 173.088 317.083C172.381 318.27 171.705 319.404 171.586 319.603C171.467 319.803 171.147 320.324 170.874 320.761L170.379 321.555V340.718C170.379 351.257 170.44 359.88 170.514 359.88C170.589 359.88 170.628 351.303 170.601 340.82C170.554 321.962 170.557 321.756 170.916 321.346C171.116 321.119 171.279 320.84 171.279 320.727C171.279 320.615 171.529 320.19 171.834 319.784C172.138 319.378 172.522 318.766 172.686 318.424C172.849 318.082 173.126 317.661 173.301 317.489C173.476 317.317 173.619 317.044 173.619 316.883C173.619 316.722 173.761 316.412 173.934 316.194C174.108 315.976 174.371 315.607 174.519 315.373C174.981 314.645 176.678 311.836 177.002 311.263C177.171 310.962 177.415 310.56 177.544 310.368C177.859 309.898 179.669 306.911 180.058 306.219C180.229 305.914 180.511 305.485 180.684 305.266C180.858 305.048 180.999 304.736 180.999 304.574C180.999 304.412 181.111 304.193 181.248 304.088C181.611 303.809 183.339 300.995 183.339 300.684C183.339 300.539 183.403 300.42 183.48 300.42C183.621 300.42 186.399 295.991 186.399 295.766C186.399 295.7 186.582 295.39 186.804 295.077C187.273 294.418 187.763 293.625 189.972 289.956C190.857 288.487 191.731 287.068 191.915 286.802C192.099 286.537 192.522 285.824 192.856 285.218C193.189 284.612 193.533 284.116 193.621 284.116C193.708 284.116 193.779 283.992 193.779 283.841C193.779 283.69 194.124 283.053 194.544 282.426C196.369 279.704 196.614 279.128 196.121 278.723C196.023 278.642 190.344 278.585 183.5 278.595C174.383 278.609 170.991 278.54 170.808 278.338C170.599 278.107 170.559 273.982 170.559 252.587C170.559 231.304 170.519 227.067 170.313 226.839C170.131 226.638 164.056 226.583 147.093 226.63L124.119 226.693V226.147C124.119 225.815 124.403 225.252 124.839 224.718C125.235 224.233 125.559 223.697 125.559 223.526C125.559 223.356 125.63 223.217 125.715 223.217C125.801 223.217 126.162 222.704 126.517 222.078C127.38 220.557 127.731 219.961 128.219 219.189C128.445 218.833 128.729 218.384 128.849 218.193C128.97 218.001 129.495 217.138 130.015 216.275C130.535 215.411 131.081 214.534 131.23 214.325C131.378 214.117 131.499 213.82 131.499 213.666C131.499 213.512 131.564 213.387 131.643 213.387C131.818 213.387 133.839 210.146 133.839 209.865C133.839 209.755 134.001 209.531 134.199 209.366C134.397 209.202 134.559 208.977 134.559 208.868C134.559 208.687 134.969 208.021 136.404 205.87C136.677 205.462 136.899 205.049 136.899 204.952C136.899 204.856 137.082 204.526 137.304 204.219C137.767 203.583 138.448 202.484 139.872 200.08C140.418 199.157 140.945 198.366 141.043 198.322C141.14 198.278 141.221 198.116 141.223 197.962C141.224 197.808 141.569 197.179 141.988 196.563C142.407 195.948 143.007 194.977 143.322 194.405C143.637 193.834 144.138 192.989 144.435 192.527C144.733 192.066 145.163 191.386 145.393 191.016C145.622 190.647 145.992 190.076 146.214 189.747C146.437 189.418 146.619 189.07 146.619 188.974C146.619 188.877 146.761 188.619 146.934 188.4C147.108 188.181 147.411 187.716 147.609 187.366C147.807 187.016 148.14 186.496 148.347 186.212C148.555 185.927 148.96 185.266 149.247 184.743C149.535 184.22 149.891 183.607 150.039 183.38C150.188 183.153 150.471 182.687 150.669 182.345C150.867 182.003 151.299 181.321 151.628 180.831C151.958 180.341 152.359 179.67 152.52 179.341C152.845 178.673 153.212 178.087 153.684 177.481C153.858 177.258 153.999 176.944 153.999 176.782C153.999 176.62 154.111 176.401 154.248 176.296C154.606 176.021 156.339 173.205 156.339 172.901C156.339 172.759 156.501 172.528 156.699 172.388C156.897 172.247 157.059 171.973 157.059 171.78C157.059 171.587 157.123 171.429 157.201 171.429C157.368 171.429 159.399 168.159 159.399 167.891C159.399 167.79 159.561 167.573 159.759 167.408C159.957 167.244 160.119 166.957 160.119 166.771C160.119 166.585 160.189 166.398 160.274 166.353C160.461 166.258 162.459 163.13 162.459 162.935C162.459 162.859 162.601 162.594 162.774 162.346C162.948 162.098 163.251 161.609 163.449 161.258C163.647 160.908 163.979 160.382 164.187 160.091C164.394 159.799 165.236 158.428 166.059 157.043C166.882 155.658 167.643 154.418 167.752 154.286C167.861 154.154 168.288 153.453 168.702 152.727C169.116 152.002 169.704 151.039 170.007 150.586L170.559 149.764L170.562 135.481C170.563 127.626 170.613 120.956 170.673 120.659C170.738 120.336 170.701 120.12 170.581 120.12C170.435 120.12 170.379 124.141 170.379 134.764ZM189.347 120.685C189.405 120.994 189.458 129.534 189.463 139.66L189.472 158.072L188.971 159.031C188.695 159.559 188.388 160.158 188.289 160.363C188.19 160.568 187.98 160.903 187.822 161.107C187.362 161.701 185.859 164.154 185.859 164.311C185.859 164.389 185.677 164.704 185.454 165.011C185.232 165.318 184.752 166.051 184.389 166.641C184.026 167.23 183.52 168.052 183.264 168.466C183.009 168.881 182.799 169.282 182.799 169.357C182.799 169.433 182.516 169.872 182.169 170.333C181.823 170.795 181.539 171.245 181.539 171.333C181.539 171.421 181.357 171.738 181.134 172.038C180.912 172.337 180.648 172.727 180.549 172.904C179.677 174.456 178.347 176.678 178.043 177.089C177.837 177.367 177.507 177.882 177.309 178.234C176.48 179.706 176.209 180.149 175.824 180.658C175.602 180.952 175.419 181.311 175.419 181.454C175.419 181.597 175.314 181.801 175.185 181.906C174.982 182.072 173.778 183.99 172.764 185.766C172.591 186.069 172.287 186.571 172.089 186.883C171.891 187.194 171.405 187.957 171.009 188.578C170.613 189.199 170.22 189.869 170.134 190.066C170.049 190.262 169.846 190.615 169.684 190.848C169.522 191.081 169.227 191.557 169.029 191.906C168.831 192.254 168.559 192.704 168.423 192.904C168.079 193.415 167.008 195.175 166.638 195.839C166.468 196.144 166.188 196.573 166.014 196.792C165.841 197.01 165.699 197.269 165.699 197.365C165.699 197.462 165.517 197.794 165.294 198.102C163.712 200.297 163.488 200.845 163.957 201.363C164.125 201.548 167.87 201.629 176.598 201.635C186.535 201.642 189.047 201.706 189.235 201.956C189.424 202.208 189.468 207.069 189.462 227.377C189.457 244.452 189.515 252.637 189.643 252.957C189.829 253.419 190.176 253.427 212.956 253.427C237.829 253.427 236.761 253.373 235.719 254.561C235.521 254.787 235.359 255.083 235.359 255.221C235.359 255.357 235.197 255.604 234.999 255.768C234.801 255.933 234.639 256.17 234.639 256.295C234.639 256.419 234.457 256.772 234.234 257.079C234.012 257.386 233.505 258.164 233.109 258.808C232.713 259.452 232.268 260.152 232.119 260.363C231.971 260.574 231.705 261.045 231.527 261.409C231.35 261.773 231.006 262.364 230.763 262.723C230.519 263.083 229.905 264.078 229.397 264.935C228.889 265.792 228.363 266.58 228.227 266.685C228.091 266.791 227.979 266.994 227.979 267.137C227.979 267.281 227.797 267.638 227.574 267.931C227.352 268.224 227.024 268.722 226.846 269.037C225.495 271.433 225.213 271.888 225.075 271.888C224.99 271.888 224.919 272.014 224.919 272.167C224.919 272.321 224.793 272.618 224.64 272.827C223.729 274.065 222.584 275.88 222.582 276.09C222.581 276.226 222.438 276.516 222.264 276.735C222.091 276.954 221.787 277.419 221.589 277.769C221.391 278.119 221.059 278.639 220.852 278.923C220.644 279.207 220.239 279.869 219.952 280.392C219.664 280.915 219.308 281.522 219.159 281.742C219.011 281.961 218.727 282.427 218.529 282.778C218.331 283.129 218.041 283.6 217.885 283.826C217.027 285.061 215.199 288.177 215.199 288.406C215.199 288.551 215.135 288.671 215.055 288.671C214.88 288.671 212.859 291.912 212.859 292.193C212.859 292.302 212.697 292.527 212.499 292.692C212.301 292.856 212.139 293.152 212.139 293.348C212.139 293.546 212.076 293.706 211.998 293.706C211.831 293.706 209.799 296.975 209.799 297.244C209.799 297.345 209.637 297.562 209.439 297.726C209.241 297.891 209.079 298.127 209.079 298.252C209.079 298.376 208.868 298.779 208.61 299.148C208.352 299.518 207.529 300.845 206.781 302.098C206.034 303.351 205.232 304.623 205.001 304.925C204.769 305.227 204.577 305.55 204.574 305.644C204.571 305.737 204.247 306.295 203.854 306.885C203.461 307.473 203.139 308.086 203.139 308.247C203.139 308.408 202.977 308.607 202.779 308.691C202.581 308.775 202.419 308.974 202.419 309.134C202.419 309.293 202.278 309.602 202.104 309.821C201.931 310.038 201.587 310.563 201.339 310.986C201.092 311.409 200.707 312.026 200.484 312.356C200.262 312.687 200.079 313.041 200.079 313.142C200.079 313.244 199.755 313.795 199.359 314.366C198.962 314.937 198.489 315.62 198.306 315.884C198.124 316.148 197.743 316.795 197.459 317.323C197.175 317.85 196.818 318.466 196.666 318.692C196.514 318.918 196.227 319.381 196.029 319.722C195.831 320.063 195.507 320.594 195.309 320.901C195.111 321.209 194.747 321.812 194.499 322.241C194.252 322.671 193.908 323.194 193.734 323.403C193.561 323.612 193.419 323.917 193.419 324.081C193.419 324.245 193.257 324.494 193.059 324.635C192.861 324.776 192.699 325.045 192.699 325.231C192.699 325.418 192.585 325.657 192.446 325.762C192.306 325.868 191.781 326.655 191.279 327.512C190.777 328.37 190.182 329.315 189.958 329.615C189.551 330.157 189.549 330.184 189.504 338.606C189.479 343.252 189.439 349.939 189.414 353.467C189.379 358.529 189.418 359.881 189.598 359.88C189.781 359.88 189.826 357.017 189.819 345.674C189.815 337.861 189.813 331.234 189.815 330.946C189.818 330.659 189.939 330.264 190.086 330.07C190.232 329.874 190.754 329.03 191.245 328.194C191.737 327.358 192.31 326.404 192.519 326.074C193.05 325.238 205.29 305.095 210.574 296.365C211.484 294.86 212.432 293.338 212.679 292.983C212.927 292.629 213.251 292.091 213.399 291.788C213.548 291.485 214.358 290.138 215.199 288.794C216.041 287.449 216.932 285.992 217.179 285.555C217.931 284.228 218.515 283.261 218.799 282.873C218.948 282.67 219.312 282.091 219.609 281.586C220.186 280.606 221.147 279.028 221.646 278.242C221.898 277.845 222.696 276.523 223.893 274.523C224.012 274.323 224.641 273.298 225.291 272.245C226.465 270.34 228.071 267.696 232.64 260.14C233.956 257.964 235.288 255.808 235.601 255.348C236.304 254.315 236.646 253.477 236.436 253.304C236.348 253.232 225.955 253.177 213.34 253.183C200.724 253.189 190.271 253.127 190.111 253.045C189.845 252.909 189.819 250.68 189.817 227.447C189.815 211.827 189.748 201.859 189.643 201.638C189.495 201.325 187.863 201.272 177.024 201.224C162.577 201.16 163.491 201.342 165.107 198.851C166.334 196.958 166.514 196.667 166.881 195.982C167.072 195.625 167.351 195.156 167.499 194.942C167.648 194.728 168.174 193.876 168.669 193.05C169.164 192.222 169.798 191.2 170.077 190.778C170.356 190.356 170.923 189.417 171.337 188.691C171.751 187.966 172.179 187.265 172.289 187.133C172.399 187.001 173.822 184.681 175.452 181.978C178.581 176.787 182.289 170.672 186.478 163.797C187.87 161.511 189.192 159.303 189.414 158.889L189.819 158.136V139.127C189.819 121.822 189.793 120.12 189.53 120.12C189.316 120.12 189.268 120.267 189.347 120.685Z" fill="#FCBCA4"/>
<path fill-rule="evenodd" clip-rule="evenodd" d="M170.243 134.558L170.199 149.116L167.274 153.953C165.666 156.613 164.13 159.179 163.862 159.655C163.593 160.13 163.261 160.681 163.123 160.879C162.985 161.077 161.469 163.558 159.755 166.394C158.04 169.229 156.532 171.71 156.402 171.908C155.604 173.125 155.29 173.628 154.894 174.321C154.331 175.307 153.617 176.503 153.322 176.954C152.702 177.902 152.249 178.634 151.839 179.346C151.592 179.776 151.268 180.306 151.119 180.522C150.971 180.738 150.616 181.37 150.33 181.926C150.044 182.482 149.76 182.937 149.698 182.937C149.636 182.937 149.181 183.65 148.687 184.521C148.194 185.393 147.607 186.349 147.384 186.647C147.162 186.945 146.979 187.305 146.979 187.448C146.979 187.591 146.869 187.795 146.733 187.9C146.528 188.061 144.748 190.932 143.601 192.957C143.429 193.258 143.162 193.69 143.006 193.916C142.849 194.141 142.301 195.027 141.787 195.884C141.274 196.741 140.747 197.604 140.617 197.802C140.487 198 138.652 201.021 136.538 204.515C134.424 208.01 132.585 211.031 132.452 211.229C132.319 211.427 131.238 213.207 130.049 215.185C128.86 217.163 127.647 219.129 127.353 219.554C127.06 219.979 126.819 220.432 126.819 220.561C126.819 220.69 126.718 220.882 126.594 220.987C126.47 221.093 126.004 221.818 125.559 222.598C125.114 223.379 124.546 224.296 124.297 224.636C123.618 225.564 123.18 226.57 123.29 226.952C123.373 227.241 126.799 227.3 146.749 227.352L170.109 227.413L170.154 253.067C170.196 277.189 170.218 278.74 170.514 279.032C170.766 279.281 173.324 279.336 183.249 279.307C190.08 279.287 195.653 279.363 195.633 279.475C195.58 279.779 195.084 280.623 194.207 281.901C193.778 282.526 193.426 283.163 193.424 283.317C193.421 283.47 193.347 283.632 193.259 283.677C193.171 283.72 192.483 284.781 191.73 286.034C190.976 287.287 190.252 288.474 190.12 288.671C189.988 288.869 187.457 293.023 184.495 297.902C181.533 302.781 179.002 306.935 178.871 307.133C178.74 307.331 178.224 308.194 177.724 309.051C177.224 309.908 176.705 310.771 176.57 310.969C176.435 311.167 175.998 311.868 175.599 312.527C175.2 313.187 174.672 314.016 174.426 314.37C174.181 314.724 173.979 315.125 173.979 315.261C173.979 315.397 173.817 315.623 173.619 315.764C173.421 315.905 173.259 316.155 173.259 316.319C173.259 316.483 173.118 316.787 172.944 316.995C172.623 317.382 172.554 317.492 171.459 319.357C171.113 319.948 170.688 320.622 170.514 320.855C170.219 321.252 170.202 322.478 170.242 340.639L170.285 360L170.377 340.659C170.469 321.388 170.471 321.315 170.85 320.758C171.059 320.451 171.36 319.984 171.517 319.72C171.674 319.457 172.381 318.27 173.088 317.083C173.796 315.896 174.43 314.871 174.497 314.805C174.564 314.739 174.896 314.2 175.234 313.606C175.573 313.013 175.976 312.343 176.13 312.117C176.283 311.892 176.571 311.42 176.769 311.07C176.967 310.719 177.263 310.24 177.426 310.005C177.59 309.77 178.151 308.839 178.674 307.936C179.196 307.033 179.675 306.24 179.736 306.174C179.887 306.013 181.517 303.35 182.079 302.346C182.327 301.904 182.644 301.388 182.784 301.199C182.923 301.011 183.588 299.921 184.261 298.78C184.933 297.638 185.599 296.541 185.74 296.344C185.881 296.146 186.481 295.175 187.075 294.186C188.638 291.58 193.692 283.265 194.924 281.27C196.561 278.62 197.669 278.854 183.121 278.783L170.469 278.721L170.424 253.078C170.398 238.974 170.312 227.347 170.232 227.24C170.152 227.133 159.723 227.046 147.058 227.047C134.392 227.047 123.926 226.959 123.799 226.852C123.466 226.569 123.718 225.848 124.621 224.494C125.045 223.857 125.776 222.689 126.244 221.898C126.713 221.107 127.257 220.202 127.453 219.889C128.48 218.244 129.114 217.216 129.519 216.541C129.767 216.128 130.272 215.33 130.642 214.768C131.012 214.206 131.315 213.673 131.317 213.584C131.318 213.494 131.439 213.261 131.586 213.067C131.732 212.871 132.26 212.027 132.757 211.191C133.255 210.355 133.809 209.455 133.987 209.191C134.165 208.927 135.355 206.985 136.63 204.875C137.906 202.765 139.801 199.636 140.841 197.922C141.881 196.208 145.284 190.597 148.403 185.455C151.521 180.312 154.128 176.05 154.194 175.984C154.261 175.918 154.62 175.331 154.993 174.679C155.776 173.309 155.91 173.087 156.519 172.148C156.767 171.767 157.053 171.314 157.154 171.142C157.256 170.97 157.621 170.351 157.964 169.766C158.308 169.181 158.711 168.523 158.859 168.303C159.008 168.084 159.251 167.697 159.399 167.445C159.548 167.192 160.034 166.403 160.479 165.691C160.925 164.978 161.451 164.1 161.649 163.741C162.036 163.039 165.17 157.88 165.573 157.283C165.706 157.085 166.842 155.231 168.098 153.163L170.382 149.404L170.334 134.701L170.287 120L170.243 134.558ZM189.864 139.068L189.819 158.136L189.414 158.889C189.192 159.303 187.87 161.511 186.478 163.797C182.289 170.672 178.581 176.787 175.452 181.978C173.822 184.681 172.4 187.001 172.289 187.133C172.179 187.265 171.751 187.966 171.337 188.691C170.923 189.417 170.356 190.356 170.077 190.778C169.798 191.2 169.164 192.222 168.669 193.05C168.174 193.876 167.648 194.728 167.499 194.942C167.351 195.156 167.072 195.625 166.881 195.982C166.514 196.667 166.334 196.958 165.107 198.851C163.491 201.342 162.577 201.16 177.024 201.224C187.863 201.272 189.495 201.325 189.643 201.638C189.748 201.859 189.815 211.827 189.817 227.447C189.819 250.68 189.845 252.909 190.111 253.045C190.271 253.127 200.724 253.189 213.34 253.183C225.955 253.177 236.348 253.232 236.436 253.304C236.646 253.477 236.304 254.315 235.601 255.348C235.288 255.808 233.956 257.964 232.64 260.14C228.071 267.696 226.465 270.34 225.291 272.245C224.641 273.298 224.012 274.323 223.893 274.523C222.696 276.523 221.898 277.845 221.646 278.242C221.147 279.028 220.186 280.606 219.609 281.586C219.312 282.091 218.948 282.67 218.799 282.873C218.516 283.261 217.931 284.228 217.179 285.555C216.932 285.992 216.041 287.449 215.199 288.794C214.358 290.138 213.548 291.486 213.399 291.788C213.251 292.091 212.927 292.629 212.679 292.983C212.432 293.338 211.484 294.86 210.574 296.365C209.663 297.87 205.544 304.657 201.42 311.449C197.296 318.24 193.707 324.156 193.446 324.596C193.184 325.035 192.767 325.7 192.519 326.073C192.272 326.446 191.664 327.461 191.169 328.328C190.674 329.196 190.212 329.906 190.143 329.908C189.792 329.914 189.737 332.621 189.822 345.734L189.915 360L189.957 345.275C189.994 332.654 190.038 330.496 190.266 330.17C190.764 329.461 191.36 328.516 191.805 327.731C192.05 327.3 192.432 326.681 192.654 326.356C192.877 326.03 193.059 325.696 193.059 325.612C193.059 325.529 193.329 325.086 193.658 324.628C193.986 324.171 194.683 323.057 195.206 322.154C195.728 321.251 196.313 320.28 196.506 319.996C197.116 319.097 197.3 318.8 198.296 317.088C198.831 316.168 199.391 315.231 199.539 315.007C200.013 314.292 200.329 313.781 201.213 312.298C201.688 311.501 202.214 310.633 202.383 310.37C202.551 310.106 203.399 308.703 204.267 307.253C205.134 305.802 205.992 304.4 206.171 304.136C206.351 303.872 207.014 302.793 207.644 301.738C208.274 300.683 209.446 298.741 210.248 297.423C211.05 296.104 212.751 293.299 214.027 291.189C216.442 287.196 216.594 286.948 217.126 286.145C217.304 285.877 217.79 285.068 218.205 284.347C218.621 283.627 219.21 282.659 219.513 282.198C219.816 281.736 220.171 281.197 220.3 280.999C220.43 280.801 220.772 280.208 221.059 279.68C221.347 279.153 221.746 278.489 221.946 278.205C222.146 277.92 222.393 277.542 222.495 277.365C222.693 277.02 224.711 273.641 225.009 273.153C225.108 272.992 225.351 272.582 225.549 272.244C225.747 271.905 226.112 271.317 226.359 270.937C226.607 270.557 226.89 270.103 226.989 269.926C227.154 269.634 228.035 268.195 228.571 267.345C228.691 267.154 229.375 266.021 230.092 264.828C230.808 263.634 231.491 262.506 231.609 262.322C231.827 261.981 236.534 254.257 236.831 253.751C237.46 252.682 237.903 252.701 213.25 252.71L190.089 252.718L190.044 227.142C190.011 208.726 189.941 201.475 189.797 201.242C189.631 200.977 187.375 200.919 177.212 200.919C170.402 200.919 164.705 200.856 164.553 200.778C164.343 200.671 164.597 200.127 165.624 198.482C166.365 197.297 167.07 196.165 167.19 195.969C167.311 195.771 167.531 195.426 167.679 195.2C167.828 194.974 168.178 194.386 168.456 193.894C168.735 193.401 169.14 192.735 169.356 192.414C169.573 192.094 169.911 191.552 170.109 191.211C170.307 190.87 170.595 190.406 170.749 190.18C170.902 189.955 171.457 189.031 171.981 188.128C172.951 186.456 173.25 185.964 173.889 184.985C174.087 184.682 174.452 184.09 174.699 183.668C174.947 183.247 175.311 182.656 175.509 182.354C175.707 182.053 175.991 181.561 176.139 181.261C176.288 180.96 176.542 180.541 176.703 180.327C176.961 179.987 178.242 177.87 179.155 176.274C179.328 175.973 179.602 175.541 179.763 175.315C179.925 175.09 180.468 174.204 180.972 173.347C181.475 172.49 181.997 171.626 182.132 171.429C182.267 171.231 184.093 168.243 186.19 164.789L190.002 158.51L189.954 139.255L189.907 120L189.864 139.068Z" fill="#FCA484"/>
<path fill-rule="evenodd" clip-rule="evenodd" d="M90 239.88V359.76H129.78C161.482 359.76 169.561 359.699 169.564 359.461C169.566 359.296 169.564 350.834 169.56 340.657C169.555 328.301 169.613 322.102 169.736 322.001C169.837 321.918 169.92 321.646 169.92 321.397C169.92 321.147 170.102 320.676 170.325 320.349C170.548 320.022 170.932 319.41 171.18 318.989C171.427 318.568 171.812 317.951 172.035 317.618C172.258 317.285 172.44 316.92 172.44 316.808C172.44 316.696 172.552 316.603 172.691 316.603C172.828 316.603 172.992 316.334 173.054 316.004C173.116 315.674 173.287 315.405 173.434 315.405C173.58 315.405 173.7 315.267 173.7 315.098C173.7 314.829 174.208 313.945 175.052 312.747C175.199 312.538 175.32 312.283 175.32 312.18C175.32 312.076 175.624 311.59 175.995 311.099C176.665 310.213 176.783 310.009 177.502 308.511C177.707 308.083 177.951 307.732 178.042 307.732C178.134 307.732 178.286 307.463 178.38 307.133C178.474 306.803 178.675 306.533 178.825 306.533C178.977 306.533 179.1 306.385 179.1 306.204C179.1 306.023 179.39 305.456 179.745 304.945C180.099 304.434 180.501 303.732 180.638 303.385C180.775 303.039 181.011 302.692 181.163 302.614C181.315 302.536 181.44 302.307 181.44 302.106C181.44 301.904 181.552 301.738 181.691 301.738C181.828 301.738 181.992 301.469 182.054 301.139C182.116 300.809 182.287 300.539 182.434 300.539C182.58 300.539 182.7 300.447 182.7 300.333C182.7 300.219 182.944 299.706 183.243 299.194C183.541 298.681 183.926 298.017 184.098 297.717C184.27 297.418 184.714 296.734 185.085 296.199C185.456 295.664 185.76 295.13 185.76 295.014C185.76 294.897 185.922 294.686 186.12 294.545C186.318 294.405 186.481 294.158 186.482 293.998C186.483 293.838 186.848 293.181 187.292 292.539C187.736 291.897 188.1 291.278 188.1 291.162C188.1 291.047 188.262 290.818 188.46 290.654C188.658 290.489 188.82 290.222 188.82 290.061C188.82 289.899 188.982 289.651 189.18 289.51C189.378 289.37 189.54 289.115 189.54 288.946C189.54 288.776 189.722 288.409 189.945 288.13C190.168 287.851 190.512 287.33 190.71 286.974C190.908 286.618 191.252 286.086 191.475 285.793C191.698 285.5 191.88 285.141 191.88 284.996C191.88 284.851 192.042 284.616 192.24 284.476C192.438 284.335 192.6 284.061 192.6 283.868C192.6 283.675 192.67 283.516 192.756 283.516C192.842 283.516 193.117 283.105 193.366 282.603C193.616 282.101 194.072 281.372 194.38 280.985C194.688 280.598 194.94 280.185 194.94 280.067C194.94 279.949 195.063 279.733 195.213 279.587C195.415 279.391 192.142 279.321 182.803 279.321C172.636 279.321 170.072 279.259 169.884 279.009C169.595 278.624 169.439 230.139 169.723 229.053C169.816 228.696 169.849 228.181 169.795 227.908L169.698 227.413H146.893C127.561 227.413 124.036 227.464 123.742 227.751C122.937 228.535 122.35 226.76 123.089 225.776C123.269 225.535 123.47 225.158 123.533 224.936C123.597 224.716 123.773 224.535 123.924 224.535C124.076 224.535 124.2 224.398 124.2 224.229C124.2 223.962 124.467 223.493 125.523 221.898C125.654 221.7 125.813 221.35 125.875 221.119C125.937 220.888 126.113 220.699 126.264 220.699C126.416 220.699 126.54 220.543 126.54 220.353C126.54 220.163 126.682 219.864 126.855 219.691C127.028 219.516 127.273 219.159 127.399 218.898C127.525 218.636 127.796 218.071 128.002 217.642C128.207 217.214 128.451 216.863 128.543 216.863C128.636 216.863 128.765 216.674 128.83 216.444C128.896 216.213 129.237 215.628 129.59 215.143C129.942 214.659 130.432 213.867 130.68 213.382C130.927 212.897 131.312 212.277 131.535 212.001C131.758 211.727 131.94 211.385 131.94 211.243C131.94 211.101 132.102 210.85 132.3 210.685C132.498 210.52 132.66 210.225 132.66 210.028C132.66 209.831 132.781 209.67 132.93 209.67C133.078 209.67 133.2 209.568 133.2 209.443C133.2 209.318 133.382 208.942 133.605 208.608C133.828 208.274 134.283 207.513 134.616 206.917C134.949 206.321 135.293 205.834 135.381 205.834C135.468 205.834 135.54 205.703 135.54 205.543C135.54 205.383 135.698 205.032 135.891 204.764C136.649 203.712 136.98 203.191 136.98 203.049C136.98 202.866 137.849 201.458 138.691 200.277C139.037 199.793 139.32 199.284 139.32 199.147C139.32 199.01 139.482 198.782 139.68 198.641C139.878 198.5 140.04 198.258 140.04 198.102C140.04 197.946 140.2 197.6 140.396 197.331C141.214 196.212 141.66 195.435 141.66 195.13C141.66 194.951 141.783 194.805 141.935 194.805C142.085 194.805 142.282 194.55 142.371 194.239C142.46 193.927 142.66 193.606 142.816 193.527C142.972 193.447 143.1 193.27 143.1 193.135C143.1 192.999 143.242 192.673 143.415 192.411C143.588 192.149 143.909 191.636 144.128 191.272C144.994 189.83 145.367 189.225 145.755 188.637C145.978 188.299 146.16 187.929 146.16 187.817C146.16 187.705 146.281 187.612 146.43 187.612C146.578 187.612 146.7 187.478 146.7 187.313C146.7 187.038 147.096 186.324 147.93 185.095C148.109 184.831 148.308 184.427 148.372 184.196C148.437 183.965 148.574 183.776 148.679 183.776C148.783 183.776 148.946 183.506 149.04 183.177C149.134 182.847 149.335 182.577 149.485 182.577C149.637 182.577 149.761 182.443 149.762 182.278C149.765 181.95 150.337 180.905 150.975 180.061C151.198 179.766 151.38 179.407 151.38 179.262C151.38 179.116 151.542 178.882 151.74 178.741C151.938 178.6 152.1 178.352 152.1 178.191C152.1 178.03 152.262 177.763 152.46 177.598C152.658 177.433 152.82 177.197 152.82 177.072C152.82 176.866 153.009 176.552 154.051 175.025C154.231 174.761 154.43 174.357 154.493 174.126C154.557 173.895 154.687 173.706 154.782 173.706C154.878 173.706 155.007 173.491 155.07 173.227C155.133 172.963 155.3 172.747 155.442 172.747C155.584 172.747 155.7 172.605 155.7 172.431C155.7 172.257 155.882 171.89 156.105 171.615C156.328 171.34 156.712 170.724 156.96 170.247C157.207 169.77 157.592 169.106 157.815 168.773C158.038 168.44 158.22 168.065 158.22 167.939C158.22 167.815 158.341 167.712 158.49 167.712C158.638 167.712 158.76 167.552 158.76 167.354C158.76 167.158 158.922 166.862 159.12 166.697C159.318 166.533 159.48 166.304 159.48 166.189C159.48 165.955 160.128 164.864 161.145 163.382C161.516 162.841 161.82 162.253 161.82 162.074C161.82 161.896 161.982 161.682 162.18 161.598C162.378 161.514 162.54 161.298 162.54 161.116C162.54 160.935 162.689 160.645 162.872 160.473C163.054 160.301 163.309 159.89 163.438 159.56C163.567 159.231 163.782 158.875 163.916 158.769C164.05 158.664 164.16 158.421 164.16 158.23C164.16 158.039 164.283 157.882 164.434 157.882C164.585 157.882 164.782 157.627 164.871 157.316C164.96 157.004 165.16 156.683 165.316 156.604C165.472 156.524 165.6 156.33 165.6 156.171C165.6 156.014 165.719 155.713 165.865 155.505C166.587 154.472 167.22 153.355 167.22 153.115C167.22 152.968 167.328 152.847 167.461 152.847C167.593 152.847 167.795 152.577 167.907 152.248C168.02 151.918 168.195 151.648 168.296 151.648C168.397 151.648 168.48 151.49 168.48 151.297C168.48 151.104 168.622 150.843 168.795 150.716C169.356 150.307 170.021 148.322 169.773 147.794C169.615 147.457 169.56 143.794 169.56 133.669V120H129.78H90V239.88ZM190.078 139.121C190.075 158.466 190.055 159.321 189.609 159.321C189.472 159.321 189.36 159.436 189.36 159.578C189.36 159.858 187.428 162.986 187.175 163.117C187.09 163.161 187.02 163.349 187.02 163.534C187.02 163.72 186.858 164.007 186.66 164.172C186.462 164.336 186.3 164.576 186.3 164.704C186.3 164.833 186.137 165.158 185.937 165.426C185.737 165.695 185.163 166.615 184.661 167.473C184.158 168.33 183.633 169.117 183.494 169.223C183.354 169.328 183.24 169.567 183.24 169.754C183.24 169.94 183.078 170.209 182.88 170.35C182.682 170.491 182.52 170.733 182.52 170.889C182.52 171.152 182.384 171.372 181.305 172.847C181.082 173.152 180.9 173.52 180.9 173.666C180.9 173.811 180.738 174.045 180.54 174.186C180.342 174.327 180.18 174.577 180.18 174.74C180.18 174.904 180.038 175.214 179.865 175.428C179.532 175.84 178.887 176.857 178.29 177.912C178.092 178.262 177.768 178.808 177.57 179.127C177.372 179.445 177.048 179.979 176.85 180.313C176.652 180.648 176.328 181.166 176.13 181.465C175.932 181.764 175.608 182.312 175.41 182.685C175.212 183.057 174.825 183.697 174.55 184.108C173.636 185.474 173.579 185.572 173.465 185.994C173.403 186.225 173.227 186.414 173.076 186.414C172.924 186.414 172.799 186.548 172.798 186.713C172.795 187.041 172.223 188.086 171.585 188.93C171.362 189.225 171.18 189.584 171.18 189.729C171.18 189.875 171.018 190.109 170.82 190.25C170.622 190.391 170.46 190.657 170.46 190.841C170.46 191.026 170.298 191.245 170.1 191.329C169.902 191.413 169.74 191.591 169.74 191.727C169.74 192.009 169.117 193.15 168.525 193.952C168.302 194.254 168.12 194.583 168.12 194.685C168.12 194.785 167.836 195.225 167.49 195.66C167.143 196.095 166.86 196.519 166.86 196.602C166.86 196.814 165.799 198.574 165.105 199.512C164.783 199.947 164.52 200.361 164.52 200.432C164.52 200.502 170.271 200.559 177.3 200.559H190.08V226.513V252.468L212.985 252.406C229.779 252.361 236.026 252.271 236.402 252.068C237.221 251.625 237.604 253.056 236.909 253.956C236.727 254.193 236.527 254.574 236.465 254.805C236.402 255.036 236.227 255.225 236.076 255.225C235.924 255.225 235.8 255.39 235.8 255.592C235.8 255.794 235.675 256.023 235.523 256.1C235.371 256.178 235.135 256.525 234.998 256.872C234.861 257.219 234.459 257.921 234.105 258.432C233.75 258.943 233.46 259.454 233.46 259.569C233.46 259.683 233.298 259.911 233.1 260.076C232.902 260.241 232.74 260.507 232.74 260.669C232.74 260.83 232.578 261.078 232.38 261.219C232.182 261.36 232.02 261.584 232.02 261.717C232.02 261.851 231.817 262.229 231.57 262.559C231.322 262.889 231.12 263.24 231.12 263.339C231.12 263.438 230.796 263.969 230.4 264.518C230.004 265.067 229.68 265.624 229.68 265.756C229.68 265.889 229.518 266.113 229.32 266.254C229.122 266.395 228.96 266.672 228.96 266.869C228.96 267.067 228.835 267.291 228.683 267.369C228.531 267.447 228.293 267.794 228.154 268.141C228.015 268.488 227.614 269.203 227.263 269.73C226.079 271.507 225.9 271.808 225.9 272.028C225.9 272.149 225.778 272.248 225.63 272.248C225.481 272.248 225.36 272.386 225.36 272.554C225.36 272.722 225.137 273.204 224.865 273.625C224.593 274.045 224.208 274.675 224.01 275.024C223.812 275.373 223.508 275.833 223.335 276.044C223.162 276.257 223.02 276.561 223.02 276.72C223.02 276.88 222.858 277.079 222.66 277.163C222.462 277.247 222.3 277.422 222.3 277.552C222.3 277.838 221.223 279.72 220.905 279.992C220.781 280.098 220.68 280.343 220.68 280.539C220.68 280.734 220.552 280.959 220.396 281.039C220.24 281.119 220.04 281.44 219.951 281.751C219.862 282.063 219.665 282.318 219.514 282.318C219.363 282.318 219.24 282.441 219.24 282.592C219.24 282.742 218.875 283.434 218.43 284.128C217.984 284.823 217.62 285.483 217.62 285.595C217.62 285.707 217.458 285.933 217.26 286.098C217.062 286.263 216.9 286.558 216.9 286.755C216.9 286.952 216.778 287.113 216.63 287.113C216.481 287.113 216.36 287.233 216.36 287.381C216.36 287.64 215.645 288.876 214.915 289.879C214.72 290.147 214.56 290.447 214.56 290.546C214.56 290.645 214.276 291.103 213.93 291.565C213.583 292.026 213.3 292.507 213.3 292.633C213.3 292.76 213.138 292.998 212.94 293.163C212.742 293.327 212.58 293.579 212.58 293.722C212.58 293.865 212.377 294.236 212.13 294.545C211.882 294.855 211.68 295.21 211.68 295.335C211.68 295.459 211.356 295.979 210.96 296.491C210.564 297.003 210.24 297.526 210.24 297.653C210.24 297.781 210.078 298.001 209.88 298.142C209.682 298.283 209.52 298.551 209.52 298.736C209.52 298.922 209.377 299.215 209.202 299.387C209.027 299.559 208.75 299.98 208.586 300.322C208.422 300.664 208.039 301.276 207.734 301.683C207.429 302.088 207.18 302.501 207.18 302.599C207.18 302.697 207.057 302.948 206.907 303.156C206.757 303.366 206.194 304.267 205.656 305.16C205.119 306.052 204.573 306.94 204.444 307.132C204.315 307.323 204.048 307.763 203.85 308.109C203.652 308.455 203.308 309.013 203.085 309.349C202.862 309.685 202.679 310.026 202.678 310.105C202.676 310.184 202.352 310.713 201.958 311.279C201.563 311.845 201.24 312.415 201.24 312.545C201.24 312.676 201.112 312.848 200.956 312.927C200.8 313.007 200.6 313.328 200.511 313.639C200.422 313.951 200.225 314.206 200.074 314.206C199.923 314.206 199.8 314.359 199.8 314.545C199.8 314.889 199.323 315.744 198.585 316.721C198.362 317.016 198.18 317.384 198.18 317.537C198.18 317.691 198.052 317.883 197.896 317.962C197.74 318.042 197.54 318.363 197.451 318.674C197.362 318.986 197.165 319.241 197.014 319.241C196.863 319.241 196.74 319.359 196.74 319.503C196.74 319.799 196.13 320.925 195.525 321.744C195.302 322.046 195.12 322.412 195.12 322.557C195.12 322.702 194.958 322.936 194.76 323.077C194.562 323.218 194.4 323.438 194.4 323.565C194.4 323.692 194.258 323.996 194.085 324.241C193.912 324.486 193.568 325.033 193.32 325.457C192.891 326.193 192.331 327.092 191.816 327.872C191.685 328.07 191.527 328.421 191.465 328.651C191.403 328.882 191.227 329.071 191.076 329.071C190.924 329.071 190.8 329.234 190.8 329.433C190.8 329.632 190.638 329.98 190.44 330.206C190.087 330.608 190.08 330.913 190.08 345.188V359.76H230.04H270V239.88V120H230.04H190.08L190.078 139.121Z" fill="#FC6333"/>
<defs>
<linearGradient id="paint0_linear_493_2116" x1="180" y1="0" x2="180" y2="480" gradientUnits="userSpaceOnUse">
<stop stop-color="#080505"/>
<stop offset="1" stop-color="#080505" stop-opacity="0"/>
</linearGradient>
</defs>
</svg>
