<svg width="360" height="480" viewBox="0 0 360 480" fill="none" xmlns="http://www.w3.org/2000/svg">
<rect width="360" height="480" rx="8" fill="url(#paint0_linear_493_2086)"/>
<path d="M182.2 311.847C182.108 311.752 182.016 311.657 182.016 311.561C181.925 311.466 181.925 311.466 181.833 311.371C181.741 311.371 181.741 311.275 181.65 311.275C181.558 311.18 181.466 311.18 181.375 311.085C181.283 311.085 181.191 310.989 181.1 310.989C181.008 310.989 180.916 310.894 180.916 310.894C180.825 310.894 180.733 310.894 180.642 310.798C180.55 310.798 180.458 310.798 180.367 310.798C180.275 310.798 180.183 310.798 180.092 310.798C180 310.798 179.908 310.798 179.817 310.798C179.725 310.798 179.633 310.798 179.542 310.798C179.45 310.798 179.358 310.798 179.267 310.894C179.175 310.894 179.083 310.989 179.083 310.989C178.992 310.989 178.9 311.085 178.809 311.085C178.717 311.085 178.625 311.18 178.534 311.275C178.442 311.275 178.442 311.371 178.35 311.371C178.259 311.466 178.259 311.466 178.167 311.561C178.075 311.657 177.984 311.752 177.984 311.752L170.56 321.382C169.644 322.622 169.827 324.338 171.018 325.292C171.477 325.673 172.118 325.864 172.668 325.864C173.493 325.864 174.226 325.483 174.776 324.815L174.868 324.72C177.617 321.192 182.75 321.192 185.407 324.72L185.499 324.815C186.049 325.483 186.782 325.864 187.607 325.864C188.157 325.864 188.798 325.673 189.257 325.292C190.448 324.338 190.631 322.527 189.715 321.382L182.2 311.847Z" fill="black"/>
<path d="M169.827 148.987C166.069 148.987 162.953 152.038 162.77 155.947L148.747 161.287C148.014 161.573 147.464 162.241 147.464 163.099V172.348H136.191C135.367 169.201 132.709 166.913 129.409 166.913C125.56 166.913 122.352 170.155 122.352 174.255C122.352 178.26 125.468 181.597 129.409 181.597C132.709 181.597 135.367 179.309 136.191 176.162H149.297C150.305 176.162 151.13 175.304 151.13 174.255V164.434L163.503 159.666C164.694 162.05 167.077 163.671 169.735 163.671C173.584 163.671 176.792 160.429 176.792 156.329C176.884 152.324 173.676 148.987 169.827 148.987Z" fill="black"/>
<path d="M154.979 285.53C152.688 284.672 150.489 283.814 148.381 282.861C146.823 282.098 145.264 281.335 143.798 280.572C147.281 284.196 155.713 290.679 164.786 290.87C165.336 290.203 165.794 289.535 166.161 288.677C164.786 288.391 163.411 288.105 162.036 287.724C159.562 287.056 157.271 286.389 154.979 285.53Z" fill="#9D9D9C"/>
<path d="M270 218.975C270 214.493 269.725 210.012 269.084 205.721C269.084 205.435 268.992 205.149 268.992 204.863C263.401 167.008 235.815 135.924 199.521 127.628C198.605 123.337 194.939 120.095 190.54 120.095C185.407 120.095 181.283 124.386 181.283 129.726C181.283 134.303 184.399 138.117 188.523 139.07V174.255C188.523 174.827 188.798 175.399 189.257 175.781C189.532 175.971 189.898 176.067 190.265 176.067C190.448 176.067 190.723 176.067 190.906 175.971L204.47 170.632C205.387 172.062 206.762 173.016 208.411 173.492V190.083C201.538 198.856 193.014 206.77 183.941 213.826L173.585 188.844C175.509 187.509 176.792 185.316 176.792 182.741C176.792 178.737 173.676 175.399 169.735 175.399C165.886 175.399 162.678 178.641 162.678 182.741C162.678 186.746 165.794 190.083 169.735 190.083C169.827 190.083 170.01 190.083 170.102 190.083L180.916 216.114C174.593 220.882 168.086 225.173 161.67 229.082L130.876 219.452C130.509 219.356 130.143 219.356 129.776 219.547L120.611 223.266C119.328 221.454 117.312 220.31 114.929 220.31C111.079 220.31 107.872 223.552 107.872 227.652C107.872 231.657 110.988 234.994 114.929 234.994C118.778 234.994 121.986 231.752 121.986 227.652C121.986 227.366 121.894 227.08 121.894 226.794L130.509 223.266L157.363 231.657C134.45 245.006 113.921 252.729 110.53 253.969L108.88 254.541C107.413 253.397 105.58 252.729 103.564 252.729C103.472 252.729 103.381 252.729 103.289 252.729C98.9817 242.145 96.7821 230.608 96.7821 219.07C96.7821 213.349 97.332 207.723 98.3401 202.288H138.574C139.399 205.435 142.057 207.723 145.356 207.723C149.206 207.723 152.413 204.482 152.413 200.381C152.413 196.377 149.297 193.039 145.356 193.039C142.057 193.039 139.399 195.328 138.574 198.474H99.165C106.589 167.104 130.418 142.026 161.212 134.589C162.861 137.354 165.794 139.261 169.094 139.261C174.226 139.261 178.35 134.97 178.35 129.631C178.35 124.291 174.226 120 169.094 120C164.603 120 160.937 123.337 160.02 127.628C119.603 137.163 90 175.018 90 218.88C90 231.371 92.3829 243.862 97.057 255.304C95.3157 257.02 94.3075 259.499 94.3075 262.169C94.3075 266.46 96.9654 269.988 100.631 271.323V308.892C100.631 309.559 100.815 310.226 101.181 310.799L103.198 312.229L130.601 332.348V356.377C130.601 358.379 132.159 360 134.083 360H225.733C227.658 360 229.216 358.379 229.216 356.377V332.348L256.711 312.229L258.727 310.703C259.094 310.131 259.277 309.464 259.277 308.796V270.942C262.668 269.511 265.051 266.079 265.051 262.074C265.051 259.595 264.134 257.306 262.668 255.59C267.525 244.243 270 231.657 270 218.975V218.975ZM165.886 126.579C166.711 125.626 167.902 125.054 169.185 125.054C171.66 125.054 173.676 127.151 173.676 129.726C173.676 132.3 171.66 134.398 169.185 134.398C168.269 134.398 167.444 134.112 166.711 133.635C165.519 132.777 164.695 131.347 164.695 129.821C164.695 128.486 165.153 127.342 165.886 126.579V126.579ZM186.049 129.631C186.049 127.056 188.065 124.958 190.54 124.958C191.823 124.958 192.923 125.53 193.747 126.389C194.481 127.247 194.939 128.296 194.939 129.535C194.939 131.061 194.206 132.491 193.014 133.349C192.281 133.921 191.456 134.207 190.448 134.207C188.065 134.303 186.049 132.205 186.049 129.631V129.631ZM203.279 166.341C203.279 166.627 203.371 166.818 203.371 167.008L192.189 171.395V138.975C194.939 138.498 197.23 136.782 198.513 134.398C208.32 136.687 217.485 140.787 225.642 146.412C225.55 160.524 220.326 173.492 212.077 185.221V173.397C215.102 172.539 217.301 169.774 217.301 166.341C217.301 162.336 214.185 158.999 210.244 158.999C206.395 159.094 203.279 162.336 203.279 166.341V166.341ZM103.656 266.841C102.556 266.841 101.548 266.365 100.723 265.697C99.8065 264.839 99.165 263.6 99.165 262.265C99.165 261.692 99.2566 261.12 99.4399 260.644C100.081 258.927 101.731 257.688 103.564 257.688C104.389 257.688 105.122 257.974 105.764 258.355C107.047 259.118 107.963 260.644 107.963 262.36C107.963 263.218 107.688 263.981 107.322 264.648C106.68 265.983 105.305 266.841 103.656 266.841V266.841ZM259.46 265.03C258.635 266.079 257.352 266.841 255.978 266.841C254.695 266.841 253.595 266.269 252.77 265.411C252.037 264.553 251.578 263.504 251.578 262.265C251.578 260.262 252.77 258.546 254.511 257.974C254.969 257.783 255.519 257.688 256.069 257.688C258.177 257.688 260.01 259.309 260.468 261.406C260.56 261.692 260.56 261.979 260.56 262.36C260.377 263.313 260.01 264.267 259.46 265.03V265.03ZM256.711 252.634C256.436 252.634 256.161 252.634 255.886 252.634C250.754 252.634 246.629 256.925 246.629 262.265C246.629 266.365 249.104 269.893 252.678 271.228V306.317L223.809 327.485C222.892 328.153 222.342 329.297 222.342 330.441V350.656C222.342 351.8 221.426 352.753 220.326 352.753H209.603C208.503 352.753 207.587 351.8 207.587 350.656V343.409C207.587 341.502 206.303 339.785 204.47 339.595C202.363 339.404 200.621 341.12 200.621 343.218V350.751C200.621 351.895 199.705 352.849 198.605 352.849H185.499C184.399 352.849 183.483 351.895 183.483 350.751V339.595C183.483 337.688 182.2 335.971 180.367 335.781C178.259 335.59 176.517 337.306 176.517 339.404V350.846C176.517 351.99 175.601 352.944 174.501 352.944H161.395C160.295 352.944 159.379 351.99 159.379 350.846V343.409C159.379 341.502 158.096 339.785 156.263 339.595C154.155 339.404 152.413 341.12 152.413 343.218V350.751C152.413 351.895 151.497 352.849 150.397 352.849H139.674C138.574 352.849 137.658 351.895 137.658 350.751V330.536C137.658 329.392 137.108 328.248 136.191 327.58L107.413 306.412V270.942C110.621 269.416 112.821 266.079 112.821 262.169C112.821 261.597 112.729 261.025 112.637 260.453C116.303 259.118 144.257 248.725 171.752 230.894C208.961 206.77 229.582 179.404 231.965 151.275C248.004 164.72 259.094 184.172 262.301 206.007C261.843 253.778 181.833 283.242 181.008 283.528C180.825 283.623 180.367 283.719 180 283.909C178.992 283.719 177.984 283.528 176.884 283.337C176.151 283.147 175.326 283.051 174.593 282.861C173.401 282.67 172.21 282.384 171.018 282.098C170.835 282.002 170.56 282.002 170.377 282.002C169.919 281.907 169.46 281.812 169.002 281.716C168.452 281.621 167.902 281.43 167.352 281.335C166.069 281.049 164.786 280.763 163.595 280.381C161.303 279.809 159.104 279.142 156.904 278.57C154.796 277.902 152.597 277.33 150.58 276.663C150.489 276.663 150.489 276.663 150.397 276.663C148.839 276.186 147.373 275.709 145.906 275.137C145.448 274.946 144.898 274.756 144.44 274.66C143.707 274.374 143.065 274.184 142.424 273.993C141.232 273.611 140.132 273.23 139.124 272.753H139.033C137.383 272.181 135.916 271.609 134.633 271.037C133.259 270.465 132.067 269.988 131.151 269.607C130.234 269.13 129.409 268.844 128.951 268.558C128.401 268.272 128.126 268.176 128.126 268.176C128.126 268.176 128.31 268.462 128.676 268.844C129.043 269.321 129.593 269.988 130.418 270.751C131.151 271.514 132.159 272.467 133.35 273.421C134.542 274.374 135.916 275.423 137.383 276.472C137.383 276.472 137.383 276.472 137.475 276.472C136.925 278.379 136.558 280.477 136.558 282.575C136.558 293.54 145.173 302.503 155.713 302.503C163.87 302.503 170.835 297.163 173.585 289.631C174.501 289.726 175.509 289.821 176.426 289.917C178.075 290.012 179.633 290.012 181.1 290.012C181.191 290.012 181.283 290.107 181.375 290.107L196.864 306.508C200.804 310.608 206.945 311.275 211.528 308.129L235.723 294.017C237.831 292.586 239.206 290.107 239.206 287.437V258.451C248.554 250.727 256.986 241.573 262.485 231.18C261.477 238.713 259.552 245.864 256.711 252.634V252.634ZM166.161 288.677C165.794 289.44 165.244 290.203 164.786 290.87C162.587 293.54 159.287 295.256 155.621 295.256C151.955 295.256 148.656 293.54 146.456 290.87C144.623 288.677 143.615 285.816 143.615 282.765C143.615 282.002 143.707 281.335 143.798 280.572C145.265 281.335 146.823 282.098 148.381 282.861C150.489 283.814 152.688 284.768 154.98 285.53C157.271 286.389 159.654 287.056 162.037 287.723C163.411 288.105 164.786 288.391 166.161 288.677V288.677Z" fill="black"/>
<defs>
<linearGradient id="paint0_linear_493_2086" x1="180" y1="0" x2="180" y2="480" gradientUnits="userSpaceOnUse">
<stop stop-color="#080505"/>
<stop offset="1" stop-color="#080505" stop-opacity="0"/>
</linearGradient>
</defs>
</svg>
